<?xml version="1.0" encoding="iso-8859-1"?>
<!-- Generator: Adobe Illustrator 19.0.0, SVG Export Plug-In . SVG Version: 6.00 Build 0)  -->
<svg version="1.1" id="Layer_1" xmlns="http://www.w3.org/2000/svg" xmlns:xlink="http://www.w3.org/1999/xlink" x="0px" y="0px"
	 viewBox="3647.444 795.16 325.926 437.037" style="enable-background:new 3647.444 795.16 325.926 437.037;" xml:space="preserve">
<g>
	<g>
		<defs>
			<rect id="SVGID_1_" x="1973" y="-1346.12" width="5222.1" height="3285.4"/>
		</defs>
		<clipPath id="SVGID_2_">
			<use xlink:href="#SVGID_1_"  style="overflow:visible;"/>
		</clipPath>
		<path style="clip-path:url(#SVGID_2_);fill:#FFB512;" d="M3804.559,886.675c-1.1-0.1-0.8-0.2-2.2-0.1c-0.6,0.1-1.5-0.2-2.3,0.1
			c-0.6,0.2-1.3,0.7-2,1.1c-0.6,0.4-1.2,0.9-1.7,1.4s-0.8,1.2-1.3,1.8c-0.4,0.6-0.8,1.1-1.3,1.8c-0.4,0.6-0.9,1.2-1.2,1.9
			c-0.3,0.6-0.4,1.4-0.7,2.1c-0.3,0.7-0.6,1.3-0.9,2c-0.2,0.7-0.3,1.4-0.5,2.1c-0.2,0.7-0.6,1.4-0.8,2c-0.2,0.7-0.4,1.4-0.6,2.1
			c-0.2,0.7-0.1,1.5-0.3,2.1c-0.2,0.8-0.8,1.4-0.9,2c-0.2,0.8-0.3,1.6-0.4,2.1c-0.2,1.5,0.5,1.1-0.1,2c-0.7,0.9-0.5,0.6-1.7,1.1
			c-0.6,0.2-1.2,0.5-2,0.8c-0.6,0.2-1.4,0.1-2.1,0.4c-0.6,0.2-1.2,0.7-1.9,1c-0.7,0.2-1.5,0.2-2.1,0.4c-0.7,0.3-1.2,0.9-1.9,1.1
			c-0.7,0.3-1.4,0.4-2.1,0.7s-1.5,0.2-2.1,0.5c-0.7,0.3-1.3,0.8-1.9,1c-0.7,0.3-1.4,0.4-2.1,0.7s-1.3,0.7-1.9,1
			c-0.7,0.3-1.3,0.8-1.9,1.1c-0.8,0.4-1.5,0.6-2,0.9c-0.4,0.2-0.9,0.8-1.6,1.5c-0.4,0.5-0.9,1-1.5,1.7c-0.4,0.5-1.1,1-1.6,1.6
			c-0.4,0.6-0.5,1.4-0.9,2.1c-0.4,0.6-1.1,1-1.6,1.7c-0.4,0.6-0.9,1.2-1.3,1.9c-0.4,0.6-0.6,1.4-1,2c-0.4,0.6-0.6,1.4-1,2.1
			c-0.4,0.6-1.2,1.1-1.5,1.7c-0.4,0.6-0.3,1.6-0.6,2.2c-0.3,0.7-0.9,1.2-1.3,1.9c-0.3,0.7-0.6,1.4-0.9,2.1c-0.3,0.7-0.7,1.3-1,2
			s-0.5,1.4-0.9,2.1c-0.3,0.7-0.7,1.3-1,2s-0.7,1.3-1,2s-0.3,1.5-0.6,2.2c-0.3,0.7-0.7,1.3-0.9,2.1c-0.3,0.7-0.6,1.4-0.8,2.1
			c-0.3,0.7-0.8,1.3-1.1,2c-0.2,0.7-0.5,1.4-0.7,2.2c-0.2,0.7-0.5,1.4-0.8,2.1c-0.2,0.7,0,1.6-0.2,2.3s-0.3,1.5-0.5,2.2
			s-0.9,1.3-1.1,2s-0.2,1.5-0.4,2.2s-0.5,1.4-0.7,2.2c-0.2,0.7-0.4,1.4-0.6,2.2c-0.2,0.7,0.1,1.5-0.1,2.3c-0.1,0.7-0.3,1.5-0.4,2.2
			c-0.1,0.7-0.3,1.5-0.4,2.2c-0.1,0.7-0.3,1.5-0.5,2.2c-0.1,0.7-0.1,1.5-0.2,2.3c-0.1,0.7-0.3,1.5-0.4,2.2c-0.1,0.7-0.3,1.5-0.4,2.2
			c-0.1,0.7-0.4,1.5-0.5,2.2c-0.1,0.7,0.2,1.5,0.2,2.3c-0.1,0.7-0.3,1.5-0.3,2.2s0.1,1.5,0.1,2.3s0.1,1.5,0.1,2.3s-0.1,1.5-0.1,2.3
			s-0.3,1.5-0.3,2.3v2.3c0,0.8,0.1,1.5,0.1,2.3s0.3,1.5,0.4,2.2c0,0.7-0.1,1.5,0,2.3c0.1,0.7,0.5,1.5,0.6,2.2c0.1,0.7-0.1,1.5,0,2.3
			c0.1,0.7,0,1.5,0.1,2.3c0.1,0.7,0.3,1.5,0.4,2.2c0.1,0.7,0,1.5,0.2,2.3c0.1,0.7,0.7,1.4,0.8,2.1c0.1,0.7-0.1,1.5,0.1,2.3
			c0.1,0.7,0.3,1.5,0.4,2.2c0.1,0.7,0.5,1.4,0.7,2.2c0.1,0.7,0.3,1.5,0.5,2.2s0.4,1.5,0.5,2.2c0.2,0.7,0.3,1.5,0.4,2.2
			c0.2,0.7,0,1.6,0.1,2.3c0.2,0.7,0.8,1.4,1,2.1c0.2,0.7,0.3,1.5,0.5,2.2s0,1.6,0.2,2.3s0.6,1.4,0.8,2.1c0.2,0.7,0.4,1.5,0.6,2.2
			s0.7,1.4,1,2.1c0.2,0.7,0.2,1.5,0.4,2.2c0.3,0.7,0.7,1.4,1,2c0.3,0.7,0.6,1.4,0.9,2.1c0.3,0.7,0.6,1.4,0.9,2.1
			c0.3,0.7,0.7,1.3,1.1,2c0.3,0.7,0.8,1.3,1.1,1.9c0.4,0.7,0.5,1.5,0.9,2.1c0.4,0.6,1.2,1,1.6,1.6c0.4,0.6,0.7,1.3,1.2,1.9
			s0.7,1.4,1.2,1.9c0.5,0.6,1,1.2,1.5,1.7s1.2,0.9,1.8,1.4s1.4,0.7,2,1.1c0.6,0.5,1.1,1,1.7,1.4c0.6,0.4,1.1,1.1,1.7,1.5
			c0.6,0.4,1.3,0.8,1.9,1.2c0.7,0.3,1.4,0.5,2.1,0.8s1.3,0.7,2,1s1.4,0.4,2.2,0.7c0.7,0.2,1.4,0.4,2.2,0.6c0.7,0.2,1.4,0.4,2.2,0.6
			c0.7,0.2,1.3,0.7,2.1,0.9c0.7,0.2,1.5,0.3,2.2,0.5s1.5-0.1,2.3,0.1c0.7,0.1,1.4,0.7,2.1,0.8s1.5,0.3,2.2,0.4s1.5,0.3,2.2,0.4
			c0.7,0.1,1.5,0,2.3,0.1c0.7,0.1,1.5-0.1,2.3,0c0.7,0.1,1.5,0.2,2.2,0.3s1.4,0.8,2.2,0.8c0.7,0.1,1.5-0.1,2.3,0
			c0.7,0.1,1.5,0.1,2.2,0.1c0.7,0.1,1.5,0.3,2.2,0.4c0.7,0.1,1.5-0.2,2.3-0.1c0.7,0.1,1.5,0.2,2.2,0.3s1.4,0.6,2.2,0.6
			c0.7,0.1,1.5,0.1,2.2,0.1c0.7,0.1,1.5,0.2,2.2,0.2c0.8,0,1.5-0.2,2.2-0.1h2.2c0.8,0,1.5,0.4,2.2,0.4c0.8,0,1.5-0.2,2.2-0.2
			c0.8,0,1.5-0.1,2.2-0.1c0.8,0,1.5-0.2,2.2-0.2c0.8,0,1.5,0.2,2.2,0.1c0.8-0.1,1.5-0.5,2.2-0.5c0.8-0.1,1.5,0.2,2.3,0.1
			c0.7-0.1,1.4-0.7,2.1-0.8s1.6,0.2,2.3,0.1c0.7-0.2,1.5-0.3,2.2-0.5s1.4-0.5,2.1-0.7s1.4-0.5,2.1-0.8s1.3-0.9,1.9-1.2
			c0.7-0.3,1.6-0.1,2.2-0.5c0.7-0.3,1.2-1,1.8-1.3c0.7-0.4,1.5-0.4,2.1-0.8c0.6-0.4,1-1.1,1.6-1.6c0.6-0.5,1.3-0.8,1.8-1.3
			c0.6-0.5,1.3-0.9,1.8-1.4s0.8-1.3,1.3-1.8c0.5-0.6,0.8-1.2,1.2-1.8s0.9-1.2,1.3-1.8c0.4-0.6,0.7-1.3,1-2c0.4-0.7,0.6-1.3,0.9-2
			s1-1.2,1.3-1.9s0.5-1.4,0.8-2.1c0.2-0.7,0.2-1.5,0.4-2.2c0.2-0.7,0.2-1.5,0.4-2.2s0.9-1.3,1.1-2s-0.2-1.6,0-2.3
			c0.1-0.7,0.5-1.4,0.6-2.1c0.1-0.7,0-1.5,0.1-2.2c0.1-0.7,0.5-1.4,0.6-2.1c0.1-0.7,0.4-1.4,0.5-2.2c0.1-0.7,0-1.5,0.1-2.3
			c0.1-0.7,0.6-1.4,0.7-2.2c0.1-0.7,0.2-1.5,0.3-2.2c0.1-0.7-0.3-1.5-0.2-2.3c0.1-0.7,0.2-1.5,0.3-2.2c0.1-0.7,0.4-1.4,0.5-2.2
			c0.1-0.7,0.1-1.5,0.2-2.2c0.1-0.7,0.5-1.5,0.5-2.2c0.1-0.7,0.1-1.5,0.2-2.3c0.1-0.7,0-1.5,0-2.3c0.1-0.7,0.3-1.5,0.4-2.2
			c0.1-0.7-0.1-1.5,0-2.3c0-0.7,0.2-1.5,0.2-2.2s0.2-1.5,0.3-2.2c0-0.7-0.3-1.5-0.2-2.3c0-0.7,0.3-1.5,0.3-2.2s-0.2-1.5-0.2-2.3
			c0-0.7,0.4-1.5,0.4-2.3c0-0.7-0.4-1.5-0.5-2.3c0-0.7,0.1-1.5,0.1-2.3c0-0.7-0.1-1.5-0.1-2.3c0-0.7,0.2-1.5,0.2-2.3
			c0-0.7-0.4-1.5-0.4-2.2s0.1-1.5,0-2.3c-0.1-0.7-0.4-1.5-0.5-2.2c-0.1-0.7,0.4-1.5,0.3-2.3c-0.1-0.7-0.3-1.5-0.3-2.2
			c-0.1-0.7-0.4-1.5-0.5-2.2c-0.1-0.7-0.2-1.5-0.3-2.2c-0.1-0.7,0.2-1.5,0.1-2.3c-0.1-0.7-0.6-1.4-0.7-2.2c-0.1-0.7,0.1-1.5,0-2.3
			c-0.1-0.7-0.4-1.5-0.6-2.2c-0.1-0.7-0.4-1.5-0.6-2.2s-0.4-1.4-0.6-2.2c-0.2-0.7-0.1-1.5-0.3-2.3c-0.2-0.7-0.2-1.5-0.4-2.2
			s-0.9-1.3-1.1-2.1c-0.2-0.7-0.5-1.4-0.7-2.1c-0.2-0.7,0-1.6-0.2-2.3s-0.4-1.5-0.6-2.2s-0.7-1.3-1-2.1c-0.2-0.7-0.6-1.4-0.8-2.1
			c-0.2-0.7-0.6-1.4-0.9-2.1c-0.3-0.7-0.5-1.4-0.7-2.1c-0.3-0.7-0.4-1.4-0.7-2.1c-0.3-0.7-0.3-1.5-0.6-2.2c-0.3-1.1-0.5-0.7-0.9-2.1
			c-0.2-0.6-0.6-1.2-0.9-2c-0.3-0.6-0.5-1.3-0.9-2c-0.3-0.6-0.2-1.5-0.6-2.2c-0.4-0.6-1-1.1-1.5-1.7c-0.4-0.6-0.8-1.2-1.3-1.8
			c-0.4-0.6-0.5-1.4-1-2s-1.4-0.7-1.9-1.3c-0.5-0.5-0.8-1.3-1.3-1.8s-1-1.1-1.6-1.6c-0.5-0.5-1.3-0.7-1.9-1.2
			c-0.6-0.5-1.1-1-1.7-1.5c-0.6-0.4-1.2-0.9-1.8-1.3s-1.2-0.9-1.8-1.4c-0.6-0.4-1.3-0.7-2-1.1c-0.6-0.4-1.1-1-1.8-1.4
			c-0.6-0.4-1.5-0.4-2.1-0.8c-0.7-0.3-1.3-0.6-2-0.9c-0.7-0.3-1.2-1-1.9-1.3c-0.7-0.3-1.4-0.6-2.1-0.9c-0.7-0.3-1.5-0.2-2.2-0.4
			c-0.7-0.3-1.4-0.5-2.1-0.7s-1.2-0.8-2-1c-0.4-1.1-0.4-1.1-0.5-2.2c-0.1-1.1,0-1.2-0.1-2.3c-0.1-1.2,0.1-1.2,0-2.3
			c-0.1-1.2-0.3-1.1-0.5-2.3c-0.1-1.1,0.1-1.2,0-2.3c-0.1-1.1-0.4-1.1-0.6-2.3c-0.1-1.2,0.1-1.2,0-2.3c-0.1-1.1-0.2-1.1-0.3-2.3
			c-0.1-1.2-0.5-1.1-0.7-2.3c-0.1-1.2-0.2-1.1-0.3-2.3c-0.1-1.2,0.3-1.2,0.2-2.4c-0.1-1.2-0.1-1-0.5-2.3c-0.2-0.6-0.6-1.3-1.1-2.1
			c-0.4-0.6-1-1.1-1.6-1.7c-0.5-0.5-1.2-0.9-1.9-1.3c-0.6-0.4-1.2-1.1-2-1.4c-0.7-0.2-1.5-0.4-2.3-0.6c-0.7-0.1-1.5-0.1-2.4-0.2
			C3806.259,886.476,3805.459,886.675,3804.559,886.675"/>
	</g>
	<g>
		<defs>
			<rect id="SVGID_3_" x="1973" y="-1346.12" width="5222.1" height="3285.4"/>
		</defs>
		<clipPath id="SVGID_4_">
			<use xlink:href="#SVGID_3_"  style="overflow:visible;"/>
		</clipPath>
		<path style="clip-path:url(#SVGID_4_);fill:#FFB512;" d="M3864.859,981.776c0.4-1.1,1-0.1,2.3-0.7c0.6-0.3,1.2-0.9,2-1.3
			c0.7-0.3,1.4-0.6,2.1-1c0.6-0.4,1.2-0.9,1.9-1.4c0.6-0.5,1.3-0.9,1.9-1.4c0.6-0.5,0.9-1.3,1.3-1.9c0.5-0.6,1.3-1,1.7-1.7
			s0.4-1.5,0.7-2.3c0.2-0.7,0.7-1.4,0.8-2.2c0.1-0.7-0.4-1.5-0.4-2.4c0-0.7-0.1-1.5-0.3-2.3c-0.2-0.7-0.3-1.5-0.5-2.1
			c-0.2-0.7-0.2-1.5-0.4-2.2s-0.4-1.4-0.6-2.1c-0.2-0.7,0.2-1.6,0-2.3c-0.2-0.8-0.5-1.4-0.6-2.1c-0.1-0.8-0.5-1.5-0.6-2.1
			c-0.1-0.8,0-1.5-0.1-2.2c-0.1-0.8,0.2-1.5,0.3-2.2c0.1-0.8,0-1.5,0.3-2.1c0.2-0.7,0.6-1.2,1.1-1.8c0.5-0.5,0.7-1.3,1.4-1.7
			c0.9-0.6,1.8-0.4,2.3-0.5c1.2-0.3,1.2,0.3,0.7,1.2c-0.4,0.7-1.2,1.6-1.7,1.8c-0.6,0.2-1.2,0.6-1.3,1.2c-0.1,0.7,0.2,1.7,0.8,1.8
			c0.4,0.1,1.3,0.1,2.1,0.3c1.1,0.3,1,0.5,2,0.2c1.2-0.4,1.2-0.3,2.2-1.1c0.9-0.6,0.7-0.7,1-1.8c0.2-0.7,0.6-1.5,0.4-2.2
			c-0.2-0.6-0.9-1.1-1.8-1.5c-0.5-0.2-1.3-0.2-2.2-0.2c-0.8-0.5-0.7-1-0.9-1.8c-0.1-0.6,0.1-1.5,1.1-1.7c0.7-0.1,1.5,0.2,2.3,0.5
			c0.7,0.2,1.2,0.8,1.8,1.3s1.1,0.9,1.5,1.6c0.3,0.6,0.7,1.2,0.7,2.1c1,0.3,0.4-0.7,1.1-1.6c0.4-0.5,0.7-1.1,1.2-1.7
			c0.4-0.5,1-1,1.5-1.4c0.5-0.5,1.2-0.8,1.7-1.1c0.6-0.4,1.2-0.9,1.8-0.9c1.4-0.2,1.8,0.4,1.8,0.9c0,0.6-0.4,1.4-1,1.9
			c-0.3,0.2-0.7,0.9-1.3,1.6c-0.4,0.4-0.9,1-1.4,1.5s-1.1,0.9-1.5,1.4c-0.5,0.5-1,1.1-1.4,1.5c-0.8,0.9-2.4,1.4-1.4,1.2
			c1.2-0.2,1-0.4,2.1-0.9c1.1-0.5,1.2-0.2,2.3-0.7s1.1-0.5,2.1-1c1.1-0.5,1.2-0.1,2.3-0.6s1.1-0.5,2.1-1.2c1.3-0.8,1.3-1.3,2.5,0.1
			c0.7,0.8,0.8,1.5,0.2,2c-0.5,0.4-1.4,0.4-2.2,0.8c-0.5,0.2-1.1,0.8-2,1.1c-0.7,0.2-1.6,0-2.3,0.2c-0.8,0.3-1.5,0.5-2.2,0.7
			c-1.3,0.4-3.1,0.6-2.1,1c1.1,0.4,1.2,0,2.4,0.1s1.2,0.2,2.4,0.3c1.2,0.1,1.2,0.5,2.4,0.6s1.3-0.4,2.5-0.2c1.4,0.2,1.6,0.6,1.3,2.4
			c-0.1,0.4-0.7,0.6-1.9,0.7c-0.6,0.1-1.4,0.1-2.2,0c-0.7,0-1.5,0.2-2.2,0.2c-0.8-0.1-1.5-0.6-2.2-0.6c-0.8-0.1-1.6,0.2-2.3,0.1
			c-1.3-0.2-1.1-0.7-2.2-0.6c-1.2,0.2-0.9,0.8-2.3,1.2c-0.7,0.3-1.6,0.5-2.4,0.8c-0.9,0.3-1.6,0.5-2.2,0.6c-0.1,1-0.3,1-0.1,2.1
			c0.2,1,0.4,1,0.6,2s0.2,1,0.3,2c0.2,1,0.1,1,0.3,2.1c0.2,1,0,1.1,0.1,2.1c0.2,1,0.3,1,0.5,2c0.2,1.1,0.3,0.8,0.5,2.1
			c0.1,0.6,0.4,1.4,0.5,2.2c0,0.7,0,1.4-0.1,2.2c0,0.7-0.2,1.4-0.3,2.2c-0.1,0.7-0.4,1.4-0.7,2.1c-0.2,0.7-0.5,1.3-0.8,2
			s-0.3,1.5-0.7,2.1s-0.8,1.2-1.3,1.8c-0.5,0.5-1,1.1-1.6,1.6c-0.5,0.5-1.1,1-1.7,1.4c-0.7,0.5-1.4,0.7-2,1.2
			c-0.6,0.5-1.2,1-1.7,1.5c-0.6,0.5-0.9,1.3-1.4,1.8c-0.6,0.6-1.3,1-1.8,1.5c-0.6,0.6-0.9,1.3-1.3,1.9c-0.5,0.7-1.3,1.1-1.6,1.7
			c-0.3,0.8-0.3,1.6-0.4,2.3c-0.2,0.8-0.6,1.5-0.7,2.2c-0.2,0.8-0.3,1.4-0.9,1.7c-0.6,0.4-1.3,0.6-2,0.6c-1.1,0-1.9,0.7-2.3-0.3
			c-0.4-1.1,0-1.2,0-2.4v-2.3c0-1.1,0.3-1.1,0.3-2.3v-2.3v-2.3c0-1.1,0.2-1.1,0.2-2.3c0-1.1-0.1-1.2-0.2-2.3
			C3864.759,982.876,3864.459,982.876,3864.859,981.776"/>
	</g>
	<g>
		<defs>
			<rect id="SVGID_5_" x="1973" y="-1346.12" width="5222.1" height="3285.4"/>
		</defs>
		<clipPath id="SVGID_6_">
			<use xlink:href="#SVGID_5_"  style="overflow:visible;"/>
		</clipPath>
		<path style="clip-path:url(#SVGID_6_);fill:#FFB512;" d="M3737.459,981.776c-0.4-1.1-0.7-0.3-2-0.9c-0.6-0.3-1.3-0.6-2.1-1
			c-0.7-0.3-1.3-0.8-2-1.2c-0.6-0.4-1.1-1-1.8-1.5c-0.6-0.5-1.6-0.6-2.1-1.1c-0.6-0.5-0.7-1.4-1.2-2.1c-0.5-0.6-0.9-1.2-1.3-1.9
			c-0.4-0.7-0.8-1.3-1-2.1c-0.2-0.7-0.3-1.5-0.4-2.3c-0.1-0.7-0.2-1.5-0.1-2.3c0-0.7,0-1.5,0.2-2.3c0.2-0.7,0.1-1.5,0.3-2.2
			c0.2-0.7,0.8-1.4,0.9-2c0.2-0.7,0-1.5,0.2-2.2s0.2-1.5,0.4-2.2c0.2-0.8,0.5-1.4,0.6-2.1c0.1-0.8,0.1-1.5,0.2-2.2
			c0.1-0.8,0.6-1.5,0.6-2.2c0.1-0.8-0.1-1.6-0.1-2.2c-0.1-0.8-0.1-1.6-0.3-2.2c-0.2-0.7-0.6-1.4-1.1-2c-0.5-0.5-1.2-0.8-1.9-1.2
			c-0.9-0.6-1.7-0.6-2.2-0.8c-1.2-0.3-1,0.3-0.5,1.2c0.4,0.7,1.2,1.3,1.6,1.5c0.6,0.2,0.9,1,1,1.6c0.1,0.7-0.1,1.4-0.6,1.6
			c-0.4,0.1-1.3,0.3-2.1,0.5c-1.1,0.3-1,0.8-2.1,0.4c-1.2-0.4-1.1-0.5-2.1-1.3c-0.9-0.6-0.9-0.6-1.3-1.7c-0.2-0.7-0.1-1.5,0.1-2.2
			c0.2-0.6,0.6-1.3,1.5-1.6c0.5-0.2,1.3-0.2,2.2-0.2c0.8-0.5,0.6-0.9,0.7-1.8c0.1-0.6,0.1-1.2-0.9-1.4c-0.7-0.1-1.5-0.1-2.3,0.2
			c-0.7,0.2-1.6,0.4-2.2,0.9c-0.6,0.5-0.8,1.3-1.2,2c-0.3,0.6-0.6,1.1-0.7,1.9c-1,0.3-0.5-0.4-1.2-1.3c-0.4-0.5-0.6-1.2-1.1-1.7
			c-0.4-0.5-1.3-0.6-1.8-1.1s-0.7-1.4-1.2-1.7c-0.6-0.4-1.5-0.3-2-0.3c-1.4-0.2-2.1,0-2.1,0.6s0.6,1.6,1.3,2.1
			c0.3,0.2,1,0.6,1.7,1.2c0.4,0.4,0.8,1.1,1.3,1.6s0.9,1,1.4,1.5s1.1,1,1.5,1.4c0.8,0.9,2.4,1.5,1.4,1.3c-1.2-0.2-1-0.4-2.1-0.9
			c-1.1-0.5-1.1-0.5-2.2-1c-1.1-0.5-1.2-0.3-2.2-0.8c-1.1-0.5-1.2-0.3-2.3-0.7c-1.1-0.5-1.2-0.2-2.2-0.9c-1.3-0.8-1.4-1.7-2.6-0.2
			c-0.7,0.8-0.5,1.6,0.1,2.1c0.5,0.4,1.1,0.9,1.9,1.3c0.5,0.2,1.3,0.4,2.2,0.7c0.7,0.2,1.5,0.2,2.3,0.5s1.4,0.9,2.1,1.1
			c1.3,0.4,3.3,0.1,2.2,0.4c-1.1,0.4-1.2,0.4-2.4,0.5s-1.2-0.2-2.4-0.1c-1.2,0.1-1.2,0.1-2.4,0.3c-1.2,0.1-1.2,0-2.4,0.2
			c-1.4,0.2-1.6,0.6-1.3,2.4c0.1,0.4,0.7,0.5,1.9,0.5c0.6,0.1,1.4,0.3,2.2,0.3c0.7,0,1.5-0.3,2.2-0.4c0.8-0.1,1.5,0.2,2.3,0.1
			c0.8-0.1,1.5-0.4,2.2-0.5c1.3-0.2,1.1-0.2,2.2-0.1c1.2,0.2,0.9,0.7,2.2,1.2c0.7,0.3,1.8,0,2.6,0.3c0.9,0.3,1.7,0.8,2.3,1
			c0.1,1,0,1.1-0.1,2.1c-0.2,1-0.2,1-0.4,2c-0.2,1-0.1,1-0.2,2.1c-0.2,1-0.7,0.9-0.9,1.9s-0.2,1-0.3,2c-0.2,1,0.3,1.1,0.1,2.1
			c-0.2,1.1-0.6,0.7-0.8,2.1c-0.1,0.6-0.3,1.4-0.3,2.2c0,0.7-0.1,1.4,0,2.2c0,0.7,0.5,1.4,0.6,2.2c0.1,0.7,0.4,1.4,0.6,2.1
			c0.2,0.7,0.3,1.4,0.6,2.1c0.3,0.7,0.8,1.2,1.2,1.8s0.3,1.5,0.8,2.1c0.5,0.5,1.4,0.7,1.9,1.2s1,1,1.6,1.5c0.7,0.5,1.3,0.9,1.8,1.4
			c0.6,0.5,1.1,1.1,1.7,1.6c0.6,0.5,1.4,0.9,1.9,1.4c0.6,0.6,1.1,1.2,1.6,1.7c0.6,0.6,0.9,1.3,1.3,1.9c0.5,0.7,0.6,1.5,0.9,2.1
			c0.3,0.8,0.9,1.4,1,2.1c0.2,0.8-0.1,1.6,0,2.3c0.2,0.8,1,1.1,1.6,1.4c0.6,0.4,1.2,0.6,1.9,0.6c1.1,0,1.8,0.8,2.1-0.1
			c0.4-1.1-0.3-1.2-0.3-2.3s0.4-1.1,0.4-2.3v-2.3c0-1.1,0.2-1.1,0.2-2.3c0-1.1-0.5-1.1-0.5-2.3c0-1.1,0.5-1.1,0.5-2.3
			c0-1.1-0.4-1.1-0.3-2.3C3737.659,982.876,3737.759,982.876,3737.459,981.776"/>
	</g>
	<g>
		<defs>
			<rect id="SVGID_7_" x="1973" y="-1346.12" width="5222.1" height="3285.4"/>
		</defs>
		<clipPath id="SVGID_8_">
			<use xlink:href="#SVGID_7_"  style="overflow:visible;"/>
		</clipPath>
		<path style="clip-path:url(#SVGID_8_);fill:#FFB512;" d="M3740.659,1062.675c-1.1,0.1,0.2,0.7,0.8,2.1c0.2,0.6,0.9,1.1,1.2,1.9
			c0.3,0.6,0.3,1.4,0.6,2.2c0.3,0.6,0.9,1.2,1.2,1.9s0.4,1.4,0.7,2.1c0.3,0.7,0.8,1.2,1.2,1.9c0.3,0.7,0.2,1.5,0.5,2.2
			s1,1.1,1.4,1.8c0.3,0.7,0.7,1.3,1.1,2c0.3,0.7,0.6,1.4,0.9,2c0.3,0.7,0.4,1.5,0.7,2.1c0.3,0.7,1,1.1,1.4,1.8c0.3,0.7,0.6,1.3,1,2
			c0.4,0.7,0.6,1.4,1,2c0.4,0.6,0.7,1.3,1.1,2c0.4,0.6,0.7,1.3,1,2c0.4,0.6,0.6,1.4,1,2c0.4,0.6,0.9,1.2,1.3,1.8
			c0.4,0.6,1,1.2,1.4,1.8c0.4,0.6,0.5,1.5,0.9,2.1c0.4,0.6,1.1,1,1.6,1.7c0.4,0.6,0.8,1.3,1.2,1.9c0.4,0.6,1,1.1,1.4,1.7
			c0.4,0.6,0.8,1.3,1.2,1.9c0.5,0.6,1,1.1,1.4,1.7c0.5,0.6,0.9,1.2,1.3,1.8c0.5,0.6,0.9,1.2,1.4,1.8s1.1,1,1.6,1.6s1,1.1,1.5,1.7
			c0.5,0.6,0.8,1.3,1.3,1.8c0.5,0.6,1.3,0.8,1.8,1.4s0.9,1.2,1.4,1.8c0.5,0.5,1,1.1,1.5,1.6s1,1.1,1.6,1.6c0.5,0.5,1.3,0.8,1.8,1.3
			s1,1.1,1.5,1.6c0.6,0.5,1.3,0.8,1.8,1.3c0.6,0.5,0.8,1.4,1.3,1.9c0.6,0.5,1.1,1,1.7,1.5c0.6,0.5,1.3,0.8,1.9,1.3
			c0.6,0.5,1,1.2,1.6,1.6c0.6,0.5,1.2,0.9,1.8,1.4c0.6,0.5,1.3,0.8,1.9,1.3c0.7,0.5,1.1,1.2,1.6,1.6c1.2,0.9,1.5,0.1,2,1.1
			s-0.2,1,0,2.3c0.1,0.7,0.7,1.4,0.8,2.2c0.1,0.7-0.3,1.6-0.1,2.4c0.2,0.8,0.5,1.5,0.7,2.2c0.2,0.8,0.8,1.4,1.2,2
			c0.4,0.8,0.9,1,1.8,0.5c0.6-0.3,1.4-0.6,2-1.2c0.5-0.5,0.6-1.5,1.1-2.2c0.4-0.6,0.9-1.2,1.3-1.9c0.4-0.7,0.8-1.3,1.1-2
			c0.3-0.7,1-1.3,1.3-2s0.3-1.6,0.5-2.3c0.2-0.8,0.1-1.6,0.2-2.3c0-0.8,0.5-1.5,0.5-2.3s-0.5-1.6-0.5-2.3c0-0.8,0.4-1.5,0.4-2.3
			s-0.3-1.6-0.3-2.3c0-0.9-0.1-1.6-0.2-2.3c-0.1-1.4,0.8-1.3,0.2-2.3s-0.7-0.5-1.8-1.3c-0.5-0.4-1.3-0.6-2-1.1
			c-0.5-0.4-1-1.1-1.6-1.6c-0.6-0.4-1.3-0.7-1.9-1.2c-0.6-0.4-1-1.1-1.5-1.6s-1.2-0.8-1.8-1.3c-0.5-0.5-1.1-1-1.6-1.5
			s-1.1-1-1.6-1.5s-1-1-1.6-1.6c-0.5-0.5-1.1-1-1.6-1.5s-1.1-1-1.6-1.6s-1-1.1-1.4-1.7c-0.5-0.6-0.9-1.2-1.4-1.8
			c-0.4-0.6-0.6-1.4-1-2c-0.4-0.6-0.7-1.3-1-2c-0.4-0.6-0.8-1.2-1.1-1.9c-0.3-0.7-0.9-1.2-1.2-1.9c-0.3-0.7-0.2-1.5-0.4-2.2
			c-0.2-0.7-0.7-1.4-0.8-2.1c-0.1-0.8-0.3-1.6-0.3-2.3c0-0.8,0.1-1.6,0.2-2.3c0.2-0.8,0.7-1.4,1.1-2.1c0.4-0.7,0.7-1.4,1.2-2
			s1.1-1.1,1.8-1.5c0.6-0.4,1.4-0.7,2.1-1s1.4-0.5,2.2-0.7c0.7-0.2,1.4-0.7,2.2-0.8c0.8-0.2,1.5-0.4,2.3-0.5s1.6,0.2,2.3,0.1
			c0.8-0.1,1.6-0.2,2.3-0.2c0.9,0,1.6-0.1,2.3-0.1c1.4,0.1,3.3,0.7,2.3,0.3s-1.1-0.3-2.1-0.6c-1.1-0.3-1-0.4-2.1-0.7
			c-1.1-0.3-1.1,0-2.2-0.4c-1.1-0.3-1-0.4-2.1-0.7c-1.1-0.3-1.1-0.2-2.2-0.5c-1.1-0.3-1-0.5-2.1-0.9c-1.1-0.3-1-0.5-2.1-0.8
			c-1.1-0.3-1-0.5-2.1-0.8c-1.1-0.3-1.2,0-2.2-0.3c-1.1-0.3-1.1-0.2-2.2-0.5c-1.1-0.3-1.1-0.2-2.2-0.5c-1.1-0.3-1-0.5-2.1-0.8
			c-1.1-0.3-1.1-0.3-2.1-0.6c-1.1-0.3-1.1-0.3-2.1-0.6c-1.1-0.3-1-0.5-2.1-0.8c-1.1-0.3-1-0.5-2.1-0.8c-1.1-0.3-1.1-0.3-2.1-0.6
			c-1.1-0.3-1.1-0.1-2.2-0.4c-1.1-0.3-1.1-0.3-2.1-0.6c-1.1-0.3-1-0.5-2.1-0.8c-1.1-0.3-1.1-0.3-2.1-0.6c-1.1-0.3-1.1-0.2-2.2-0.5
			c-1.1-0.3-1.1-0.2-2.2-0.5c-1.1-0.3-1.1-0.4-2.1-0.7c-1.1-0.3-1.1-0.4-2.1-0.7c-1.1-0.3-1.1-0.4-2.1-0.7c-1.1-0.3-1.1-0.1-2.2-0.4
			c-1.1-0.3-1-0.5-2.1-0.8c-1.1-0.3-1.1-0.3-2.1-0.7c-1.1-0.3-1.1-0.3-2.1-0.7
			C3741.759,1062.776,3741.759,1062.576,3740.659,1062.675"/>
	</g>
	<g>
		<defs>
			<rect id="SVGID_9_" x="1973" y="-1346.12" width="5222.1" height="3285.4"/>
		</defs>
		<clipPath id="SVGID_10_">
			<use xlink:href="#SVGID_9_"  style="overflow:visible;"/>
		</clipPath>
		<path style="clip-path:url(#SVGID_10_);fill:#FFB512;" d="M3864.959,1057.876c1-0.5,0.2,0.6,0.3,2c0,0.6-0.1,1.4-0.1,2.3
			c0,0.7,0.1,1.4,0.1,2.3c0,0.7-0.2,1.5-0.2,2.3c0,0.7-0.2,1.5-0.2,2.3c0,0.7,0.3,1.5,0.3,2.3c-0.1,0.7-0.1,1.5-0.2,2.3
			c-0.1,0.7-0.7,1.4-0.8,2.2c-0.1,0.7-0.2,1.5-0.3,2.2s0.3,1.6,0.1,2.3c-0.1,0.7-0.3,1.5-0.4,2.2c-0.2,0.7-0.7,1.4-0.9,2.1
			c-0.2,0.7-0.1,1.5-0.3,2.3c-0.2,0.7-0.4,1.5-0.6,2.2s-0.8,1.3-1.1,2c-0.2,0.7-0.6,1.4-0.9,2.1c-0.3,0.7-0.2,1.6-0.5,2.3
			s-0.7,1.4-1,2c-0.3,0.7-0.8,1.3-1.2,1.9c-0.3,0.7-0.8,1.3-1.2,1.9c-0.4,0.7-0.7,1.3-1.1,2c-0.4,0.6-0.6,1.4-1,2.1
			c-0.4,0.6-0.6,1.4-1.1,2c-0.4,0.6-0.8,1.3-1.3,1.9c-0.4,0.6-1,1.1-1.5,1.7c-0.5,0.6-1.1,1-1.6,1.6c-0.8,0.8-0.6,0.5-1.6,1.5
			c-0.5,0.4-1.1,0.8-1.7,1.4c-0.5,0.5-0.8,1.3-1.4,1.8c-0.5,0.5-1.4,0.6-2,1.1c-0.5,0.5-1,1.1-1.6,1.5c-0.6,0.5-1,1.1-1.6,1.5
			c-0.6,0.4-1.3,0.8-1.9,1.2c-0.6,0.4-1,1.1-1.6,1.5c-0.6,0.4-1.4,0.5-2.1,0.9c-0.6,0.4-1.3,0.8-1.9,1.1c-0.6,0.4-1,0.9-1.6,1.3
			c-0.3,1.1-0.3,1.1-0.3,2.3s0.2,1.2,0.2,2.3c0,1.2-0.1,1.2-0.1,2.3c0,1.2-0.2,1.2-0.2,2.3s0.6,1.2,0.3,2.4c-0.2,1-0.8,0.2-2.1-0.6
			c-0.5-0.3-0.9-0.9-1.5-1.4c-0.5-0.4-1.1-0.7-1.6-1.3c-0.4-0.4-0.9-0.9-1.4-1.5c-0.4-0.5-0.6-1.3-1-1.9c-0.4-0.6-0.8-1.1-1.2-1.8
			c-0.4-0.6-0.8-1.1-1.2-1.8c-0.4-0.6-0.8-1.2-1.1-1.8s-0.6-1.3-0.9-2s-0.6-1.3-0.9-2s-0.9-1.2-1.1-1.9c-0.3-0.7-0.3-1.5-0.5-2.1
			c-0.2-0.7-0.3-1.4-0.5-2.1c-0.2-0.8-0.1-1.5-0.2-2.1c-0.1-0.8-0.3-1.5-0.1-2.1c0.2-0.8,0.6-1.2,1.2-1.5c1-0.3,0.8-0.1,2.1-0.4
			c0.6-0.1,1.3-0.6,2-0.8c0.6-0.2,1.3-0.5,2-0.8c0.6-0.3,1.1-0.9,1.7-1.3c0.6-0.4,1.2-0.7,1.7-1.2s1.1-0.9,1.6-1.5
			c0.4-0.6,1-1.1,1.3-1.8c0.3-0.6,0.3-1.4,0.6-2.1c0.2-0.6,0.7-1.3,0.9-2s0-1.4,0.1-2.2c0.1-0.7,0.3-1.4,0.4-2.1
			c0.6-0.9,0.6-1,1.3-1.8c0.8-0.8,1-0.6,1.8-1.4c0.8-0.8,0.6-1,1.4-1.8s0.7-0.9,1.4-1.7c0.8-0.8,0.7-0.9,1.5-1.7s0.9-0.7,1.7-1.5
			c0.8-0.8,1.1-0.5,1.8-1.3c0.8-0.8,0.8-0.8,1.5-1.6c0.8-0.8,0.6-0.9,1.4-1.8c0.8-0.8,0.5-1.1,1.3-1.9c0.8-0.8,0.9-0.7,1.6-1.5
			c0.8-0.8,1-0.6,1.8-1.4c0.8-0.8,0.8-0.8,1.6-1.6s0.6-1,1.3-1.8c0.8-0.8,0.9-0.7,1.6-1.5c0.8-0.8,0.7-0.9,1.5-1.7s0.8-0.8,1.6-1.6
			s0.5-1,1.3-1.9c0.8-0.8,1-0.6,1.8-1.4l1.6-1.6c0.8-0.8,0.7-0.9,1.5-1.7s0.6-1,1.3-1.9
			C3863.859,1058.376,3863.959,1058.475,3864.959,1057.876"/>
	</g>
	<g>
		<defs>
			<rect id="SVGID_11_" x="1973" y="-1346.12" width="5222.1" height="3285.4"/>
		</defs>
		<clipPath id="SVGID_12_">
			<use xlink:href="#SVGID_11_"  style="overflow:visible;"/>
		</clipPath>
		<path style="clip-path:url(#SVGID_12_);fill:#FFB512;" d="M3790.159,919.876c-0.1-0.7,0.1-1.5,0-2.2c-0.1-0.7-0.4-1.4-0.6-2.1
			c-0.2-0.7-0.5-1.3-0.8-2s-0.8-1.2-1.1-1.8c-0.4-0.6-0.8-1.2-1.2-1.8c-0.4-0.5-0.8-0.9-1.5-0.8c-0.8,0-1.1,0.7-1,1.5
			c0.1,0.8,0.5,1.5,1,2.1c0.4,0.5,0.9,1.1,1.3,1.6c0.4,0.5,0.9,1,1.4,1.6c0.4,0.5,1,1,1.4,1.6"/>
	</g>
	<g>
		<defs>
			<rect id="SVGID_13_" x="1973" y="-1346.12" width="5222.1" height="3285.4"/>
		</defs>
		<clipPath id="SVGID_14_">
			<use xlink:href="#SVGID_13_"  style="overflow:visible;"/>
		</clipPath>
		<path style="clip-path:url(#SVGID_14_);fill:#FFB512;" d="M3818.259,920.076c0.3-0.6,0.7-1.3,1.1-1.8c0.5-0.5,1.2-0.8,1.7-1.2
			c0.6-0.4,1.2-0.7,1.8-0.9c0.6-0.3,1.3-0.2,2-0.3c0.5-0.1,0.9-0.3,1.3,0c0.7,0.5,0.2,1.5-0.3,2.2c-0.4,0.7-0.8,1.2-1.3,1.8
			s-0.8,1.4-1.4,1.9c-0.6,0.5-1.4,0.8-2,1.2c0.8-0.3,1.5-0.9,2.2-1.2c0.8-0.3,1.6-0.4,2.4-0.6c0.8-0.3,1.6-0.5,2.4-0.7
			s1.5-0.4,2.4-0.4c0,0.7-0.3,1.2-0.6,1.8c-0.3,0.6-0.5,1.3-1,1.7s-1.2,0.6-1.8,0.8c-0.6,0.3-1.2,0.8-1.8,0.9
			c-0.6,0.1-1.4-0.1-2-0.1c-0.7,0-1.3,0.2-2,0.2s-1.5,0.2-2.3,0.2s-1.5-0.4-2.2-0.5c-0.8-0.1-1.5-0.3-2.1-0.6
			c-0.7-0.3-1.3-0.7-1.8-1.2"/>
	</g>
	<g>
		<defs>
			<rect id="SVGID_15_" x="1973" y="-1346.12" width="5222.1" height="3285.4"/>
		</defs>
		<clipPath id="SVGID_16_">
			<use xlink:href="#SVGID_15_"  style="overflow:visible;"/>
		</clipPath>
		<path style="clip-path:url(#SVGID_16_);fill:#FFFFFF;" d="M3829.759,961.975c0,0.8,0.4,1.6,0.3,2.3c-0.1,0.8-0.7,1.4-0.8,2.2
			c-0.2,0.7-0.2,1.5-0.5,2.2c-0.2,0.7-0.6,1.4-0.9,2.1c-0.3,0.7-0.7,1.3-1.1,2c-0.4,0.7-0.6,1.4-1,2.1c-0.4,0.6-1.2,1-1.7,1.5
			c-0.5,0.6-0.8,1.3-1.4,1.8c-0.5,0.5-1,1.1-1.6,1.6c-0.6,0.5-1.3,0.8-1.9,1.3c-0.6,0.4-1.2,1-1.9,1.4s-1.3,0.8-2,1.2
			c-0.7,0.3-1.4,0.8-2.1,1c-0.7,0.3-1.5,0.3-2.3,0.5c-0.7,0.2-1.5,0.5-2.2,0.7s-1.5,0.5-2.2,0.6c-0.8,0.1-1.5,0.2-2.3,0.3
			s-1.5,0.3-2.3,0.3s-1.5-0.2-2.3-0.2s-1.5,0-2.3-0.1c-0.8,0-1.6,0.3-2.4,0.2s-1.5-0.4-2.3-0.5s-1.5-0.6-2.2-0.8
			c-0.8-0.2-1.5-0.4-2.2-0.6c-0.7-0.2-1.4-0.6-2.1-0.9c-0.7-0.3-1.5-0.4-2.2-0.7s-1.5-0.5-2.1-0.9c-0.7-0.4-1.3-0.8-2-1.3
			c-0.6-0.4-1.1-1.1-1.7-1.6c-0.6-0.5-1.1-1-1.7-1.5c-0.5-0.5-1.1-1-1.6-1.6s-0.7-1.3-1.2-2c-0.4-0.6-1.2-1-1.6-1.7
			c-0.4-0.7-0.7-1.4-1-2c-0.3-0.7-0.3-1.5-0.6-2.2c-0.2-0.7-0.4-1.4-0.6-2.2c-0.2-0.7-0.6-1.4-0.7-2.2c-0.1-0.7-0.1-1.5-0.1-2.3
			v-2.3c0.1-0.8,0.6-1.4,0.8-2.2c0.2-0.7,0.4-1.4,0.6-2.2c0.2-0.7,0.3-1.5,0.6-2.2c0.3-0.7,0.6-1.4,1-2.1c0.4-0.7,1.1-1.1,1.5-1.7
			c0.4-0.6,0.5-1.6,1-2.1c0.5-0.6,1.4-0.8,1.9-1.3s0.9-1.2,1.5-1.7c0.6-0.5,1.3-0.8,2-1.2c0.6-0.4,1.1-1.2,1.8-1.6
			c0.7-0.4,1.4-0.7,2.1-1s1.4-0.8,2.1-1.1s1.6-0.1,2.3-0.3c0.7-0.2,1.4-0.5,2.2-0.7c0.7-0.2,1.5-0.4,2.3-0.5s1.5-0.2,2.3-0.3
			s1.5-0.2,2.3-0.3c0.8,0,1.5-0.4,2.3-0.4s1.6-0.1,2.3-0.1c0.8,0,1.5,0.4,2.3,0.5s1.5,0.5,2.2,0.6c0.8,0.1,1.5,0.3,2.2,0.5
			c0.8,0.2,1.6,0.1,2.3,0.4c0.7,0.2,1.5,0.3,2.2,0.6s1.4,0.6,2.1,1c0.7,0.3,1.2,1,1.9,1.4c0.7,0.4,1.5,0.6,2.1,1
			c0.6,0.4,1.1,1.1,1.7,1.6c0.6,0.5,1.4,0.7,2,1.2c0.5,0.5,0.8,1.3,1.3,1.9c0.5,0.6,1.3,0.9,1.7,1.5c0.4,0.6,0.6,1.5,0.9,2.1
			c0.4,0.7,0.8,1.3,1.1,2c0.3,0.7,0.7,1.4,1,2.1c0.2,0.7,0.4,1.5,0.5,2.2c0.2,0.7-0.1,1.5,0,2.3
			C3829.559,960.475,3829.759,961.175,3829.759,961.975"/>
	</g>
	<g>
		<defs>
			<rect id="SVGID_17_" x="1973" y="-1346.12" width="5222.1" height="3285.4"/>
		</defs>
		<clipPath id="SVGID_18_">
			<use xlink:href="#SVGID_17_"  style="overflow:visible;"/>
		</clipPath>
		<path style="clip-path:url(#SVGID_18_);fill:#0F1427;" d="M3784.059,955.376c0,0.6-0.1,1.3-0.5,1.7c-0.4,0.4-1.1,0.6-1.7,0.6
			c-0.6,0-1.1-0.3-1.5-0.8c-0.4-0.4-0.7-0.9-0.7-1.5s0.3-1.1,0.7-1.5c0.4-0.4,0.9-0.5,1.5-0.5c0.6,0,1.3-0.1,1.8,0.3
			C3783.959,953.975,3784.059,954.675,3784.059,955.376"/>
	</g>
	<g>
		<defs>
			<rect id="SVGID_19_" x="1973" y="-1346.12" width="5222.1" height="3285.4"/>
		</defs>
		<clipPath id="SVGID_20_">
			<use xlink:href="#SVGID_19_"  style="overflow:visible;"/>
		</clipPath>
		<path style="clip-path:url(#SVGID_20_);fill:#0F1427;" d="M3821.259,956.675c0,0.6-0.4,1.3-0.8,1.7c-0.4,0.4-1.1,0.7-1.7,0.7
			c-0.6,0-1.3-0.3-1.7-0.7s-0.7-1.1-0.7-1.7c0-0.6,0.5-1.1,0.9-1.5c0.4-0.4,0.9-1.1,1.5-1.1c0.6,0,1.1,0.7,1.5,1.1
			C3820.659,955.576,3821.259,955.976,3821.259,956.675"/>
	</g>
	<g>
		<defs>
			<rect id="SVGID_21_" x="1973" y="-1346.12" width="5222.1" height="3285.4"/>
		</defs>
		<clipPath id="SVGID_22_">
			<use xlink:href="#SVGID_21_"  style="overflow:visible;"/>
		</clipPath>
		
			<path style="clip-path:url(#SVGID_22_);fill:none;stroke:#0F1427;stroke-width:1.871;stroke-linecap:round;stroke-linejoin:round;stroke-miterlimit:10;" d="
			M3792.559,957.276c-0.8,0.4-1.6,0.8-2.2,1.4c-0.6,0.6-1,1.5-0.9,2.4c0,0.2,0.2,0.4,0.3,0.6c0.3,0.2,0.7,0.2,1,0.1
			c0.8-0.2,1.6-0.8,2.4-1.2s1.6-0.2,2.4-0.7c-0.5,0.5-1,0.7-1.1,1.4c0,0.7,0.4,1.3,1,1.6c0.6,0.3,1.3,0,1.8-0.2
			c0.6-0.2,1.3-0.4,1.7-0.9c0.4-0.5,0.5-1.2,0.8-1.7c-0.3,0.7-0.1,1.7,0.4,2.2s1.5,0.4,2.2,0.2c0.6-0.2,1.2-0.4,1.5-1
			c0.3-0.5,0.5-1.3,0.6-1.9c0.3,0.6,0.6,1.2,1.1,1.7c0.4,0.4,1,0.7,1.6,0.9c0.6,0.2,1.2,0.1,1.8-0.1c0.6-0.2,1.4-0.3,1.7-0.8
			c0.3-0.5-0.1-1.2-0.3-1.8c-0.2-0.6-0.3-1.3-0.9-1.4"/>
	</g>
	<g>
		<defs>
			<rect id="SVGID_23_" x="1973" y="-1346.12" width="5222.1" height="3285.4"/>
		</defs>
		<clipPath id="SVGID_24_">
			<use xlink:href="#SVGID_23_"  style="overflow:visible;"/>
		</clipPath>
		<path style="clip-path:url(#SVGID_24_);fill:#F08AB8;" d="M3805.859,869.976c0,0.8-0.4,1.5-0.8,2.2c-0.4,0.7-0.7,1.6-1.4,2
			s-1.6,0.5-2.4,0.5s-1.7-0.2-2.4-0.6c-0.7-0.4-1-1.3-1.4-2c-0.4-0.7-1-1.4-1-2.2s0.6-1.5,1-2.2c0.4-0.7,1-1.1,1.7-1.5
			s1.3-0.8,2.2-0.8c0.8,0,1.6,0.2,2.3,0.6c0.7,0.4,1.5,0.8,1.9,1.5C3805.759,868.276,3805.859,869.176,3805.859,869.976"/>
	</g>
	<g>
		<defs>
			<rect id="SVGID_25_" x="1973" y="-1346.12" width="5222.1" height="3285.4"/>
		</defs>
		<clipPath id="SVGID_26_">
			<use xlink:href="#SVGID_25_"  style="overflow:visible;"/>
		</clipPath>
		<path style="clip-path:url(#SVGID_26_);fill:#F08AB8;" d="M3802.559,873.576c-0.9,0.1-1.5,0.5-2.2,1.1s-1.4,1.1-1.9,1.8
			c-0.4,0.6-0.5,1.2-0.8,1.9c-0.2,0.6-0.6,1.3-0.7,1.9c-0.1,0.7-0.2,1.4,0,2.1c0.2,0.7,0.5,1.3,1,1.9c0.6,0.7,1.4,1,2.2,1.4
			s1.6,0.7,2.5,0.9c0.8,0.2,1.6,0.3,2.3,0.4c0.8,0.1,1.6,0.3,2.4,0.3c0.6,0,1.1-0.2,1.7-0.3c0.6-0.1,1.1-0.3,1.6-0.6
			c0.8-0.5,1.1-1.4,1.6-2.3c0.4-0.8,0.7-1.7,1-2.5c0.2-0.5,0.9-1,0.9-1.5c0.1-0.6-0.3-1.2-0.7-1.7c-0.4-0.5-0.9-0.8-1.5-1
			c-0.9-0.3-1.8-0.4-2.7-0.6c-0.9-0.2-1.8-0.3-2.7-0.3c-1,0-2.2,0.1-3-0.5c-0.5-0.4-0.6-1.1-0.7-1.8c-0.1-0.6,0.2-1.3,0.2-1.9
			c0-0.4-0.2-0.9-0.1-1.3"/>
	</g>
	<g>
		<defs>
			<rect id="SVGID_27_" x="1973" y="-1346.12" width="5222.1" height="3285.4"/>
		</defs>
		<clipPath id="SVGID_28_">
			<use xlink:href="#SVGID_27_"  style="overflow:visible;"/>
		</clipPath>
		<path style="clip-path:url(#SVGID_28_);fill:#F08AB8;" d="M3800.459,875.175c0,0.3,0.6,0.6,0.9,0.6c0.8,0.1,1.6,0.1,2.4,0.1
			s1.6,0,2.4-0.1s1.6-0.5,2.3-0.5c0.8-0.1,1.6,0.2,2.4,0.1c0.8-0.1,1.5-0.7,2.3-0.9s1.5-0.3,2.3-0.5s1.5-0.3,2.3-0.5s1.4,0,2.1-0.2
			c-0.6,0.4-1.1,0.3-1.7,0.7c-0.6,0.4-0.9,1.1-1.3,1.6c0.7,0,1.4-0.1,2.2-0.2c0.7,0,1.5,0.2,2.3,0.1c0.7-0.1,1.5-0.4,2.2-0.5
			c0,0.6-0.3,1.3-0.3,1.9s0.2,1.1,0.3,1.6c-0.7,0-1.2,0.4-1.9,0.5s-1.5-0.2-2.1,0c-0.7,0.2-1.2,0.7-1.9,0.9s-1.3,0.4-2,0.6
			c-0.7,0.2-1.4-0.1-2.1,0s-1.3,0.1-2,0.2c-0.7,0-1.4,0.3-2,0.2c-0.7-0.1-1.4,0-2.1-0.3c-0.7-0.2-1.2-0.7-1.8-1
			c-0.6-0.4-1.2-0.7-1.7-1.3"/>
	</g>
	<g>
		<defs>
			<rect id="SVGID_29_" x="1973" y="-1346.12" width="5222.1" height="3285.4"/>
		</defs>
		<clipPath id="SVGID_30_">
			<use xlink:href="#SVGID_29_"  style="overflow:visible;"/>
		</clipPath>
		<path style="clip-path:url(#SVGID_30_);fill:#F08AB8;" d="M3797.159,869.175c-0.6,0.4-1.3,0.7-1.9,1.1c-0.6,0.4-1.2,0.8-1.9,1.2
			c0.7,0,1.5,0.2,2.2,0.2s1.5-0.2,2.2-0.2"/>
	</g>
	<g>
		<defs>
			<rect id="SVGID_31_" x="1973" y="-1346.12" width="5222.1" height="3285.4"/>
		</defs>
		<clipPath id="SVGID_32_">
			<use xlink:href="#SVGID_31_"  style="overflow:visible;"/>
		</clipPath>
		<g style="clip-path:url(#SVGID_32_);">
			<g>
				<g>
					<defs>
						<rect id="SVGID_33_" x="3773.86" y="956.41" width="53.53" height="11.466"/>
					</defs>
					<clipPath id="SVGID_34_">
						<use xlink:href="#SVGID_33_"  style="overflow:visible;"/>
					</clipPath>
					<g style="clip-path:url(#SVGID_34_);">
						<g style="opacity:0.58;">
							<g>
								<defs>
									<rect id="SVGID_35_" x="3773.86" y="956.46" width="11.24" height="11.416"/>
								</defs>
								<clipPath id="SVGID_36_">
									<use xlink:href="#SVGID_35_"  style="overflow:visible;"/>
								</clipPath>
								<path style="clip-path:url(#SVGID_36_);fill:#E16C53;" d="M3785.059,961.975c0,0.8,0,1.5-0.2,2.2c-0.3,0.7-0.6,1.5-1.1,2
									s-1.3,0.9-2,1.2s-1.4,0.5-2.2,0.5c-0.8,0-1.6-0.2-2.2-0.4c-0.7-0.3-1.4-0.8-1.9-1.3s-0.7-1.3-1-2s-0.6-1.4-0.6-2.1
									c0-0.8,0.4-1.4,0.7-2.1c0.3-0.7,0.5-1.4,1.1-1.9c0.5-0.5,1.1-1.1,1.8-1.4c0.7-0.3,1.5-0.2,2.2-0.2c0.8,0,1.5,0.1,2.2,0.4
									c0.7,0.3,1.1,0.9,1.7,1.4c0.5,0.5,1.2,0.9,1.5,1.6C3785.159,960.376,3785.059,961.175,3785.059,961.975"/>
							</g>
						</g>
						<g style="opacity:0.34;">
							<defs>
								<rect id="SVGID_37_" x="3773.86" y="956.41" style="opacity:0.34;" width="53.53" height="11.466"/>
							</defs>
							<clipPath id="SVGID_38_">
								<use xlink:href="#SVGID_37_"  style="overflow:visible;"/>
							</clipPath>
							<g style="clip-path:url(#SVGID_38_);">
								<g style="opacity:0.58;">
									<g>
										<defs>
											<rect id="SVGID_39_" x="3816.06" y="956.41" width="11.33" height="11.231"/>
										</defs>
										<clipPath id="SVGID_40_">
											<use xlink:href="#SVGID_39_"  style="overflow:visible;"/>
										</clipPath>
										<path style="clip-path:url(#SVGID_40_);fill:#E16C53;" d="M3827.259,961.975c0,0.8,0.3,1.6,0,2.3s-1.1,1.1-1.6,1.6
											s-0.9,1.4-1.6,1.6c-0.7,0.3-1.5,0.1-2.3,0.1s-1.5-0.2-2.1-0.4c-0.7-0.3-1.6-0.4-2.1-0.9s-0.9-1.3-1.1-2
											c-0.3-0.7-0.4-1.5-0.4-2.2c0-0.8,0.5-1.4,0.7-2.1c0.3-0.7,0.6-1.2,1.2-1.8c0.5-0.5,1-0.9,1.7-1.2s1.3-0.5,2.1-0.5
											c0.8,0,1.6-0.2,2.3,0.1s1.1,1,1.7,1.6c0.5,0.5,1.2,1,1.5,1.7C3827.559,960.376,3827.259,961.175,3827.259,961.975"/>
									</g>
								</g>
							</g>
						</g>
					</g>
				</g>
			</g>
		</g>
	</g>
</g>
</svg>
