<?xml version="1.0" encoding="iso-8859-1"?>
<!-- Generator: Adobe Illustrator 19.0.0, SVG Export Plug-In . SVG Version: 6.00 Build 0)  -->
<svg version="1.1" id="Layer_1" xmlns="http://www.w3.org/2000/svg" xmlns:xlink="http://www.w3.org/1999/xlink" x="0px" y="0px"
	 viewBox="4441.571 352.16 862.429 660.015" style="enable-background:new 4441.571 352.16 862.429 660.015;" xml:space="preserve">
<g>
	<g>
		<path style="fill:#0E3324;" d="M5296.872,737.175c-51.4-12.1-104.9-10.4-155.6,5.7c-39.4,12.5-77,33.3-116.8,43.5
			c-39.8,10.2-84.3,8.3-117.3-21.2c-25.5-22.8-41.5-59.4-67.6-81.1c-28.5-23.8-66.1-26.5-99.3-15.6c-33.3,10.9-63,34-91.1,58.7
			c-51.5-58.4-76-143.9-113.3-217.1c-25-49-57.1-93.2-94.3-128.5v630.6h855.3L5296.872,737.175L5296.872,737.175z"/>
	</g>
	<g>
		<path style="fill:#1E396B;" d="M4932.472,726.376c-6.8,14.2-17.2,26.3-28.4,37.4c-5.1,5-10.7,10.9-10,18l0.8,0.4
			c10.1-6.4,20.3-13.1,27.8-22.4C4930.372,750.376,4935.072,738.076,4932.472,726.376"/>
	</g>
	<g>
		<path style="fill:#1E396B;" d="M4890.172,779.776l0.9,2.3c-0.3-0.8-0.6-1.6-0.9-2.5V779.776z"/>
	</g>
	<g>
		<path style="fill:#1E396B;" d="M4912.072,716.675c2.1-18.9-1.3-38.1,1.2-56.9c1.6-11.4,5.3-23.4,1.1-34.2
			c-10.6,15.1-13.4,34.3-14.1,52.7c-0.8,18.4,0.2,37.1-4,55.1c-3.6,15.4-10.8,31.5-6.1,46.2c0.7-11.5,7.7-21.5,12.8-31.8
			C4907.772,738.076,4910.872,727.476,4912.072,716.675"/>
	</g>
	<g>
		<path style="fill:#1E396B;" d="M4884.072,768.976c0.1-0.3,0.3-0.6,0.4-1c15.2-38.9,15.9-83.2,2-122.5c-5.6,15.9-2.6,33.2-2.5,50.1
			c-1.3-9.9-3.7-19.6-7.1-28.9c-8.7,28.1-10.3,58.3-4.7,87.2c-5.1-6.5-11-12.4-16.8-18.3c-6.2-6.2-13.5-12.8-22.2-12.6
			c-2.7,5.8-0.1,12.9,4.2,17.5c4.4,4.6,10.3,7.5,15.7,10.9c8.6,5.3,16.3,12.1,21.9,20.5c1.2,1.8,2.3,3.8,3.6,5.6
			c0.6,1.6,1.3,3.2,2.1,4.7l0.8-1c0.9,0.9,1.8,1.7,2.8,2.3c0-0.5,0.1-1,0.1-1.4c2,0.7,4.2,0.7,6-0.4l-3.6-2.5
			C4885.572,775.776,4884.672,772.376,4884.072,768.976"/>
	</g>
	<g>
		<path style="fill:#1E396B;" d="M4885.872,784.376c-0.5-0.2-1-0.5-1.5-0.8c0,0.7-0.1,1.4-0.2,2.1L4885.872,784.376z"/>
	</g>
	<g>
		<path style="fill:#1E396B;" d="M4789.772,765.675c-1.6-1.7-4.3,0-5.7,1c-2.1,1.5-3.9,3.4-5.2,5.7c-0.4-2.9-0.8-5.9-1.2-8.8
			c2.9-2,5.7-4.3,8.2-6.9c1-1.1,4.9-4.5,2-5.7c-2.2-1-4.9,1.8-6.3,3.2c-1.7,1.8-3,3.8-3.9,6c-0.2-0.1-0.4-0.1-0.6-0.2
			c0-0.1-0.1-0.2-0.2-0.3c-0.6-3.5-1.2-7-1.9-10.5c4.6-2.3,8.6-5.5,11.9-9.5c0.5-0.6,0.2-1.5-0.6-1.5c-5.2-0.1-10,3.2-11.9,8
			c-0.5-2.3-1-4.5-1.5-6.8c3.1-2.5,6.1-5.1,9.2-7.6c0.9-0.8,2.6-1.7,2.6-3.1c0-0.9-0.7-1.5-1.5-1.7c-2.2-0.6-5,1.3-6.6,2.6
			c-1.8,1.5-3.2,3.3-4.1,5.4c-0.2-0.1-0.5-0.3-0.7-0.4l-0.1-0.1c-0.7-2.6-1.4-5.2-2.1-7.8c3.6-5.4,11.2-9.4,9.5-16.8
			c-0.1-0.5-0.8-0.8-1.3-0.5c-4.6,2.7-8,7.2-9.4,12.4c-0.2-0.3-0.4-0.5-0.5-0.8c-0.2-0.7-0.4-1.4-0.6-2c0.6,0.1,1.2-0.3,1-1.1
			c-0.2-0.8-0.5-1.6-0.9-2.4c0.6-3.4,1.9-6.7,3.9-9.6c1.3-1.8,4.6-5.2,1.6-7.2c-3.8-2.5-6.4,6.5-7.6,12.2c-0.4-1-1-2-1.6-2.8
			c-0.7-2.1-1.5-4.1-2.2-6.2c2.3-2.2,4.7-4.3,6.9-6.6c1.2-1.3,2.4-3.7,0.5-5c-2-1.3-4.3,0.9-5.6,2.2c-1.2,1.3-2.1,2.8-2.8,4.4
			c0,0-0.1,0-0.1-0.1c-0.5-0.3-0.9-0.7-1.2-1.1c-0.2-0.5-0.4-1.1-0.6-1.6c-0.3-2.8,2.2-6.2,3.4-8.3c1.2-2,3.1-6.1,0.5-7.9
			c-2.8-1.9-4.8,2.4-5.5,4.4c-0.6,1.5-0.9,3.1-1,4.6c-0.3-0.9-0.7-1.9-1-2.8c0.1-1.1,0.3-2.1,0.4-3.2v-0.3c0.6-5.2,1-10.5,1.3-15.8
			c0-0.4-0.3-0.8-0.599-0.8c-3.101-0.7-4.401,2.4-4.601,5c-0.099,1.8-0.099,3.6,0.101,5.4c-0.401-1.3-0.901-2.6-1.301-3.9
			c0.1-0.1,0.1-0.2,0.1-0.3c0.6-3.7,1.2-7.5,1.8-11.2c0.3-1.7,1.6-6-1.3-6.4c-2.6-0.3-3,4.2-3.3,5.9c-0.1,0.8-0.2,1.6-0.2,2.3
			c-0.6-2-1.1-4.1-1.7-6.1c0.2-0.1,0.401-0.4,0.5-0.7v-1.5c1.6-4.4,2.7-8.9,3.401-13.6c0.099-0.6-0.401-1.3-1.101-1.1
			c-4.399,1.6-4.599,5.9-4.3,10c-0.5-2.2-0.9-4.5-1.3-6.7c3.2-4.4,4.9-9.5,5-14.9c0-0.6-0.8-1.1-1.3-0.7c-4.5,3.3-6.7,9-5.6,14.5
			c-0.1,0.2-0.1,0.3-0.1,0.5c0.2,1.3,0.4,2.5,0.7,3.8c-1.3-1.6-3-3.4-5.2-2.8c-2.3,0.7-2.3,3.2-1,4.8c1,1.3,2.4,2.3,3.6,3.3
			c1.5,1.3,3,2.5,4.5,3.8h0.1c0,0.2,0.1,0.4,0.1,0.5c-0.1,0.3-0.3,0.7-0.4,1c-0.3,0.7,0.3,1.1,0.9,1c0.2,0.9,0.5,1.9,0.8,2.8
			c-0.2-0.3-0.4-0.6-0.6-0.8c-1.7-2.2-4.4-5-7.4-3c-2.6,1.7-0.9,4.4,1,5.8c3.2,2.4,6.4,4.7,9.6,7c0.4,1.2,0.8,2.5,1.2,3.7
			c-1.9-1.9-5.2-4.5-7.9-3.2c-1.1,0.5-1.8,1.6-1.6,2.8c0.2,1.4,1.6,2.2,2.7,2.9c3.2,2,6.5,4,9.7,6c0.5,1.5,1,2.9,1.5,4.4
			c0,0.3,0.1,0.6,0.3,0.8c0,0.1,0,0.1,0.1,0.2c-0.5-0.5-1-0.9-1.6-1.3c-2-1.3-6-2.7-8-0.7c-1.9,1.9,0.3,4.5,2.4,4.9
			c1.9,0.3,3.8-0.3,5.7,0.3c1.1,0.3,2.1,0.8,2.9,1.5c0.3,0.6,0.6,1.1,0.9,1.7c0.3,0.9,0.6,1.7,0.9,2.6c-0.7-0.4-1.4-0.8-2.1-1.2
			c-2.1-0.9-5.3-1.5-7.2,0.2c-2.1,1.8-0.3,4.5,2,4.9c1.8,0.3,3.7,0,5.5,0.2c1.3,0.1,2.5,0.4,3.7,0.8c0.3,0.8,0.6,1.6,0.9,2.4
			c-0.6,0.6-0.1,1.4,0.5,1.5c0.3,0.8,0.6,1.6,0.9,2.5c-2.1-1.5-6-3.7-7.8-1.4c-0.8,1.1-0.3,2.6,0.6,3.4c1.4,1.2,3.6,1.2,5.2,1.9
			c1.7,0.8,3.2,1.9,4.4,3.2c0.6,1.7,1.2,3.5,1.7,5.3c0.1,0.2,0.1,0.4,0.2,0.6c-0.9-0.7-1.9-1.3-3-1.8c-2.3-1.1-6.6-2.5-9-0.7
			c-2.7,2,0.2,5.1,2.6,5.3c2.2,0.2,4.3-0.1,6.5,0.5c1.7,0.5,3.3,1.4,4.6,2.5c0.2,0.8,0.5,1.6,0.7,2.4c-0.1,0.2-0.3,0.5-0.4,0.7
			c-0.4,0.7,0.3,1.4,1,1.3c0.4,1.4,0.8,2.8,1.1,4.2c-0.8-0.6-1.7-1-2.7-1.4c-2.2-0.8-6.4-1.8-8.5-0.1c-0.8,0.7-1,1.8-0.4,2.7
			c0.6,1.1,1.9,1.4,3,1.3c1.8-0.1,3.5-0.7,5.4-0.5c1.4,0.1,2.7,0.6,4,1.2c0.7,2.9,1.4,5.9,2.1,8.8c-3.5-3.3-7.5-6-12.5-6
			c-0.9,0-1.1,1.1-0.4,1.6c4.2,3.2,8.8,5.8,13.7,7.9c0.5,2.5,1,5.1,1.5,7.6c-2-2.4-4.6-4.3-7.6-5.5c-0.6-0.2-1.3,0.5-1.1,1.1
			c1.8,4.5,5.2,8.1,9.7,9.9c0.4,2.5,0.8,5.1,1.2,7.6c-2.3-3.7-5.4-6.8-9.9-7.6c-0.7-0.1-1.5,0.6-1,1.3c3.3,4.5,7.2,8.6,11.6,12.1
			v0.3c-0.6,0.4-0.3,1.2,0.2,1.5c0.9,7.5,1.4,15.1,1.8,22.6c0.6,15.5,0.1,31-1.6,46.5c-0.1,1.1,1.6,1.1,1.7,0
			c2.5-23.1,2.5-46.4-0.2-69.4c0.4,0.1,0.8-0.3,0.9-0.8c2.5-1.5,5-3,7.4-4.5C4789.172,769.576,4791.472,767.576,4789.772,765.675"/>
	</g>
</g>
</svg>
