<?xml version="1.0" encoding="iso-8859-1"?>
<!-- Generator: Adobe Illustrator 19.0.0, SVG Export Plug-In . SVG Version: 6.00 Build 0)  -->
<svg version="1.1" id="Layer_1" xmlns="http://www.w3.org/2000/svg" xmlns:xlink="http://www.w3.org/1999/xlink" x="0px" y="0px"
	 viewBox="3269.667 724.79 259.259 518.518" style="enable-background:new 3269.667 724.79 259.259 518.518;" xml:space="preserve">
<g>
	<g>
		<defs>
			<rect id="SVGID_1_" x="1973" y="-1346.12" width="5222.1" height="3285.4"/>
		</defs>
		<clipPath id="SVGID_2_">
			<use xlink:href="#SVGID_1_"  style="overflow:visible;"/>
		</clipPath>
		<path style="clip-path:url(#SVGID_2_);fill:#8ED2D9;" d="M3415.959,801.076c0,0.7,0.2,1.5,0.1,2.2c-0.1,0.7,0,1.5-0.2,2.2
			s-0.5,1.4-0.8,2.1c-0.3,0.7-0.6,1.3-1,2c-0.4,0.6-1.1,1-1.5,1.6c-0.4,0.6-0.6,1.4-1.1,2c-0.5,0.5-1.1,1-1.6,1.5
			c-0.6,0.5-1.1,1.1-1.8,1.6c-0.6,0.4-1.4,0.7-2.1,1.1c-0.7,0.4-1.3,1-2,1.3s-1.5,0.6-2.2,0.8s-1.6,0.3-2.3,0.5
			c-0.8,0.2-1.5,0.4-2.3,0.4c-0.8,0.1-1.6-0.1-2.4-0.1s-1.6-0.2-2.3-0.3c-0.8-0.1-1.5-0.2-2.3-0.4s-1.6-0.1-2.3-0.3
			c-0.8-0.2-1.5-0.5-2.2-0.8s-1.5-0.6-2.2-1s-1.4-0.8-2-1.2c-0.7-0.5-1.4-0.8-2-1.3c-0.5-0.5-1-1.1-1.5-1.6s-1-1.1-1.5-1.7
			c-0.4-0.6-0.8-1.3-1.1-1.9c-0.4-0.6-0.5-1.4-0.8-2.1c-0.3-0.7-0.4-1.4-0.6-2.1c-0.2-0.7-0.5-1.4-0.5-2.1c-0.1-0.7,0-1.5,0-2.2
			s-0.3-1.5-0.2-2.2s0.2-1.5,0.4-2.2c0.2-0.7,0.7-1.3,1-2s0.8-1.2,1.2-1.8c0.4-0.6,0.7-1.3,1.1-1.9c0.4-0.6,0.6-1.4,1.1-1.9
			s1-1.1,1.5-1.6c0.6-0.5,1.5-0.7,2.1-1.1c0.6-0.4,1.1-1.2,1.8-1.6c0.7-0.4,1.4-0.8,2.1-1.1s1.5-0.5,2.3-0.7
			c0.7-0.2,1.6-0.1,2.4-0.2c0.8-0.2,1.5-0.6,2.3-0.7c0.8-0.1,1.6-0.1,2.4-0.1s1.6-0.2,2.4-0.1c0.8,0.1,1.6,0.4,2.3,0.5
			c0.8,0.2,1.5,0.5,2.3,0.7s1.5,0.5,2.2,0.8s1.3,0.9,2,1.2c0.7,0.4,1.5,0.6,2.1,1.1c0.7,0.5,1.5,0.7,2.1,1.2
			c0.5,0.5,0.8,1.3,1.3,1.8s1.1,1,1.5,1.6c0.4,0.6,0.8,1.2,1.1,1.9c0.4,0.6,0.7,1.3,1,2s0.2,1.5,0.4,2.2c0.2,0.7,0.5,1.4,0.6,2.1
			C3416.059,799.576,3415.959,800.376,3415.959,801.076"/>
	</g>
	<g>
		<defs>
			<rect id="SVGID_3_" x="1973" y="-1346.12" width="5222.1" height="3285.4"/>
		</defs>
		<clipPath id="SVGID_4_">
			<use xlink:href="#SVGID_3_"  style="overflow:visible;"/>
		</clipPath>
		<path style="clip-path:url(#SVGID_4_);fill:#8ED2D9;" d="M3394.759,814.776c-1.1-0.1-0.8-0.2-2.3-0.1c-0.6,0-1.4,0.3-2.3,0.3
			c-0.7,0-1.5-0.2-2.3-0.1c-0.7,0.1-1.4,0.5-2.2,0.6c-0.7,0.1-1.5,0.2-2.2,0.3s-1.5,0.2-2.3,0.3c-0.7,0.1-1.5,0.3-2.2,0.4
			c-0.7,0.1-1.4,0.5-2.2,0.7c-0.7,0.2-1.5,0.1-2.3,0.3c-0.7,0.2-1.5,0.4-2.2,0.6c-0.7,0.2-1.5,0.2-2.2,0.5c-0.7,0.2-1.5,0.4-2.2,0.7
			c-0.7,0.2-1.5,0.4-2.2,0.7s-1.3,0.9-2,1.2s-1.5,0.4-2.2,0.7s-1.3,0.9-2,1.2s-1.4,0.6-2.1,0.9c-0.7,0.4-1.3,0.8-2,1.2
			c-0.6,0.4-1.2,0.9-1.9,1.3c-0.6,0.4-1.4,0.7-2,1.2c-0.6,0.5-1.1,1.1-1.7,1.6c-0.6,0.5-1.3,0.9-1.8,1.4c-0.6,0.5-0.8,1.3-1.4,1.9
			c-0.5,0.5-1.2,1-1.7,1.5s-1.3,0.9-1.7,1.5c-0.4,0.6-0.7,1.3-1.1,2c-0.4,0.6-0.5,1.4-0.9,2.1c-0.3,0.6-1,1.1-1.3,1.8
			s-0.1,1.5-0.4,2.2s-0.7,1.3-1,2c-0.2,0.7-0.7,1.3-0.9,2s-0.1,1.5-0.3,2.2s-0.8,1.3-1,2s-0.2,1.5-0.4,2.2c-0.2,0.7-0.5,1.4-0.7,2.1
			c-0.2,0.7-0.1,1.5-0.3,2.2c-0.1,0.7-0.4,1.4-0.5,2.2c-0.1,0.7-0.4,1.4-0.5,2.2c-0.1,0.7,0,1.5-0.1,2.2c-0.1,0.7-0.1,1.5-0.2,2.2
			c-0.1,0.7-0.4,1.4-0.5,2.2c-0.1,0.7-0.3,1.4-0.4,2.2c-0.1,0.7-0.1,1.5-0.2,2.2c-0.1,0.7-0.2,1.5-0.3,2.2c-0.1,0.7,0,1.5-0.1,2.2
			c-0.1,0.7-0.4,1.5-0.4,2.2c-0.1,0.7,0,1.5,0,2.2s0,1.5-0.1,2.2c0,0.7,0,1.5-0.1,2.2c0,0.7-0.4,1.5-0.5,2.2v2.2
			c0,0.7,0.3,1.5,0.3,2.2s-0.3,1.5-0.4,2.2c0,0.7,0.2,1.5,0.2,2.2s-0.3,1.5-0.3,2.2s-0.2,1.5-0.2,2.2s0.4,1.5,0.3,2.2
			c0,0.8-0.3,1.5-0.3,2.2c0,0.8,0.1,1.5,0.1,2.2c0,0.8,0.2,1.5,0.2,2.2c0,0.8-0.4,1.5-0.4,2.2c0,0.8,0.1,1.5,0.1,2.2
			c0,0.8-0.1,1.5-0.1,2.2c0,0.8,0.1,1.5,0.1,2.2c0,0.8,0.1,1.5,0.1,2.2c0,0.8,0.1,1.5,0.1,2.2c0,0.8,0.1,1.5,0.1,2.2
			c0,0.8,0.2,1.5,0.3,2.2c0,0.8-0.2,1.5-0.2,2.2c0,0.8-0.1,1.6-0.1,2.2c0,0.9,0.2,1.6,0.2,2.2c0.1,1.4,0.1,1.1,0.1,2.2
			c0,1.1-0.1,1.1-0.1,2.2s0.1,1.1,0.1,2.2v2.2c0,1.1,0.1,1.1,0.1,2.2c0,1.1,0.3,1.1,0.3,2.2v2.2c0,1.1-0.3,1.1-0.3,2.2v2.2v2.2v2.2
			c0,1.1,0.3,1.1,0.3,2.2s-0.1,1.1-0.1,2.2c0,1.1-0.2,1.1-0.2,2.2c0,1.1,0.2,1.1,0.2,2.2c0,1.1-0.4,1.1-0.4,2.2v2.2
			c0,1.1,0.1,1.1,0.1,2.2c0,1.1-0.1,1.1-0.1,2.2c0,1.1,0.3,1.1,0.3,2.2c0,1.1-0.3,1.1-0.3,2.2c0,1.1,0.3,1.1,0.3,2.2
			s-0.2,1.1-0.2,2.2c0,1.1,0.2,1.1,0.2,2.2c0,1.1-0.4,1.1-0.4,2.2v2.2c0,1.1,0.3,1.1,0.3,2.2v2.2c0,1.1-0.1,1.1-0.1,2.2
			c0,1.1,0.1,1.1,0.1,2.2c0,1.1-0.5,1.1-0.5,2.2c0,1.1,0.4,1.1,0.4,2.2s-0.1,1.1-0.1,2.2v2.2c0,1.1-0.2,1.1-0.2,2.2
			c0,1.1,0.2,1.1,0.2,2.2c0,1.1-0.1,1.1-0.1,2.2s0.2,1.1,0.2,2.2c0,1.1-0.1,1.1-0.1,2.2c0,1.1-0.1,1.1-0.1,2.2
			c0,1.1,0.1,1.1,0.1,2.2c0,1.1,0.1,1.1,0.1,2.2s0.1,1.1,0.1,2.2c0,1.1-0.2,1.1-0.2,2.2c0,1.1,0.1,1.1,0.1,2.2
			c0,1.1-0.1,1.1-0.1,2.2c0,1.1,0.3,1.1,0.3,2.2s0.1,1.1,0.1,2.2c0,1.1-0.3,1.1-0.3,2.2c0,1.1,0.4,1.1,0.4,2.2v2.2
			c0,1.1-0.5,1.1-0.5,2.2s0.3,1.1,0.3,2.2c0,1.1-0.1,1.1-0.1,2.2c0,1.1,0.1,1.1,0.1,2.2v2.2c0,1.1-0.1,1.1-0.1,2.2s-0.1,0.8,0,2.3
			c0.1,0.6,0.2,1.4,0.3,2.2c0.1,0.701,0.2,1.4,0.3,2.201c0.1,0.7,0.3,1.399,0.4,2.2c0.1,0.7-0.2,1.5-0.2,2.3
			c0.1,0.7,0.3,1.5,0.4,2.2c0.1,0.7,0.3,1.5,0.4,2.2c0.1,0.7-0.4,1.5-0.4,2.3c0.1,0.7,0.3,1.5,0.4,2.2c0.1,0.7,0.2,1.5,0.3,2.2
			c0.1,0.7,0.4,1.5,0.4,2.2c0.1,0.7-0.1,1.5-0.1,2.3c0.1,0.7,0.3,1.5,0.4,2.2c0.1,0.7-0.2,1.5-0.2,2.3c0.1,0.7,0.6,1.5,0.7,2.2
			c0.1,0.7-0.4,1.5-0.3,2.3c0.1,0.7,0.6,1.5,0.7,2.2c0.1,0.7-0.1,1.5,0,2.3c0.1,0.7-0.2,1.5-0.1,2.3c0.1,0.7,0.2,1.5,0.3,2.2
			s0,1.5,0.1,2.3c0.1,0.7,0.4,1.5,0.4,2.2c0.1,0.7,0.1,1.5,0.2,2.3c0.1,0.7,0.4,1.5,0.5,2.2c0.1,0.8-0.4,1.6-0.4,2.3
			c0.1,0.7,0.5,1.399,0.5,2.2c0.1,0.7,0.1,1.5,0.1,2.2c0.1,0.7,0.4,1.5,0.5,2.2c0.1,0.7-0.2,1.5-0.1,2.2c0.1,0.7,0.2,1.5,0.3,2.2
			s-0.2,1.5-0.1,2.2c0.1,0.7,0.1,1.5,0.2,2.2c0.1,0.7,0.1,1.5,0.1,2.2c0.1,0.7,0.4,1.5,0.5,2.2c0.1,0.7-0.2,1.5-0.1,2.2
			c0.1,0.7,0.5,1.5,0.6,2.2c0.1,0.7,0.2,1.5,0.2,2.2c0.1,0.7-0.2,1.5-0.2,2.2c0.1,0.7,0.3,1.5,0.3,2.2c0.1,0.7,0.5,1.5,0.5,2.2
			c0.1,0.7-0.1,1.5,0,2.2c0.1,0.7,0,1.5,0.1,2.2c0.1,0.7-0.1,1.5,0,2.2c0.1,0.7,0.4,1.5,0.5,2.2c0.1,0.7,0.1,1.5,0.1,2.2
			c0.1,0.7,0,1.5,0.1,2.2c0.1,0.7,0.4,1.5,0.4,2.2c0.1,0.8-0.4,1.5-0.4,2.3c0.1,0.8,0.3,1.5,0.4,2.2c0.1,0.8,0,1.5,0.1,2.2
			c0.1,0.8,0.3,1.5,0.3,2.2c0.1,0.8,0.4,1.5,0.4,2.2c0.1,0.8-0.1,1.5-0.1,2.2c0.1,0.8-0.1,1.5-0.1,2.2c0.1,0.8,0,1.5,0,2.2
			c0.1,0.8,0.1,1.5,0.1,2.2c0,0.8,0.7,1.5,0.7,2.2s-0.1,1.5-0.1,2.2s-0.3,1.5-0.3,2.2c0,0.8,0.5,1.5,0.5,2.1c0,0.8-0.1,1.5-0.1,2.2
			c0,0.8,0.3,1.5,0.3,2.1c0,0.8,0.1,1.5,0.2,2.1c0,0.8,0,1.5,0.1,2.2c0,0.9,0,1.6,0.1,2.1c0.1,2.5,1.1,1.9,0.1,2.6
			c-0.9,0.6-0.9,0.3-1.9,1c-0.5,0.4-1.2,0.7-1.8,1.1c-0.5,0.4-1,1.1-1.5,1.5c-0.6,0.5-1.2,1.1-1.7,1.6c-0.6,0.6-1.3,1-1.8,1.5
			c-0.7,0.9-1,1.4-0.7,1.9c1.1,0.2,1,0.5,2.1,0.5c1.1,0,1.1-0.1,2.2-0.1c1.1,0,1.1-0.2,2.2-0.2h2.1c1.1,0,1.1,0.1,2.1,0.1
			c1.1,0,1.1-0.1,2.2-0.1c1.1,0,1.1-0.1,2.2-0.1c1.1,0,1.1,0.3,2.2,0.3h2.2h2.2c1.1,0,1.1-0.3,2.1-0.3c1.1,0,1.1,0.4,2.2,0.4h2.2
			c1.1,0,1.1-0.4,2.1-0.4c1.1,0,1.1-0.2,2.1-0.2c1.1,0,1.1,0.1,2.2,0.1c1.1,0,1.1,0.1,2.2,0.1h2.2c1.1,0,1.1,0.1,2.2,0.1
			c1.1,0,1.3,0.7,2.1-0.1c0.8-0.8,0.2-1,0.3-2.2c0-1.1,0.2-1.1,0.2-2.2c0-1.1-0.2-1.1-0.2-2.3c0-1.1,0.2-1.1,0.2-2.2
			c0-1.1-0.2-1.1-0.2-2.3c0-1.1,0.1-1.1,0.1-2.2v-2.2c0-1.1,0.3-1.1,0.4-2.2c0-1.1-0.1-1.1,0-2.3c0-1.1,0.2-1.1,0.3-2.2
			c0-1.1-0.2-1.1-0.2-2.3c0-1.1-0.2-1.1-0.2-2.3c0-1.1,0.6-1.1,0.6-2.2s-0.1-1.1-0.1-2.3c0-1.1,0.2-1.1,0.2-2.2s-0.5-1.1-0.4-2.3
			c0.1-1.2,0.2-1.1,0.2-2.2s0.1-1.1,0.1-2.2c0-1.1,0.2-1.1,0.2-2.2c0-1.1,0-1.1,0.1-2.2c0-1.1,0.2-1.1,0.3-2.2
			c0-1.1-0.2-1.1-0.1-2.3c0-1.1-0.2-1.1-0.1-2.3c0-1.1,0.5-1.1,0.6-2.2c0-1.1-0.2-1.1-0.1-2.3c0-1.1,0.3-1.1,0.3-2.2
			c0-1.1-0.1-1.1-0.1-2.3c0-1.1,0.2-1.1,0.2-2.2v-2.2c0-1.1-0.1-1.1-0.1-2.3c0-1.1,0.1-1.1,0.1-2.2v-2.3v-2.3c0-1.2-0.8-1.7,0-2.4
			c0.9-0.8,1.4,0.2,2.6,0.2s1.2-0.3,2.4-0.3c1.2,0,1.2,0.5,2.4,0.5c1.2,0,1.2-0.2,2.4-0.2s1.2-0.2,2.4-0.2c1.2,0,1.2,0.2,2.4,0.2
			s1.2-0.2,2.4-0.2c1.2,0,1.7-1,2.6-0.2c0.9,0.7-0.2,1.3,0,2.5c0.1,1.1,0.4,1.1,0.5,2.2c0.1,1.1-0.2,1.2-0.1,2.3
			c0.1,1.1,0.3,1.1,0.4,2.2c0.1,1.1-0.1,1.1,0,2.3c0.1,1.1,0.3,1.1,0.4,2.2c0.1,1.1,0.4,1.1,0.5,2.2c0.1,1.1,0.2,1.1,0.3,2.3
			c0.1,1.1-0.2,1.2-0.1,2.3c0.1,1.1,0.1,1.1,0.2,2.3c0.1,1.1,0.4,1.1,0.5,2.2c0.1,1.1,0.1,1.1,0.2,2.3c0.1,1.1,0.1,1.1,0.2,2.3
			c0.1,1.1,0.1,1.1,0.2,2.3c0.1,1.1-0.2,1.2-0.1,2.3c0.1,1.1,0,1.1,0.1,2.3c0.1,1.1,0.1,1.1,0.2,2.3c0.1,1.1,0.4,1.1,0.5,2.2
			c0.1,1.1,0.2,1.1,0.3,2.2c0.1,1.1,0,1.1,0.1,2.3c0.1,1.1,0.4,1.1,0.5,2.2c0.1,1.1-0.4,1.2-0.3,2.3c0.1,1.1,0.2,1.1,0.3,2.3
			c0.1,1.1,0.2,1.1,0.3,2.2c0.1,1.1-0.1,1.2,0,2.3c0.1,1.1,0.6,1.1,0.8,2.2c0.1,1.1,0,1.1,0.1,2.3c0.1,1.1,0.1,1.1,0.2,2.3
			c0.1,1.1-0.2,1.2-0.1,2.3c0.1,1.1,0,1.1,0.1,2.3c0.1,1.1,0.3,1.1,0.4,2.2c0.1,1.1,0.3,1.1,0.4,2.2c0.1,1.1-0.3,1.2-0.2,2.3
			s-0.4,1.4,0.5,2.2c0.8,0.8,1.1-0.2,2.2-0.2c1.1,0,1.1,0.5,2.3,0.5s1.1-0.1,2.3-0.1c1.1,0,1.1,0.1,2.3,0.1c1.1,0,1.1-0.2,2.3-0.2
			h2.3h2.3c1.1,0,1.1,0.3,2.3,0.3h2.3c1.1,0,1.1-0.4,2.3-0.4c1.1,0,1.1,0.5,2.3,0.5h2.3c1.2,0,1.1-0.2,2.3-0.2
			c1.1,0,1.1-0.2,2.3-0.2c1.1,0,1.1-0.1,2.3-0.1c1.1,0,1.1,0.4,2.3,0.4c1.1,0,1.1-0.5,2.3-0.5c1.1,0,1.1,0.4,2.3,0.4
			c1.1,0,1.1,0.1,2.3,0.1c1.1,0,1.2,0.1,2.3-0.2c1-0.3,0.7-0.8,1.1-1.8c0.4-0.9,0.2-1.9-1.2-2.6c-0.6-0.2-1.2-0.8-2.1-1.3
			c-0.7-0.3-1.4-0.9-2.1-1.3c-0.7-0.4-1.7-0.3-2.5-0.6c-0.8-0.4-1.4-1.3-2-1.6c-1.3-0.7-1.7,0.2-2.1-1c-0.3-1.1-0.1-1-0.1-2.1
			s0.1-1.1,0.1-2.2c0-1.1-0.3-1.1-0.3-2.3c0-1.1,0.1-1.1,0.2-2.2c0-1.1,0.3-1.1,0.3-2.2c0-1.1-0.2-1.1-0.2-2.3
			c0-1.1,0.1-1.1,0.2-2.2c0-1.1,0.1-1.1,0.2-2.2c0-1.1-0.2-1.1-0.2-2.2c0-1.1,0.2-1.1,0.2-2.2s-0.2-1.1-0.2-2.2v-2.2v-2.2
			c0-1.1-0.1-1.1,0-2.2c0-1.1,0.4-1.1,0.4-2.2s-0.1-1.1,0-2.2c0-1.1,0.1-1.1,0.1-2.2c0-1.1-0.2-1.1-0.2-2.2c0-1.1,0.1-1.1,0.1-2.2
			c0-1.1,0.1-1.1,0.1-2.2s0.1-1.1,0.1-2.2c0-1.1-0.3-1.1-0.2-2.3c0-1.1,0.2-1.1,0.2-2.2c0-1.1-0.4-1.1-0.4-2.3c0-1.1,0-1.1,0.1-2.2
			c0-1.1,0.2-1.1,0.2-2.2c0-1.1,0.1-1.1,0.1-2.2c0-1.1,0.3-1.1,0.3-2.2c0-1.1-0.3-1.1-0.3-2.3s0.3-1.1,0.3-2.2
			c0-1.1-0.2-1.1-0.2-2.3c0-1.1,0.2-1.1,0.2-2.2c0-1.1-0.2-1.1-0.2-2.3c0-1.1,0.5-1.1,0.5-2.2c0-1.1-0.4-1.1-0.4-2.3
			c0-1.1-0.1-1.1-0.1-2.3c0-1.1,0.3-1.1,0.3-2.2c0-1.1,0.3-1.1,0.3-2.2c0-1.1-0.5-1.1-0.5-2.3c0-1.1,0.4-1.1,0.4-2.2
			c0-1.1-0.1-1.1-0.1-2.201v-2.2c0-1.099-0.1-1.099-0.1-2.3c0-1.099,0.6-1.099,0.6-2.2c0-1.099-0.2-1.099-0.2-2.3
			c0-1.099-0.2-1.099-0.2-2.299c0-1.1,0.2-1.1,0.2-2.201c0-1.099-0.1-1.099-0.1-2.2c0-1.099,0.4-1.099,0.4-2.2
			c0-1.1-0.4-1.1-0.3-2.3c0-1.099,0.4-1.099,0.4-2.2c0-1.1-0.2-1.1-0.2-2.3c0-1.099-0.2-1.099-0.1-2.3c0-1.099,0.2-1.099,0.2-2.2
			c0-1.099-0.3-1.099-0.3-2.3c0-1.099,0.6-1.099,0.6-2.2c0-1.099-0.4-1.099-0.3-2.3c0-1.099,0.4-1.099,0.4-2.2
			c0-1.099-0.1-1.099-0.1-2.3c0-1.099,0-1.099,0.1-2.299c0-1.1,0.1-1.1,0.1-2.3c0-1.1-0.2-1.1-0.2-2.2c0-1.1-0.1-1.1-0.1-2.201
			c0-1.099,0.3-1.099,0.3-2.2c0-1.099-0.3-1.099-0.3-2.3c0-1.099,0.1-1.099,0.1-2.2c0-1.099,0.2-1.099,0.2-2.2v-2.2v-2.2
			c0-1.1-0.1-1.1-0.1-2.2s0.1-1.1,0.1-2.2c0-1.1,0.4-1.1,0.5-2.2v-2.2c0-1.1-0.2-1.1-0.1-2.2v-2.2c0-1.1,0.2-1.1,0.3-2.2
			c0-1.1-0.3-1.1-0.3-2.3c0-1.1,0.1-1.1,0.1-2.2c0-1.1-0.1-1.1-0.1-2.2c0-1.1,0.5-1.1,0.5-2.2c0-1.1-0.2-1.1-0.2-2.3
			c0-1.1-0.1-1.1-0.1-2.2c0-1.1,0.4-1.1,0.4-2.2c0-1.1-0.3-1.1-0.3-2.3c0-1.1,0.2-1.1,0.3-2.2c0-1.1-0.3-1.1-0.3-2.3
			c0-1.1,0.4-1.1,0.4-2.2c0-1.1-0.4-1.1-0.4-2.3c0-1.1,0.2-1.1,0.2-2.2c0-1.1,0.2-1.1,0.2-2.2s-0.2-1.1-0.2-2.3
			c0-1.1,0.2-1.1,0.2-2.2v-2.2c0-1.1-0.1-1.1,0-2.2c0-1.1-0.1-1.1-0.1-2.2c0-1.1,0.3-1.1,0.4-2.2c0-1.1,0.2-1.1,0.2-2.2
			s-0.5-1.1-0.4-2.3c0-1.1,0.6-1.1,0.6-2.2s-0.2-1.1-0.1-2.3c0-1.1,0.2-1.1,0.2-2.2s-0.5-1.1-0.5-2.3c0-1.1,0.4-1.1,0.4-2.2
			s-0.1-1.1-0.1-2.2c0-1.1,0.1-1.1,0.1-2.2c0-1.1,0.3-1.1,0.3-2.2c0-1.1-0.4-1.1-0.3-2.3c0-1.1,0.1-1.1,0.1-2.2
			c0-1.1-0.2-1.1-0.1-2.3c0-1.1,0.4-1.1,0.4-2.2c0-1.1-0.2-1.1-0.2-2.3c0-1.1,0.2-1.1,0.3-2.2c0-1.1-0.1-1.1,0-2.3
			c0-1.1,0.2-1.1,0.2-2.2c0-1.1-0.4-1.1-0.4-2.3c0-1.1,0.4-1.1,0.4-2.2c0-1.1,0-1.1,0.1-2.2c0-1.1-0.2-1.1-0.2-2.3
			c0-1.1,0.2-1.1,0.3-2.2v-2.3c0-1.1-0.2-1.1-0.2-2.3c0-1.1,0.4-1.1,0.4-2.2c0-1.1-0.2-1.1-0.2-2.3v-2.2c0-1.1-0.2-1.1-0.1-2.3
			c0-1.1,0.6-1.1,0.6-2.2c0-1.1-0.5-1.1-0.4-2.3c0-1.1,0.1-1.1,0.1-2.2c0-1.1,0.2-1.1,0.2-2.2c0-1.1-0.1-1.1,0-2.2
			c0-1.1,0.4-1.1,0.5-2.2c0-1.1-0.1-1.1-0.1-2.3c0-1.1,0-1.1,0.1-2.3c0-1.1,0.1-1.1,0.1-2.2s-0.4-1.1-0.4-2.3c0-1.1,0.1-1.1,0.1-2.3
			c0-1.1,0.5-1.1,0.5-2.2c0-1.1-0.3-1.1-0.3-2.3v-2.2c0-1.1-0.1-1.1-0.1-2.3c0-1.1,0.5-1.1,0.5-2.2c0-1.1-0.4-1.1-0.4-2.3
			c0-1.1,0.4-1.1,0.4-2.2c0-1.1,0.1-1.1,0.2-2.2c0-1.1-0.1-1.1-0.1-2.3v-2.3c0-1.2,0.3-1.1,0.4-2.2c0-1.1-0.4-1.1-0.4-2.3
			c0-1.1-0.1-1.1,0-2.3c0.1-1.2-0.1-1.1,0-2.3c0.1-1.1,0.4-0.8,0.4-2.2c0-0.6,0.4-1.4,0.4-2.3c0-0.7-0.5-1.4-0.6-2.2
			c0-0.7,0-1.5-0.1-2.2c-0.1-0.7,0.4-1.5,0.3-2.3c-0.1-0.7-0.5-1.4-0.7-2.2c-0.1-0.7,0-1.5-0.2-2.3c-0.1-0.7-0.2-1.5-0.4-2.2
			s-0.5-1.4-0.7-2.2c-0.2-0.7-0.8-1.3-1-2s-0.2-1.5-0.5-2.2s-0.4-1.5-0.7-2.2c-0.3-0.7-0.5-1.4-0.8-2.1c-0.3-0.7-1.1-1.1-1.4-1.8
			s-0.7-1.3-1.1-1.9c-0.4-0.6-0.5-1.4-0.9-2.1c-0.4-0.6-0.9-1.2-1.3-1.8c-0.4-0.6-0.9-1.2-1.4-1.8s-0.8-1.2-1.4-1.8
			c-0.5-0.5-1.2-1-1.7-1.5s-1.1-1-1.7-1.5c-0.5-0.5-0.9-1.3-1.5-1.7c-0.6-0.5-1.2-0.9-1.8-1.4c-0.6-0.4-1.3-0.8-1.9-1.2
			c-0.6-0.4-1.4-0.5-2.1-0.9c-0.6-0.4-1.2-0.8-1.9-1.2c-0.6-0.4-1.2-0.8-1.9-1.2c-0.7-0.3-1.3-0.8-2-1.1s-1.4-0.5-2.1-0.8
			s-1.4-0.4-2.1-0.7c-0.7-0.2-1.4-0.5-2.1-0.8c-0.7-0.2-1.4-0.6-2.1-0.8s-1.5-0.2-2.2-0.4s-1.4-0.6-2.1-0.8s-1.5-0.3-2.2-0.4
			c-0.7-0.1-1.5-0.3-2.2-0.4c-0.7-0.1-1.5,0.1-2.3,0c-0.7-0.1-1.5,0-2.2-0.1C3396.259,815.175,3395.559,814.776,3394.759,814.776"/>
	</g>
	<g>
		<defs>
			<rect id="SVGID_5_" x="1973" y="-1346.12" width="5222.1" height="3285.4"/>
		</defs>
		<clipPath id="SVGID_6_">
			<use xlink:href="#SVGID_5_"  style="overflow:visible;"/>
		</clipPath>
		<path style="clip-path:url(#SVGID_6_);fill:#8ED2D9;" d="M3335.659,923.675c-0.4-1.1-0.6,0.2-1.8,1.2c-0.5,0.4-0.9,1.2-1.5,1.8
			c-0.5,0.5-1.4,0.7-2,1.3c-0.5,0.5-0.6,1.5-1.1,2.1s-1.4,0.8-1.9,1.4c-0.5,0.6-0.5,1.5-1,2.2c-0.4,0.6-1.4,0.9-1.8,1.5
			c-0.4,0.6-0.9,1.3-1.3,2c-0.4,0.6-0.8,1.3-1.2,2c-0.4,0.6-0.4,1.6-0.7,2.3c-0.4,0.7-0.8,1.3-1.2,2c-0.3,0.7-0.6,1.4-0.9,2.1
			c-0.3,0.7-0.9,1.2-1.2,1.9s-0.6,1.4-0.9,2.1c-0.3,0.7-0.8,1.3-1.1,2s-0.5,1.4-0.8,2.1c-0.3,0.7-0.6,1.4-0.9,2.1
			c-0.3,0.7-0.4,1.5-0.6,2.2s-0.2,1.5-0.5,2.2c-0.2,0.7-0.4,1.4-0.7,2.2c-0.2,0.7-0.4,1.4-0.6,2.2c-0.2,0.7-0.5,1.4-0.7,2.2
			c-0.2,0.7-0.8,1.3-1,2.1c-0.2,0.7,0,1.6-0.1,2.3c-0.2,0.7-0.5,1.4-0.7,2.2c-0.2,0.7-0.4,1.4-0.6,2.2c-0.2,0.7-0.3,1.5-0.4,2.2
			c-0.1,0.7-0.1,1.5-0.3,2.2c-0.1,0.7-0.5,1.4-0.6,2.2c-0.1,0.7-0.2,1.5-0.4,2.2c-0.1,0.7,0.1,1.5,0,2.3c-0.1,0.7-0.6,1.4-0.7,2.2
			c-0.1,0.7-0.1,1.5-0.2,2.3c-0.1,0.7-0.3,1.5-0.4,2.2c-0.1,0.7,0.2,1.5,0.1,2.3c-0.1,0.7-0.7,1.4-0.7,2.2c-0.1,0.7,0.1,1.5,0,2.3
			c-0.1,0.7,0.2,1.5,0.2,2.3c-0.1,0.7-0.6,1.5-0.6,2.2c-0.1,0.7,0.2,1.5,0.2,2.3c-0.1,0.7-0.1,1.5-0.2,2.3c0,0.7-0.2,1.5-0.3,2.3
			c0,0.7-0.1,1.5-0.2,2.3c0,0.7,0.1,1.5,0.1,2.3c0,0.7-0.4,1.5-0.4,2.3s0.4,1.5,0.3,2.3c0,0.8-0.3,1.5-0.3,2.3v2.3
			c0,0.8,0.4,1.5,0.4,2.3s-0.4,1.5-0.4,2.3s0.2,1.5,0.2,2.3s0.2,1.5,0.2,2.3s-0.2,1.5-0.2,2.3s-0.2,1.5-0.2,2.3s0.1,1.5,0.1,2.3
			s0.4,1.5,0.4,2.3v2.3c0,0.8-0.3,1.5-0.2,2.3c0,0.8,0,1.5,0.1,2.3c0,0.8,0.6,1.5,0.6,2.3v2.3c0,0.8,0.1,1.5,0.2,2.3
			c0,0.8,0.1,1.5,0.1,2.3s-0.2,1.5-0.2,2.3c0.1,0.8,0.1,1.5,0.2,2.3c0.1,0.8,0.4,1.5,0.5,2.2c0.1,0.8-0.1,1.5,0,2.3
			c0.1,0.8,0.2,1.5,0.3,2.3s-0.3,1.6-0.2,2.3c0.1,0.8,0.5,1.5,0.6,2.2c0.1,0.8,0.3,1.5,0.3,2.2c0.1,0.8-0.2,1.6-0.1,2.3
			c0.1,0.8,0.3,1.5,0.4,2.2c0.1,0.8,0.1,1.5,0.2,2.3c0.1,0.8,0.6,1.5,0.8,2.2c0.1,0.8-0.1,1.6,0,2.3c0.1,0.8,0.6,1.5,0.7,2.2
			c0.1,0.8-0.2,1.6-0.1,2.3c0.1,0.8,0.7,1.4,0.9,2.1c0.2,0.8,0.1,1.6,0.2,2.3c0.2,0.8,0.5,1.5,0.6,2.2c0.2,0.8,0.4,1.5,0.6,2.2
			c0.2,0.8,0.3,1.5,0.5,2.2c0.2,0.8,0.7,1.4,0.9,2.1c0.2,0.7,0.1,1.5,0.4,2.1c0.2,0.7,0.2,1.5,0.5,2.1c0.3,0.7,1.1,1.2,1.3,1.8
			c0.3,0.7,0.5,1.4,0.8,2c0.3,0.7,0.3,1.5,0.7,2.1c0.4,0.7,0.7,1.4,1,1.9c0.5,0.7,1.2,1.1,1.6,1.5c1,1.1,0.5,1.1,1.5,1.3
			c0.8,0.2,0.6-0.1,1.6-0.3c0.5-0.1,1.2,0.2,1.8,0.1c0.8-0.2,1.6-0.7,2.3-1.2c0.7-0.5,1.4-1.3,1.5-2.1c0-0.3-0.4-1.1-0.4-2.3
			c0-0.6,0.4-1.4,0.3-2.2c0-0.7-0.6-1.4-0.6-2.2v-2.2c0-0.7,0-1.5-0.1-2.2c0-0.7,0.2-1.5,0.1-2.2c0-0.7-0.1-1.5-0.1-2.2
			s-0.1-1.5-0.1-2.2s-0.1-1.5-0.2-2.2c0-0.7,0.2-1.5,0.2-2.2v-2.2c0-0.7-0.1-1.5-0.1-2.2v-2.2c0-0.7,0.1-1.5,0.1-2.2
			s-0.5-1.5-0.5-2.2s-0.1-1.5-0.1-2.2s0.3-1.5,0.3-2.2s0.2-1.5,0.2-2.2s-0.4-1.5-0.4-2.2s-0.2-1.5-0.2-2.3c0-0.7,0.6-1.5,0.6-2.2
			s-0.1-1.5-0.1-2.3c0-0.7-0.1-1.5-0.1-2.3s0.2-1.5,0.2-2.2c0-0.8-0.5-1.5-0.4-2.3c0-0.8,0.1-1.5,0.1-2.3v-2.3
			c0-0.8,0.3-1.5,0.3-2.2c0-0.8,0.3-1.5,0.3-2.2c0-0.8,0.1-1.5,0.2-2.3c0.1-0.8-0.1-1.5,0-2.3c0.1-0.8,0.4-1.5,0.5-2.2
			c0.1-0.8,0.2-1.5,0.3-2.2c0.1-0.8,0.1-1.5,0.2-2.2c0.1-0.8-0.3-1.6-0.2-2.3c0.1-0.8,0.6-1.4,0.7-2.2c0.1-0.8-0.3-1.6-0.2-2.3
			c0.1-0.8,0.6-1.4,0.7-2.2c0.1-0.8,0.2-1.5,0.3-2.2s0.4-1.5,0.6-2.2s0.2-1.5,0.4-2.2s0.2-1.5,0.4-2.2c0.2-0.7,0.7-1.4,0.9-2.1
			c0.2-0.7,0-1.6,0.2-2.3s0.9-1.3,1.1-2c0.3-0.7,0.4-1.5,0.7-2.1c0.1-1.1,0-1.1,0-2.3v-2.3c0-1.1,0.2-1.1,0.3-2.3
			c0-1.1-0.1-1.1-0.1-2.3c0-1.1-0.1-1.1-0.1-2.3c0-1.1,0.1-1.1,0.2-2.3c0-1.1,0.1-1.1,0.2-2.3c0-1.1,0.4-1.1,0.4-2.3
			c0-1.1-0.3-1.1-0.2-2.3c0-1.1-0.3-1.1-0.3-2.3c0-1.1,0.2-1.1,0.2-2.3c0-1.1,0.2-1.1,0.3-2.3c0-1.1-0.1-1.1-0.1-2.3
			c0-1.1,0.1-1.1,0.1-2.3c0-1.1-0.1-1.1-0.1-2.3c0-1.1,0.3-1.1,0.3-2.3c0-1.1,0.1-1.1,0.2-2.3c0-1.1,0.1-1.1,0.1-2.3
			c0-1.1-0.2-1.2-0.2-2.3v-2.3c0-1.1-0.1-1.1-0.1-2.3c0-1.1,0.4-1.1,0.5-2.3c0-1.1-0.4-1.1-0.3-2.3c0-1.1,0.3-1.1,0.3-2.3
			c0-1.1-0.2-1.1-0.2-2.3c0-1.1,0.2-1.1,0.2-2.3c0-1.1-0.2-1.1-0.2-2.3c0-1.1,0.5-1.1,0.5-2.3c0-1.1-0.4-1.2-0.4-2.3
			s0.3-1.1,0.4-2.3c0-1.1-0.3-1.1-0.2-2.3c0-1.1,0.4-1.1,0.4-2.3c0-1.1-0.1-1.1,0-2.3c0-1.1,0.4-1.1,0.4-2.3c0-1.1-0.2-1.1-0.2-2.3
			c0-1.1,0.1-1.1,0.1-2.3s-0.1-1.1-0.1-2.3c0-1.1,0.2-1.1,0.2-2.3c0-1.1,0-1.1,0.1-2.3
			C3336.059,924.776,3335.959,924.776,3335.659,923.675"/>
	</g>
	<g>
		<defs>
			<rect id="SVGID_7_" x="1973" y="-1346.12" width="5222.1" height="3285.4"/>
		</defs>
		<clipPath id="SVGID_8_">
			<use xlink:href="#SVGID_7_"  style="overflow:visible;"/>
		</clipPath>
		<path style="clip-path:url(#SVGID_8_);fill:#8ED2D9;" d="M3479.159,864.175c0.2,1.1,0,0.8,0.2,2.3c0.1,0.6,0.3,1.4,0.4,2.2
			c0.1,0.7-0.2,1.5-0.1,2.3c0.1,0.7,0.5,1.4,0.6,2.2c0.1,0.7-0.1,1.5,0,2.3c0.1,0.7,0,1.5,0,2.3c0.1,0.7,0.1,1.5,0.1,2.3
			c0,0.7,0.6,1.5,0.6,2.2s-0.1,1.5-0.1,2.3c0,0.7,0.3,1.5,0.3,2.3c0,0.7-0.4,1.5-0.4,2.3c0,0.7-0.1,1.5-0.1,2.3c0,0.7,0,1.5-0.1,2.3
			c0,0.8,0.1,1.5,0.1,2.3s0,1.5-0.1,2.3c0,0.8-0.2,1.5-0.3,2.3c-0.1,0.8,0,1.5-0.1,2.3c-0.1,0.8,0,1.5-0.1,2.3
			c-0.1,0.8,0,1.5-0.1,2.3c-0.1,0.8-0.2,1.5-0.3,2.3s-0.5,1.5-0.7,2.2c-0.1,0.8-0.5,1.5-0.6,2.2c-0.2,0.7-0.4,1.5-0.6,2.2
			s-0.4,1.5-0.6,2.2s0,1.6-0.2,2.3s-0.9,1.3-1.1,2c-0.3,0.7-0.5,1.4-0.8,2.1c-0.3,0.7-0.5,1.5-0.8,2.1c-0.3,0.7-0.4,1.5-0.8,2.2
			c-0.4,0.7-0.9,1.3-1.3,1.9c-0.4,0.7-0.9,1.3-1.3,1.9c-0.4,0.6-1.1,1.1-1.5,1.7c-0.5,0.6-0.6,1.5-1.2,2c-0.5,0.6-1.3,0.8-1.9,1.4
			c-0.6,0.5-1,1.2-1.6,1.7c-0.6,0.5-1.5,0.5-2.1,1c-0.6,0.4-1.2,1-1.8,1.3c-0.7,0.4-1.3,0.8-2,1.1s-1.4,0.6-2.1,0.9
			c-0.7,0.2-1.5,0.3-2.2,0.5s-1.4,0.7-2.1,0.9c-0.7,0.1-1.5,0.1-2.3,0.2c-0.7,0.1-1.5,0-2.3,0h-2.4c-0.9,0.7-0.5,1.2-1.3,2.1
			c-0.8,0.9-0.8,0.9-1.6,1.8c-0.8,0.9-0.9,0.8-1.6,1.8c-0.8,0.9-0.8,0.9-1.6,1.8c-0.8,0.9-0.6,1-1.4,1.9s-1.2,0.6-1.6,1.8
			c-0.4,1.1,0.3,1.2,0.3,2.3c0,1.2-0.2,1.2-0.2,2.3c0,1.2,0.1,1.2,0.1,2.3c0,1.2-0.5,1.2-0.5,2.3c0,1.2,0.3,1.2,0.3,2.3
			c0,1.2-0.1,1.2-0.1,2.3s0.2,1.1,0.2,2.3s-0.4,1.2-0.4,2.3c0,1.2,0.1,1.2,0.1,2.3s0.2,1.2,0.2,2.3c0,1.2,0.3,1.2,0.3,2.3
			c0,1.2-0.4,1.2-0.4,2.3s0.3,1.2,0.3,2.3v2.3c0,1.2-0.2,1.2-0.2,2.3c0,1.2-0.4,1.2-0.4,2.3v2.3c0,1.2,0.4,1.2,0.4,2.3
			c0,1.2-0.3,1.2-0.3,2.3s0.2,1.1,0.2,2.3s-0.3,1.2-0.3,2.3c0,1.2,0.3,1.2,0.3,2.3s-0.1,1.2-0.1,2.3v2.3v2.3c0,1.1-0.3,1.2,0.1,2.3
			c0.4,1.1,0.9,0,2.2-0.5c0.6-0.2,1.3-0.5,2.1-0.8c0.6-0.2,1.3-0.5,2.1-0.9c0.7-0.3,1.3-0.6,2.1-0.9c0.7-0.3,1.4-0.5,2.1-0.8
			s1.2-0.8,2-1.2c0.7-0.3,1.3-0.7,2-1s1.4-0.5,2.1-0.8s1.3-0.8,1.9-1.1c0.7-0.3,1.4-0.5,2.1-0.8c0.7-0.4,1.1-1,1.8-1.4
			c0.6-0.4,1.2-0.8,1.9-1.2c0.6-0.4,1.5-0.5,2.1-0.8c0.6-0.4,1.2-1,1.8-1.4s1.2-0.9,1.8-1.3c0.6-0.4,1.4-0.5,2.1-1
			c0.6-0.4,1.1-1,1.7-1.5c0.6-0.4,1.5-0.5,2.1-1c0.6-0.4,0.9-1.3,1.5-1.8c0.6-0.5,1.2-0.9,1.8-1.4s1.3-0.8,1.9-1.3
			c0.6-0.5,1-1.1,1.6-1.6c0.6-0.5,1.1-1,1.7-1.5c0.5-0.5,1.3-0.8,1.8-1.3s0.9-1.2,1.4-1.8c0.5-0.5,0.8-1.3,1.3-1.8
			c0.5-0.6,0.9-1.2,1.4-1.7c0.5-0.6,1.4-0.8,1.9-1.4s0.6-1.4,1.1-2c0.4-0.6,0.8-1.3,1.2-1.9c0.4-0.6,1.1-1,1.5-1.7
			c0.4-0.6,0.6-1.4,1-2c0.4-0.6,0.6-1.4,1-2c0.4-0.7,0.9-1.2,1.3-1.9c0.3-0.7,0.5-1.4,0.8-2.1c0.3-0.7,0.7-1.3,1-2s0.7-1.3,1-2
			s0.3-1.5,0.6-2.2c0.2-0.7,0.6-1.4,0.8-2.1c0.2-0.7-0.1-1.6,0-2.3c0.2-0.7,0.6-1.4,0.7-2.2c0.1-0.7,0.2-1.5,0.3-2.2
			c0.1-0.7,0.5-1.4,0.7-2.2c0.1-0.7-0.2-1.5-0.1-2.3c0.1-0.7,0.1-1.5,0.2-2.2c0.1-0.7,0.3-1.5,0.4-2.2c0.1-0.7,0.1-1.5,0.1-2.3
			c0.1-0.7,0.1-1.5,0.2-2.2c0-0.8,0.1-1.5,0.1-2.3s0.3-1.5,0.3-2.2c0-0.8-0.3-1.5-0.3-2.3s0.5-1.5,0.5-2.3v-2.3
			c0-0.8-0.2-1.5-0.2-2.3s-0.1-1.5-0.2-2.3c0-0.8-0.3-1.5-0.3-2.2c0-0.8,0.1-1.5,0-2.3c0-0.8-0.1-1.5-0.1-2.3s0.3-1.5,0.2-2.3
			c-0.1-0.8-0.7-1.5-0.8-2.2c-0.1-0.8-0.1-1.5-0.1-2.3c-0.1-0.8,0.1-1.5,0-2.3c-0.1-0.8-0.1-1.5-0.2-2.2c-0.1-0.8-0.1-1.5-0.2-2.2
			c-0.1-0.8-0.4-1.5-0.5-2.2c-0.1-0.8,0.1-1.5,0-2.3c-0.1-0.8,0-1.5-0.1-2.3c-0.1-0.7-0.7-1.4-0.8-2.2c-0.1-0.7,0.3-1.6,0.1-2.3
			c-0.1-0.8-0.8-1.4-0.9-2.2c-0.1-0.8-0.1-1.6-0.2-2.3c-0.1-0.8-0.4-1.5-0.5-2.3c-0.1-0.8-0.4-1.5-0.6-2.3s0-1.6-0.2-2.3
			c-0.2-0.8-0.5-1.5-0.6-2.2c-0.2-0.8,0-1.6-0.1-2.3c-0.2-0.8-0.6-1.5-0.7-2.2c-0.2-0.8-0.4-1.5-0.6-2.2c-0.2-0.8-0.5-1.5-0.7-2.2
			c-0.2-0.8-0.4-1.5-0.5-2.3c-0.2-0.8,0-1.7-0.2-2.4c-0.2-0.8-0.8-1.5-0.9-2.1c-0.2-0.9-0.1-1.7-0.3-2.3c-0.4-1.4-0.6-1-0.9-2.1
			s0.1-1.1-0.5-2.3c-0.3-0.6-0.8-1.3-1.3-1.9c-0.4-0.6-1-1.1-1.6-1.6c-0.5-0.5-1.1-1-1.7-1.4c-0.6-0.4-1.4-0.4-2.1-0.6
			c-0.7-0.2-1.2-1-2-1.1c-1.1-0.1-1.8,0.6-2.5,0.9c-0.8,0.4-1.2,0.9-1.6,1.8c-0.3,0.7-0.5,1.6-0.6,2.5c0,0.7-0.4,1.4-0.3,2.2
			c0,0.7,0.5,1.4,0.6,2.1c0.1,0.7-0.2,1.5-0.1,2.2C3478.459,862.876,3479.059,863.576,3479.159,864.175"/>
	</g>
	<g>
		<defs>
			<rect id="SVGID_9_" x="1973" y="-1346.12" width="5222.1" height="3285.4"/>
		</defs>
		<clipPath id="SVGID_10_">
			<use xlink:href="#SVGID_9_"  style="overflow:visible;"/>
		</clipPath>
		<path style="clip-path:url(#SVGID_10_);fill:#ECE5CA;" d="M3419.059,851.276c0,0.8-0.1,1.6-0.2,2.4c-0.1,0.8-0.7,1.5-0.9,2.2
			c-0.2,0.8-0.3,1.5-0.6,2.3c-0.3,0.7-0.1,1.6-0.4,2.4c-0.3,0.7-0.7,1.4-1.1,2.1c-0.4,0.7-1.2,1.1-1.7,1.7s-0.8,1.3-1.3,1.9
			s-0.9,1.3-1.5,1.8c-0.6,0.5-1.2,1-1.8,1.5s-1.1,0.9-1.7,1.3c-0.6,0.4-1,1.2-1.6,1.5c-0.6,0.4-1.5,0.3-2.1,0.7
			c-0.6,0.3-1.3,0.6-2,0.9c-0.7,0.3-1.2,0.8-1.9,1c-0.7,0.2-1.3,0.7-2,0.9s-1.4,0.3-2.1,0.5s-1.5,0-2.2,0.2
			c-0.7,0.1-1.4,0.3-2.1,0.4c-0.7,0.1-1.4,0-2.2,0h-2.2c-0.7,0-1.5,0.3-2.2,0.3s-1.4-0.4-2.2-0.4c-0.7-0.1-1.4-0.3-2.1-0.5
			c-0.7-0.1-1.5-0.1-2.2-0.3s-1.5-0.2-2.1-0.4c-0.7-0.2-1.3-0.6-2-0.9c-0.7-0.3-1.5-0.1-2.2-0.4c-0.7-0.3-1.1-1.1-1.7-1.5
			c-0.6-0.3-1.3-0.6-2-0.9c-0.6-0.4-1.4-0.5-2-1c-0.6-0.4-1.1-0.9-1.7-1.4c-0.6-0.5-1-1.2-1.5-1.8c-0.6-0.6-1.1-1.1-1.6-1.7
			s-1-1.2-1.5-1.8s-1-1.2-1.4-1.9c-0.4-0.7-1-1.3-1.3-2s-0.2-1.6-0.4-2.4c-0.3-0.7-0.8-1.4-1-2.2s-0.2-1.6-0.3-2.4
			c-0.1-0.8-0.4-1.6-0.4-2.4c0-0.8,0.4-1.6,0.5-2.3c0.1-0.8-0.1-1.6,0.1-2.4c0.2-0.8,0.8-1.4,1.1-2.2c0.3-0.7,0.7-1.4,1-2.1
			c0.3-0.7,0.2-1.7,0.5-2.4c0.4-0.7,0.9-1.3,1.4-1.9c0.5-0.6,1.2-1,1.7-1.6s0.7-1.5,1.3-2s1.5-0.6,2.1-1.1c0.6-0.5,1-1,1.6-1.4
			c0.6-0.4,1-1.1,1.7-1.5c0.6-0.4,1.3-0.7,2-1c0.6-0.3,1.3-0.7,1.9-1c0.7-0.3,1.5-0.2,2.2-0.5c0.7-0.2,1.3-0.8,2-1s1.4-0.5,2.1-0.6
			c0.7-0.2,1.5-0.2,2.2-0.3s1.4-0.3,2.2-0.4c0.7-0.1,1.5,0.2,2.2,0.1c0.7,0,1.4-0.5,2.2-0.5c0.7,0,1.5,0.3,2.2,0.3s1.4,0.2,2.2,0.3
			c0.7,0.1,1.5,0,2.2,0.1s1.4,0.3,2.1,0.5s1.4,0.5,2,0.8c0.7,0.2,1.5,0,2.2,0.2c0.7,0.3,1.4,0.5,2.1,0.8s1.2,0.8,1.9,1.2
			c0.6,0.3,1.3,0.7,1.9,1.1c0.6,0.4,1.3,0.7,1.8,1.2c0.6,0.4,1.1,0.9,1.7,1.4c0.6,0.5,1.3,1,1.8,1.5c0.6,0.6,1.2,1,1.7,1.6
			s0.8,1.4,1.3,2s1.1,1.2,1.5,1.8c0.4,0.7,0.8,1.4,1.1,2.1c0.3,0.7,0.6,1.5,0.9,2.2s0.4,1.5,0.6,2.3s0.3,1.6,0.3,2.4
			C3418.959,849.675,3419.059,850.476,3419.059,851.276"/>
	</g>
	<g>
		<defs>
			<rect id="SVGID_11_" x="1973" y="-1346.12" width="5222.1" height="3285.4"/>
		</defs>
		<clipPath id="SVGID_12_">
			<use xlink:href="#SVGID_11_"  style="overflow:visible;"/>
		</clipPath>
		<g style="clip-path:url(#SVGID_12_);">
			<g style="opacity:0.58;">
				<g>
					<defs>
						<rect id="SVGID_13_" x="3366.06" y="837.98" width="12.01" height="11.91"/>
					</defs>
					<clipPath id="SVGID_14_">
						<use xlink:href="#SVGID_13_"  style="overflow:visible;"/>
					</clipPath>
					<path style="clip-path:url(#SVGID_14_);fill:#E16C53;" d="M3378.059,844.076c0,0.8-0.1,1.5-0.4,2.2s-0.6,1.4-1.2,2
						c-0.5,0.5-1.3,0.9-2,1.2s-1.4,0.4-2.2,0.4c-0.8,0-1.6,0.1-2.3-0.2c-0.7-0.3-1.1-1.1-1.7-1.6c-0.5-0.5-1.2-1-1.5-1.7
						s-0.7-1.5-0.7-2.3s0.4-1.6,0.7-2.3c0.3-0.7,0.7-1.4,1.3-1.9s1.3-0.8,2-1.1s1.4-0.8,2.2-0.8c0.8,0,1.5,0.6,2.2,0.9
						c0.7,0.3,1.6,0.4,2.1,0.9s0.9,1.3,1.2,2C3378.159,842.476,3378.059,843.276,3378.059,844.076"/>
				</g>
			</g>
			<g>
				<defs>
					<rect id="SVGID_15_" x="1973" y="-1346.12" width="5222.1" height="3285.4"/>
				</defs>
				<clipPath id="SVGID_16_">
					<use xlink:href="#SVGID_15_"  style="overflow:visible;"/>
				</clipPath>
				<g style="clip-path:url(#SVGID_16_);">
					<g style="opacity:0.58;">
						<g>
							<defs>
								<rect id="SVGID_17_" x="3395.93" y="839.38" width="12.03" height="12"/>
							</defs>
							<clipPath id="SVGID_18_">
								<use xlink:href="#SVGID_17_"  style="overflow:visible;"/>
							</clipPath>
							<path style="clip-path:url(#SVGID_18_);fill:#E16C53;" d="M3407.959,845.376c0,0.8-0.6,1.5-0.9,2.2s-0.6,1.4-1.1,2
								s-1.3,0.7-2,1s-1.3,0.8-2.2,0.8s-1.5-0.5-2.2-0.7c-0.7-0.3-1.3-0.7-1.8-1.3c-0.5-0.5-1.3-1-1.6-1.7c-0.3-0.7-0.1-1.5-0.1-2.3
								s-0.3-1.6,0-2.3s0.7-1.5,1.3-2c0.5-0.5,1.4-0.7,2.1-1s1.4-0.7,2.2-0.7c0.8,0,1.6,0,2.3,0.3c0.7,0.3,1.1,1.1,1.7,1.6
								c0.5,0.5,1,1.1,1.3,1.8C3407.359,843.876,3407.959,844.576,3407.959,845.376"/>
						</g>
					</g>
					<g>
						<defs>
							<rect id="SVGID_19_" x="1973" y="-1346.12" width="5222.1" height="3285.4"/>
						</defs>
						<clipPath id="SVGID_20_">
							<use xlink:href="#SVGID_19_"  style="overflow:visible;"/>
						</clipPath>
						<path style="clip-path:url(#SVGID_20_);fill:#0F1427;" d="M3379.759,837.675c0,0.5-0.2,1.1-0.5,1.4c-0.3,0.3-0.9,0.3-1.4,0.3
							s-1.1,0-1.4-0.3s-0.4-0.9-0.4-1.4s0.1-1,0.4-1.3s0.9-0.6,1.3-0.6c0.4,0,0.9,0.5,1.2,0.8
							C3379.359,836.776,3379.759,837.175,3379.759,837.675"/>
					</g>
					<g>
						<defs>
							<rect id="SVGID_21_" x="1973" y="-1346.12" width="5222.1" height="3285.4"/>
						</defs>
						<clipPath id="SVGID_22_">
							<use xlink:href="#SVGID_21_"  style="overflow:visible;"/>
						</clipPath>
						<path style="clip-path:url(#SVGID_22_);fill:#0F1427;" d="M3397.659,838.776c0,0.5,0.1,1.1-0.3,1.4c-0.3,0.3-0.9,0.5-1.4,0.5
							s-1.1-0.2-1.4-0.5s-0.1-0.9-0.1-1.4s0.1-0.7,0.4-1.1c0.3-0.3,0.6-1,1.1-1s1,0.4,1.3,0.8
							C3397.559,837.776,3397.659,838.276,3397.659,838.776"/>
					</g>
					<g>
						<defs>
							<rect id="SVGID_23_" x="1973" y="-1346.12" width="5222.1" height="3285.4"/>
						</defs>
						<clipPath id="SVGID_24_">
							<use xlink:href="#SVGID_23_"  style="overflow:visible;"/>
						</clipPath>
						
							<path style="clip-path:url(#SVGID_24_);fill:none;stroke:#0F1427;stroke-width:1.871;stroke-linecap:round;stroke-miterlimit:10;" d="
							M3381.659,843.776c1.7,0,1.4,0.3,3.3,0.1c0.7-0.1,1.5,0.1,2.3-0.1c0.7-0.1,1.5-0.3,2.2-0.5s1.4-0.7,2.1-1"/>
					</g>
				</g>
			</g>
		</g>
	</g>
</g>
</svg>
