<?xml version="1.0" encoding="utf-8"?>
<!-- Generator: Adobe Illustrator 19.0.0, SVG Export Plug-In . SVG Version: 6.00 Build 0)  -->
<svg version="1.1" id="Layer_1" xmlns="http://www.w3.org/2000/svg" xmlns:xlink="http://www.w3.org/1999/xlink" x="0px" y="0px"
	 viewBox="-290 337 259.3 518.5" style="enable-background:new -290 337 259.3 518.5;" xml:space="preserve">
<style type="text/css">
	.st0{fill:#8ED2D9;}
	.st1{fill:#ECE5CA;}
	.st2{opacity:0.58;}
	.st3{clip-path:url(#SVGID_2_);fill:#E16C53;}
	.st4{clip-path:url(#SVGID_4_);fill:#E16C53;}
	.st5{fill:#0F1427;}
	.st6{fill:none;stroke:#0F1427;stroke-width:2.3976;stroke-linecap:round;stroke-miterlimit:10;}
</style>
<g>
	<g>
		<path class="st0" d="M-85.6,468.1c0-0.9,0.5-1.8,0.6-2.9c0-0.9-0.1-1.9-0.1-2.8c0-0.9-0.1-1.9-0.2-2.9c-0.1-1,0-1.8-0.2-2.9
			c-0.2-0.9-0.5-1.9-0.7-2.8c-0.2-0.9-0.4-1.9-0.7-2.8c-0.2-0.9,0-2-0.4-2.9c-0.3-1-0.6-1.8-0.9-2.8c-0.3-0.9-0.8-1.8-1.1-2.6
			c-0.3-0.9-1.1-1.5-1.6-2.5c-0.3-0.9-0.7-1.7-1.1-2.6c-0.3-0.9-0.7-1.7-1.1-2.6c-0.5-0.8-0.8-1.8-1.3-2.6c-0.5-0.8-1.1-1.5-1.6-2.4
			c-0.5-0.8-1.2-1.4-1.7-2.3c-0.6-0.7-1.1-1.5-1.6-2.4c-0.6-0.7-1-1.6-1.6-2.4c-0.6-0.7-1.4-1.3-2-2c-0.6-0.7-1-1.6-1.6-2.4
			c-0.6-0.7-1.4-1.4-2-2c-0.7-0.6-1.4-1.4-2-2c-0.7-0.6-1.7-1-2.4-1.7c-0.7-0.6-1.6-1.1-2.3-1.7c-1.5,0.2-2-0.7-2.8-1.3
			c-1.1-0.9-0.7-0.8-2.4-1.8c-0.6-0.4-1.7-0.7-2.7-1.3c-0.7-0.5-1.4-1.3-2.4-1.8c-0.8-0.4-1.8-0.5-2.8-1c-0.8-0.4-1.7-0.9-2.5-1.3
			c-0.8-0.4-1.7-0.9-2.7-1.3c-0.8-0.4-1.8-0.8-2.6-1.2c-0.8-0.4-1.8-0.5-2.8-0.9c-0.9-0.3-1.7-1-2.7-1.3c-0.9-0.3-1.9-0.7-2.8-1
			c-0.9-0.3-1.7-0.9-2.7-1.1c-0.9-0.3-1.9-0.7-2.8-0.9c-0.9-0.3-1.9-0.7-2.8-0.9c-1-0.2-2,0-3-0.2c-1-0.2-1.9-0.7-2.8-0.9
			c-1-0.2-2,0-3-0.2c-1-0.2-1.9-0.4-2.9-0.6c-1-0.1-2-0.1-3-0.2c-0.9,0-1.9,0.1-3,0c-0.9,0-2-0.3-3-0.2c-1,0.1-2,0.4-3,0.5
			c-1,0.1-2,0-2.9,0.2c-1,0.1-1.8,0.8-2.9,1c-0.9,0.2-2,0.2-2.9,0.4c-0.9,0.2-2,0-2.9,0.4c-0.9,0.3-1.7,0.9-2.6,1.3
			c-0.9,0.3-1.5,1.1-2.5,1.6c-0.8,0.4-1.9,0.4-2.7,1c-0.8,0.5-1.2,1.5-2,2c-0.8,0.5-1.7,0.9-2.5,1.4c-0.7,0.6-1.7,0.9-2.4,1.5
			c-0.7,0.6-1.2,1.5-1.9,2.1c-0.7,0.6-1.8,0.8-2.5,1.4c-0.7,0.6-1.3,1.4-2,2c-0.7,0.6-1.5,1.1-2.3,1.7c-0.7,0.6-1.2,1.5-1.9,2.1
			c-0.6,0.7-1.4,1.2-2.1,2c-0.6,0.7-1.4,1.2-2.1,2c-0.6,0.7-1.1,1.6-1.7,2.3c-0.6,0.7-1.2,1.5-1.8,2.2c-0.6,0.7-1.4,1.2-2.1,2
			c-0.6,0.7-1.3,1.3-2,2c-0.6,0.7-1.2,1.5-1.8,2.2c-0.6,0.7-1.3,1.4-1.9,2.1c-0.6,0.7-1.1,1.6-1.7,2.3c-0.6,0.7-1.5,1.3-2,2
			c-0.6,0.7-1.1,1.6-1.6,2.3c-0.5,0.7-1.1,1.6-1.7,2.3c-0.5,0.7-1.1,1.6-1.7,2.3c-0.5,0.7-1.5,1.3-2.1,2l-1.6,2.3
			c-0.5,0.7-0.8,1.8-1.3,2.5c-0.5,0.7-1.4,1.4-2,2c-0.5,0.7-0.9,1.7-1.4,2.5c-0.5,0.7-1.4,1.4-1.9,2.1c-0.5,0.7-1.3,1.4-1.8,2.2
			c-0.5,0.7-0.7,1.9-1.3,2.5c-0.6,0.8-1.4,1.4-1.9,2.1c-0.6,0.8-1,1.7-1.5,2.4c-0.6,0.8-0.9,1.7-1.4,2.5c-0.6,0.8-1.5,1.3-2,2
			c-0.6,0.8-1,1.7-1.5,2.4c-0.1,0.2-0.3,0.3-0.4,0.5v255c0.1-0.3,0.3-0.7,0.7-1.2c0.8-1.2,1.2-0.9,2-2c0.8-1.2,0.7-1.2,1.6-2.5
			c0.8-1.2,0.8-1.2,1.8-2.4c0.8-1.2,0.9-1.1,1.8-2.4c0.8-1.2,0.6-1.3,1.4-2.5s0.7-1.2,1.5-2.4c0.8-1.2,1.1-0.9,1.9-2.1
			c0.8-1.2,0.5-1.4,1.3-2.7c0.8-1.2,0.9-1.1,1.7-2.3c0.8-1.2,1-1,1.8-2.2l1.6-2.3l1.6-2.3c0.8-1.2,0.7-1.2,1.5-2.4
			c0.8-1.2,0.9-1.1,1.7-2.3c0.8-1.2,1.2-0.9,2.1-2l1.6-2.3c0.8-1.2,0.6-1.3,1.5-2.4l1.6-2.3c0.8-1.2,1-1,1.9-2.1
			c0.8-1.2,0.5-1.4,1.3-2.7c0.8-1.2,0.9-1.1,1.7-2.3c0.8-1.2,0.7-1.2,1.5-2.4s1.3-0.8,2.1-2c0.8-1.2,0.6-1.3,1.5-2.6
			c0.8-1.2,0.7-1.2,1.5-2.4c0.8-1.2,1.2-0.9,2-2c0.8-1.2,0.5-1.4,1.3-2.7c0.8-1.2,1-1,1.9-2.1c0.8-1.2,0.5-1.4,1.3-2.7
			c0.8-1.2,1.2-0.9,2-2c0.8-1.2,0.4-1.5,1.2-2.7c0.8-1.2,1-1,1.8-2.2c0.8-1.2,1-1,1.8-2.2c0.8-1.2,0.6-1.3,1.5-2.6
			c0.8-1.2,1-1,1.8-2.2l1.6-2.3c0.8-1.2,0.7-1.2,1.6-2.3c0.8-1.2,0.7-1.2,1.5-2.4c0.8-1.2,1.1-0.9,2-2c0.8-1.2,1-1,1.8-2.2
			c0.8-1.2,0.3-1.5,1.2-2.7c0.8-1.2,1.4-0.7,2.2-1.9c0.8-1.2,0.6-1.3,1.6-2.5c0.8-1.2,1-1,1.8-2.2c0.8-1.2,0.3-1.5,1.1-2.8
			c0.8-1.2,1.2-0.9,2-2c0.8-1.2,0.7-1.2,1.5-2.4c0.8-1.2,0.9-1.1,1.7-2.3c0.8-1.2,1.1-0.9,1.9-2.1c0.8-1.2,0.4-1.5,1.3-2.7
			c0.8-1.2,0.9-1.1,1.7-2.3c0.8-1.2,0.6-1.3,1.6-2.5c0.8-1.2,1.2-0.9,2-2c0.8-1.2,0.6-1.3,1.5-2.6c0.8-1.2,1-1,1.9-2.1
			c0.8-1.2,0.7-1.2,1.7-2.4c0.8-1.2,1-1,1.8-2.2c0.8-1.2,0.4-1.5,1.2-2.7c0.8-1.2,1.2-0.9,2-2c0.8-1.2,0.8-1.2,1.7-2.3
			c0.8-1.2,0.6-1.3,1.5-2.6c0.8-1.2,1-1,1.9-2.1l1.7-2.4c0.8-1.2,0.6-1.3,1.5-2.6c0.8-1.2,1.2-0.9,2-2c0.8-1.2,0.6-1.3,1.5-2.6
			l1.6-2.3c0.8-1.2,0.6-1.3,1.6-2.5c0.8-1.2,1.4-0.7,2.2-1.9c0.8-1.2,0.3-1.5,1.2-2.7c0.8-1.2,0.9-1.1,1.7-2.3c0.8-1.2,1-1,1.8-2.2
			c0.8-1.2,0.7-1.2,1.6-2.3c0.8-1.2,1.2-0.9,2.1-2c0.8-1.2,0.7-1.2,1.6-2.5c0.8-1.2,0.8-1.2,1.8-2.4c0.8-1.2,0.9-1.1,1.7-2.3
			c0.8-1.2,0.4-1.5,1.2-2.7c0.8-1.2,0.9-1.1,1.8-2.4c0.8-1.2,1.3-0.8,2.1-2c0.8-1.2,0.5-1.4,1.3-2.6l1.6-2.3
			c0.8-1.2,0.7-1.2,1.6-2.5c0.8-1.2,1.3-0.8,2.1-2c0.8-1.2,0.4-1.5,1.2-2.7c0.8-1.2,1.2-0.9,2-2c0.8-1.2,0.9-1.1,1.8-2.2
			c0.8-1.2,0.7-1.2,1.6-2.5l1.7-2.4c0.9-1.3,1.1-0.9,2-2c0.8-1.2,0.4-1.5,1.2-2.7c0.8-1.2,0.7-1.2,1.7-2.4s0.7-1.2,1.7-2.4
			c0.9-1.1,1-0.6,2-2c0.4-0.6,1.4-1.2,2.1-2.1c0.5-0.7,0.5-1.8,1-2.8c0.5-0.7,1.1-1.6,1.5-2.4c0.4-0.8,1.5-1.3,2-2.2
			c0.4-0.8,0.5-1.8,0.9-2.8c0.4-0.8,1.1-1.6,1.5-2.6c0.4-0.8,0.9-1.7,1.2-2.6c0.3-0.9,0.5-1.8,0.9-2.8c0.3-0.9,0.1-2,0.4-2.8
			c0.3-0.9,0.9-1.7,1.1-2.7c0.2-1,0.7-1.9,0.9-2.8c0.2-1,0.5-1.8,0.7-2.8c0.2-1-0.4-2-0.2-2.9C-85.7,470-85.7,469-85.6,468.1z"/>
	</g>
	<g>
		<g>
			<path class="st0" d="M-84.1,410.6c-0.5,0.7-0.9,1.7-1.5,2.4c-0.6,0.7-1.1,1.6-1.8,2.2c-0.7,0.6-1.5,1.1-2.4,1.6
				c-0.8,0.5-1.6,0.9-2.5,1.4c-0.9,0.3-1.9,0.3-2.7,0.6c-0.9,0.3-1.6,1-2.6,1.3c-0.9,0.2-1.9,0.3-2.8,0.4c-1,0.1-2,0.4-3.1,0.4
				c-0.9,0-2-0.3-3-0.4c-1-0.1-2.1,0.1-3.1-0.1c-1-0.2-2-0.5-2.9-0.7c-0.9-0.3-1.9-0.8-2.8-1.1c-1-0.4-1.9-0.7-2.7-1.2
				c-0.9-0.5-1.6-1.3-2.5-1.8s-1.5-1.4-2.2-2c-0.8-0.7-1.4-1.3-2.1-2.1c-0.7-0.8-1.6-1.3-2.2-2c-0.7-0.8-1.2-1.6-1.7-2.4
				c-0.5-0.8-1.2-1.7-1.6-2.6c-0.5-0.9-0.9-1.9-1.2-2.7c-0.4-1-0.9-1.9-1.2-2.8c-0.2-0.9-0.3-1.9-0.4-2.8c-0.2-0.9-0.3-1.9-0.4-2.9
				c0-0.9,0.1-2,0.2-2.8c0-0.9,0.5-1.8,0.7-2.8c0.2-1,0.6-1.8,0.9-2.7c0.3-0.9,0.5-1.8,1-2.6c0.4-0.8,1.1-1.6,1.6-2.3
				c0.5-0.7,0.8-1.8,1.4-2.5c0.6-0.7,1.3-1.4,2-2c0.7-0.6,1.7-0.9,2.5-1.4s1.7-0.7,2.6-1c0.9-0.3,1.7-0.9,2.5-1.2
				c0.9-0.3,1.6-1,2.5-1.2s1.9-0.4,2.7-0.6c1-0.1,2.1,0.3,3,0.4c0.9,0,2-0.5,3.1-0.4c1,0.1,2.1,0.2,3,0.4c1,0.2,1.9,0.6,2.9,0.9
				c0.9,0.3,1.8,1.1,2.7,1.5c1,0.4,2,0.5,2.9,0.9c0.9,0.5,1.8,1.1,2.6,1.6c0.8,0.6,1.8,0.9,2.6,1.6c0.8,0.7,1.4,1.6,2.1,2.2
				c0.7,0.8,1.2,1.6,1.9,2.4c0.7,0.8,1.2,1.6,1.7,2.4c0.5,0.8,0.7,1.9,1.2,2.7c0.5,0.9,1.2,1.7,1.4,2.7c0.4,1,1.1,1.8,1.4,2.8
				c0.2,0.9-0.1,2,0.1,2.8c0.2,0.9,0.4,1.9,0.4,2.8c0,0.9,0,1.8-0.2,2.8c0,0.9-0.2,1.9-0.4,2.8c-0.2,1-0.9,1.7-1.2,2.6
				s-0.5,1.8-0.9,2.7C-82.9,409.1-83.6,409.9-84.1,410.6"/>
		</g>
	</g>
	<g>
		<g>
			<path class="st0" d="M-62.9,523.1c-0.6,1.3-0.6,0.8-1.5,2.6c-0.3,0.7-0.7,1.7-1.2,2.6c-0.4,0.8-1.3,1.4-1.8,2.4
				c-0.4,0.8-0.5,1.8-1,2.8c-0.4,0.8-1.2,1.5-1.7,2.4c-0.4,0.8-1.1,1.6-1.7,2.4c-0.4,0.8-1,1.7-1.6,2.5c-0.5,0.7-0.5,2-1,2.8
				c-0.5,0.7-1.2,1.5-1.8,2.4c-0.5,0.7-0.8,1.8-1.3,2.6c-0.5,0.7-1.5,1.3-2.1,2.1c-0.5,0.7-1.2,1.5-1.8,2.4
				c-0.5,0.7-1.1,1.6-1.8,2.4c-0.6,0.8-1,1.7-1.6,2.5s-1.1,1.6-1.8,2.4c-0.6,0.8-1.3,1.4-2,2.2c-0.7,0.8-1.1,1.6-1.8,2.4
				c-0.7,0.8-1.1,1.6-1.8,2.4c-0.7,0.8-1.1,1.6-1.8,2.4s-1.3,1.4-2,2.2c-0.7,0.8-1.6,1.2-2.3,1.8c-0.7,0.8-1.6,1.2-2.2,1.9
				c-0.7,0.6-1.5,1.3-2.2,1.9c-0.7,0.6-1.5,1.3-2.2,1.9c-0.7,0.6-1.2,1.7-1.9,2.3c-0.7,0.6-1.9,0.7-2.6,1.3
				c-0.8,0.5-1.5,1.1-2.4,1.6c-0.8,0.5-1.6,1.2-2.4,1.6c-0.8,0.5-1.5,1.3-2.4,1.7c-0.9,0.5-1.9,0.7-2.7,1.1
				c-0.9,0.5-1.9,0.7-2.7,1.1c-0.9,0.3-2,0.4-2.8,0.7c-1,0.3-1.7,1.2-2.7,1.2c-1,0.3-2-0.1-3,0.1c-1,0.1-1.9,0.5-2.9,0.6
				c-1,0.1-1.9-0.6-2.9-0.5c-0.9,0-2,0.2-2.8,0.1c-1-0.1-2-0.1-2.9-0.3c-1-0.2-1.9-0.4-2.9-0.6c-0.9-0.3-1.8-0.8-2.7-1.1
				s-2-0.3-2.9-0.6c-0.8-0.4-1.7-1-2.6-1.5c-0.8-0.4-1.6-1.1-2.4-1.7l-2.5-1.7c-1.5,0.1-1.4,0.9-2.9,1.3c-1.5,0.4-1.5,0.4-3,0.7
				c-1.5,0.4-1.5,0.2-3,0.7c-1.5,0.4-1.5,0.4-3,0.7c-1.5,0.4-1.4,0.6-2.9,1c-1.5,0.4-1.7-0.2-3,0.7c-1.2,0.9-0.6,1.5-1.3,2.7
				c-0.9,1.3-1.1,1.1-1.9,2.3c-0.9,1.3-0.8,1.3-1.6,2.5c-0.9,1.3-1.4,0.9-2.2,2.1c-0.9,1.3-0.6,1.5-1.3,2.7c-0.9,1.3-1,1.2-1.8,2.4
				c-0.8,1.2-0.6,1.3-1.5,2.6s-1.3,1-2.1,2.1c-0.9,1.3-0.8,1.3-1.6,2.5c-0.8,1.2-0.7,1.4-1.5,2.6c-0.9,1.3-0.6,1.5-1.3,2.7
				c-0.9,1.3-1.3,1-2.1,2.1c-0.8,1.2-0.6,1.5-1.3,2.7l-1.7,2.4c-0.9,1.3-1.1,1.1-1.9,2.3c-0.9,1.3-1.3,1-2.1,2.1l-1.7,2.4
				c-0.9,1.3-0.4,1.6-1.2,2.7c-0.9,1.3-1.2,1.1-2,2.2c-0.8,1.2-0.6,1.3-1.5,2.6s-1.2,1.1-2,2.2c-0.9,1.3-0.6,1.5-1.3,2.7
				s-1,1.2-1.8,2.4l-1.7,2.4l-1.7,2.4c-0.8,1.2-1.2,1.1-1.6,2.5c-0.4,1.5,1,0.7,2.7,1.1c0.8,0.2,1.7,0.4,2.8,0.7
				c0.8,0.2,1.7,0.4,2.9,0.6c1,0.2,1.8,0.3,2.9,0.6c1,0.2,1.8,0.5,2.8,0.7c1,0.2,1.8,0,3,0.2c1,0.2,1.9,0.2,2.8,0.4
				c1,0.2,1.8,0.5,2.8,0.7c1,0.2,2,0.1,2.8,0.2c1,0.2,1.8,0.5,2.8,0.7c1,0.1,1.9-0.3,2.9-0.2c0.9,0,1.8,0,2.9,0.1
				c0.9,0,1.9,0.6,2.8,0.7c0.9,0,2-0.2,2.9-0.2c0.9,0,1.9-0.1,2.8-0.1c0.9,0,1.8,0.5,2.9,0.5c0.9,0,1.9-0.3,2.9-0.4
				c0.9,0,1.9,0.6,2.9,0.5c0.9,0,1.9-0.7,2.9-0.8c1-0.1,1.9-0.1,2.9-0.2c1-0.1,2,0.1,3,0c1-0.1,1.9-0.4,2.8-0.5
				c1-0.1,1.9-0.3,2.9-0.4c0.9-0.2,2,0.1,2.8-0.1c0.9-0.2,1.8-0.6,2.8-0.9c0.9-0.2,1.8-0.8,2.7-1c1-0.3,1.8-0.6,2.7-0.8
				c1-0.3,2.1,0.2,3-0.1c1-0.3,1.6-1,2.6-1.3c0.9-0.3,1.8-0.8,2.6-1.1c0.9-0.3,1.9-0.3,2.8-0.7c0.9-0.3,1.6-1,2.5-1.4
				c0.9-0.3,1.6-1,2.5-1.4c0.9-0.5,1.8-0.6,2.7-1.1c0.8-0.5,1.5-1.1,2.4-1.6c0.8-0.5,1.7-0.9,2.5-1.4c0.8-0.5,1.7-0.9,2.5-1.4
				s1.4-1.4,2.2-1.9c0.7-0.6,1.6-1,2.4-1.6c0.7-0.6,1.1-1.8,1.7-2.4c0.7-0.6,1.6-1,2.3-1.8c0.6-0.7,1.3-1.4,1.9-2.1
				c0.6-0.7,1.5-1.1,2.3-1.8c0.6-0.7,0.9-1.7,1.6-2.5c0.6-0.7,1.2-1.5,1.8-2.2c0.6-0.7,1.4-1.4,2-2c0.6-0.7,1.2-1.5,1.8-2.4
				c0.6-0.7,1.2-1.5,1.8-2.2c0.6-0.8,1.2-1.5,1.8-2.4s1.4-1.4,1.9-2.1c0.6-0.8,0.8-1.8,1.3-2.7c0.6-0.8,1.6-1.2,2.2-2.1l1.7-2.4
				c0.6-0.8,0.9-1.7,1.5-2.6s1-1.7,1.5-2.6c0.6-0.8,0.8-1.8,1.3-2.5c0.6-0.8,1.2-1.5,1.7-2.4c0.6-0.8,1-1.7,1.6-2.5s1.4-1.4,1.9-2.3
				c0.5-0.9,0.3-2.1,0.7-2.9c0.5-0.9,1-1.7,1.6-2.5c0.5-0.9,1.2-1.5,1.7-2.4s1-1.7,1.4-2.5c0.5-0.9,1-1.7,1.4-2.5
				c0.5-0.9,0.7-1.9,1.1-2.7c0.5-0.9,1.2-1.5,1.7-2.4s1.1-1.6,1.6-2.5c0.4-0.8,0.3-2,0.7-2.9c0.4-0.8,1.5-1.5,1.8-2.4
				c0.5-0.9,0.2-2.1,0.6-3c0.5-0.9,1.1-1.8,1.5-2.6c0.5-0.9,0.7-1.9,1.1-2.8s0.7-1.9,1-2.9c0.4-1,1.2-1.7,1.5-2.6
				c0.4-1,0.6-1.9,1-2.8c0.4-1,1.2-1.7,1.6-2.5c0.4-1,0.5-2,0.9-2.8c0.4-1,0.7-1.9,1-2.8c0.4-1,0.6-1.9,0.9-2.8
				c0.4-1,0.7-1.9,1.1-2.8c0.4-1,1.2-1.8,1.5-2.7c0.4-1,0.2-2.2,0.6-2.9c0.4-1.1,1.1-1.9,1.3-2.7c0.6-1.8,0.1-1.5,0.6-2.9
				s0.9-1.1,1.1-2.8c0.1-0.9,0.1-2,0-3c0-0.9-0.3-1.9-0.5-2.8c-0.2-0.9-0.4-1.9-0.8-2.7c-0.3-0.9-1.2-1.4-1.8-2.2
				c-0.6-0.7-0.5-1.9-1.3-2.6c-1.1-0.9-2.3-0.7-3.3-0.9c-1.1-0.2-1.9,0.1-3,0.7c-0.8,0.5-1.7,1.3-2.4,2.2c-0.5,0.7-1.4,1.2-1.9,2.1
				c-0.5,0.7-0.5,1.8-0.9,2.7c-0.4,0.8-1.3,1.4-1.7,2.3C-62.7,521.2-62.5,522.4-62.9,523.1"/>
		</g>
	</g>
	<g>
		<g>
			<path class="st1" d="M-117.1,466c-0.6,0.8-1.3,1.6-1.9,2.4c-0.7,0.8-1.8,1.1-2.5,1.7c-0.8,0.7-1.4,1.4-2.3,2
				c-0.8,0.5-1.3,1.6-2.2,2.2c-0.8,0.5-1.8,1-2.7,1.4c-0.9,0.5-2.1,0.3-3,0.6c-1,0.3-1.8,0.8-2.7,1.1c-1,0.3-1.9,0.7-2.9,0.8
				s-2,0.2-3,0.3c-1,0.1-1.8,0.2-2.7,0.1c-0.9,0-1.9,0.5-2.8,0.4c-0.9,0-1.8-0.8-2.7-0.8c-0.9-0.1-1.8-0.3-2.8-0.5
				c-1-0.2-1.8,0-2.7-0.3c-0.9-0.3-1.9-0.2-2.8-0.5c-0.9-0.3-1.7-0.7-2.6-1c-0.9-0.3-1.6-1.1-2.5-1.4c-0.8-0.4-1.7-0.7-2.5-1.1
				c-0.8-0.4-1.5-1-2.3-1.6l-2.3-1.6c-0.7-0.5-1.8-0.8-2.5-1.3c-0.7-0.5-1.2-1.4-2-2c-0.7-0.6-1.3-1.3-1.9-2
				c-0.7-0.6-1.5-1.2-2.1-1.9s-1.4-1.3-1.9-1.9c-0.6-0.7-0.9-1.6-1.5-2.4c-0.5-0.8-1.5-1.2-2-2c-0.5-0.8-0.4-2-0.7-2.8
				c-0.4-0.8-0.9-1.6-1.5-2.4c-0.3-0.9-1.1-1.5-1.4-2.5c-0.3-0.9-0.5-1.7-0.8-2.7c-0.3-1-0.2-2-0.3-3c-0.2-1.1-0.4-2-0.5-3
				c-0.1-1-0.2-2-0.3-3c-0.1-1-0.2-2-0.1-3c0.1-1-0.1-2.1,0.1-3.1s0.9-1.8,1.3-2.8c0.2-1,0.2-2.1,0.5-3.1c0.4-1,0.9-1.8,1.4-2.8
				c0.5-0.9,0.7-2,1.3-2.8c0.6-0.8,1.6-1.4,2.2-2.1c0.7-0.8,1.1-1.8,1.8-2.5c0.8-0.7,1.9-0.9,2.8-1.5c0.8-0.5,1.8-1,2.6-1.5
				c0.8-0.5,1.4-1.7,2.3-2.2c0.9-0.5,1.9-0.7,2.9-1c1-0.3,2-0.2,3-0.5c1-0.3,1.8-1.1,2.8-1.2s2,0.5,3,0.4s1.8-0.3,2.7-0.3
				c0.9,0,1.9-0.4,2.9-0.4c0.9,0,1.9,0.2,2.8,0.4c0.9,0.1,1.9,0.2,2.7,0.3c1,0.2,1.7,0.9,2.7,1.1c0.9,0.3,2,0.1,2.8,0.4
				c0.9,0.3,1.8,0.5,2.7,0.9c0.9,0.3,1.7,0.9,2.5,1.3c0.8,0.4,1.7,0.7,2.6,1.2c0.8,0.4,1.4,1.3,2.3,1.7c0.7,0.5,1.8,0.5,2.7,1.1
				c0.7,0.5,1.4,1.4,2.1,1.9c0.7,0.5,1.3,1.2,2.1,1.9c0.7,0.6,1.6,1.1,2.3,1.7c0.7,0.6,1.3,1.3,1.9,2s1.1,1.5,1.5,2.3
				c0.6,0.7,1.6,1.1,2.2,1.8c0.5,0.8,1.1,1.5,1.6,2.4c0.5,0.8,0.7,1.7,1.1,2.6c0.4,0.8,0.9,1.7,1.2,2.5c0.3,0.9,0.9,1.7,1,2.6
				c0.3,0.9,0.5,1.7,0.8,2.7c0.3,1,0.7,2,0.8,2.9c0.2,1.1,0.5,1.9,0.6,2.9c0.1,1-0.2,2.1-0.1,3.1c0.1,1,0.3,2.1,0.3,3
				c-0.1,1-0.2,2.1-0.4,3c-0.2,1-0.5,2-0.6,3s-0.7,1.9-1,2.9c-0.4,1-0.8,1.9-1.4,2.8C-116.1,464.2-116.5,465.1-117.1,466"/>
		</g>
	</g>
	<g>
		<g>
			<g>
				<g>
					<g class="st2">
						<g>
							<defs>
								
									<rect id="SVGID_1_" x="-169.2" y="416.6" transform="matrix(-0.8255 -0.5644 0.5644 -0.8255 -534.2961 683.2782)" width="15.4" height="15.3"/>
							</defs>
							<clipPath id="SVGID_2_">
								<use xlink:href="#SVGID_1_"  style="overflow:visible;"/>
							</clipPath>
							<path class="st3" d="M-155.3,428.7c-0.6,0.8-1.2,1.5-2,2c-0.8,0.5-1.6,1-2.7,1.2c-0.9,0.2-2,0-3-0.2c-1-0.2-1.8-0.6-2.6-1.2
								c-0.8-0.6-1.8-1.1-2.3-1.9s-0.4-2-0.6-2.9c-0.2-0.9-0.5-1.9-0.4-2.9c0.2-1,0.3-2.1,0.9-2.9c0.6-0.8,1.6-1.4,2.4-1.9
								c0.8-0.5,1.8-1,2.7-1.1s2,0.1,2.9,0.3c1,0.2,2.1,0.2,2.9,0.7s1.2,1.7,1.7,2.5c0.5,0.8,1.4,1.6,1.6,2.5c0.2,0.9,0,2-0.2,3
								C-154,427.1-154.7,427.9-155.3,428.7"/>
						</g>
					</g>
					<g>
						<g>
							<g>
								<g>
									<g class="st2">
										<g>
											<defs>
												
													<rect id="SVGID_3_" x="-138.7" y="439.7" transform="matrix(-0.8255 -0.5644 0.5644 -0.8255 -491.5653 742.7706)" width="15.4" height="15.4"/>
											</defs>
											<clipPath id="SVGID_4_">
												<use xlink:href="#SVGID_3_"  style="overflow:visible;"/>
											</clipPath>
											<path class="st4" d="M-124.6,451.7c-0.6,0.8-1.7,1.2-2.5,1.7s-1.6,1-2.6,1.3c-1,0.3-1.9-0.2-2.8-0.4
												c-1-0.2-2-0.1-2.9-0.7c-1-0.7-1.2-1.6-1.8-2.3c-0.5-0.8-0.9-1.7-1-2.7c-0.2-0.9-0.7-2-0.5-3s1-1.7,1.6-2.5
												c0.6-0.8,0.8-1.9,1.7-2.4s1.8-1.1,2.8-1.2c0.9-0.2,2,0.3,2.9,0.5c1,0.2,2,0.3,2.8,0.9s1.7,1.2,2.2,2s0.4,2,0.6,2.9
												c0.2,0.9,0.3,1.9,0.1,2.8C-124.1,449.7-124,450.9-124.6,451.7"/>
										</g>
									</g>
									<g>
										<g>
											<path class="st5" d="M-148.9,423.2c-0.4,0.5-1,1-1.5,1.1c-0.5,0.1-1.2-0.3-1.7-0.7c-0.5-0.4-1.2-0.8-1.3-1.3
												c-0.1-0.5,0.2-1.2,0.6-1.8c0.4-0.5,0.8-1,1.4-1.1s1.4,0,1.8,0.3c0.4,0.3,0.6,1.2,0.7,1.7
												C-148.6,421.9-148.5,422.7-148.9,423.2"/>
										</g>
										<g>
											<g>
												<path class="st5" d="M-130.7,437.3c-0.4,0.5-0.7,1.2-1.3,1.3c-0.5,0.1-1.3-0.1-1.8-0.5c-0.5-0.4-1-1-1.1-1.5
													c-0.1-0.5,0.5-1,0.9-1.6c0.4-0.5,0.6-0.7,1.2-0.9c0.5-0.1,1.4-0.6,1.9-0.3c0.5,0.4,0.8,1.1,0.8,1.8
													C-130.1,436.2-130.3,436.8-130.7,437.3"/>
											</g>
											<g>
												<g>
													<path class="st6" d="M-151.3,431c1.8,1.2,1.3,1.3,3.4,2.5c0.8,0.4,1.5,1.2,2.5,1.6c0.8,0.4,1.8,0.8,2.7,1.1
														c0.9,0.3,2,0.3,2.9,0.5"/>
												</g>
											</g>
										</g>
									</g>
								</g>
							</g>
						</g>
					</g>
				</g>
			</g>
		</g>
	</g>
</g>
</svg>
