<?xml version="1.0" encoding="iso-8859-1"?>
<!-- Generator: Adobe Illustrator 19.0.0, SVG Export Plug-In . SVG Version: 6.00 Build 0)  -->
<svg version="1.1" id="Layer_1" xmlns="http://www.w3.org/2000/svg" xmlns:xlink="http://www.w3.org/1999/xlink" x="0px" y="0px"
	 viewBox="4373.371 795.16 366.667 414.815" style="enable-background:new 4373.371 795.16 366.667 414.815;" xml:space="preserve">
<g>
	<g>
		<defs>
			<rect id="SVGID_1_" x="1973" y="-1346.12" width="5222.1" height="3285.4"/>
		</defs>
		<clipPath id="SVGID_2_">
			<use xlink:href="#SVGID_1_"  style="overflow:visible;"/>
		</clipPath>
		<path style="clip-path:url(#SVGID_2_);fill:#12312E;" d="M4692.259,1091.276c-14.1,11.1-27.2,23.7-39,37.2
			c-7.3,8.4-14.3,17.1-20.2,26.5h-234.2v-319.9c4.4-0.3,8.8-0.5,13.1-0.5c75.8-0.7,147.8,38.1,198.6,95c9.4,10.5,18,21.6,25.8,33.1
			C4662.859,1001.676,4680.759,1045.476,4692.259,1091.276"/>
	</g>
	<g>
		<defs>
			<rect id="SVGID_3_" x="1973" y="-1346.12" width="5222.1" height="3285.4"/>
		</defs>
		<clipPath id="SVGID_4_">
			<use xlink:href="#SVGID_3_"  style="overflow:visible;"/>
		</clipPath>
		<path style="clip-path:url(#SVGID_4_);fill:#141045;" d="M4517.359,1076.175c5.2-2.8,9.3-7.8,8.8-13.9c-0.1-1.5-1.1-2.5-2.6-2.6
			c-5.7-0.4-10.3,1.6-14.3,4.8c0.1-0.1,0.1-0.2,0.2-0.3c0.6-0.4,1-1.1,1.1-2c3.1-5.6,6.7-11,9.3-16.8c2.1-4.6,1.9-10.7-3.2-13.3
			c-4.4-2.3-8.5,0.6-9.8,5c-0.9,3.2-0.7,6.7-0.8,10c-0.2,4.5-0.4,9.1-0.6,13.6c-1.1,2.1-2.1,4.3-3,6.5c-0.7-1.9-1.7-3.7-3.3-5.3
			c-3.1-3.1-8.2-4.5-12-1.9c-3.2,2.1-5,6.6-3.2,10.2c2.6,5.1,15.4,3.9,12.7,11.2c-2.1,2.6-3.3,5.7-3.2,8.8c-1-1.7-2.2-3.2-3.8-4.5
			c-4.3-3.5-10.8-4.7-15.4-1.1c-4.6,3.6-5.4,10.4-1.7,14.9c1.8,2.2,4.3,3.6,7.1,3.9c3.1,0.3,8.5-2.2,11.6-0.7
			c-1.2,6-2,12.2-2.6,18.3c-2-1.5-3.5-3.9-5.2-5.4c-1.9-1.7-4-3.1-6.6-3.7c-4.7-1.1-10,0.6-12.1,5.2c-1.8,4-0.9,8.9,3,11.3
			c2.3,1.4,5.2,1.5,7.8,1.2c2.4-0.3,11.1-3.1,12.5-0.1c0,1.3-0.1,2.5-0.1,3.8c-0.7,2-0.7,4.2,0.1,6.7c0.2,9.1,1.2,18.2,2.9,27.2
			c0.6,3.2,5.6,1.9,5-1.4c-1.5-8.1-2.4-16.4-2.7-24.6c0.3-0.6,0.3-1.4,0-2.2v-5.9c4.7-7.9,28.7-9,23.4-22.1c-1.8-4.4-7-5.2-10.7-2.7
			c-4.2,2.8-6.8,12.9-12.1,14.2c0.2-2.9,0.5-5.8,0.9-8.6c0.4-0.4,0.6-0.9,0.6-1.6c0.1-1.4,0.4-2.8,0.8-4.2c0.5-0.3,0.8-0.8,1-1.5
			c0.2-0.6,0.3-1.1,0.5-1.7c1.1-1.6,2.4-3,4.2-4.1c3-1.8,6.7-2.2,9.7-4c4.3-2.5,7.5-7.8,4.2-12.5c-5-7-11.5-1-16.4,6.5
			c0.7-2.5,1.4-4.9,2.3-7.3C4506.159,1079.976,4514.059,1077.976,4517.359,1076.175"/>
	</g>
	<g>
		<defs>
			<rect id="SVGID_5_" x="1973" y="-1346.12" width="5222.1" height="3285.4"/>
		</defs>
		<clipPath id="SVGID_6_">
			<use xlink:href="#SVGID_5_"  style="overflow:visible;"/>
		</clipPath>
		<path style="clip-path:url(#SVGID_6_);fill:#828B77;" d="M4437.959,1136.975c-3-1.6-5.3-4.4-5-8c0.1-0.8,0.6-1.4,1.5-1.5
			c3.3-0.2,5.9,0.9,8.2,2.8c0-0.1-0.1-0.1-0.1-0.2c-0.3-0.2-0.6-0.6-0.6-1.1c-1.8-3.2-3.8-6.3-5.3-9.6c-1.2-2.6-1.1-6.1,1.8-7.6
			c2.5-1.3,4.9,0.4,5.6,2.9c0.5,1.8,0.4,3.9,0.5,5.7c0.1,2.6,0.2,5.2,0.3,7.8c0.6,1.2,1.2,2.5,1.7,3.7c0.4-1.1,1-2.1,1.9-3
			c1.8-1.8,4.7-2.6,6.9-1.1c1.8,1.2,2.9,3.8,1.8,5.8c-1.5,2.9-8.8,2.2-7.2,6.4c1.2,1.5,1.9,3.2,1.8,5.1c0.6-1,1.3-1.8,2.2-2.6
			c2.5-2,6.2-2.7,8.8-0.6c2.6,2.1,3.1,6,1,8.6c-1,1.2-2.5,2.1-4.1,2.2c-1.7,0.2-4.9-1.2-6.6-0.4c0.7,3.5,1.2,7,1.5,10.5
			c1.1-0.9,2-2.2,3-3.1c1.1-1,2.3-1.8,3.8-2.1c2.7-0.7,5.7,0.4,6.9,3c1.1,2.3,0.5,5.1-1.7,6.5c-1.3,0.8-3,0.8-4.4,0.7
			c-1.4-0.2-6.3-1.8-7.2-0.1c0,0.7,0,1.4,0.1,2.2c0.4,1.2,0.4,2.4,0,3.8c-0.1,5.2-0.7,10.4-1.7,15.6c-0.4,1.9-3.2,1.1-2.8-0.8
			c0.9-4.7,1.4-9.4,1.6-14.1c-0.2-0.4-0.2-0.8,0-1.3v-3.4c-2.7-4.5-16.4-5.1-13.4-12.7c1-2.5,4-3,6.1-1.6c2.4,1.6,3.9,7.4,6.9,8.1
			c-0.1-1.6-0.3-3.3-0.5-4.9c-0.2-0.2-0.3-0.5-0.4-0.9c0-0.8-0.2-1.6-0.5-2.4c-0.3-0.2-0.5-0.4-0.6-0.8c-0.1-0.3-0.2-0.6-0.3-1
			c-0.6-0.9-1.4-1.7-2.4-2.3c-1.7-1.1-3.8-1.3-5.6-2.3c-2.5-1.4-4.3-4.5-2.4-7.2c2.9-4,6.6-0.6,9.4,3.7c-0.4-1.4-0.8-2.8-1.3-4.2
			C4444.259,1139.175,4439.759,1138.076,4437.959,1136.975"/>
	</g>
	<g>
		<defs>
			<rect id="SVGID_7_" x="1973" y="-1346.12" width="5222.1" height="3285.4"/>
		</defs>
		<clipPath id="SVGID_8_">
			<use xlink:href="#SVGID_7_"  style="overflow:visible;"/>
		</clipPath>
		<path style="clip-path:url(#SVGID_8_);fill:#8ED2D9;" d="M4439.159,950.376c1,3.1,2.1,6.2,3.1,9.3s6,1.8,5-1.4
			c-1-3.1-2.1-6.2-3.1-9.3C4443.059,945.876,4438.059,947.175,4439.159,950.376"/>
	</g>
	<g>
		<defs>
			<rect id="SVGID_9_" x="1973" y="-1346.12" width="5222.1" height="3285.4"/>
		</defs>
		<clipPath id="SVGID_10_">
			<use xlink:href="#SVGID_9_"  style="overflow:visible;"/>
		</clipPath>
		<path style="clip-path:url(#SVGID_10_);fill:#8ED2D9;" d="M4488.559,916.376c0.5,3.1,1,6.2,1.5,9.3c0.5,3.3,5.5,1.9,5-1.4
			c-0.5-3.1-1-6.2-1.5-9.3C4492.959,911.776,4487.959,913.175,4488.559,916.376"/>
	</g>
	<g>
		<defs>
			<rect id="SVGID_11_" x="1973" y="-1346.12" width="5222.1" height="3285.4"/>
		</defs>
		<clipPath id="SVGID_12_">
			<use xlink:href="#SVGID_11_"  style="overflow:visible;"/>
		</clipPath>
		<path style="clip-path:url(#SVGID_12_);fill:#8ED2D9;" d="M4511.459,951.975c0.5,3.6,1,7.2,1.5,10.8c0.5,3.3,5.4,1.9,5-1.4
			c-0.5-3.6-1-7.2-1.5-10.8C4515.959,947.276,4511.059,948.675,4511.459,951.975"/>
	</g>
	<g>
		<defs>
			<rect id="SVGID_13_" x="1973" y="-1346.12" width="5222.1" height="3285.4"/>
		</defs>
		<clipPath id="SVGID_14_">
			<use xlink:href="#SVGID_13_"  style="overflow:visible;"/>
		</clipPath>
		<path style="clip-path:url(#SVGID_14_);fill:#8ED2D9;" d="M4452.959,1009.876c0.5,5.1,1,10.3,1.5,15.4c0.3,3.3,5.5,3.3,5.1,0
			c-0.5-5.1-1-10.3-1.5-15.4C4457.759,1006.576,4452.659,1006.576,4452.959,1009.876"/>
	</g>
	<g>
		<defs>
			<rect id="SVGID_15_" x="1973" y="-1346.12" width="5222.1" height="3285.4"/>
		</defs>
		<clipPath id="SVGID_16_">
			<use xlink:href="#SVGID_15_"  style="overflow:visible;"/>
		</clipPath>
		<path style="clip-path:url(#SVGID_16_);fill:#8ED2D9;" d="M4420.259,1036.076c-0.5,4.6-1,9.3-1.5,13.9c-0.4,3.3,4.8,3.3,5.1,0
			c0.5-4.6,1-9.3,1.5-13.9C4425.759,1032.776,4420.659,1032.876,4420.259,1036.076"/>
	</g>
	<g>
		<defs>
			<rect id="SVGID_17_" x="1973" y="-1346.12" width="5222.1" height="3285.4"/>
		</defs>
		<clipPath id="SVGID_18_">
			<use xlink:href="#SVGID_17_"  style="overflow:visible;"/>
		</clipPath>
		<path style="clip-path:url(#SVGID_18_);fill:#8ED2D9;" d="M4544.059,1000.576v3.1c0,1.3,1.2,2.6,2.6,2.6c1.4-0.1,2.6-1.1,2.6-2.6
			v-3.1c0-1.3-1.2-2.6-2.6-2.6C4545.159,998.076,4544.059,999.176,4544.059,1000.576"/>
	</g>
	<g>
		<defs>
			<rect id="SVGID_19_" x="1973" y="-1346.12" width="5222.1" height="3285.4"/>
		</defs>
		<clipPath id="SVGID_20_">
			<use xlink:href="#SVGID_19_"  style="overflow:visible;"/>
		</clipPath>
		<path style="clip-path:url(#SVGID_20_);fill:#8ED2D9;" d="M4628.859,1040.776c0.5,5.1,1,10.3,1.5,15.4c0.3,3.3,5.5,3.3,5.1,0
			c-0.5-5.1-1-10.3-1.5-15.4C4633.759,1037.476,4628.559,1037.476,4628.859,1040.776"/>
	</g>
	<g>
		<defs>
			<rect id="SVGID_21_" x="1973" y="-1346.12" width="5222.1" height="3285.4"/>
		</defs>
		<clipPath id="SVGID_22_">
			<use xlink:href="#SVGID_21_"  style="overflow:visible;"/>
		</clipPath>
		<path style="clip-path:url(#SVGID_22_);fill:#8ED2D9;" d="M4606.059,1079.576c-0.5,1-1,2.1-1.5,3.1c-0.6,1.2-0.4,2.8,0.9,3.5
			c1.2,0.6,2.9,0.4,3.5-0.9c0.5-1,1-2.1,1.5-3.1c0.6-1.2,0.4-2.8-0.9-3.5C4608.459,1078.076,4606.759,1078.276,4606.059,1079.576"/>
	</g>
	<g>
		<defs>
			<rect id="SVGID_23_" x="1973" y="-1346.12" width="5222.1" height="3285.4"/>
		</defs>
		<clipPath id="SVGID_24_">
			<use xlink:href="#SVGID_23_"  style="overflow:visible;"/>
		</clipPath>
		<path style="clip-path:url(#SVGID_24_);fill:#8ED2D9;" d="M4614.759,978.276c0.5,2.1,1,4.1,1.5,6.2c0.8,3.2,5.7,1.9,5-1.4
			c-0.5-2.1-1-4.1-1.5-6.2C4618.959,973.676,4613.959,974.976,4614.759,978.276"/>
	</g>
</g>
</svg>
