<?xml version="1.0" encoding="iso-8859-1"?>
<!-- Generator: Adobe Illustrator 19.0.0, SVG Export Plug-In . SVG Version: 6.00 Build 0)  -->
<svg version="1.1" id="Layer_1" xmlns="http://www.w3.org/2000/svg" xmlns:xlink="http://www.w3.org/1999/xlink" x="0px" y="0px"
	 viewBox="2440.037 -760.395 137.037 103.704" style="enable-background:new 2440.037 -760.395 137.037 103.704;"
	 xml:space="preserve">
<g>
	<g>
		<path style="fill:#8ED4DB;" d="M2542.059-696.325c-0.6-1.1-1.6-1.7-2.7-2.2s-2.3-0.8-3.4-1.3c-1.2-0.5-1.8-1.4-2.2-2.5
			c-0.3-1.2,1.2-2.8,1.5-3.7c0.4-0.9,0.5-1.9,0.8-2.9c0.2-0.9,0.2-1.9,0.2-2.9c0.1-1.2,0.1-2.3-0.1-3.3c-0.3-1.1-0.5-2.3-1.4-3.1
			c-0.7-0.7-1.9-0.9-3.1-1.3c-1.2-0.4-2.1-0.5-2.9-0.2c-0.8,0.4-1.6,1.1-2.1,2.1c-0.5,0.8-1.1,1.7-1.4,2.7c-0.3,0.9-0.2,2-0.5,3
			c-0.3,0.9-0.3,1.9-0.5,2.9c-0.2,0.9-0.8,1.8-0.9,2.8c-0.2,1-0.5,1.9-0.7,2.9c-0.1,1-0.1,2-0.2,3c-0.1,0.9,0.4,1.8,0.5,2.7
			c0,0.9,0,1.8,0.3,2.6s0.6,1.6,1.4,2.2c0.6,0.5,1.3,1,2.3,1.3s2.3,0.4,3.5,0.5s2.4,0.5,3.6,0.6c1.3,0,2.6,0.3,3.6,0.2
			c1,0,2.2-0.2,3.1-0.7c1-0.5,1.7-1.5,2-2.5C2543.159-694.124,2542.859-695.124,2542.059-696.325"/>
	</g>
	<g>
		<path style="fill:#8ED4DB;" d="M2521.459-713.424c-0.5-1-1.2-1.7-2-2.4c-0.8-0.7-1.3-2-2.2-2.5c-1-0.5-2.1-0.6-3.2-1
			c-0.1,0-1.5-0.3-2.5-0.7s-1.8-0.3-2.7-0.2c-1.4,0.1-2.2,0.2-3.6,1.5c-0.8,0.7-1.3,1.7-1.6,3c-0.3,1.2-0.4,2.6-0.7,3.6
			c-0.3,0.9-0.7,1.8-1,2.8c-0.2,1-0.1,2-0.3,3c-0.2,1-0.8,1.9-0.9,2.9c-0.1,1,0.6,2,0.7,3c0.1,1,0,1.9,0.2,2.9
			c0.2,1.2,0.3,2.4,1,3.2c0.7,0.9,1.7,1.5,2.7,2c1,0.4,2.1,0.5,3.2,0.7c1.1,0.1,2.2,0.4,3.3,0.3c1.2-0.1,2.2-0.6,3.2-1
			c1.3-0.4,2.4-1,2.9-1.8c0.7-1,0.9-2.3,0.4-3.4c-0.4-0.9-1.5-1.5-2.6-2.2c-0.8-0.6-1.8-1.4-3-1.8c1.4,0.3,2.3,0.7,2.9,0.6
			c1.4-0.1,1.9-0.6,2.5-1.5c0.6-1-0.2-2-0.6-2.9c-0.4-0.8-0.8-1.7-1.6-2.3c-0.8-0.7-1.5-1.5-2.4-2c0.9,0.4,2,1.2,3.1,1.4
			c1.1,0.2,2.3,0,3.3-0.3c1.2-0.3,2.5-0.9,2.8-1.9C2522.859-711.124,2522.159-712.124,2521.459-713.424"/>
	</g>
	<g>
		<path style="fill:#8ED4DB;" d="M2494.459-720.124c-0.7-0.5-1.5-1.3-2.4-1.8c-0.9-0.5-1.8-1-2.7-1.4c-1-0.4-2-0.7-2.9-0.9
			c-1.2-0.3-2.4-0.4-3.1-0.2c-1.1,0.3-1.8,1.5-2.1,2.6c-0.2,1,0.4,2.2,0.4,3.3c0,1.2-0.1,2.4-0.1,3.2c-0.1,0.9-0.2,1.8-0.2,2.7
			c-0.1,0.9-0.4,1.8-0.4,2.7s0.5,1.8,0.5,2.7c0,1.1-0.5,2.2-0.4,3.3c0.1,1.1,0.5,2.1,0.6,3.2c0.1,1.1,0,2.1,0.1,3.2
			c0.1,0.8,0.5,1.6,1,2.3c0.4,0.6,1,1.2,1.8,1.7c0.8,0.5,1.7,0.3,2.6,0.3c0.9,0,1.8,0,2.6-0.2c1.2-0.2,2.4-0.3,3.3-0.8
			c1.1-0.5,1.8-1.4,2.6-2.2s1.5-1.7,2-2.7c0.4-1,0.8-2.1,1-3.2c0.2-1.1,0.1-2.2,0.2-3.4c0.1-1.1,0-2.2,0-3.4c0-1,0.1-2,0-3
			c-0.1-1,0-2.1-0.4-3c-0.3-0.9-0.6-2-1.1-2.9C2496.259-718.924,2495.259-719.524,2494.459-720.124 M2490.759-706.224
			c0,0-0.2-0.1-0.3,0H2490.759z M2490.659-706.224L2490.659-706.224l-0.1-0.2L2490.659-706.224l0.3,0.3c0,0-0.5-0.4-0.4-0.5
			c-0.7,0.7-1.2-0.1-1.3-1.3c-0.1-1.1,0.2-2.5,0.4-2.8c0.9,0.2,1.5,1.1,1.7,1.9C2491.359-707.724,2491.059-706.724,2490.659-706.224
			"/>
	</g>
</g>
</svg>
