<?xml version="1.0" encoding="utf-8"?>
<!-- Generator: Adobe Illustrator 19.0.0, SVG Export Plug-In . SVG Version: 6.00 Build 0)  -->
<svg version="1.1" id="Layer_1" xmlns="http://www.w3.org/2000/svg" xmlns:xlink="http://www.w3.org/1999/xlink" x="0px" y="0px"
	 viewBox="0 0 841.9 2143.1" style="enable-background:new 0 0 841.9 2143.1;" xml:space="preserve">
<style type="text/css">

  	 .st18{fill:#8ED4DB;}
	 .st17{fill:#F09C4C;}
</style>	
	<g xmlns="http://www.w3.org/2000/svg" id="XMLID_2096_">
				<g id="XMLID_2236_">
						<g id="XMLID_2236_">
					<path id="XMLID_2237_" class="st17" d="M319.9,106.7c0.8,0.2,1.4,0.7,2.1,1C322.6,107.7,322.6,107.3,319.9,106.7z"/>
				</g>
				<g id="XMLID_2234_">
					<path id="XMLID_2235_" class="st17" d="M337.5,156.8c-0.9-0.3-1.8-0.8-2.8-1c-1-0.2-2,0.1-2.9,0c-1-0.1-2-0.6-2.9-0.5       c-0.4,0-4.3,1.7-4.5,1.6c-1.1-0.6-1.2-2-0.8-3.3c0.3-1,0.9-2.1,1.5-3.1c0.7-1.2,1.3-2.3,1.6-3c0.4-1,0.8-2,1.2-3       c0.4-1,1.1-1.9,1.4-2.9c0.3-1,0.5-2.1,0.8-3.1c0.3-1,0.9-2,1.2-3.1c0.2-1.1-0.1-2.2,0-3.3c0.2-1,0.4-2,0.6-3.1       c0.1-1,0.4-2.1,0.5-3.2c0.1-1.1,0.5-2.1,0.5-3.2c0-1.1-0.2-2.2-0.3-3.2c-0.2-1.1-0.4-2.2-0.7-3.2c-0.3-1-1.2-1.8-1.8-2.7       c-0.6-0.9-1.1-1.8-1.9-2.6c-0.7-0.7-1.7-1.2-2.6-1.8c-0.9-0.5-1.8-1-2.9-1.4c-0.7-0.5-3-0.4-2.8-0.4c-1.2,0-2.2,0.1-3.2,0.2       c-1.2,0.1-2.3-0.2-3.2,0.2c-1,0.4-1.7,1.1-2.5,1.9c-0.7,0.6-1.5,1.3-2.3,2.3c-0.7,0.9-1.3,1.9-1.9,2.9c-0.6,1-0.9,2.1-1.4,3.1       c-0.6,1-1.4,1.8-1.9,2.9c-0.5,1-1.2,2-1.6,3.1c-0.5,1.1-0.5,2.3-0.9,3.3c-0.4,1-0.5,2.1-0.8,3.1c-0.4,1-1.1,1.8-1.5,2.8       c-0.3,1-0.1,2.2-0.4,3.2c-0.3,1-0.6,2-0.8,3c-0.3,1-1.2,1.9-1.5,2.9c-0.2,1-0.1,2.1-0.3,3.2c-0.2,1-0.3,2.1-0.5,3.1       c-0.2,1-0.4,2.1-0.6,3.1c-0.2,1-0.2,2.1-0.4,3.1c-0.2,1-0.4,2.1-0.6,3.1c-0.2,1-0.5,2.1-0.6,3.1c-0.1,1-0.1,2-0.1,3.1       c-0.1,1-0.5,2-0.5,3c0,1,0,2.1,0,3.1c0.1,1,0.2,2.1,0.4,3.1c0.2,1,0.8,1.9,1.1,2.9c0.3,1,0.6,2,1,2.9c0.5,0.9,1.2,1.6,1.8,2.5       c0.6,0.8,0.9,1.9,1.6,2.7c0.7,0.7,1.9,0.8,2.8,1.4c0.8,0.6,1.4,1.5,2.3,2.1c0.9,0.5,1.9,1,2.9,1.4c1,0.4,2,0.9,3,1.2       c1,0.3,2.2-0.1,3.3,0c1.1,0.1,2.1,0.1,3.2,0.2c1.1,0,2.1,0.5,3.2,0.4c1.1-0.1,2.1-0.7,3.1-0.8c1.1-0.1,2.2-0.1,3.2-0.3       c1.1-0.2,2.2-0.1,3.2-0.3c1.1-0.3,2-0.8,3-1.1c1.1-0.3,2.2-0.4,3.1-0.7c1-0.3,1.9-1,2.8-1.5c1-0.4,1.8-1.1,2.7-1.6       c0.9-0.6,1.9-1,2.7-1.7c0.8-0.7,1.8-1.2,2.5-2c0.7-0.8,0.7-2.1,1.3-3c0.5-0.9,1.3-1.7,1.6-2.7c0.3-1,0.2-2,0.2-3.1       c0-1,0-2-0.2-3.1c-0.2-1-0.6-1.9-1-2.9c-0.5-1.2-0.3-2.6-0.8-3.5c-0.7-1-1.7-1.7-2.6-2.5c-0.8-0.8-1.7-1.6-2.8-2.1       C339.9,157.3,338.7,157.2,337.5,156.8z"/>
				</g>
				<g id="XMLID_2225_">
					<path id="XMLID_2229_" class="st17" d="M519.3,129.6c0,0-0.3,0.1-0.3,0.1c-0.5-0.9-0.5-2.1-1.1-3c-0.6-0.8-1.3-1.6-2-2.4       c-0.7-0.8-1.5-1.4-2.3-2.1c-0.7-0.7-1.4-1.5-2.2-2.2c-0.8-0.7-1.8-1-2.7-1.6c-0.8-0.6-1.7-1.2-2.5-1.8       c-0.9-0.5-1.9-0.8-2.8-1.2c-0.9-0.5-1.8-0.9-2.8-1.3c-1-0.4-1.8-1-2.8-1.4c-1-0.3-2.1-0.3-3.1-0.6c-1-0.3-2-0.7-3-0.8       c-1-0.2-2.1-0.2-3.1-0.3c-1.1-0.1-2.1-0.2-3.1-0.1c-1.1,0.1-2.1-0.1-3.1,0.1c-1,0.2-1.9,1.1-2.8,1.4c-1,0.4-2,0.5-2.9,1.1       c-0.9,0.6-1.4,1.5-2.1,2.3c-0.6,0.7-1.3,1.5-1.8,2.3c-0.5,0.8-0.7,1.8-1.1,2.7c-0.4,0.9-1.2,1.7-1.4,2.6c-0.3,0.9,0,2-0.2,3       c-0.2,1-0.3,1.9-0.5,2.9c-0.1,1-0.4,1.9-0.5,2.9c-0.1,1-0.5,2-0.5,3c0,1,0.1,2,0.2,3c0,1-0.2,2-0.1,3c0.1,1,0.3,2.1,0.4,3.2       c0.1,1,0.4,2.1,0.5,3.2c0.1,1.1-0.5,2.2-0.4,3.2c0.1,1.1,0.5,2.1,0.6,3.1c0.1,1,0,2.1,0.2,3.2c0.2,1,0.4,2.1,0.6,3.1       c0.2,1,0.7,2,1,3.1c0.3,1,0.3,2.1,0.6,3.1c0.3,1,0.9,1.9,1.3,2.9c0.4,1,0.8,1.9,1.3,2.9c0.4,1,0.7,2,1.2,2.9       c0.5,0.9,1,1.9,1.5,2.7c0.6,0.9,1.4,1.6,2.1,2.4c0.7,0.8,1.1,1.9,1.8,2.6c0.7,0.8,1.4,1.6,2.2,2.3c0.8,0.7,2,0.8,2.9,1.4       c0.9,0.6,1.7,1.2,2.6,1.7c1,0.5,1.9,1,2.8,1.3c1,0.3,2.1,0.5,3.1,0.7c1,0.2,2.1,0,3.1,0.1c1,0,2.1,0.1,3.1-0.1       c1-0.1,2.1-0.3,3.1-0.6c1-0.3,2-0.7,3-1.1c0.9-0.5,1.6-1.4,2.4-2c0.8-0.6,1.5-1.3,2.3-2.1c0.7-0.7,1.8-1.2,2.4-2       c0.6-0.8,0.7-1.9,1.2-2.8c0.5-0.9,1.2-1.6,1.6-2.5c0.4-0.9,0.8-1.8,1.2-2.7c0.4-0.9,0.8-1.8,1.1-2.8c0.3-0.9,0.2-2,0.5-3       c0.2-1,0.2-2,0.4-3c0.2-1,0.5-1.9,0.6-2.9c0.2-1,0.7-1.9,0.8-2.9c0.1-1,0.3-2,0.4-3c0.1-1,0-2.1,0.1-3.1c0.1-1,0.4-2,0.5-3.1       c0.1-1-0.1-2.1-0.1-3.1c0-1,0.1-2.1,0.1-3.1c0-1,0-2.1-0.1-3.1c-0.1-1-0.1-2.1-0.3-3.1c-0.2-1-0.6-2-0.9-3       c-0.3-1-1-1.8-1.4-2.8C519.9,131.7,519.8,130.6,519.3,129.6z M499.5,152.7c-1.1,0-2.2-0.3-2.9-1c-0.7-0.8-0.7-2-0.7-3       c-0.1-1.1,0-1.9,0.8-2.6c1.1-1.1,1.8-0.9,2.4,0.1c0.5,0.8,0.6,1.9,0.7,3c0.1,1.2,0.4,2.4,0.1,3.2       C500,152.3,499.9,152.2,499.5,152.7z"/>
				</g>
				<g id="XMLID_2223_">
					<path id="XMLID_2224_" class="st17" d="M408.1,146.1c0.8,3.9,0.3-1,0.3,0C408.4,146.2,408.1,146.1,408.1,146.1z"/>
				</g>
				<g id="XMLID_2219_">
					<path id="XMLID_2220_" class="st17" d="M407.8,146.2c0-1,0.5-2.2,0.3-3.3c-0.1-1-0.3-2.1-0.5-3.2c-0.2-1-0.4-2.1-0.6-3.2       c-0.3-1-1.1-1.9-1.5-2.9c-0.3-1,0-2.3-0.4-3.3c-0.4-1-1.1-1.9-1.6-2.9c-0.5-1-0.9-2-1.4-2.9c-0.5-0.9-1.4-1.7-2-2.6       c-0.6-0.9-1.4-1.7-2-2.5c-0.6-0.9-0.8-2.1-1.5-2.9c-0.7-0.8-1.7-1.4-2.5-2.1c-0.8-0.8-1.3-1.8-2.1-2.4c-0.8-0.7-2-1-2.9-1.6       c-0.9-0.6-1.5-1.6-2.5-2.1c-1-0.5-2.1-0.5-3.1-0.9c-1-0.4-1.9-1-3-1.2c-1-0.2-2.1-0.5-3.2-0.6c-1.1-0.1-2.1,0.4-3.2,0.6       c-1.1,0.1-2.4-0.2-3.4,0.2c-1,0.4-1.8,1.4-2.7,2.1c-0.9,0.7-1.9,1.3-2.6,2.1c-0.7,0.8-1.2,1.9-1.8,2.8       c-0.6,0.9-1.5,1.7-2.1,2.7c-0.5,1-0.9,2.1-1.3,3c-0.5,1-0.7,2.2-1.1,3.1c-0.4,1-0.6,2-1,3.1c-0.4,1-1,1.9-1.3,3       c-0.3,1-0.6,2.1-0.9,3.1c-0.3,1-0.1,2.2-0.4,3.3c-0.3,1-1,2-1.2,3.1c-0.2,1.1-0.6,2.1-0.7,3.2c-0.2,1.1,0.2,2.2,0.1,3.3       c-0.1,1.1-0.4,2.1-0.5,3.2c-0.1,1.1-0.2,2.2-0.3,3.2c0,1-0.6,2-0.6,3.1c-0.1,1,0.6,2.1,0.5,3.1c-0.1,1-0.3,2-0.3,3.1       c-0.1,1-0.7,2-0.7,3.1c0,1,0.3,2.1,0.3,3.1c0,1,0.4,2,0.5,3.1c0.1,1-0.6,2.2-0.4,3.2c0.2,1,1.1,1.9,1.4,2.9       c0.3,1,0.1,2.1,0.5,3.1c0.4,1,1.4,1.7,2,2.6c0.6,0.9,1.4,1.6,2.1,2.4c0.8,0.8,1.4,1.6,2.3,2.2c0.9,0.6,1.9,1,2.8,1.4       c1,0.4,1.9,1,3,1.1c1.1,0.1,2.2,0.4,3.2,0.2c1-0.3,2.2-0.7,3-1.4c0.7-0.7,1.2-1.8,1.7-2.9c0.4-0.8,0.6-1.9,0.7-3.1       c0.1-1,0.2-2,0.3-3.1c0.1-1,0.2-2.1,0.3-3.1c0.1-1.1,0-2.1,0.1-3.1c0.1-1.1-0.2-2.2,0-3.2c0.2-1.1,1.3-1.9,1.8-2.7       c0.6-1,1-2.1,2.1-2.3c1.2-0.2,2.3,0.2,3.1,0.8c0.8,0.5,1.1,1.6,1.6,2.6c0.4,0.9,1,1.8,1.2,2.8c0.2,1,0.6,2,0.7,3       c0.1,1-0.3,2.1-0.3,3.1c0.1,1.1-0.1,2.1-0.1,3.1c0.1,1.2,0.4,2.3,0.5,3c0.2,1,0.3,2.1,0.7,3c0.4,1,1.2,1.7,1.7,2.6       c0.5,0.9,1.2,1.6,1.9,2.3c0.7,0.8,1.2,1.7,2,2.3c0.9,0.6,1.7,1.3,2.6,1.7c1,0.4,2.1,0.2,3.1,0.3c1,0.2,2,0.7,3,0.5       c1-0.2,1.9-0.6,2.8-1.2c0.8-0.5,1.4-1.3,2-2.2c0.5-0.8,1-1.6,1.3-2.7c0.3-0.9,1-1.9,1.1-2.9c0.1-1-0.4-2.1-0.4-3.1       c0.1-1,0-2,0-3c0-1,0.2-2,0.1-3c0-1,0.3-2,0.2-3.1c0-1-0.6-2-0.6-3c0-1,0.6-2.1,0.7-3c0-1-0.5-2-0.5-3c0.1-1,0.3-2,0.4-3       c0.1-1-0.1-2,0-3c0.1-1,0.2-2,0.2-3c0-1,0.6-2,0.6-3c0-1-0.6-2-0.7-3C408.5,148.1,408.1,147.1,407.8,146.2z M381.7,145       c-0.8,2-2,1.6-2.8,0.8c-0.8-0.8-1.4-2.3-1.6-3.1c-0.2-0.9,0-1.9,0.2-3c0.2-1,0-2.2,0.4-3.2c0.5-1.1,1.5-1.6,2-2.2       c0.5,0.3,0.6,0.9,1,2.2c0.2,0.8,0.4,1.8,0.5,2.8c0.2,1,0.6,1.9,0.7,2.8c0,1.4-0.5,2.2-0.9,2.5       C381.8,144.1,381.3,146.1,381.7,145z"/>
				</g>
				<g id="XMLID_2215_">
					<path id="XMLID_2216_" class="st17" d="M445.9,141.6c-0.6-0.9,0.2-2.4,1.5-3.4c0.9-0.7,2.4-0.6,3.5-1.2c1.4-0.7,2.6-1.6,3-1.9       c0.8-0.6,1.5-1.3,2.2-2c0.8-0.7,1.3-1.4,1.9-2.2c0.6-0.8,1-1.6,1.5-2.5c0.4-0.9,0.9-1.7,1.1-2.7c0.2-0.9,0.2-1.9,0.1-2.9       c0-1.1,0-2.2-0.3-3.2c-0.3-1-1.1-1.9-1.7-2.8c-0.6-0.9-0.9-2.1-1.7-2.9c-0.8-0.7-2.1-0.9-3-1.5c-0.9-0.6-1.7-1.3-2.7-1.8       c-1-0.5-1.8-1.3-2.9-1.7c-1-0.4-2.2-0.6-3.2-0.8c-1.1-0.2-2.2-0.2-3.3-0.3c-1.2-0.1-2.3-0.4-3.3-0.3c-1.1,0.1-2.2,0.6-3.3,0.8       c-1.1,0.3-2.2,0.4-3.2,0.8c-1,0.4-2.1,0.8-3.1,1.3c-1,0.6-1.6,1.6-2.5,2.3c-0.9,0.7-1.5,1.6-2.3,2.4c-0.8,0.8-1.6,1.5-2.3,2.4       c-0.7,0.9-1.7,1.5-2.3,2.5c-0.6,0.9-0.4,2.3-0.9,3.3c-0.5,1-1.2,1.8-1.7,2.8c-0.4,0.9-0.7,1.9-1.1,2.9c-0.3,1-1.1,1.8-1.4,2.8       c-0.3,1-0.4,2.1-0.6,3.1c-0.2,1-0.7,2-0.9,3c-0.2,1,0.1,2.1,0,3.2c-0.1,1-0.3,2.1-0.4,3.1c-0.1,1-0.1,2.1-0.1,3.1       c0,1-0.5,2.1-0.4,3.2c0,1,0.1,2.1,0.2,3.2c0.1,1,0.4,2.1,0.5,3.1c0.1,1,0.6,2,0.8,3.1c0.2,1,0.4,2.1,0.6,3.1       c0.3,1,0.3,2.1,0.6,3.1c0.3,1,1.1,1.8,1.5,2.8c0.4,1,0.6,2,1.1,2.9c0.5,0.9,0.9,1.9,1.5,2.8c0.5,0.9,0.9,1.9,1.5,2.8       c0.6,0.8,1.6,1.4,2.3,2.2c0.7,0.8,1.6,1.3,2.4,2.1c0.7,0.7,1.3,1.6,2.1,2.3c0.8,0.6,1.5,1.4,2.4,2c0.9,0.6,1.8,1,2.8,1.5       c0.9,0.5,2,0.4,2.9,0.8c0.9,0.4,1.8,0.9,2.7,1.1c1,0.3,1.9,0.6,2.9,0.8c1,0.2,2,0.3,2.9,0.3c1,0,2-0.2,3-0.3c1-0.1,2,0.1,3-0.1       c1-0.2,2-0.3,2.9-0.6c1-0.3,1.9-0.6,2.8-1c1-0.4,1.8-1.1,2.5-1.8c0.8-0.7,1.3-1.5,1.9-2.4c0.5-0.8,1.3-1.6,1.6-2.6       c0.3-0.9,0.5-2,0.7-3c0.2-1,0.3-2,0.4-3c0.1-1,0.1-2,0.2-3c0.1-1,0.4-2,0.5-3c0.1-1-0.3-2.1-0.3-3.1c-0.1,0.7,0.6-2,0.6,0       c0-1-0.3-2-0.3-3.2c0-1-0.2-2.1-0.3-3.1c0-1,0.3-2.1,0.2-3.2c-0.1-1-0.6-2-0.8-3.1c-0.3-1-0.6-2-1.1-3c-0.4-0.9-0.6-2.1-1.2-3       c-0.6-0.8-1.9-1-2.9-1.5c-0.9-0.5-1.6-1.4-2.7-1.8c-1-0.4-2-0.7-3-1c-1.1-0.4-2.2-0.4-3.1-0.8       C447.4,142.9,446.3,142.3,445.9,141.6z M444.2,169.2c0.4,1.5-1.9,2.4-3.1,1.2c-0.6-0.6-0.7-1.9-1.3-2.6c-0.6-0.7-1.4-1.3-2-2       c-0.6-0.8-1.3-1.5-1.7-2.2c-0.7-1.2-1.1-2.5-0.7-2.9c0.5-0.5,2.2-0.2,3.6,0.4c1.3,0.6,2.4,1.6,2.8,2c0.4,0.4,1,1.6,1.4,3       C443.6,167,444,168.2,444.2,169.2z"/>
				</g>
			</g>
			<g xmlns="http://www.w3.org/2000/svg" id="XMLID_2085_">
				<g id="XMLID_2094_">
					<path id="XMLID_2095_" class="st18" d="M279.2,154.7c-0.6-1.1-1.6-1.7-2.7-2.2c-1.1-0.5-2.3-0.8-3.4-1.3       c-1.2-0.5-1.8-1.4-2.2-2.5c-0.3-1.2,1.2-2.8,1.5-3.7c0.4-0.9,0.5-1.9,0.8-2.9c0.2-0.9,0.2-1.9,0.2-2.9c0.1-1.2,0.1-2.3-0.1-3.3       c-0.3-1.1-0.5-2.3-1.4-3.1c-0.7-0.7-1.9-0.9-3.1-1.3c-1.2-0.4-2.1-0.5-2.9-0.2c-0.8,0.4-1.6,1.1-2.1,2.1       c-0.5,0.8-1.1,1.7-1.4,2.7c-0.3,0.9-0.2,2-0.5,3c-0.3,0.9-0.3,1.9-0.5,2.9c-0.2,0.9-0.8,1.8-0.9,2.8c-0.2,1-0.5,1.9-0.7,2.9       c-0.1,1-0.1,2-0.2,3c-0.1,0.9,0.4,1.8,0.5,2.7c0,0.9,0,1.8,0.3,2.6c0.3,0.8,0.6,1.6,1.4,2.2c0.6,0.5,1.3,1,2.3,1.3       c1,0.3,2.3,0.4,3.5,0.5c1.2,0.1,2.4,0.5,3.6,0.6c1.3,0,2.6,0.3,3.6,0.2c1,0,2.2-0.2,3.1-0.7c1-0.5,1.7-1.5,2-2.5       C280.3,156.9,280,155.9,279.2,154.7z"/>
				</g>
				<g id="XMLID_2092_">
					<path id="XMLID_2093_" class="st18" d="M258.6,137.6c-0.5-1-1.2-1.7-2-2.4c-0.8-0.7-1.3-2-2.2-2.5c-1-0.5-2.1-0.6-3.2-1       c-0.1,0-1.5-0.3-2.5-0.7c-1-0.4-1.8-0.3-2.7-0.2c-1.4,0.1-2.2,0.2-3.6,1.5c-0.8,0.7-1.3,1.7-1.6,3c-0.3,1.2-0.4,2.6-0.7,3.6       c-0.3,0.9-0.7,1.8-1,2.8c-0.2,1-0.1,2-0.3,3c-0.2,1-0.8,1.9-0.9,2.9c-0.1,1,0.6,2,0.7,3c0.1,1,0,1.9,0.2,2.9       c0.2,1.2,0.3,2.4,1,3.2c0.7,0.9,1.7,1.5,2.7,2c1,0.4,2.1,0.5,3.2,0.7c1.1,0.1,2.2,0.4,3.3,0.3c1.2-0.1,2.2-0.6,3.2-1       c1.3-0.4,2.4-1,2.9-1.8c0.7-1,0.9-2.3,0.4-3.4c-0.4-0.9-1.5-1.5-2.6-2.2c-0.8-0.6-1.8-1.4-3-1.8c1.4,0.3,2.3,0.7,2.9,0.6       c1.4-0.1,1.9-0.6,2.5-1.5c0.6-1-0.2-2-0.6-2.9c-0.4-0.8-0.8-1.7-1.6-2.3c-0.8-0.7-1.5-1.5-2.4-2c0.9,0.4,2,1.2,3.1,1.4       c1.1,0.2,2.3,0,3.3-0.3c1.2-0.3,2.5-0.9,2.8-1.9C260,139.9,259.3,138.9,258.6,137.6z"/>
				</g>
				<g id="XMLID_2086_">
					<g id="XMLID_2087_">
						<path id="XMLID_2088_" class="st18" d="M231.6,130.9c-0.7-0.5-1.5-1.3-2.4-1.8c-0.9-0.5-1.8-1-2.7-1.4c-1-0.4-2-0.7-2.9-0.9        c-1.2-0.3-2.4-0.4-3.1-0.2c-1.1,0.3-1.8,1.5-2.1,2.6c-0.2,1,0.4,2.2,0.4,3.3c0,1.2-0.1,2.4-0.1,3.2c-0.1,0.9-0.2,1.8-0.2,2.7        c-0.1,0.9-0.4,1.8-0.4,2.7c0,0.9,0.5,1.8,0.5,2.7c0,1.1-0.5,2.2-0.4,3.3c0.1,1.1,0.5,2.1,0.6,3.2c0.1,1.1,0,2.1,0.1,3.2        c0.1,0.8,0.5,1.6,1,2.3c0.4,0.6,1,1.2,1.8,1.7c0.8,0.5,1.7,0.3,2.6,0.3c0.9,0,1.8,0,2.6-0.2c1.2-0.2,2.4-0.3,3.3-0.8        c1.1-0.5,1.8-1.4,2.6-2.2c0.8-0.8,1.5-1.7,2-2.7c0.4-1,0.8-2.1,1-3.2c0.2-1.1,0.1-2.2,0.2-3.4c0.1-1.1,0-2.2,0-3.4        c0-1,0.1-2,0-3c-0.1-1,0-2.1-0.4-3c-0.3-0.9-0.6-2-1.1-2.9C233.4,132.1,232.4,131.5,231.6,130.9z M227.9,144.8        c0,0-0.2-0.1-0.3,0C227.7,144.8,227.9,144.8,227.9,144.8z M227.8,144.8l-0.1-0.1l0-0.1l0,0.1c0,0,0.4,0.4,0.4,0.4        c0,0-0.5-0.4-0.4-0.5c-0.7,0.7-1.2-0.1-1.3-1.3c-0.1-1.1,0.2-2.5,0.4-2.8c0.9,0.2,1.5,1.1,1.7,1.9        C228.5,143.3,228.2,144.3,227.8,144.8z"/>
					</g>
				</g>
			</g>
		</g>
</svg>