<?xml version="1.0" encoding="iso-8859-1"?>
<!-- Generator: Adobe Illustrator 19.0.0, SVG Export Plug-In . SVG Version: 6.00 Build 0)  -->
<svg version="1.1" id="Layer_1" xmlns="http://www.w3.org/2000/svg" xmlns:xlink="http://www.w3.org/1999/xlink" x="0px" y="0px"
	 viewBox="6162.259 1280.345 670.37 211.111" style="enable-background:new 6162.259 1280.345 670.37 211.111;"
	 xml:space="preserve">
<g>
	<g>
		<path style="fill:#EF87B6;" d="M6736.426,1352.582c0,0.2-0.1,0.3,0,0.5l-0.3,0.1
			C6736.026,1352.982,6736.426,1352.682,6736.426,1352.582"/>
	</g>
	<g>
		<path style="fill:#EF87B6;" d="M6736.426,1353.181c0-0.1,0.1-0.1,0.1-0.2l-0.6,0.2H6736.426z"/>
	</g>
	<g>
		<path style="fill:#EF87B6;" d="M6736.226,1353.082l-0.1,0.2l0.1,0.1C6736.326,1353.382,6736.226,1353.082,6736.226,1353.082"/>
	</g>
	<g>
		<path style="fill:#EF87B6;" d="M6735.926,1353.181l0.2-0.1l0.4-0.1c-0.3-1.1-0.7-2.1-1.1-3.1s-1.2-1.9-1.7-2.8
			c-0.5-1-0.9-2-1.5-2.8c-0.6-0.9-1.3-1.7-2-2.5c-0.7-0.8-1.1-1.9-1.9-2.6c-0.8-0.7-1.9-1.1-2.8-1.7c-0.9-0.6-1.6-1.6-2.6-2
			c-1-0.5-2.1-0.5-3.2-0.8c-1.1-0.3-2.2-0.2-3.2-0.3c-1.1-0.1-2.1-1-3.2-0.9s-2.2,0.4-3.2,0.6c-1.1,0.2-1.9,1.2-2.8,1.7
			c-1,0.4-1.9,0.9-2.8,1.5c-0.9,0.6-1.8,1.1-2.6,1.9c-0.7,0.8-1.5,1.5-2.1,2.5c-0.5,0.9-0.9,1.9-1.3,3c-0.4,1-0.9,2-1.3,3
			c-0.3,1-0.3,2.2-0.6,3.2c-0.3,1-0.8,2-1.1,3.1s-0.4,2.2-0.6,3.2c-0.3,1.1-0.4,2.1-0.6,3.2c-0.2,1.1-0.4,2.1-0.6,3.2
			c-0.2,1.1-0.7,2.1-0.9,3.2c-0.2,1.1-0.1,2.2-0.3,3.3s-1.2,2-1.4,3c-0.2,1,0.3,2.2,0.1,3.2c-0.2,1-0.9,1.9-1.1,2.9
			c-0.2,1-0.5,2-0.7,3c-0.2,1,0.1,2.1-0.1,3.1c-0.2,1-0.8,2-0.9,3s0.2,2.1,0.1,3.1s-0.4,2-0.5,3.1c0,1,0.3,2.1,0.4,3.1
			c0,1-0.7,2.1-0.7,3.1c0.1,1,0.9,2,1,3c0.1,1-0.2,2.2,0,3.3c0.3,1,0.6,2.1,1,3.2c0.4,1,0.8,2.1,1.2,3.1c0.5,1,0.8,2.1,1.4,3
			c0.6,1,1.1,1.9,1.8,2.8c0.7,0.9,1.8,1.4,2.5,2.2c0.8,0.8,1.6,1.5,2.5,2.2c0.9,0.7,1.5,1.7,2.4,2.3c1,0.5,2.1,0.8,3.1,1.1
			c1.1,0.4,2.2,0.4,3.3,0.6s2.2,0.2,3.3,0.099c1.1-0.099,2.2-0.399,3.2-0.699c1.1-0.301,2.2-0.5,3.2-1s2.1-0.801,3.1-1.4
			c0.9-0.6,1.5-1.7,2.4-2.401c0.9-0.699,1.7-1.399,2.5-2.099c0.8-0.8,1.7-1.5,2.4-2.3c0.7-0.8,1.7-1.3,2.3-2.2
			c0.6-0.901,1.1-1.8,1.6-2.8c0.5-0.901,0.5-2.101,0.9-3.101c0.4-1,1.3-1.8,1.5-2.8c0.3-1,0.3-2.099,0.5-3.099
			c0.2-1,0-2.101,0.1-3.2c0.1-1,0.3-2.1,0.4-3.1c0.1-1,0.9-2,1-3.1c0.1-1-0.3-2.1-0.2-3.2c0-1-0.2-2-0.2-3s0.3-2,0.3-3s-0.1-2-0.1-3
			s0.5-2,0.5-3s-0.6-2-0.6-3s0.1-2,0.1-3c0-1.1,0.4-2.2,0.5-3.3s0.1-2.2,0.2-3.3c0.1-1.1,0.2-2.2,0.2-3.401
			c0.1-1.099-0.3-2.3-0.3-3.399c0-1.101,0-2.2-0.1-3.3C6736.426,1355.282,6736.226,1354.181,6735.926,1353.181 M6710.826,1390.881
			c-0.3,2-0.7,1.7-1.2,0.9c-0.6-0.9-0.7-2.5-1-2.6c0-0.4,0.1-1.4,0.4-3c0.2-0.9,0-2.1,0.2-3.2c0.2-1,0.6-2.1,0.8-3.1
			c0.3-1.1,0.4-2.2,0.7-3.1c0.3-1.1,1.1-2,1.5-2.9c0.6-1.6,1.2-2.8,1.7-2.6c0.5,0.3,0.5,1.5,0.7,3c0.1,0.9,0.5,1.9,0.5,3
			c0,1,0.4,2,0.4,3.1c0,1-0.9,2-1,3c-0.1,1.1,0,2.1-0.2,3c-0.2,1.5-0.5,2.4-0.8,2.7c0.4-0.4-0.1,2-1,3.2
			C6711.826,1393.082,6710.526,1393.282,6710.826,1390.881"/>
	</g>
	<g>
		<path style="fill:#EF87B6;" d="M6524.625,1367.582c-0.1-1,0.2-2,0.1-3c0-1,0.4-2,0.4-3s-0.2-2-0.3-3s-0.6-2-0.8-2.9
			c-0.2-1-0.3-2-0.5-2.9c-0.3-1-0.7-1.8-1.1-2.8c-0.4-0.9-0.5-2-1.1-2.8c-0.6-0.8-1.5-1.3-2.3-2c-0.7-0.6-1.3-1.6-2.2-2.1
			c-1.3-0.4-1.1-0.1-3.2-1.2c-1.1-0.3-2.2-0.1-3.2-0.2c-1.2-0.1-2.3-0.9-3.2-0.6c-1.8,0.5-2.8,1.6-3.9,2.9c-0.7,0.8-0.8,2.2-1.4,3.2
			s-1.1,2-1.6,3.1c-0.4,1.1-1.1,2.1-1.4,3.2c-0.4,1.1-0.8,2.2-1.1,3.3c-0.2,0.8-0.2,2-0.3,3c-0.1,1.1-0.4,2.1-0.9,2.8
			c-0.5,0.8-1.2,1.3-2.6,0.6c-0.7-0.4-1.4-1.4-2.2-2.5c-0.6-0.8-1.4-1.7-1.9-2.7c-0.6-1-1.2-2-1.7-2.9c-0.6-1.3-1.2-2.3-1.5-2.9
			c-0.5-0.9-0.8-2-1.3-2.9s-1.4-1.6-2.1-2.4c-0.6-0.9-0.7-2.2-1.4-3c-0.7-0.8-2-1-2.8-1.6c-0.9-0.7-1.6-1.6-2.5-1.9
			c-1-0.4-2.1-0.6-3.2-0.5c-1,0.1-1.8,0.8-2.9,1.3c-1,0.5-2,0.8-2.6,1.6c-0.6,0.8-0.7,1.9-1.1,2.9c-0.3,0.9-0.8,1.9-1,2.9
			s0.2,2.1,0.1,3.1c0,1-0.8,2.1-0.8,3.1s0.8,2.1,0.9,3.1c0.1,1.1-0.4,2.1-0.3,3.1c0.1,1.1,0.2,2.1,0.2,3.1c0,1.1,0.1,2.2,0.1,3.2
			c0,1.1-0.1,2.2,0,3.2v3.2c0,1.1,0.6,2.1,0.6,3.2c0,1.1,0.1,2.2,0.2,3.2c0,1.1-0.5,2.199-0.4,3.3c0,1.1,0.3,2.1,0.3,3.2
			s0.3,2.199,0.3,3.199c0,1.101,0.1,2.2,0.1,3.2s0.2,2,0.2,3.101c0,1-0.3,2-0.3,3.099c-0.1,1-0.4,2-0.5,3c-0.1,1,0.5,2.1,0.5,3.1
			s-0.1,2-0.1,3s0,2,0.1,3c0.1,1-0.1,2.1,0.2,3.1c0.3,1.1,0.8,2.2,1.3,3.2s1.5,1.8,2.1,2.6c0.7,0.9,1.1,2.1,1.9,2.8
			c0.9,0.7,2,1.1,3,1.6s2.2,0.4,3.3,0.5s2.1,0.2,3.2-0.1c1.1-0.2,2.4,0.1,3.4-0.5s1.6-1.6,2.3-2.3c0.7-0.8,1-1.8,1.5-2.7
			c0.4-0.9,1-1.8,1.2-2.9c0.2-1,0.3-2,0.4-3.1c0.1-1,0.7-2,0.9-3c0.1-1-0.3-2.2-0.1-3.2c0.2-1,0.6-2.1,1-3.1
			c0.8,0.401,1.5,1.401,2.2,2.401c0.6,0.8,1.2,1.699,1.8,2.699c0.5,0.9,1.1,1.9,1.6,2.801c0.6,1,1.5,1.699,2.1,2.599
			c0.7,1,1.3,1.901,2,2.5c0.7,0.6,1.3,1.3,2.1,1.901c0.8,0.5,1.5,1.099,2.4,1.599c0.8,0.5,1.7,0.901,2.6,1.3
			c0.9,0.401,1.9,0.601,2.7,0.8c1,0.2,2,0.5,2.9,0.5c1.2,0,2.3-0.199,3.3-0.5c1.1-0.3,1.8-1.399,2.6-2c0.9-0.699,1.6-1.3,2.2-2.3
			c0.5-0.899,1-1.8,1.3-2.899c0.3-1,0.8-2,1-3.101c0.2-1-0.2-2.2-0.2-3.3c0.1-1.099,0.7-2.099,0.7-3.2c0-1.099-0.3-2.2-0.3-3.3
			s0.2-2.2,0.1-3.3c0-1.1-0.3-2.2-0.3-3.2c0-1.099-0.1-2.099-0.1-3.2c0-1.099-0.4-2.099-0.4-3.2c0-1.099,0.2-2.099,0.2-3.199
			s0.2-2.1,0.2-3.2c0-1.1-0.3-2.1-0.3-3.2c0-1.1,0.2-2.1,0.1-3.2v-3.2c0-1.1-0.3-2.1-0.4-3.2
			C6524.826,1369.682,6524.726,1368.682,6524.625,1367.582"/>
	</g>
	<g>
		<path style="fill:#EF87B6;" d="M6671.726,1346.382c-0.7-0.6-1.5-1.3-2.4-2c-0.8-0.6-1.8-1-2.7-1.6c-0.9-0.6-1.5-1.6-2.4-2.1
			s-2-0.7-3-1.2c-0.9-0.5-1.7-1.2-2.7-1.7c-1-0.4-1.9-0.9-2.9-1.3s-2-0.8-3-1.1c-1-0.3-2.1-0.4-3.1-0.6c-1.1-0.3-2.1-0.2-3.1-0.3
			c-1.1-0.2-2.1-0.3-3.1-0.2c-1.1,0-2.1,0.2-3,0.6c-1.1,0.4-2,0.9-2.7,1.6c-0.7,0.8-1.8,1.4-2.2,2.5c-0.4,0.9-0.1,2.2-0.4,3.3
			c-0.2,1-0.4,2.1-0.5,3.2c-0.1,1.1-0.6,2.1-0.6,3.2c0,1.1,0.5,2.2,0.5,3.3s0,2.2,0.1,3.3c0,1.1,0.1,2.2,0.2,3.3
			c0,1.2-0.1,2.3-0.2,3.3c-0.1,1-0.1,2.1-0.2,3.1s-0.1,2.1-0.2,3.1s-0.7,2.1-0.7,3.1c-0.1,1,0.3,2.1,0.2,3.2c0,1-0.3,2.1-0.3,3.1
			s0.2,2.1,0.1,3.1c0,1-0.1,2.1-0.1,3.1s0.2,2.1,0.2,3.1c0,1.1-0.6,2.2-0.5,3.3c0.1,1.1,0.9,2.2,0.9,3.3c0.1,1.1-0.1,2.2,0,3.3
			c0.1,1.1-0.1,2.2,0.1,3.3c0.1,1.1,0,2.2,0.1,3.3s0.3,2.2,0.4,3.3c0.1,1.1,0.6,2.1,0.8,3.2c0.1,1.1,0.5,2.2,0.6,3.3
			c0.1,1.1-0.6,2.3-0.5,3.4c0.1,1,0.5,1.9,0.7,2.9c0.2,1,0.5,1.9,0.9,2.8c0.4,0.9,1,1.7,1.6,2.5c0.5,0.8,0.9,1.8,1.6,2.5
			c0.7,0.6,1.8,0.8,2.6,1.4c0.9,0.6,1.7,1.3,2.6,1.6c1,0.3,2,0.3,3,0.4c1,0.1,2-0.1,3-0.3c1-0.1,2-0.2,3-0.4c1-0.2,2-0.6,2.9-0.8
			c1-0.2,2.1,0,3.1-0.3c1-0.3,1.8-1.2,2.7-1.6c1-0.4,2-0.6,2.9-1c0.9-0.5,1.9-0.8,2.8-1.4c0.9-0.6,1.4-1.6,2.2-2.2
			c0.8-0.7,1.7-1.2,2.4-1.9c0.7-0.8,1-1.8,1.7-2.6c0.6-0.8,1.2-1.6,1.8-2.5c0.5-0.9,1.5-1.5,2-2.4c0.4-0.9,0.3-2.1,0.6-3.1
			c0.4-0.9,1.1-1.8,1.4-2.8c0.3-1,0.2-2,0.5-3.1c0.2-1,1.1-1.8,1.3-2.9c0.2-1,0.2-2,0.4-3.1c0.1-1-0.4-2.1-0.3-3.1s0.3-2,0.4-3
			s0.4-2,0.5-3.1c0.1-1,0.3-2,0.4-3.1v-3.1c0-1-0.1-2.1-0.1-3.1s-0.4-2-0.4-3s0.2-2,0.1-3s-0.1-2-0.2-3c-0.1-1,0.1-2.1-0.1-3.1
			c-0.2-1-0.4-2-0.6-3c-0.2-1-1-1.8-1.3-2.8c-0.3-1-0.6-1.9-1-2.9c-0.4-0.9-0.7-1.9-1.1-2.8c-0.5-0.9-1.1-1.7-1.7-2.6
			c-0.5-0.9-1.1-1.7-1.7-2.5c-0.6-0.8-0.9-1.8-1.6-2.6C6673.426,1347.582,6672.526,1347.082,6671.726,1346.382 M6661.426,1389.382
			C6661.526,1389.282,6661.526,1389.282,6661.426,1389.382 M6659.326,1395.582L6659.326,1395.582l0.1,0.1l-0.4-0.4
			C6658.926,1395.382,6659.226,1395.682,6659.326,1395.582c-0.1,0.1-0.3-0.2-0.2-0.2c-1.2,1.3-1.7,1.6-2.4,1.2
			c-0.7-0.4-1-1.2-1.3-2.6c-0.2-0.9-0.6-2-0.7-3.2c-0.1-1-0.4-2.1-0.4-3.3c0-1.1,0.1-2.2,0.1-3.3s0.1-2.2,0.1-3.3
			c0.1-1.1,0.3-2.3,0.4-3.3c0.1-1.2,0.8-2.2,1-3.2c0.2-1.5,0-3,0.3-3.5c1,0.4,2,1,2.8,1.7c0.7,0.7,1,1.7,1.6,2.7
			c0.5,0.9,1.3,1.6,1.6,2.6s0.5,2,0.6,3.1c0.1,1,0.3,2.1,0.3,3.1s-0.1,2.1-0.3,3.1c-0.1,1.1-0.3,2.1-0.5,3.1c-0.3,1.1-0.6,2.1-1,3
			C6660.726,1394.182,6659.926,1394.982,6659.326,1395.582"/>
	</g>
	<g>
		<path style="fill:#EF87B6;" d="M6584.026,1360.082c-0.5-1-1-1.9-1.6-2.7c-0.6-0.9-1.4-1.6-2.1-2.4c-0.7-0.8-1.1-1.9-1.9-2.6
			c-0.8-0.7-1.9-1-2.8-1.6c-0.9-0.6-1.6-1.4-2.5-1.9c-0.9-0.5-1.9-1-2.9-1.4s-1.9-0.9-2.9-1.2c-1-0.4-2.1-0.4-3.1-0.7
			c-1-0.3-2.1-0.3-3.1-0.6c-1-0.3-2-0.6-3.1-0.8c-1-0.2-2.1-0.4-3.1-0.6c-1-0.2-2.1-0.6-3.1-0.8c-1-0.2-1.9-1-3-1.2
			c-1-0.2-2.2,0.2-3.2,0.1c-1-0.2-2.1-0.4-3.1-0.5c-1.1-0.1-2.1-0.6-3.1-0.6c-1.1,0-2.1,0.5-3.1,0.6c-1.1,0.1-2.1,0.3-3,0.6
			c-1,0.3-1.9,0.8-2.7,1.4c-0.9,0.6-1.6,1.2-2.2,2.1c-0.5,0.8-0.9,1.7-1.2,2.8c-0.2,0.9-0.4,1.9-0.4,3.1c0,1-0.5,2-0.3,3
			c0.2,1,0.8,1.9,1.2,2.8c0.3,0.9,0.6,1.9,1.1,2.8c0.5,0.9,1.2,1.6,1.8,2.4c0.6,0.8,1.2,1.6,2,2.3c0.8,0.7,1.6,1.2,2.4,1.7
			c0.8,0.6,1.3,1.6,2.1,2.1c0.9,0.5,2.1,0.4,2.9,0.9c0.8,0.6,1.5,1.4,2.1,2.1c0.6,0.7,0.9,1.6,1.2,2.6c0.3,0.8,0.3,1.7,0.3,2.8
			c0.1,1,0.2,2,0.2,3s0.4,2.1,0.3,3.1c-0.1,1,0.1,2.1,0,3.1c-0.1,1-1,1.9-1.1,2.9s0,2.1-0.1,3.1s-0.3,2-0.5,3c-0.1,1-0.1,2-0.2,3.1
			c-0.1,1-0.6,2-0.8,3c-0.1,1,0.3,2.1,0.2,3.1c-0.1,1-0.4,2-0.5,3c0,1,0.1,2,0.1,3.1c0,1,0.2,2,0.2,3c0.1,1,0.1,2,0.3,3
			c0.2,1,0.6,1.9,1,2.8c0.3,0.9,0.3,2.1,0.8,2.9c0.5,0.9,1.5,1.4,2.1,2.2c0.6,0.8,1,1.8,1.7,2.4c0.7,0.7,1.4,1.5,2.2,2.1
			c0.9,0.5,2,0.5,2.9,0.8c1,0.3,1.9,0.6,2.9,0.5c0.9-0.1,1.7-0.7,2.7-1.2c0.8-0.4,1.7-0.8,2.5-1.5c0.8-0.7,1.9-1.2,2.5-2.2
			c0.5-0.9,0.3-2.1,0.7-3.2c0.3-1,1-1.9,1.1-3.1c0.2-1,0-2.2,0.1-3.3s0.9-2.1,0.9-3.2c0-1.1-0.1-2.2-0.1-3.3s-0.7-2.2-0.8-3.3v-3.3
			c0-1.1,0.2-2.2,0.1-3.3c0-1.2,0.2-2.3,0.2-3.3c0-0.7-0.2-1.8-0.3-3c-0.1-0.9-0.3-1.9-0.4-3c-0.1-1-0.5-2-0.5-3
			c-0.1-1,0.2-2.1,0.2-3c0-1.1,0.2-2.1,0.3-3c0.2-1.3,0.7-2,1.3-2.5c0.6-0.5,1.1-0.3,1.9-0.1c0.8,0.2,1.8-0.1,2.4,0
			c1.4,0.1,2.3,0.1,3.1,0c0.9-0.1,1.8-0.2,3.1-0.7c0.9-0.3,1.7-1,2.6-1.6c0.8-0.6,1.5-1.2,2.2-2c0.7-0.7,1.6-1.3,2.2-2.1
			c0.5-0.8,0.5-2,0.9-2.9c0.4-0.9,0.8-1.8,1-2.8c0.1-1,0.5-2.1,0.3-3.1C6585.125,1361.882,6584.526,1360.982,6584.026,1360.082"/>
	</g>
	<g>
		<path style="fill:#EF87B6;" d="M6594.625,1347.782c-0.7,0.8-1.3,1.6-1.8,2.6c-0.5,0.9-0.8,1.9-1.1,2.9c-0.3,1-0.8,1.9-1,3
			c-0.3,1-0.1,2.1-0.3,3.1s-1,1.9-1.2,3c-0.2,1,0,2.1-0.1,3.1c-0.2,1.1,0,2.1-0.2,3.1s-0.2,2-0.4,2.9c-0.2,1-1.1,1.8-1.2,2.8
			c-0.2,1,0.2,2,0,3s-1,1.8-1.2,2.8c-0.2,1-0.3,1.9-0.5,2.9c-0.2,1-0.1,2-0.2,3c-0.2,1-0.2,2-0.4,2.9c-0.1,0.9-0.5,1.9-0.6,3
			c-0.1,0.9-0.3,2-0.5,3c-0.1,1-0.5,2-0.6,3s0.1,2.1,0,3.1s0,2-0.1,3.1c-0.1,1-0.5,2-0.5,3.1c0,1-0.1,2.1-0.1,3.1s0.1,2.1,0.2,3.1
			s0.7,2,0.8,3c0.1,1,0,2.1,0.2,3.1c0.2,1,0.6,2,0.9,2.9c0.4,1,0.8,2,1.3,2.8c0.6,0.9,1.3,1.6,2.1,2.3c0.8,0.7,1.5,1.6,2.4,2.1
			c0.9,0.6,1.9,1,2.9,1.4s2.1,0.7,3.1,0.8c1.1,0.1,2.2-0.2,3.2-0.6c1-0.3,1.8-1.1,2.6-1.8c0.9-0.8,1.8-1.6,2.2-2.6s0.6-2.2,0.8-3.3
			c0.2-1.1-0.2-2.2-0.1-3.4c0.1-0.6,0.1-1.5,0.1-2.7c-0.1-0.9-0.1-1.8-0.2-2.8c0-1,0.4-1.9,0.5-2.8c0.1-1.2,0.2-2.5,0.8-2.8
			c1.2-0.5,2.1,0.3,2.4,1.4c0.3,0.8,0.6,1.8,0.7,2.9c0,0.9-0.7,2-0.8,3c0,1,0.4,2.1,0.4,3c0,1.2-0.4,2.4-0.2,3
			c0.2,1,0.8,1.8,1.2,2.8c0.3,0.9,0.5,2,1,2.9c0.4,0.9,1.3,1.6,1.9,2.4c0.6,0.9,0.8,1.9,1.5,2.6s1.5,1.4,2.4,1.9
			c0.8,0.5,1.9,0.6,2.9,0.9c1.2,0.3,2.1,0.4,3,0.3c1.2-0.1,2.2-0.1,2.9-0.7c0.7-0.6,0.8-1.7,1.2-2.7c0.3-0.9,1-1.7,1.2-2.8
			c0.1-1,0.5-2,0.5-3c0.1-1.1,0.2-2.1,0.3-3.1c0.1-1-0.1-2.1,0-3.2c0.1-1,0-2.1,0-3.2c0.1-1,0.3-2.1,0.3-3.1c0.1-1-0.1-2.099,0-3.2
			v-3.099c0-1,0.1-2.101,0.1-3.101c0-1.099-0.2-2.199-0.2-3.3c0-1.1,0.4-2.2,0.4-3.2c0-1.099,0.1-2.199,0.1-3.199
			c0-1.1-0.2-2.2-0.2-3.2c0-1.1,0.5-2.2,0.5-3.3v-3.301c0-1.1-0.1-2.199-0.1-3.3c0-1.1-0.3-2.2-0.4-3.2
			c-0.1-1.099-0.4-2.099-0.5-3.199s-0.4-2.1-0.6-3.2c-0.1-1.1,0.1-2.2-0.1-3.3c-0.2-1.1-0.4-2.1-0.6-3.2c-0.2-1.1-0.5-2.1-0.8-3.2
			c-0.3-1-0.9-2-1.2-3s0-2.3-0.4-3.3c-0.4-1-1.2-1.8-1.6-2.7c-0.5-1-1.1-1.8-1.7-2.6c-0.6-0.9-1.5-1.5-2.2-2.2
			c-0.7-0.8-1.2-1.8-2-2.4c-0.8-0.7-1.7-1.4-2.6-1.9s-2.1-0.3-3.1-0.7c-1-0.3-1.8-1.3-2.8-1.5c-1-0.2-2.1,0.5-3.2,0.5
			s-2.1-0.3-3.1-0.1c-1,0.2-1.8,1.1-2.8,1.5c-0.9,0.4-1.9,0.8-2.7,1.4C6596.226,1346.482,6595.326,1346.982,6594.625,1347.782
			 M6612.426,1388.082c-0.5,1.4-1.3,1.4-2.3,0.6c-0.6-0.5-1.4-1.3-1.9-2.4c-0.5-0.9-0.7-1.9-0.9-2.9c-0.2-1.1-0.7-2.1-0.5-3.1
			s1.2-1.5,2.2-2c1.3-0.7,2.1-0.7,2.8,0.1c0.6,0.7,1.3,1.8,1.5,3c0.2,1.1,0.4,2.4,0.4,3.4c-0.1,1.4-0.5,2.8-1,3.4
			C6613.826,1386.681,6612.326,1388.381,6612.426,1388.082 M6629.125,1401.881c0,0.3-0.1,0.7-0.1,1.2
			C6629.026,1402.681,6629.125,1402.282,6629.125,1401.881 M6629.125,1401.881c0-0.4,0.1-0.8,0.1-1.2
			C6629.226,1400.982,6629.125,1401.381,6629.125,1401.881"/>
	</g>
	<g>
		<path style="fill:#EF87B6;" d="M6393.926,1337.782c-1.3,0-2.4,0.2-3.3,0.2c-1.3,0.1-2.2,0.4-3.1,0.7c-0.9,0.3-1.8,0.7-2.9,1.3
			c-0.8,0.5-1.5,1.1-2.2,1.7c-0.7,0.6-1.5,1.1-2.1,1.8c-0.6,0.7-1.4,1.3-1.9,2.1c-0.6,0.9-0.6,2.2-1.1,3.2s-0.9,2-1.2,3.1
			c-0.3,1.1-0.7,2.1-0.9,3.2c-0.2,1.1-0.9,2.1-1.1,3.2c-0.2,1.1-0.3,2.2-0.5,3.4c-0.2,1.1,0.1,2.3-0.1,3.4c-0.2,1-0.9,1.9-1.1,2.9
			c-0.2,1-0.1,2.1-0.3,3.1c-0.2,1,0,2.1-0.1,3.1c-0.2,1-0.4,2-0.6,3s-1.1,1.9-1.2,2.9c-0.1,1,0.1,2.1,0,3.1c-0.1,1,0,2.1-0.1,3.1
			c-0.1,1-0.5,2-0.5,3c-0.1,1-0.1,2-0.1,3.1c-0.1,1-0.6,2-0.6,3.1c0,1,0.6,2.1,0.6,3.1v3.1c0,1-0.2,2.1-0.1,3.1
			c0.1,1.1,0.3,2.199,0.6,3.199s0.6,2.101,1.1,3.101c0.4,1,1.3,1.7,1.9,2.7c0.6,0.899,1.1,1.8,1.8,2.699c0.7,0.801,1.2,1.801,2,2.6
			c0.8,0.8,1.5,1.6,2.4,2.3c0.9,0.7,1.8,1.401,2.7,1.901c1,0.599,2,1,3,1.399c1,0.401,2.1,0.901,3.1,1.101
			c1.1,0.199,2.2,0.3,3.3,0.3c1.1,0,2.1-0.8,3.2-1c1-0.3,2-0.5,3-1.101c0.9-0.5,1.9-1.199,2.8-1.899c0.8-0.7,1.9-1.401,2.5-2.3
			c0.7-0.901,0.8-2.101,1.2-3.2c0.4-1.101,1.3-2.101,1.3-3.2c0-1.1-0.4-2.2-0.8-3.401c-0.3-0.899-0.6-1.899-1.2-2.8
			c-0.5-0.8-1.4-1.399-2.1-2.099c-0.7-0.7-1.6-1.2-2.4-1.7c-0.9-0.5-1.9-0.3-2.8-0.401c-1-0.099-1.9-0.199-2.8-0.3
			c-0.9,0-1.8-0.399-2.7-0.899c0-1.101-0.1-2.2,0-3.301c0.2-1.1,0.5-2.199,0.8-3.3c0.2-1.1,0.6-2.2,0.8-3.2
			c0.3-1.1,0.3-2.199,0.5-3.3c0.2-1.1,0.4-2.2,0.5-3.3c0.2-1.1,0.4-2.1,0.5-3.3c0-1,0.4-1.9,0.4-2.9s0.3-1.9,0.2-2.9
			c0-1-0.7-1.9-0.8-2.9c0-1-0.2-1.9-0.2-2.9s0.6-1.7,0.6-2.6c0.9,0.3,1.3,0.6,2,1.1c0.7,0.6,1.4,1,2.1,1.6c0.7,0.6,1.4,0.9,2.3,1.2
			c1,0.4,1.8,0.5,2.7,0.5c1,0.1,1.9,0.2,2.8-0.1c0.9-0.3,1.6-0.9,2.4-1.5c0.7-0.6,1.5-1.3,2.1-2.1c0.5-0.8,0.7-1.8,1.1-2.8
			c0.4-0.9,1.2-1.7,1.5-2.6c0.3-1-0.2-2.1-0.1-3.1c0.1-1.1,0.3-2.1,0.2-3.2s0.2-2.2-0.1-3.3c-0.3-1-0.7-2.1-1.2-3.1
			s-1.2-1.8-1.8-2.7c-0.6-0.9-1.1-1.9-1.8-2.7c-0.7-0.8-1.7-1.3-2.6-2c-0.8-0.7-1.6-1.4-2.6-2c-0.9-0.6-1.8-1.2-2.8-1.7
			c-1-0.4-2.1-0.4-3.2-0.7C6396.026,1338.682,6395.026,1337.982,6393.926,1337.782"/>
	</g>
	<g>
		<path style="fill:#EF87B6;" d="M6352.726,1340.881c-1.1,0.5-1.4,1.8-1.8,2.8c-0.5,0.9-0.8,2-1.1,3c-0.3,1.1-1,2-1.4,3
			c-0.3,0.6,0.1,1.9-0.1,3.5c-0.1,1-0.2,2.1-0.3,3.4c-0.1,1.1-0.1,2.2-0.2,3.4c-0.1,1.1-0.4,2.2-0.6,3.4c-0.2,1.1-0.6,2.5-0.9,3.5
			c-0.3-0.9-1-2.1-1.3-3.2c-0.3-1,0-2.1-0.3-3.2c-0.3-1-0.9-1.9-1.2-2.9c-0.3-1-0.4-2-0.7-3.1c-0.3-1-0.8-1.9-1.1-2.9
			c-0.3-1-0.6-2-1-3c-0.4-1-0.9-1.9-1.3-2.8c-0.4-1-0.3-2.2-0.8-3.1s-1.6-1.5-2.2-2.3c-0.6-0.9-1-1.9-1.6-2.6
			c-0.7-0.8-1.2-1.7-2-2.4c-0.8-0.7-1.5-1.5-2.4-2s-1.9-1-2.9-1.4c-1.1-0.3-5.3-1.3-3.3-0.7c-1.1-0.3-2.1,0.1-3,0
			c-1.2-0.1-2.3-0.7-3.1-0.3c-0.9,0.4-1.6,1.4-2.2,2.2c-0.5,0.8-1,1.7-1.3,2.8c-0.3,0.9-0.3,1.9-0.4,3c-0.1,1-0.6,1.9-0.7,3
			c-0.1,1,0.4,2,0.4,3c-0.1,1-0.4,2-0.5,3s-0.1,2.1-0.2,3c-0.2,1-0.2,2-0.3,3s-0.4,2-0.5,3s-0.1,2-0.2,3c-0.1,1-0.7,2-0.7,3
			c-0.1,1,0.4,2.1,0.4,3.1c-0.1,1-0.4,2-0.5,3s-0.4,2-0.4,3c-0.1,1,0.3,2.1,0.3,3.1c-0.1,1-0.4,2-0.4,3c-0.1,1,0.3,2.1,0.2,3.1
			c-0.1,1-0.2,2-0.3,3s-0.7,2-0.8,3c-0.1,1,0.4,2.1,0.2,3.3c-0.2,1-0.8,2-1,3.1c-0.2,1-0.1,2.1-0.3,3.2c-0.2,1-1.1,2-1.2,3.1
			c-0.2,1.1-0.2,2.2-0.3,3.2c-0.1,1.1,0.6,2.2,0.6,3.2c0,1.1-0.1,2.1,0.1,3.2c0.1,1.1,0.1,2.2,0.4,3.2c0.3,1,0.6,2.1,1.1,3.1
			c0.5,0.9,1.3,1.7,2.1,2.5c0.8,0.8,1.7,1.3,2.4,1.9c0.9,0.7,1.9,1,2.7,1.4c1.1,0.5,1.9,1.1,2.7,1.2c1.1,0.1,2.1,0,3-0.5
			c0.8-0.5,1.8-1,2.4-2c0.5-0.8,1-1.8,1.4-2.8c0.3-0.9,0.1-2,0.4-3.1c0.2-0.9,0.5-1.9,0.7-3c0.2-1,0.5-2,0.6-3s0-2,0.1-3.1
			c0.1-1,0.1-2,0.2-3.1c0.1-1,0.2-1.8,0.3-2.8c0.6,1.2,1.3,1.8,1.7,2.6c0.5,1.1,0.7,2,1.2,3c0.4,0.8,0.5,1.9,1.1,3.1
			c0.4,0.8,1,1.6,1.6,2.8c0.1,0.8,0.8,1.4,1.3,2.3c0.4,0.7,0.8,1.5,1.3,2.3c0.5,0.8,1.2,1.4,1.6,2.1c0.6,1,0.7,2.2,1.2,3.3
			s1.2,2,1.7,3c0.5,1.1,0.699,2.3,1.4,3.2c0.7,0.9,1.8,1.4,2.9,1.9c1,0.5,2,0.5,2.9,0.7c1.1,0.2,2.1,1,3,0.9c1-0.2,2-0.9,2.8-1.5
			c0.8-0.6,0.9-1.8,1.5-2.7c0.5-0.8,1-1.6,1.4-2.6c0.4-0.9,1-1.8,1.2-2.8c0.3-1,0.7-2,0.9-2.9c0.2-1.1,0.3-2.1,0.4-3
			c0.2-1,0.5-2,0.6-3c0.1-1-0.1-2.1,0-3.1c0.1-1,0.5-2,0.6-3s0-2,0.1-3.1c0.1-1,0.1-2,0.2-3.1c0.1-1,0.1-2,0.2-3.1
			c0.1-1,0.4-2,0.5-3s-0.2-2.1-0.1-3.1s0.9-2,1-3c0.1-1-0.5-2.1-0.4-3.1s0.7-2,0.9-3c0.2-1,0.4-2,0.6-3.1c0.2-1,0-2.1,0.2-3.2
			c0.2-1,0.9-1.9,1.1-2.9c0.2-1,0.1-2.1,0.3-3.1c0.2-1,0.8-2,1-3c0.2-1,0.1-2.1,0.3-3.1c0.2-1,1.2-1.9,1.4-2.9
			c0.2-1-0.4-2.2-0.2-3.2c0.2-1.1,0.7-2.1,0.6-3.3c-0.1-1.1-0.4-2.2-0.7-3.3s-0.7-2.1-1.3-3.1c-0.5-1-1-2.1-1.7-2.9
			c-0.7-0.9-1.5-1.8-2.4-2.4c-0.9-0.7-2.2-0.7-3.2-1c-1-0.3-2.1-0.3-3.2-0.1C6355.125,1340.582,6353.826,1340.282,6352.726,1340.881
			"/>
	</g>
	<g>
		<path style="fill:#EF87B6;" d="M6288.926,1336.881c-0.7,0.1-1.9,0.3-3.2,0.2c-1-0.1-2.2,0-3.2-0.1c-1.3-0.1-2.4-0.9-3.2-0.9
			c-0.9,0-1.9,0.4-2.9,0.3c-0.9-0.1-1.8-0.9-2.8-1s-2,0-2.9,0.1c-1.1,0.2-2.2,0.8-3.3,1.3c-1,0.5-2,1.1-3,1.8c-1,0.7-2,1.3-2.8,2.1
			c-0.8,0.9-1.6,1.9-2,2.9c-0.4,0.9-1,1.8-1.4,2.7s-0.4,2-0.8,3c-0.3,1-0.5,2-0.8,2.9c-0.3,1-1,1.8-1.2,2.8c-0.3,1-0.6,1.9-0.9,2.9
			c-0.3,1-0.4,2-0.6,3s0.1,2.1-0.1,3.1s-0.7,1.9-0.9,2.9c-0.2,1-0.3,2-0.5,3s-0.4,2-0.5,3s-0.1,2-0.3,3c-0.1,1.1-0.5,2.1-0.6,3.2
			c-0.1,1.1-0.2,2.1-0.3,3.2c-0.1,1.1-0.4,2.1-0.4,3.2c-0.1,1.1,0,2.1-0.1,3.2c-0.1,1.1,0.1,2.2,0,3.2c-0.1,1.1-0.5,2.1-0.5,3.2
			c-0.1,1.1,0,2.1-0.1,3.2c-0.1,1.1,0.4,2.2,0.3,3.2c-0.1,1.1-0.3,2.1-0.3,3.2c0,1.1-0.1,2.1-0.2,3.2c-0.1,1-0.6,2-0.7,3
			s0.3,2.1,0.3,3.1s-0.3,2-0.1,3c0.2,1,0.7,1.8,1.2,2.8c0.4,0.9,0.4,2.1,1.1,2.9c0.7,0.7,1.8,1,2.6,1.6s1.5,1.4,2.4,1.9
			c0.9,0.4,2,0.5,2.9,0.8c1,0.3,1.9,0.8,2.8,1c1,0.3,2.1,0,3,0.2c1.1,0.2,2,0.8,2.9,0.8c1,0.1,2.1,0.1,3.1,0.1s2-0.4,3.1-0.5
			c1-0.1,2-0.3,3-0.6c1-0.2,2.1-0.2,3.1-0.5c1-0.3,1.8-1.1,2.7-1.5c1-0.4,2.1-0.4,3-0.9s1.9-0.8,2.8-1.4c0.9-0.6,1.7-1.2,2.5-1.9
			c0.8-0.7,1.4-1.6,2.1-2.3c0.7-0.8,1.2-1.7,1.8-2.6c0.6-0.9,1.2-1.8,1.6-2.7c0.4-1,0.5-2,0.8-3.1c0.2-1,0.3-2.1,0.3-3.1
			s0.1-2.1-0.1-3.1c-0.2-1-0.6-2-0.9-3c-0.3-1-0.4-2.1-1-3c-0.5-0.9-1.1-1.8-1.8-2.6c-0.7-0.8-1.5-1.4-2.4-2.1
			c-0.8-0.7-1.3-1.7-2.2-2.4c-0.6-0.4-1.7-0.8-2.9-1.2c-0.9-0.3-1.9-0.6-2.9-0.9s-2-0.4-2.9-0.8c-1-0.4-2.1-0.6-2.9-1
			c-1.2-0.7-2.1-1.5-1.9-2.4c0,0,1.5,0.3,3.2,0.5c0.9,0.1,1.9,0.2,3,0.3c1,0.1,2,0.2,3,0.3c1.1,0.1,2.1-0.1,3-0.1
			c1.4,0.1,2.5,0.8,3,0.7c1.2-0.2,2.1-0.9,3-1.3c1.1-0.4,2-1,2.7-1.7c0.8-0.7,1-1.7,1.3-2.8c0.2-0.9,0.7-1.9,0.6-3.1
			c-0.1-1-0.2-2.1-0.6-3.2c-0.3-1.1-1.4-2.1-1.9-3.3c-0.5-1.2-0.5-2.7-1.3-3.6c-0.6-0.7-2.3-1-3.5-1.8c-1.4-0.9-2.5-2-2.7-2.6
			c0.9-0.3,1.6-1.1,2.6-1.4c0.9-0.3,1.9-0.4,2.9-0.8c0.9-0.3,2-0.4,2.9-0.8c0.9-0.4,1.9-0.8,2.7-1.2c0.9-0.5,1.6-1.2,2.4-1.7
			c0.8-0.6,2-0.9,2.6-1.6c0.7-0.8,0.9-1.9,1.3-2.8c0.4-1,1-2,1.1-3.1c0.1-1.1,0.1-2.2-0.1-3.3c-0.2-1-0.6-2.2-1.1-3.1
			c-0.5-0.9-1.4-1.7-2.1-2.5c-0.7-0.7-1.7-1.2-2.6-1.8c-0.9-0.6-1.7-1.1-2.8-1.5c-0.9-0.4-2-0.7-3-0.9c-1-0.2-2-0.5-3.1-0.6
			C6291.125,1337.082,6290.125,1336.881,6288.926,1336.881"/>
	</g>
	<g>
		<path style="fill:#EF87B6;" d="M6464.726,1420.282c0,0.1,0.1,0.5,0.1,0.3C6464.926,1420.582,6464.726,1420.282,6464.726,1420.282"
			/>
	</g>
	<g>
		<path style="fill:#EF87B6;" d="M6442.726,1381.782c0.1-0.2,0.3-0.5,0.3-0.8
			C6442.826,1381.082,6442.226,1381.782,6442.726,1381.782"/>
	</g>
	<g>
		<path style="fill:#EF87B6;" d="M6464.426,1420.181c0-0.1-0.2-0.2-0.2-0.3C6464.326,1419.982,6464.426,1420.082,6464.426,1420.181"
			/>
	</g>
	<g>
		<path style="fill:#EF87B6;" d="M6464.426,1419.582c-0.2-1-0.1-1.9-0.1-2.9c-0.1-1-0.5-1.9-0.4-2.9c0-1,0.5-1.9,0.6-2.9
			c0.1-1-0.3-2-0.2-2.9c0.1-1,0-1.9,0-2.9c0-1.1,0.6-2.2,0.6-3.2c-0.1-1.1-0.6-2.1-0.7-3.2s-0.6-2.1-0.7-3.2
			c-0.1-1.1,0.2-2.2,0.1-3.2c-0.1-1.1-0.6-2.1-0.7-3.2c-0.1-1.1,0.3-2.2,0.2-3.3c-0.1-1-0.5-2-0.5-3c-0.1-1,0.1-2,0-3.1
			c-0.1-1-0.4-2-0.5-3s0.2-2.1,0.1-3.1s-0.9-2-1-3s-0.3-2-0.5-3s0.1-2.1-0.1-3.1c-0.2-1-0.2-2.1-0.4-3.1s-0.8-1.9-1.1-2.9
			c-0.3-1-0.2-2.1-0.5-3.1c-0.3-1-0.7-2-1.1-2.9c-0.4-1-1-1.8-1.5-2.7s-1.1-1.7-1.7-2.6c-0.6-0.8-1.1-1.8-1.8-2.5
			c-0.7-0.8-1.6-1.3-2.4-2c-0.8-0.7-1.5-1.4-2.4-2s-1.8-1.1-2.7-1.5c-0.9-0.5-1.9-0.8-2.9-1.1c-1-0.3-2.1-0.1-3.1-0.3
			c-1-0.2-2-0.9-3-0.9c-1.1,0-2,0.7-3,0.9c-1,0.3-2.2,0.2-3,0.8c-0.8,0.5-1.8,1.1-2.5,1.7c-0.8,0.7-1.1,1.8-1.7,2.6
			c-0.7,0.8-1.7,1.2-2.3,2.1c-0.6,0.8-0.9,1.8-1.4,2.7s-0.7,1.9-1.1,2.8s-1.3,1.7-1.6,2.6c-0.4,0.9-0.1,2.1-0.4,3.1
			c-0.3,1-1,1.8-1.2,2.8c-0.3,1-0.7,1.9-0.9,2.9c-0.2,1,0.4,2.1,0.2,3.1s-1,1.9-1.2,2.9c-0.1,1,0.4,2.1,0.2,3.1c-0.1,1-0.5,2-0.6,3
			c-0.1,1-0.1,2-0.1,3.1c-0.1,1-0.6,2-0.7,3s-0.1,2-0.2,3.1c-0.1,1,0,2-0.1,3.1c-0.1,1-0.2,2-0.2,3.1v3.1c0,1,0.2,2,0.2,3.1
			c0,1-0.3,2-0.3,3.1c0,1-0.3,2-0.3,3.1v3.1c0,1.1,0.7,2.1,0.8,3.2c0.1,1.1-0.3,2.2-0.1,3.2c0.2,1.1,0.4,2.1,0.7,3.1
			s1.4,1.7,1.9,2.7s0.8,2,1.4,2.8c0.7,0.9,1.1,1.9,2,2.6c0.8,0.6,1.9,1.1,2.9,1.4s2.1,0.1,3.2,0.1c1,0,2.1,0.6,3.2,0.4
			c1-0.2,1.9-0.9,3-1.3c1.3-0.5,2.4-0.8,3-1.4c0.9-0.8,0.8-2,1.1-3.1c0.3-1,0.4-2,0.6-3.2c0.1-1,0.6-2,0.8-3.2
			c0.2-0.8-0.4-1.7-0.4-2.5c0-0.8,0.6-1.7,2-1.8c0.8,0,1.6,1,1.9,2.3c0.2,0.8,0.1,1.9,0.2,2.8c0.1,1.2-0.4,2.4-0.3,2.8
			c0.3,1,0.8,1.9,1.3,2.8c0.5,0.8,1.1,1.7,1.8,2.5c0.7,0.7,1.7,1.1,2.5,1.7c0.8,0.6,1.3,1.7,2.2,2.2c0.9,0.5,2,0.7,2.9,1.1
			c1,0.4,1.9,0.9,2.8,1.1c1,0.3,2.1,0.2,3,0.2c1.1,0,2-0.2,2.9-0.5c1-0.3,1.7-0.9,2.3-1.6c0.6-0.7,1.2-1.4,1.3-2.6
			C6464.826,1421.782,6464.726,1420.882,6464.426,1419.582C6464.226,1419.482,6464.426,1419.482,6464.426,1419.582
			 M6442.625,1381.681c-1.6,0.2-2.4-0.2-3.2-0.7c-1-0.7-1.6-1.5-1.5-2.8c0.1-1.1,0.8-2.1,1.3-3.2c0.5-1.2,0.9-2.5,1.6-3.1
			c0.5,0.5,1.2,1.6,1.6,2.9c0.3,1-0.2,2.2-0.1,3.2c0.1,1.2,0.6,2.4,0.5,3.1C6443.026,1380.982,6443.026,1381.082,6442.625,1381.681"
			/>
	</g>
	<g>
		<path style="fill:#EF87B6;" d="M6224.426,1350.482c1,0.4,2.1,0.5,3.2,0.9c1.1,0.4,2.2,0.4,3.2,0.7c1,0.3,2,0.8,3.1,1.2s2,1,3,1.3
			c1.1,0.4,2.1,0.4,2.9-0.2s0.8-1.7,0.8-2.7c0-1.2-0.3-2.2-1.1-3.1c-0.7-0.9-1.6-1.8-2.7-2.2c-1-0.4-2.2-0.4-3.2-0.8
			c-1-0.4-1.9-1.1-3-1.5c-1.1-0.4-2.1-0.5-3.2-0.9c-1-0.4-2.1-0.5-3.2-0.9s-1.9-0.4-2.7,0.2c-0.8,0.6-1.1,1.5-1.1,2.5
			c0,1.2,0.4,2.2,1.2,3.1c0.7,0.9,1.7,1.5,2.8,1.9C6224.726,1350.182,6224.426,1350.482,6224.426,1350.482"/>
	</g>
	<g>
		<path style="fill:#F09C4C;" d="M6213.526,1368.181c1,0.2,1.8,1.2,2.8,1.4c1,0.2,2.1-0.1,3.1,0.1s2,0.3,3,0.5
			c1,0.2,1.9,0.9,2.9,1.1s2.1,0,3.1,0.2l3,0.6c1,0.2,2,0.2,3,0.4c1.3,0.3,2.4,0.3,3-0.3c0.7-0.7,0.8-1.9,0.7-3.1
			c-0.1-1-0.2-2.3-0.9-3.1c-0.7-0.8-1.7-1.3-2.9-1.5c-1-0.2-2.1,0.1-3.1-0.1c-1-0.2-1.9-0.8-2.9-1c-1-0.2-1.9-0.8-2.9-1
			c-1-0.2-2-0.2-3-0.4c-1-0.2-2.1,0.1-3.1-0.1c-1-0.2-1.9-0.7-2.9-0.9c-1-0.2-1.9-0.7-2.9-0.9c-1.3-0.3-2.6,0.1-3.3,0.7
			c-0.7,0.7-0.9,2.1-0.8,3.2c0.1,1,0.5,2.1,1.3,3c0.7,0.8,1.6,1.6,2.8,1.8C6213.625,1368.782,6213.526,1368.181,6213.526,1368.181"
			/>
	</g>
	<g>
		<path style="fill:#EF87B6;" d="M6218.226,1393.982c1.1,0,2.2,0.1,3.3,0.2c1.1,0.1,2.2,0.4,3.3,0.4s2.2-0.2,3.3-0.2
			c1.4,0,2-0.6,2.4-1.5c0.4-0.9,0.4-1.9,0-3c-0.3-1-0.5-2.3-1.4-3c-0.8-0.7-2-0.9-3.2-0.9c-1.1,0-2.2-0.1-3.3-0.1
			c-1.1,0-2.2,0.2-3.3,0.2s-2.2,0.3-3.3,0.3c-1.4,0-1.9,0.3-2.4,1.2c-0.4,0.9-0.3,1.8,0.1,2.9c0.3,1,0.4,2.3,1.2,3
			c0.8,0.7,2,0.9,3.2,0.9C6218.426,1394.282,6218.226,1393.982,6218.226,1393.982"/>
	</g>
	<g>
		<path style="fill:#F09C4C;" d="M6220.926,1427.881c0.9-0.5,1.8-1.1,2.8-1.6c0.9-0.5,2.1-0.6,3.1-1.1c0.9-0.5,2-0.9,2.9-1.4
			s1.6-1.5,2.6-2c0.9-0.5,2.1-0.7,3-1.2s1.6-1.5,2.6-2c0.9-0.5,2-0.8,2.9-1.4c1.1-0.6,1.8-1.5,1.7-2.6c-0.1-1-1-1.9-1.7-2.8
			c-0.7-0.8-1.6-1.4-2.6-1.8c-1-0.4-2.3-0.9-3.3-0.4c-0.9,0.5-1.6,1.6-2.5,2.1s-1.9,1.1-2.8,1.6c-0.9,0.5-2.2,0.5-3.1,1
			c-0.9,0.5-1.9,0.9-2.9,1.4c-0.9,0.5-1.6,1.5-2.6,2c-0.9,0.5-2.1,0.7-3,1.2c-0.9,0.5-1.7,1.5-2.6,2c-1.1,0.6-1.4,1.4-1.3,2.5
			c0.1,1,0.7,1.8,1.5,2.7c0.7,0.8,1.6,1.3,2.5,1.7c1,0.4,2.1,0.9,3.1,0.3L6220.926,1427.881"/>
	</g>
	<g>
		<path style="fill:#F09C4C;" d="M6766.426,1356.982c-0.9,0.3-2,0.6-3,0.7s-2-0.1-3-0.2c-1,0-1.9-0.5-2.9-0.7
			c-1.1-0.2-2.1,0.2-2.9,0.7c-0.8,0.5-1,1.4-1,2.6c0,1.1,0.3,2.2,1.1,3.2c0.7,1,1.7,1.6,2.8,1.8c1.1,0.2,2.1,0.9,3.2,1
			s2.3,0,3.3-0.1c1.1,0,2.2-0.1,3.3-0.2c1.1-0.2,2.2-0.5,3.2-0.9c1.3-0.4,1.6-1.4,1.7-2.5c0.1-1-0.2-1.9-0.8-3
			c-0.5-0.9-1-2.1-1.9-2.6c-0.9-0.5-2.4-0.9-3.5-0.6C6765.926,1356.382,6766.426,1356.982,6766.426,1356.982"/>
	</g>
	<g>
		<path style="fill:#EF87B6;" d="M6753.625,1381.681c1,0.3,1.9,0.9,2.9,1.2c1,0.3,2,0.7,3,1c1,0.3,2,0.7,3,1.1
			c1,0.3,2.1,0.3,3.1,0.6c1,0.3,2,0.8,3,1.1c1,0.3,2.2,0.1,3.2,0.4s1.9,1,2.9,1.3c1,0.3,2,0.8,3,1.1c1.4,0.4,2.4-0.1,3-0.7
			c0.7-0.7,0.7-1.7,0.5-2.9c-0.1-1-0.2-2.1-0.9-3c-0.6-0.8-1.5-1.5-2.6-1.8c-1-0.3-1.9-0.9-2.9-1.2c-1-0.3-2.2-0.1-3.2-0.4
			s-2-0.5-3-0.8c-1-0.3-1.8-1.3-2.8-1.6c-1-0.3-2.1-0.2-3.1-0.6c-1-0.4-1.9-1.1-2.9-1.4s-2.2,0-3.2-0.3c-1-0.3-1.8-1.2-2.8-1.6
			c-1.4-0.4-2.2,0.4-2.9,1c-0.7,0.7-1.1,1.5-1,2.7c0.1,1,0.5,2,1.2,2.9c0.6,0.8,1.4,1.8,2.5,2.2
			C6753.526,1382.181,6753.625,1381.681,6753.625,1381.681"/>
	</g>
	<g>
		<path style="fill:#F09C4C;" d="M6767.826,1406.881c0.9,0.5,1.8,1.1,2.7,1.6c0.9,0.5,2,0.7,2.9,1.2s1.8,1,2.8,1.4s1.9,0.8,2.8,1.3
			s1.8,1,2.7,1.5c1.2,0.6,2,0.7,2.9,0.4c1-0.4,1.8-1,2-2.2c0.2-1,0.1-2.1-0.5-3.1c-0.5-0.8-1.3-1.5-2.4-2.1
			c-0.9-0.5-1.9-0.8-2.8-1.3s-1.8-1.1-2.7-1.6c-0.9-0.5-1.9-0.8-2.8-1.3s-1.6-1.3-2.6-1.8c-0.9-0.5-1.8-1.1-2.7-1.5
			c-1.2-0.6-2.3-0.2-3.2,0.1c-1,0.4-1.8,1.1-2,2.2c-0.2,1-0.4,2.3,0.2,3.3C6765.625,1405.782,6766.726,1406.282,6767.826,1406.881
			C6767.826,1406.782,6767.826,1406.881,6767.826,1406.881"/>
	</g>
	<g>
		<path style="fill:#EF87B6;" d="M6752.125,1420.181c0.7,0.7,1.6,1.2,2.3,1.9c0.7,0.7,1.2,1.7,1.9,2.3c0.8,0.6,1.8,0.9,2.6,1.5
			c0.8,0.6,1.4,1.4,2.2,2c0.8,0.6,1.5,1.3,2.3,1.9c0.8,0.5,2,0.6,2.8,1.1c0.9,0.5,1.6,1.2,2.4,1.7c1.2,0.6,2.4,1,3.2,0.7
			c1-0.4,1.2-1.6,1.4-2.8c0.2-1,0.3-1.9-0.3-2.9c-0.5-0.9-0.9-1.9-2-2.5c-0.9-0.5-1.9-0.8-2.8-1.3c-0.9-0.5-1.9-0.8-2.8-1.4
			c-0.8-0.6-1.7-1.1-2.6-1.7c-0.8-0.6-1.4-1.5-2.2-2.2c-0.8-0.6-1.6-1.3-2.3-2c-0.8-0.7-1.2-1.7-1.9-2.4c-1-1-2.2-1.1-3.1-1.1
			c-1.1,0-1.9,0.6-2.4,1.6c-0.5,0.9-0.4,1.8-0.1,2.9c0.2,0.9,0.2,2.1,1.1,3C6752.026,1420.382,6752.125,1420.181,6752.125,1420.181"
			/>
	</g>
</g>
</svg>
