<?xml version="1.0" encoding="utf-8"?>
<!-- Generator: Adobe Illustrator 19.0.0, SVG Export Plug-In . SVG Version: 6.00 Build 0)  -->
<svg version="1.1" id="Layer_1" xmlns="http://www.w3.org/2000/svg" xmlns:xlink="http://www.w3.org/1999/xlink" x="0px" y="0px"
	 viewBox="0 0 841.9 2143.1" style="enable-background:new 0 0 841.9 2143.1;" xml:space="preserve">
<style type="text/css">
	.st20{fill:#FFFFFF;}
</style>
<g xmlns="http://www.w3.org/2000/svg" id="XMLID_1774_">
		<g id="XMLID_1986_">
			<g id="XMLID_1989_">
				<path id="XMLID_1995_" class="st20" d="M277.9,97.7c10.6-7.8,21.5-15.8,28.4-27.3c2.6-4.4,6.2-11.2,5.6-16.5      c-0.4-3.4-3.3-5.6-6.7-4.3c-4.5,1.7-4.7,7.7-5.4,11.6c-1.4,8-2.9,16-4.3,24c-2.9,16.3-5.9,32.6-8.8,49c-0.2,1.4,1.9,2,2.1,0.6      c4.2-23.4,8.4-46.7,12.6-70.1c0.5-2.7,0.8-5.4,1.5-8c0.2-0.7,0.5-3.1,1.2-3.4c1.8,1.1,3.6,2.1,5.5,3.2c-0.2,0.8-0.3,1.6-0.6,2.3      c-1.4,5-3.7,9.6-6.7,13.8c-6.7,9.5-16.2,16.5-25.4,23.3C275.7,96.6,276.8,98.5,277.9,97.7L277.9,97.7z"/>
			</g>
		</g>
		<g id="XMLID_1973_">
			<g id="XMLID_1977_">
				<path id="XMLID_1981_" class="st20" d="M284,108.8c5.9-3.4,11.8-6.9,17.7-10.3c3-1.8,8.2-3.7,9.3-7.5c1.8-6-5.3-8.3-8.2-3.1      c-2.8,4.9-4.3,16.5,4.7,15.8c8.4-0.7,14.2-14,16.7-20.6c-0.7,0-1.4,0-2.1,0c0.8,2.7,1.5,5.5,2.1,8.2c0.4,1.8,2.4,7.6,1.6,9.1      c-0.2,0.5-6,2.5-2.1-0.1c1-0.6,2-1.2,3-1.8c2.5-1.5,5-2.9,7.5-4.4c1.2-0.7,0.1-2.6-1.1-1.9c-3,1.8-6.1,3.5-9.1,5.3      c-1.5,0.9-3.7,1.9-4.5,3.6c-1.3,2.4-0.2,5,2.5,5.6c11,2.6,3-20.7,2.1-24.1c-0.3-1.1-1.7-1-2.1,0c-2,5.1-4.6,9.9-8.1,14.1      c-2.1,2.5-8.4,9.3-11.3,1.4c-0.5-1.8-0.4-3.6,0.4-5.4c0.5-1.5,1.2-2.9,1.9-4.2c3.6,2.1,3.9,3.8,1,5.1c-0.9,0.6-1.9,1.1-2.8,1.7      c-2.2,1.3-4.5,2.6-6.7,3.9c-4.5,2.6-9,5.2-13.5,7.9C281.6,107.6,282.7,109.5,284,108.8L284,108.8z"/>
			</g>
		</g>
		<g id="XMLID_1961_"> 
			<g id="XMLID_1966_">
				<path id="XMLID_1972_" class="st20" d="M334.5,66.7c-0.2,7-0.3,14-0.5,21c-0.1,4.2-1.9,11.7,1.1,15.4c6.3,7.8,10.5-10,11.4-13.2      c0.4-1.4-1.7-1.9-2.1-0.6c-0.7,2.4-1.5,7.9-3.3,9.7c-3.7,1.5-5.4,1.2-5.2-1c0-0.9,0-1.8,0.1-2.6c0-1.9,0.1-3.8,0.1-5.7      c0.2-7.6,0.4-15.3,0.6-22.9C336.8,65.3,334.6,65.3,334.5,66.7L334.5,66.7z"/>
			</g>
		</g>
		<g id="XMLID_1948_">
			<g id="XMLID_1950_">
				<path id="XMLID_1960_" class="st20" d="M344.5,87.4c-0.5,3.9-3.1,15.4,3.3,16.2c2.1,0.3,3.8-1,4.9-2.6c0.8-1.2,1.1-2.7,1.6-4      c0.6-1.7,3.7-10.9,5.5-5.2c0.9,2.9-3.3,15,4.4,13.9c5.9-0.8,4.8-13.8,4.6-17.7c-0.5,0.3-1.1,0.6-1.6,0.9c2.9,1.8,5.8,2.3,9,1.1      c1.3-0.5,0.7-2.6-0.6-2.1c-2.5,0.9-5,0.6-7.3-0.9c-0.7-0.4-1.7,0.1-1.6,0.9c0.1,2.9,0.8,8.1-0.5,10.8c0.2,2.1-0.6,2.5-2.5,1.1      c-1.9,0.2-2.6-0.5-2.1-2.1c-0.3-1.2,0.3-3.2,0.4-4.4c0.2-2.5,1-7.1-2.8-7.3c-3.3-0.3-4.6,4.1-5.6,6.4c-0.5,1.2-0.8,2.7-1.4,3.8      c-1.3,2.2-5,4.1-6,1c-0.9-2.6,0.2-7.3,0.6-9.9C346.8,86,344.7,86,344.5,87.4L344.5,87.4z"/>
			</g>
		</g>
		<g id="XMLID_1935_">
			<g id="XMLID_1942_">
				<path id="XMLID_1947_" class="st20" d="M376.4,88.5c-2.7,4-6.6,10.8-3.3,15.5c3.1,4.4,8,1.9,9.7-2.2c1.5-3.5,4-11,0.8-14.3      c-3.9-4.1-7.7,1.4-8.8,4.8c-0.4,1.3,1.7,1.9,2.1,0.6c0.3-1.1,0.7-2.9,1.7-3.7c3.8-2.9,4.2,1.5,4.1,3.1c-0.1,2.7-0.9,6-2,8.5      c-0.3,0.8-0.7,1.6-1.3,2.3c-3.2,1.1-4.9,0.6-5.2-1.7c-0.6-1.5-0.2-3,0.3-4.5c0.8-2.6,2.1-5,3.7-7.3      C379,88.4,377.1,87.3,376.4,88.5L376.4,88.5z"/>
			</g>
		</g>
		<g id="XMLID_1927_">
			<g id="XMLID_1930_">
				<path id="XMLID_1934_" class="st20" d="M383.3,90.9c-1.6,4.8-2.8,11.8,2.9,14.5c4.8,2.3,8.1-2.6,10.3-6.1      c3.8-6.1,6.2-12.9,7.4-20c0.5-3,2.5-10.9-2.3-11.7c-5.3-1-7,9.8-7.6,12.9c-1.5,6.6-2.5,14.2,0.1,20.6c1.9,4.7,6,9.1,11.3,9.6      c4.5,0.4,8.5-2.4,9.4-6.8c0.3-1.4-1.8-2-2.1-0.6c-1.3,6.1-8.5,6.2-12.6,2.7c-3-2.6-4.5-6.3-5-10.1c-0.5-3.7-0.2-7.5,0.4-11.3      c0.3-1.8,0.7-3.7,1.1-5.5c0.2-1,0.9-4.6,1.6-5.3c1.4-0.5,2.8-1,4.2-1.5c0,1.1-0.1,2.2-0.2,3.3c-0.2,1.8-0.5,3.6-0.8,5.4      c-0.6,2.9-1.4,5.8-2.5,8.6c-1.3,3.3-2.9,7-5.1,9.8c-3,3.9-9.4,4.1-9.7-1.7c-0.1-2.1,0.7-4.4,1.4-6.3      C385.9,90.1,383.8,89.6,383.3,90.9L383.3,90.9z"/>
			</g>
		</g>
		<g id="XMLID_1782_">
			<g id="XMLID_1784_">
				<path id="XMLID_1925_" class="st20" d="M345.3,81.1c0.2-0.1,0.5-0.2,0.7-0.3c0.5-0.2,0.7-1,0.4-1.5c-0.3-0.6-1-0.6-1.5-0.4      c-0.2,0.1-0.5,0.2-0.7,0.3c-0.5,0.2-0.7,1-0.4,1.5C344.2,81.3,344.8,81.4,345.3,81.1L345.3,81.1z"/>
			</g>
		</g>
		<g id="XMLID_1775_">
			<g id="XMLID_1777_">
				<path id="XMLID_1781_" class="st20" d="M328.8,70.9c10.1,1.1,20.2,1.9,30.3,2.2c1.4,0,1.4-2.1,0-2.2c-10.1-0.3-20.2-1-30.3-2.2      C327.4,68.6,327.4,70.8,328.8,70.9L328.8,70.9z"/>
			</g>
		</g>
	</g>
</svg>