<?xml version="1.0" encoding="iso-8859-1"?>
<!-- Generator: Adobe Illustrator 19.0.0, SVG Export Plug-In . SVG Version: 6.00 Build 0)  -->
<svg version="1.1" id="Layer_1" xmlns="http://www.w3.org/2000/svg" xmlns:xlink="http://www.w3.org/1999/xlink" x="0px" y="0px"
	 viewBox="2499.296 -808.544 348.148 222.222" style="enable-background:new 2499.296 -808.544 348.148 222.222;"
	 xml:space="preserve">
<g>
	<g>
		<defs>
			<rect id="SVGID_1_" x="1973" y="-1346.12" width="5222.1" height="3285.4"/>
		</defs>
		<clipPath id="SVGID_2_">
			<use xlink:href="#SVGID_1_"  style="overflow:visible;"/>
		</clipPath>
		<path style="clip-path:url(#SVGID_2_);fill:#F09C4C;" d="M2600.359-694.224c-0.9-0.3-1.8-0.8-2.8-1s-2,0.1-2.9,0
			c-1-0.1-2-0.6-2.9-0.5c-0.4,0-4.3,1.7-4.5,1.6c-1.1-0.6-1.2-2-0.8-3.3c0.3-1,0.9-2.1,1.5-3.1c0.7-1.2,1.3-2.3,1.6-3
			c0.4-1,0.8-2,1.2-3c0.4-1,1.1-1.9,1.4-2.9s0.5-2.1,0.8-3.1c0.3-1,0.9-2,1.2-3.1c0.2-1.1-0.1-2.2,0-3.3c0.2-1,0.4-2,0.6-3.1
			c0.1-1,0.4-2.1,0.5-3.2c0.1-1.1,0.5-2.1,0.5-3.2c0-1.1-0.2-2.2-0.3-3.2c-0.2-1.1-0.4-2.2-0.7-3.2s-1.2-1.8-1.8-2.7
			c-0.6-0.9-1.1-1.8-1.9-2.6c-0.7-0.7-1.7-1.2-2.6-1.8c-0.9-0.5-1.8-1-2.9-1.4c-0.7-0.5-3-0.4-2.8-0.4c-1.2,0-2.2,0.1-3.2,0.2
			c-1.2,0.1-2.3-0.2-3.2,0.2c-1,0.4-1.7,1.1-2.5,1.9c-0.7,0.6-1.5,1.3-2.3,2.3c-0.7,0.9-1.3,1.9-1.9,2.9c-0.6,1-0.9,2.1-1.4,3.1
			c-0.6,1-1.4,1.8-1.9,2.9c-0.5,1-1.2,2-1.6,3.1c-0.5,1.1-0.5,2.3-0.9,3.3c-0.4,1-0.5,2.1-0.8,3.1c-0.4,1-1.1,1.8-1.5,2.8
			c-0.3,1-0.1,2.2-0.4,3.2s-0.6,2-0.8,3c-0.3,1-1.2,1.9-1.5,2.9c-0.2,1-0.1,2.1-0.3,3.2c-0.2,1-0.3,2.1-0.5,3.1
			c-0.2,1-0.4,2.1-0.6,3.1s-0.2,2.1-0.4,3.1c-0.2,1-0.4,2.1-0.6,3.1s-0.5,2.1-0.6,3.1c-0.1,1-0.1,2-0.1,3.1c-0.1,1-0.5,2-0.5,3v3.1
			c0.1,1,0.2,2.1,0.4,3.1c0.2,1,0.8,1.9,1.1,2.9s0.6,2,1,2.9c0.5,0.9,1.2,1.6,1.8,2.5c0.6,0.8,0.9,1.9,1.6,2.7
			c0.7,0.7,1.9,0.8,2.8,1.4c0.8,0.6,1.4,1.5,2.3,2.1c0.9,0.5,1.9,1,2.9,1.4s2,0.9,3,1.2s2.2-0.1,3.3,0c1.1,0.1,2.1,0.1,3.2,0.2
			c1.1,0,2.1,0.5,3.2,0.4c1.1-0.1,2.1-0.7,3.1-0.8c1.1-0.1,2.2-0.1,3.2-0.3c1.1-0.2,2.2-0.1,3.2-0.3c1.1-0.3,2-0.8,3-1.1
			c1.1-0.3,2.2-0.4,3.1-0.7c1-0.3,1.9-1,2.8-1.5c1-0.4,1.8-1.1,2.7-1.6c0.9-0.6,1.9-1,2.7-1.7c0.8-0.7,1.8-1.2,2.5-2
			c0.7-0.8,0.7-2.1,1.3-3c0.5-0.9,1.3-1.7,1.6-2.7c0.3-1,0.2-2,0.2-3.1c0-1,0-2-0.2-3.1c-0.2-1-0.6-1.9-1-2.9
			c-0.5-1.2-0.3-2.6-0.8-3.5c-0.7-1-1.7-1.7-2.6-2.5c-0.8-0.8-1.7-1.6-2.8-2.1C2602.759-693.724,2601.559-693.824,2600.359-694.224"
			/>
	</g>
	<g>
		<defs>
			<rect id="SVGID_3_" x="1973" y="-1346.12" width="5222.1" height="3285.4"/>
		</defs>
		<clipPath id="SVGID_4_">
			<use xlink:href="#SVGID_3_"  style="overflow:visible;"/>
		</clipPath>
		<path style="clip-path:url(#SVGID_4_);fill:#F09C4C;" d="M2782.159-721.424l-0.3,0.1c-0.5-0.9-0.5-2.1-1.1-3
			c-0.6-0.8-1.3-1.6-2-2.4c-0.7-0.8-1.5-1.4-2.3-2.1c-0.7-0.7-1.4-1.5-2.2-2.2c-0.8-0.7-1.8-1-2.7-1.6c-0.8-0.6-1.7-1.2-2.5-1.8
			c-0.9-0.5-1.9-0.8-2.8-1.2c-0.9-0.5-1.8-0.9-2.8-1.3c-1-0.4-1.8-1-2.8-1.4c-1-0.3-2.1-0.3-3.1-0.6s-2-0.7-3-0.8
			c-1-0.2-2.1-0.2-3.1-0.3c-1.1-0.1-2.1-0.2-3.1-0.1c-1.1,0.1-2.1-0.1-3.1,0.1s-1.9,1.1-2.8,1.4c-1,0.4-2,0.5-2.9,1.1
			c-0.9,0.6-1.4,1.5-2.1,2.3c-0.6,0.7-1.3,1.5-1.8,2.3s-0.7,1.8-1.1,2.7c-0.4,0.9-1.2,1.7-1.4,2.6c-0.3,0.9,0,2-0.2,3
			s-0.3,1.9-0.5,2.9c-0.1,1-0.4,1.9-0.5,2.9c-0.1,1-0.5,2-0.5,3s0.1,2,0.2,3c0,1-0.2,2-0.1,3c0.1,1,0.3,2.1,0.4,3.2
			c0.1,1,0.4,2.1,0.5,3.2c0.1,1.1-0.5,2.2-0.4,3.2c0.1,1.1,0.5,2.1,0.6,3.1c0.1,1,0,2.1,0.2,3.2c0.2,1,0.4,2.1,0.6,3.1s0.7,2,1,3.1
			c0.3,1,0.3,2.1,0.6,3.1c0.3,1,0.9,1.9,1.3,2.9c0.4,1,0.8,1.9,1.3,2.9c0.4,1,0.7,2,1.2,2.9s1,1.9,1.5,2.7c0.6,0.9,1.4,1.6,2.1,2.4
			c0.7,0.8,1.1,1.9,1.8,2.6c0.7,0.8,1.4,1.6,2.2,2.3s2,0.8,2.9,1.4c0.9,0.6,1.7,1.2,2.6,1.7c1,0.5,1.9,1,2.8,1.3
			c1,0.3,2.1,0.5,3.1,0.7s2.1,0,3.1,0.1c1,0,2.1,0.1,3.1-0.1c1-0.1,2.1-0.3,3.1-0.6s2-0.7,3-1.1c0.9-0.5,1.6-1.4,2.4-2
			s1.5-1.3,2.3-2.1c0.7-0.7,1.8-1.2,2.4-2c0.6-0.8,0.7-1.9,1.2-2.8c0.5-0.9,1.2-1.6,1.6-2.5c0.4-0.9,0.8-1.8,1.2-2.7
			c0.4-0.9,0.8-1.8,1.1-2.8c0.3-0.9,0.2-2,0.5-3c0.2-1,0.2-2,0.4-3c0.2-1,0.5-1.9,0.6-2.9c0.2-1,0.7-1.9,0.8-2.9c0.1-1,0.3-2,0.4-3
			s0-2.1,0.1-3.1c0.1-1,0.4-2,0.5-3.1c0.1-1-0.1-2.1-0.1-3.1s0.1-2.1,0.1-3.1s0-2.1-0.1-3.1c-0.1-1-0.1-2.1-0.3-3.1
			c-0.2-1-0.6-2-0.9-3s-1-1.8-1.4-2.8C2782.759-719.325,2782.659-720.424,2782.159-721.424 M2762.359-698.325c-1.1,0-2.2-0.3-2.9-1
			c-0.7-0.8-0.7-2-0.7-3c-0.1-1.1,0-1.9,0.8-2.6c1.1-1.1,1.8-0.9,2.4,0.1c0.5,0.8,0.6,1.9,0.7,3c0.1,1.2,0.4,2.4,0.1,3.2
			C2762.859-698.724,2762.759-698.825,2762.359-698.325"/>
	</g>
	<g>
		<defs>
			<rect id="SVGID_5_" x="1973" y="-1346.12" width="5222.1" height="3285.4"/>
		</defs>
		<clipPath id="SVGID_6_">
			<use xlink:href="#SVGID_5_"  style="overflow:visible;"/>
		</clipPath>
		<path style="clip-path:url(#SVGID_6_);fill:#F09C4C;" d="M2670.659-704.824c0-1,0.5-2.2,0.3-3.3c-0.1-1-0.3-2.1-0.5-3.2
			c-0.2-1-0.4-2.1-0.6-3.2c-0.3-1-1.1-1.9-1.5-2.9c-0.3-1,0-2.3-0.4-3.3c-0.4-1-1.1-1.9-1.6-2.9s-0.9-2-1.4-2.9s-1.4-1.7-2-2.6
			c-0.6-0.9-1.4-1.7-2-2.5c-0.6-0.9-0.8-2.1-1.5-2.9c-0.7-0.8-1.7-1.4-2.5-2.1c-0.8-0.8-1.3-1.8-2.1-2.4c-0.8-0.7-2-1-2.9-1.6
			c-0.9-0.6-1.5-1.6-2.5-2.1s-2.1-0.5-3.1-0.9s-1.9-1-3-1.2c-1-0.2-2.1-0.5-3.2-0.6c-1.1-0.1-2.1,0.4-3.2,0.6
			c-1.1,0.1-2.4-0.2-3.4,0.2s-1.8,1.4-2.7,2.1c-0.9,0.7-1.9,1.3-2.6,2.1s-1.2,1.9-1.8,2.8c-0.6,0.9-1.5,1.7-2.1,2.7
			c-0.5,1-0.9,2.1-1.3,3c-0.5,1-0.7,2.2-1.1,3.1c-0.4,1-0.6,2-1,3.1c-0.4,1-1,1.9-1.3,3c-0.3,1-0.6,2.1-0.9,3.1
			c-0.3,1-0.1,2.2-0.4,3.3c-0.3,1-1,2-1.2,3.1c-0.2,1.1-0.6,2.1-0.7,3.2c-0.2,1.1,0.2,2.2,0.1,3.3s-0.4,2.1-0.5,3.2
			c-0.1,1.1-0.2,2.2-0.3,3.2c0,1-0.6,2-0.6,3.1c-0.1,1,0.6,2.1,0.5,3.1c-0.1,1-0.3,2-0.3,3.1c-0.1,1-0.7,2-0.7,3.1
			c0,1,0.3,2.1,0.3,3.1s0.4,2,0.5,3.1c0.1,1-0.6,2.2-0.4,3.2s1.1,1.9,1.4,2.9s0.1,2.1,0.5,3.1c0.4,1,1.4,1.699,2,2.6
			c0.6,0.9,1.4,1.599,2.1,2.4c0.8,0.8,1.4,1.6,2.3,2.199c0.9,0.601,1.9,1,2.8,1.401c1,0.4,1.9,1,3,1.099
			c1.1,0.101,2.2,0.401,3.2,0.2c1-0.3,2.2-0.7,3-1.399c0.7-0.7,1.2-1.801,1.7-2.901c0.4-0.8,0.6-1.9,0.7-3.099
			c0.1-1,0.2-2,0.3-3.101c0.1-1,0.2-2.099,0.3-3.099c0.1-1.101,0-2.101,0.1-3.101c0.1-1.099-0.2-2.199,0-3.199
			c0.2-1.1,1.3-1.9,1.8-2.7c0.6-1,1-2.1,2.1-2.3c1.2-0.2,2.3,0.199,3.1,0.8c0.8,0.5,1.1,1.6,1.6,2.6c0.4,0.9,1,1.8,1.2,2.8
			c0.2,1,0.6,2,0.7,3c0.1,1-0.3,2.1-0.3,3.1c0.1,1.1-0.1,2.1-0.1,3.1c0.1,1.2,0.4,2.3,0.5,3c0.2,1,0.3,2.1,0.7,3
			c0.4,1,1.2,1.7,1.7,2.6c0.5,0.9,1.2,1.6,1.9,2.3c0.7,0.8,1.2,1.7,2,2.3c0.9,0.6,1.7,1.3,2.6,1.7c1,0.4,2.1,0.2,3.1,0.3
			c1,0.2,2,0.7,3,0.5s1.9-0.6,2.8-1.2c0.8-0.5,1.4-1.3,2-2.2c0.5-0.8,1-1.6,1.3-2.7c0.3-0.9,1-1.9,1.1-2.9c0.1-1-0.4-2.1-0.4-3.1
			c0.1-1,0-2,0-3s0.2-2,0.1-3c0-1,0.3-2,0.2-3.1c0-1-0.6-2-0.6-3s0.6-2.1,0.7-3c0-1-0.5-2-0.5-3c0.1-1,0.3-2,0.4-3s-0.1-2,0-3
			c0.1-1,0.2-2,0.2-3s0.6-2,0.6-3s-0.6-2-0.7-3C2671.359-702.924,2670.959-703.924,2670.659-704.824 M2644.559-706.025
			c-0.8,2-2,1.6-2.8,0.8c-0.8-0.8-1.4-2.3-1.6-3.1c-0.2-0.9,0-1.9,0.2-3c0.2-1,0-2.2,0.4-3.2c0.5-1.1,1.5-1.6,2-2.2
			c0.5,0.3,0.6,0.9,1,2.2c0.2,0.8,0.4,1.8,0.5,2.8c0.2,1,0.6,1.9,0.7,2.8c0,1.4-0.5,2.2-0.9,2.5
			C2644.659-706.924,2644.159-704.924,2644.559-706.025"/>
	</g>
	<g>
		<defs>
			<rect id="SVGID_7_" x="1973" y="-1346.12" width="5222.1" height="3285.4"/>
		</defs>
		<clipPath id="SVGID_8_">
			<use xlink:href="#SVGID_7_"  style="overflow:visible;"/>
		</clipPath>
		<path style="clip-path:url(#SVGID_8_);fill:#F09C4C;" d="M2708.759-709.424c-0.6-0.9,0.2-2.4,1.5-3.4c0.9-0.7,2.4-0.6,3.5-1.2
			c1.4-0.7,2.6-1.6,3-1.9c0.8-0.6,1.5-1.3,2.2-2c0.8-0.7,1.3-1.4,1.9-2.2c0.6-0.8,1-1.6,1.5-2.5c0.4-0.9,0.9-1.7,1.1-2.7
			c0.2-0.9,0.2-1.9,0.1-2.9c0-1.1,0-2.2-0.3-3.2s-1.1-1.9-1.7-2.8c-0.6-0.9-0.9-2.1-1.7-2.9c-0.8-0.7-2.1-0.9-3-1.5
			c-0.9-0.6-1.7-1.3-2.7-1.8s-1.8-1.3-2.9-1.7c-1-0.4-2.2-0.6-3.2-0.8c-1.1-0.2-2.2-0.2-3.3-0.3c-1.2-0.1-2.3-0.4-3.3-0.3
			c-1.1,0.1-2.2,0.6-3.3,0.8c-1.1,0.3-2.2,0.4-3.2,0.8c-1,0.4-2.1,0.8-3.1,1.3c-1,0.6-1.6,1.6-2.5,2.3c-0.9,0.7-1.5,1.6-2.3,2.4
			c-0.8,0.8-1.6,1.5-2.3,2.4s-1.7,1.5-2.3,2.5c-0.6,0.9-0.4,2.3-0.9,3.3s-1.2,1.8-1.7,2.8c-0.4,0.9-0.7,1.9-1.1,2.9
			c-0.3,1-1.1,1.8-1.4,2.8s-0.4,2.1-0.6,3.1s-0.7,2-0.9,3c-0.2,1,0.1,2.1,0,3.2c-0.1,1-0.3,2.1-0.4,3.1c-0.1,1-0.1,2.1-0.1,3.1
			s-0.5,2.1-0.4,3.2c0,1,0.1,2.1,0.2,3.2c0.1,1,0.4,2.1,0.5,3.1c0.1,1,0.6,2,0.8,3.1c0.2,1,0.4,2.1,0.6,3.1c0.3,1,0.3,2.1,0.6,3.1
			s1.1,1.8,1.5,2.8c0.4,1,0.6,2,1.1,2.9s0.9,1.9,1.5,2.8c0.5,0.9,0.9,1.9,1.5,2.8c0.6,0.8,1.6,1.4,2.3,2.2c0.7,0.8,1.6,1.3,2.4,2.1
			c0.7,0.7,1.3,1.6,2.1,2.3c0.8,0.6,1.5,1.4,2.4,2c0.9,0.6,1.8,1,2.8,1.5c0.9,0.5,2,0.4,2.9,0.8c0.9,0.4,1.8,0.9,2.7,1.1
			c1,0.3,1.9,0.6,2.9,0.8s2,0.3,2.9,0.3c1,0,2-0.2,3-0.3s2,0.1,3-0.1s2-0.3,2.9-0.6c1-0.3,1.9-0.6,2.8-1c1-0.4,1.8-1.1,2.5-1.8
			c0.8-0.7,1.3-1.5,1.9-2.4c0.5-0.8,1.3-1.6,1.6-2.6c0.3-0.9,0.5-2,0.7-3s0.3-2,0.4-3c0.1-1,0.1-2,0.2-3c0.1-1,0.4-2,0.5-3
			c0.1-1-0.3-2.1-0.3-3.1c-0.1,0.7,0.6-2,0.6,0c0-1-0.3-2-0.3-3.2c0-1-0.2-2.1-0.3-3.1c0-1,0.3-2.1,0.2-3.2c-0.1-1-0.6-2-0.8-3.099
			c-0.3-1-0.6-2-1.1-3c-0.4-0.901-0.6-2.101-1.2-3c-0.6-0.801-1.9-1-2.9-1.5c-0.9-0.5-1.6-1.401-2.7-1.801c-1-0.4-2-0.699-3-1
			c-1.1-0.4-2.2-0.4-3.1-0.8C2710.259-708.124,2709.159-708.724,2708.759-709.424 M2707.059-681.825c0.4,1.5-1.9,2.4-3.1,1.2
			c-0.6-0.6-0.7-1.9-1.3-2.6c-0.6-0.7-1.4-1.3-2-2c-0.6-0.8-1.3-1.5-1.7-2.2c-0.7-1.2-1.1-2.5-0.7-2.9c0.5-0.5,2.2-0.2,3.6,0.4
			c1.3,0.6,2.4,1.6,2.8,2c0.4,0.4,1,1.6,1.4,3C2706.459-684.025,2706.859-682.825,2707.059-681.825"/>
	</g>
</g>
</svg>
