<?xml version="1.0" encoding="iso-8859-1"?>
<!-- Generator: Adobe Illustrator 19.0.0, SVG Export Plug-In . SVG Version: 6.00 Build 0)  -->
<svg version="1.1" id="Layer_1" xmlns="http://www.w3.org/2000/svg" xmlns:xlink="http://www.w3.org/1999/xlink" x="0px" y="0px"
	 viewBox="3787.74 -35.054 948.095 828.083" style="enable-background:new 3787.74 -35.054 948.095 828.083;" xml:space="preserve">
<g>
	<g>
		<defs>
			<rect id="SVGID_1_" x="1401.712" y="-1809.767" width="5222.1" height="3285.4"/>
		</defs>
		<clipPath id="SVGID_2_">
			<use xlink:href="#SVGID_1_"  style="overflow:visible;"/>
		</clipPath>
		<path style="clip-path:url(#SVGID_2_);fill:#0C1A37;" d="M3939.171,299.729c-26.4,5.3-51.5,18.4-62.3,42.3
			c-16.3-2.6-32.9-5.1-49.3-4.5v-233.6c7.1,3.9,13.8,8.9,19.8,14.1C3900.071,163.529,3933.371,230.529,3939.171,299.729"/>
	</g>
	<g>
		<defs>
			<rect id="SVGID_3_" x="1401.712" y="-1809.767" width="5222.1" height="3285.4"/>
		</defs>
		<clipPath id="SVGID_4_">
			<use xlink:href="#SVGID_3_"  style="overflow:visible;"/>
		</clipPath>
		<path style="clip-path:url(#SVGID_4_);fill:#0C2745;" d="M4061.271,417.729c-1.2,33.8-7.5,67.7-22,98.2
			c-50.8-56.9-122.8-95.7-198.6-95c-4.4,0-8.8,0.2-13.1,0.5v-84c16.5-0.6,33,2,49.3,4.5c10.8-23.9,35.9-37,62.3-42.3
			c6.4-1.3,12.8-2.1,19.2-2.6c20-1.4,40.9,0.4,58.3,10.2c18.2,10.3,30.9,28.6,37.6,48.4
			C4060.871,375.629,4062.071,396.829,4061.271,417.729"/>
	</g>
	<g>
		<defs>
			<rect id="SVGID_5_" x="1401.712" y="-1809.767" width="5222.1" height="3285.4"/>
		</defs>
		<clipPath id="SVGID_6_">
			<use xlink:href="#SVGID_5_"  style="overflow:visible;"/>
		</clipPath>
		<path style="clip-path:url(#SVGID_6_);fill:#2F223F;" d="M4693.771,278.329v275.9c-30.5-40.7-75.6-70.5-125.4-81.5
			c-34.5-7.6-70.7-6.2-104.8,3.1c0.3-17.1,4.1-34.2,11.3-49.7c13.3-28.7,38.2-51.8,67.7-63c28.8-10.9,61.7-11,87.9-27.2
			c18.6-11.4,31.7-29.7,47.5-44.6C4683.071,286.729,4688.271,282.329,4693.771,278.329"/>
	</g>
	<g>
		<defs>
			<rect id="SVGID_7_" x="1401.712" y="-1809.767" width="5222.1" height="3285.4"/>
		</defs>
		<clipPath id="SVGID_8_">
			<use xlink:href="#SVGID_7_"  style="overflow:visible;"/>
		</clipPath>
		<path style="clip-path:url(#SVGID_8_);fill:#1E396B;" d="M4403.771,470.328c10.6,11.8,26.7,22,44,31.3c7.8,4.2,16.7,9.1,15.4,15.1
			l-1.3,0.3c-15.7-5.3-31.4-11-43.1-18.8C4407.171,490.429,4399.971,480.129,4403.771,470.328"/>
	</g>
	<g>
		<defs>
			<rect id="SVGID_9_" x="1401.712" y="-1809.767" width="5222.1" height="3285.4"/>
		</defs>
		<clipPath id="SVGID_10_">
			<use xlink:href="#SVGID_9_"  style="overflow:visible;"/>
		</clipPath>
		<path style="clip-path:url(#SVGID_10_);fill:#1E396B;" d="M4469.371,515.028l-1.4,2
			C4468.471,516.329,4468.971,515.629,4469.371,515.028"/>
	</g>
	<g>
		<defs>
			<rect id="SVGID_11_" x="1401.712" y="-1809.767" width="5222.1" height="3285.4"/>
		</defs>
		<clipPath id="SVGID_12_">
			<use xlink:href="#SVGID_11_"  style="overflow:visible;"/>
		</clipPath>
		<path style="clip-path:url(#SVGID_12_);fill:#1E396B;" d="M4435.571,462.229c-3.3-15.8,2.1-31.8-1.9-47.6
			c-2.4-9.6-8.2-19.6-1.8-28.6c16.4,12.6,20.7,28.7,21.9,44.1c1.2,15.4-0.3,31.1,6.2,46.1c5.6,12.8,16.8,26.4,9.4,38.7
			c-1-9.6-12-18-19.8-26.6C4442.171,480.129,4437.471,471.328,4435.571,462.229"/>
	</g>
	<g>
		<defs>
			<rect id="SVGID_13_" x="1401.712" y="-1809.767" width="5222.1" height="3285.4"/>
		</defs>
		<clipPath id="SVGID_14_">
			<use xlink:href="#SVGID_13_"  style="overflow:visible;"/>
		</clipPath>
		<path style="clip-path:url(#SVGID_14_);fill:#1E396B;" d="M4478.871,505.929c-0.2-0.3-0.4-0.5-0.6-0.8
			c-23.6-32.5-24.7-69.6-3.1-102.5c8.7,13.3,4,27.7,3.8,41.9c2-8.2,5.7-16.4,11-24.2c13.5,23.5,15.9,48.8,7.2,72.9
			c8-5.4,17-10.4,26.1-15.3c9.6-5.2,20.9-10.7,34.5-10.6c4.2,4.8,0.2,10.8-6.6,14.7c-6.8,3.9-15.9,6.3-24.3,9.1
			c-13.3,4.4-25.3,10.1-33.9,17.2c-1.9,1.5-3.6,3.1-5.6,4.7c-0.9,1.3-2,2.7-3.3,3.9l-1.3-0.8c-1.3,0.7-2.8,1.4-4.4,2
			c-0.1-0.4-0.1-0.8-0.1-1.2c-3.1,0.6-6.5,0.6-9.3-0.3l5.6-2.1C4476.571,511.729,4477.971,508.829,4478.871,505.929"/>
	</g>
	<g>
		<defs>
			<rect id="SVGID_15_" x="1401.712" y="-1809.767" width="5222.1" height="3285.4"/>
		</defs>
		<clipPath id="SVGID_16_">
			<use xlink:href="#SVGID_15_"  style="overflow:visible;"/>
		</clipPath>
		<path style="clip-path:url(#SVGID_16_);fill:#1E396B;" d="M4476.071,518.828c0.8-0.2,1.6-0.4,2.4-0.7c0.1,0.6,0.2,1.2,0.4,1.8
			L4476.071,518.828z"/>
	</g>
	<g>
		<defs>
			<rect id="SVGID_17_" x="1401.712" y="-1809.767" width="5222.1" height="3285.4"/>
		</defs>
		<clipPath id="SVGID_18_">
			<use xlink:href="#SVGID_17_"  style="overflow:visible;"/>
		</clipPath>
		<path style="clip-path:url(#SVGID_18_);fill:#1E396B;" d="M4497.171,422.528c3.2-3.5,8.7-0.1,11.7,2c4.4,3,7.9,7,10.6,11.6
			c0.8-6,1.6-12.1,2.5-18.1c0,0-0.1,0-0.1-0.1c-6-4.2-11.7-8.9-16.8-14.2c-2.1-2.2-10-9.2-4.1-11.8c4.6-2,10.1,3.7,12.9,6.6
			c3.4,3.6,6.1,7.8,8,12.3c0.4-0.1,0.8-0.3,1.2-0.4c0.1-0.2,0.2-0.5,0.3-0.7c1.2-7.2,2.5-14.3,4-21.5c-9.4-4.8-17.7-11.4-24.4-19.6
			c-1-1.2-0.4-3,1.3-3c10.7-0.2,20.6,6.6,24.4,16.5c1-4.7,2-9.3,3.1-13.9c-6.3-5.2-12.6-10.4-18.8-15.6c-1.9-1.6-5.3-3.5-5.3-6.3
			c0-1.8,1.4-3.1,3-3.6c4.6-1.3,10.2,2.6,13.5,5.3c3.7,3,6.5,6.8,8.4,11.1c0.5-0.3,1-0.6,1.5-0.9c0.1-0.1,0.1-0.1,0.2-0.2
			c1.4-5.4,2.8-10.7,4.3-16c-7.4-11.1-23-19.2-19.5-34.6c0.3-1.1,1.7-1.6,2.6-1.1c9.5,5.6,16.5,14.8,19.3,25.4
			c0.4-0.5,0.7-1,1.1-1.6c0.4-1.4,0.9-2.8,1.3-4.2c-1.2,0.2-2.5-0.7-2.1-2.2c0.5-1.7,1.1-3.3,1.8-4.9c-1.1-7.1-3.8-13.8-7.9-19.7
			c-2.6-3.7-9.5-10.7-3.2-14.8c7.9-5.1,13.2,13.3,15.6,25c0.9-2.1,2-4,3.4-5.8c1.5-4.3,3-8.5,4.5-12.7c-4.8-4.4-9.7-8.8-14.2-13.5
			c-2.5-2.6-5-7.6-1-10.3c4.1-2.8,8.9,1.7,11.5,4.5c2.5,2.7,4.4,5.7,5.8,8.9c0.1,0,0.1-0.1,0.2-0.1c1-0.7,1.8-1.5,2.4-2.3
			c0.4-1.1,0.8-2.2,1.2-3.2c0.7-5.7-4.4-12.7-6.9-17.1c-2.4-4.2-6.4-12.5-1-16.2c5.7-3.9,9.8,5,11.3,8.9c1.2,3.1,1.8,6.3,2.1,9.5
			c0.7-1.9,1.4-3.8,2.1-5.7c-0.3-2.2-0.6-4.3-0.8-6.5c-0.1-0.2-0.1-0.4-0.1-0.6c-1.3-10.8-2.2-21.6-2.6-32.4c0-0.7,0.6-1.6,1.3-1.7
			c6.4-1.4,9,4.9,9.4,10.2c0.3,3.7,0.2,7.4-0.2,11.1c0.9-2.7,1.8-5.3,2.7-8c-0.1-0.2-0.2-0.4-0.2-0.7c-1.2-7.7-2.4-15.3-3.6-23
			c-0.6-3.6-3.2-12.3,2.7-13.1c5.4-0.7,6.2,8.6,6.8,12.1c0.2,1.6,0.4,3.2,0.5,4.8c1.2-4.2,2.3-8.4,3.4-12.6
			c-0.5-0.3-0.9-0.8-0.9-1.5c-0.1-0.9,0-1.9,0-3c-3.2-9-5.6-18.4-6.9-27.9c-0.2-1.2,0.8-2.7,2.2-2.2c9.1,3.4,9.5,12,8.9,20.6
			c1-4.6,1.8-9.2,2.6-13.8l-0.1-0.1c-6.5-9-10-19.6-10.3-30.7c0-1.3,1.6-2.4,2.7-1.5c9.3,6.9,13.8,18.5,11.4,29.7
			c0.2,0.3,0.2,0.7,0.2,1.1c-0.4,2.6-0.9,5.2-1.3,7.8c2.6-3.4,6.2-6.9,10.7-5.7c4.8,1.4,4.7,6.5,2.1,9.9c-2,2.6-5,4.7-7.5,6.8
			c-3.1,2.6-6.1,5.2-9.2,7.8c0,0-0.1,0-0.1,0.1c-0.1,0.4-0.2,0.7-0.3,1.1c0.3,0.7,0.5,1.4,0.8,2.1c0.6,1.4-0.7,2.2-1.9,2.1
			c-0.5,1.9-1,3.9-1.5,5.8c0.4-0.6,0.9-1.2,1.3-1.7c3.5-4.4,9.1-10.2,15.1-6.3c5.3,3.5,1.9,9-2,11.9c-6.5,4.9-13.2,9.6-19.8,14.3
			l-2.4,7.5c3.9-3.9,10.7-9.3,16.3-6.6c2.2,1,3.8,3.3,3.4,5.8c-0.5,3-3.3,4.6-5.6,6c-6.7,4.1-13.3,8.3-20,12.4c-1,3-2.1,6-3.2,8.9
			c0.1,0.7-0.2,1.2-0.6,1.6c0,0.1-0.1,0.3-0.1,0.4c1-1,2.1-1.9,3.3-2.7c4.1-2.7,12.3-5.5,16.5-1.4c4,3.9-0.6,9.3-4.9,10
			c-3.9,0.6-7.8-0.6-11.7,0.5c-2.2,0.6-4.2,1.7-6,3.1c-0.7,1.1-1.3,2.3-1.9,3.5c-0.7,1.8-1.3,3.6-2,5.3c1.4-0.9,2.8-1.7,4.4-2.4
			c4.4-1.8,10.8-3.1,14.8,0.3c4.3,3.8,0.7,9.2-4,10.1c-3.6,0.7-7.5-0.1-11.2,0.3c-2.6,0.3-5.1,0.8-7.6,1.6c-0.6,1.6-1.2,3.3-1.8,4.9
			c1.2,1.2,0.2,2.8-1.1,3c-0.6,1.7-1.2,3.4-1.8,5.1c4.2-3.1,12.4-7.6,16-2.9c1.7,2.2,0.7,5.4-1.3,7.1c-2.8,2.4-7.3,2.4-10.7,3.9
			c-3.5,1.6-6.5,3.9-9.1,6.6c-1.2,3.6-2.4,7.2-3.5,10.8c-0.1,0.4-0.2,0.8-0.4,1.2c1.9-1.5,3.9-2.8,6.1-3.8
			c4.8-2.3,13.6-5.1,18.5-1.5c5.6,4.2-0.4,10.4-5.4,10.8c-4.5,0.4-8.8-0.2-13.3,1.1c-3.5,1.1-6.7,2.8-9.5,5.1c-0.5,1.7-1,3.3-1.4,5
			c0.3,0.5,0.6,0.9,0.8,1.4c0.8,1.5-0.7,2.9-2,2.7c-0.8,2.9-1.6,5.7-2.3,8.6c1.7-1.1,3.6-2.1,5.6-2.9c4.5-1.7,13.2-3.7,17.4-0.3
			c1.7,1.4,2,3.7,0.9,5.5c-1.3,2.2-3.8,2.9-6.2,2.7c-3.8-0.3-7.2-1.4-11.1-1c-2.9,0.3-5.6,1.1-8.2,2.4c-1.5,6-3,12.1-4.3,18.2
			c7.1-6.8,15.3-12.4,25.6-12.2c1.9,0,2.2,2.3,0.9,3.3c-8.7,6.6-18.1,12-28.1,16.2c-1.1,5.2-2.1,10.4-3.1,15.6
			c4.1-5,9.5-8.9,15.7-11.3c1.2-0.5,2.7,1,2.2,2.2c-3.7,9.3-10.7,16.6-19.8,20.4c-0.9,5.2-1.6,10.4-2.4,15.7
			c4.7-7.6,11.1-13.9,20.3-15.7c1.3-0.3,3,1.2,2,2.6c-6.9,9.3-14.8,17.6-23.8,24.8c0,0.2,0,0.4-0.1,0.5c1.1,0.9,0.7,2.5-0.4,3
			c-1.8,15.4-3,31-3.6,46.5c-1.3,31.8-0.2,63.7,3.3,95.4c0.3,2.3-3.3,2.3-3.6,0c-5.2-47.4-5.1-95.3,0.3-142.6
			c-0.9,0.2-1.7-0.7-1.8-1.6c-5.1-3.1-10.2-6.2-15.3-9.3C4498.371,430.528,4493.671,426.429,4497.171,422.528"/>
	</g>
	<g>
		<defs>
			<rect id="SVGID_19_" x="1401.712" y="-1809.767" width="5222.1" height="3285.4"/>
		</defs>
		<clipPath id="SVGID_20_">
			<use xlink:href="#SVGID_19_"  style="overflow:visible;"/>
		</clipPath>
		<path style="clip-path:url(#SVGID_20_);fill:#2C2945;" d="M4136.371,482.528c-5.4-6-14.8-0.1-19.8,3.3
			c-7.4,5.1-13.4,11.9-17.9,19.6c-1.3-10.2-2.7-20.4-4.3-30.6c0.1,0,0.1-0.1,0.2-0.1c10.2-7.1,19.7-15.1,28.4-24
			c3.5-3.7,16.9-15.5,7-20c-7.7-3.5-17.1,6.3-21.8,11.2c-5.8,6.1-10.3,13.2-13.5,20.9c-0.7-0.2-1.3-0.4-2-0.7
			c-0.2-0.4-0.3-0.8-0.5-1.2c-2-12.1-4.3-24.3-6.8-36.3c16-8.1,30-19.3,41.3-33.1c1.6-2,0.6-5.1-2.1-5.1
			c-18.1-0.4-34.9,11.2-41.3,27.8c-1.7-7.9-3.5-15.7-5.3-23.6c10.6-8.8,21.2-17.6,31.9-26.3c3.2-2.7,9-5.9,9-10.7
			c0-3.1-2.4-5.3-5.2-6c-7.7-2.2-17.3,4.5-22.9,9c-6.2,5.1-11,11.5-14.2,18.8c-0.8-0.5-1.6-1-2.5-1.5c-0.1-0.1-0.2-0.2-0.4-0.4
			c-2.3-9.1-4.7-18.1-7.3-27.1c12.5-18.8,38.9-32.6,33.1-58.5c-0.4-1.9-2.8-2.8-4.4-1.8c-16.1,9.5-27.9,25-32.6,43
			c-0.6-0.9-1.2-1.8-1.9-2.6c-0.7-2.4-1.5-4.7-2.2-7.1c1.9,0.3,4.3-1.2,3.6-3.7c-0.8-2.8-1.8-5.6-3-8.2c1.9-11.9,6.4-23.4,13.5-33.3
			c4.4-6.3,16.1-18.1,5.5-25.1c-13.3-8.7-22.3,22.6-26.4,42.3c-1.5-3.5-3.4-6.8-5.7-9.9c-2.5-7.2-5.1-14.4-7.6-21.6
			c8-7.5,16.3-14.9,24-22.8c4.3-4.4,8.5-12.8,1.7-17.4c-6.9-4.7-15,3-19.4,7.7c-4.2,4.5-7.4,9.6-9.8,15.1c-0.1-0.1-0.2-0.2-0.3-0.2
			c-1.8-1.2-3.1-2.5-4-3.9c-0.7-1.8-1.3-3.7-2-5.5c-1.2-9.7,7.5-21.6,11.8-28.9c4.1-7,10.9-21.2,1.8-27.4
			c-9.6-6.5-16.6,8.4-19.2,15.1c-2,5.2-3.1,10.6-3.5,16.1c-1.2-3.2-2.3-6.5-3.5-9.7c0.5-3.7,1-7.4,1.4-11c0.1-0.3,0.1-0.7,0.1-1
			c2.1-18.2,3.6-36.5,4.4-54.8c0.1-1.3-1-2.6-2.2-2.9c-10.9-2.4-15.3,8.3-16,17.2c-0.5,6.3-0.3,12.6,0.4,18.8l-4.5-13.5
			c0.2-0.3,0.3-0.7,0.4-1.1c2-13,4.1-26,6.1-39c0.9-6,5.5-20.8-4.6-22.1c-9.1-1.2-10.5,14.5-11.4,20.4c-0.4,2.7-0.7,5.4-0.8,8.1
			c-2-7.1-3.9-14.2-5.7-21.4c0.8-0.5,1.5-1.3,1.6-2.5c0.1-1.6,0.1-3.3,0-5.2c5.5-15.3,9.4-31.1,11.7-47.2c0.3-2-1.3-4.6-3.7-3.7
			c-15.5,5.7-16.1,20.3-15.1,34.8c-1.6-7.8-3.1-15.5-4.4-23.4c0-0.1,0.1-0.1,0.1-0.2c11-15.2,17-33.1,17.5-51.9
			c0.1-2.1-2.7-4-4.5-2.6c-15.7,11.6-23.3,31.3-19.3,50.3c-0.3,0.5-0.4,1.2-0.3,1.9c0.7,4.4,1.5,8.8,2.3,13.2
			c-4.4-5.7-10.5-11.8-18.1-9.6c-8.1,2.3-7.9,11-3.5,16.7c3.5,4.5,8.4,7.9,12.7,11.5c5.2,4.4,10.4,8.8,15.6,13.2
			c0.1,0.1,0.1,0.1,0.2,0.1c0.2,0.6,0.3,1.3,0.5,1.9c-0.5,1.2-0.9,2.4-1.4,3.6c-1,2.3,1.2,3.8,3.2,3.6c0.8,3.3,1.7,6.6,2.6,9.8
			c-0.7-1-1.4-2-2.2-2.9c-5.9-7.5-15.5-17.3-25.6-10.6c-8.9,5.9-3.1,15.3,3.3,20.1c11,8.3,22.3,16.2,33.5,24.2
			c1.3,4.3,2.7,8.5,4.1,12.8c-6.5-6.6-18.2-15.7-27.5-11.2c-3.7,1.8-6.4,5.6-5.7,9.8c0.8,5,5.6,7.7,9.5,10.1c11.3,7,22.6,14,33.8,21
			c1.8,5,3.6,10.1,5.4,15.1c-0.1,1.1,0.3,2.1,1,2.7c0.1,0.2,0.2,0.5,0.3,0.7c-1.7-1.7-3.6-3.2-5.7-4.6c-7-4.6-20.8-9.3-27.9-2.4
			c-6.7,6.6,1,15.7,8.3,16.9c6.7,1.1,13.2-1,19.9,0.9c3.7,1,7.1,2.8,10.1,5.2c1.1,1.9,2.2,3.9,3.2,5.9c1.1,3,2.2,6,3.3,9
			c-2.3-1.6-4.8-2.9-7.4-4c-7.4-3.1-18.3-5.3-25.1,0.6c-7.2,6.3-1.1,15.5,6.8,17.1c6.2,1.2,12.8-0.1,19,0.6
			c4.4,0.5,8.7,1.4,12.8,2.7c1,2.8,2,5.5,3,8.3c-2.1,2-0.3,4.7,1.8,5.1c1,2.9,2,5.7,3.1,8.6c-7.2-5.3-21-12.9-27-5
			c-2.9,3.8-1.2,9.1,2.2,12c4.8,4,12.4,4.1,18,6.7c5.9,2.7,11.1,6.5,15.4,11.2c2,6.1,4.1,12.2,6,18.3c0.2,0.7,0.4,1.3,0.6,2
			c-3.2-2.5-6.6-4.7-10.3-6.4c-8.1-3.8-23.1-8.5-31.2-2.5c-9.5,7.1,0.7,17.6,9.1,18.3c7.7,0.7,14.9-0.4,22.5,1.9
			c6,1.8,11.3,4.8,16.1,8.7c0.8,2.8,1.6,5.6,2.4,8.4c-0.5,0.8-0.9,1.6-1.4,2.4c-1.3,2.6,1.2,4.9,3.3,4.5c1.3,4.8,2.7,9.7,3.9,14.5
			c-2.9-1.9-6.1-3.6-9.4-4.9c-7.7-2.9-22.4-6.3-29.5-0.5c-2.8,2.3-3.3,6.2-1.5,9.3c2.2,3.7,6.4,4.9,10.5,4.6
			c6.4-0.5,12.2-2.4,18.8-1.7c4.9,0.5,9.6,1.9,13.9,4c2.6,10.2,5,20.5,7.3,30.8c-12.1-11.4-25.9-20.9-43.3-20.7
			c-3.2,0-3.8,3.9-1.5,5.6c14.7,11.1,30.6,20.2,47.5,27.4c1.8,8.8,3.6,17.6,5.2,26.5c-6.9-8.5-16-15.1-26.5-19.2
			c-2-0.8-4.5,1.7-3.7,3.7c6.2,15.7,18.2,28,33.5,34.5c1.5,8.8,2.8,17.7,4,26.5c-8-12.8-18.7-23.6-34.4-26.6
			c-2.3-0.4-5.1,2.1-3.4,4.4c11.6,15.8,25.1,29.8,40.3,42c0,0.3,0.1,0.6,0.1,0.9c-1.9,1.5-1.1,4.2,0.6,5.1c3,26.1,5,52.4,6.1,78.7
			c2.2,53.9,0.3,107.9-5.6,161.4c-0.4,3.8,5.6,3.8,6,0c8.8-80.2,8.6-161.2-0.6-241.3c1.6,0.3,2.9-1.1,3.1-2.7
			c8.6-5.2,17.2-10.5,25.8-15.7C4134.271,496.028,4142.371,489.129,4136.371,482.528"/>
	</g>
	<g>
		<defs>
			<rect id="SVGID_21_" x="1401.712" y="-1809.767" width="5222.1" height="3285.4"/>
		</defs>
		<clipPath id="SVGID_22_">
			<use xlink:href="#SVGID_21_"  style="overflow:visible;"/>
		</clipPath>
		<path style="clip-path:url(#SVGID_22_);fill:#1E396B;" d="M4693.771,504.129v26.9c-22.7-1.1-45.4,2.1-66.6,10.1
			c-28.5,10.8-53.8,31-70.1,56.6c-7.3-2.7-14.8-5.1-22.5-6.9c-49.5-11.7-104.6,3.3-141.4,38.4c-4.8,4.5-9.2,9.4-13.3,14.5
			c-17-20.5-37.6-37.9-61.6-49.2c-3.9-1.8-7.8-3.4-11.8-4.9c11.3-46.4,37-89.4,73.5-120.2c24.3-20.5,53.1-35.3,83.7-43.7
			c34.1-9.4,70.3-10.8,104.8-3.1C4618.171,433.729,4663.371,463.529,4693.771,504.129"/>
	</g>
</g>
</svg>
