<?xml version="1.0" encoding="iso-8859-1"?>
<!-- Generator: Adobe Illustrator 19.0.0, SVG Export Plug-In . SVG Version: 6.00 Build 0)  -->
<svg version="1.1" id="Layer_1" xmlns="http://www.w3.org/2000/svg" xmlns:xlink="http://www.w3.org/1999/xlink" x="0px" y="0px"
	 viewBox="4388 -79.84 892 1100" style="enable-background:new 4388 -79.84 892 1100;" xml:space="preserve">
<g>
	<g>
		<defs>
			<rect id="SVGID_1_" x="1973" y="-1346.12" width="5222.1" height="3285.4"/>
		</defs>
		<clipPath id="SVGID_2_">
			<use xlink:href="#SVGID_1_"  style="overflow:visible;"/>
		</clipPath>
		<path style="clip-path:url(#SVGID_2_);fill:#7D4800;" d="M5193.659,574.875c-5.9-4.5-11.4-9.5-18-12.8
			c-6.601-3.2-14.601-4.3-20.3-0.4c6.8,9.4,16.2,17,26.7,21.5c3.5,1.5,7.2,2.7,10.9,3.2c6.5,0.8,12.8-0.7,18.8-2.7
			C5205.259,582.776,5199.159,579.076,5193.659,574.875"/>
	</g>
	<g>
		<defs>
			<rect id="SVGID_3_" x="1973" y="-1346.12" width="5222.1" height="3285.4"/>
		</defs>
		<clipPath id="SVGID_4_">
			<use xlink:href="#SVGID_3_"  style="overflow:visible;"/>
		</clipPath>
		<path style="clip-path:url(#SVGID_4_);fill:#7D6700;" d="M5211.959,560.076C5211.959,560.076,5212.059,560.076,5211.959,560.076
			c-0.3-0.4-0.7-0.7-1.1-1.1L5211.959,560.076z"/>
	</g>
	<g>
		<defs>
			<rect id="SVGID_5_" x="1973" y="-1346.12" width="5222.1" height="3285.4"/>
		</defs>
		<clipPath id="SVGID_6_">
			<use xlink:href="#SVGID_5_"  style="overflow:visible;"/>
		</clipPath>
		<path style="clip-path:url(#SVGID_6_);fill:#7D9000;" d="M5068.059,576.976c1.6,10.5,9.4,19.7,18.9,22.6
			c-2.1-7.8-6.3-15.1-12-20.5c-1.9-1.8-4.6-3.5-6.6-1.9L5068.059,576.976z"/>
	</g>
	<g>
		<defs>
			<rect id="SVGID_7_" x="1973" y="-1346.12" width="5222.1" height="3285.4"/>
		</defs>
		<clipPath id="SVGID_8_">
			<use xlink:href="#SVGID_7_"  style="overflow:visible;"/>
		</clipPath>
		<path style="clip-path:url(#SVGID_8_);fill:#7D6700;" d="M4730.559,605.176c10.7-2,20.4-10.4,24.2-20.7l2.8-2.2
			C4745.959,585.276,4735.559,594.076,4730.559,605.176"/>
	</g>
	<g>
		<defs>
			<rect id="SVGID_9_" x="1973" y="-1346.12" width="5222.1" height="3285.4"/>
		</defs>
		<clipPath id="SVGID_10_">
			<use xlink:href="#SVGID_9_"  style="overflow:visible;"/>
		</clipPath>
		<path style="clip-path:url(#SVGID_10_);fill:#7D4800;" d="M4711.159,662.176c-7.2,3.9-12,11.7-14.2,19.6
			c-2.3,7.9-2.3,16.2-2.4,24.3l0.6-4.6C4704.659,690.476,4710.459,676.276,4711.159,662.176"/>
	</g>
	<g>
		<defs>
			<rect id="SVGID_11_" x="1973" y="-1346.12" width="5222.1" height="3285.4"/>
		</defs>
		<clipPath id="SVGID_12_">
			<use xlink:href="#SVGID_11_"  style="overflow:visible;"/>
		</clipPath>
		<path style="clip-path:url(#SVGID_12_);fill:#7D6700;" d="M4596.459,674.276l0.3,2.2c2.101-2.5,0.101-6.2-2-8.5
			c-6.8-7.5-14.8-13.6-23.6-18.1c2.3,11.3,9.6,21,19.399,25.8C4592.559,676.676,4596.059,676.776,4596.459,674.276"/>
	</g>
	<g>
		<defs>
			<rect id="SVGID_13_" x="1973" y="-1346.12" width="5222.1" height="3285.4"/>
		</defs>
		<clipPath id="SVGID_14_">
			<use xlink:href="#SVGID_13_"  style="overflow:visible;"/>
		</clipPath>
		<path style="clip-path:url(#SVGID_14_);fill:#7D6700;" d="M4522.259,768.675c-4.8-1.4-10.3-0.6-14.7,2.2c-1.6,1-3.1,2.3-3.9,4
			c-1.6,3.2-0.7,7.1,0.7,10.3c2.1,5.1,5.3,9.6,9.1,13.3l-1.3-2.5C4514.559,786.576,4517.959,777.376,4522.259,768.675"/>
	</g>
	<g>
		<defs>
			<rect id="SVGID_15_" x="1973" y="-1346.12" width="5222.1" height="3285.4"/>
		</defs>
		<clipPath id="SVGID_16_">
			<use xlink:href="#SVGID_15_"  style="overflow:visible;"/>
		</clipPath>
		<path style="clip-path:url(#SVGID_16_);fill:#7D6700;" d="M5191.459,851.076c-0.1-0.7-0.3-1.3-0.6-1.9c-0.2,1.2-0.3,2.5-0.5,3.7
			l-1.2,2.9C5190.959,855.076,5191.759,852.876,5191.459,851.076"/>
	</g>
	<g>
		<defs>
			<rect id="SVGID_17_" x="1973" y="-1346.12" width="5222.1" height="3285.4"/>
		</defs>
		<clipPath id="SVGID_18_">
			<use xlink:href="#SVGID_17_"  style="overflow:visible;"/>
		</clipPath>
		<path style="clip-path:url(#SVGID_18_);fill:#7D4800;" d="M5173.159,873.376c6.399-3.1,10.399-9.4,12.8-15.7
			c0.4-1,0.8-2.1,1.3-3.1c-10.6,5.8-21.8,10.8-33.399,14.8C5157.459,875.276,5166.759,876.476,5173.159,873.376"/>
	</g>
	<g>
		<defs>
			<rect id="SVGID_19_" x="1973" y="-1346.12" width="5222.1" height="3285.4"/>
		</defs>
		<clipPath id="SVGID_20_">
			<use xlink:href="#SVGID_19_"  style="overflow:visible;"/>
		</clipPath>
		<path style="clip-path:url(#SVGID_20_);fill:#7D6700;" d="M4597.159,601.476c-0.2,2.3,1.399,4.5,3,6.3
			c9.5,10.4,23.7,16.9,37.899,17.3l-2-0.7C4626.259,612.976,4612.259,604.776,4597.159,601.476"/>
	</g>
	<g>
		<defs>
			<rect id="SVGID_21_" x="1973" y="-1346.12" width="5222.1" height="3285.4"/>
		</defs>
		<clipPath id="SVGID_22_">
			<use xlink:href="#SVGID_21_"  style="overflow:visible;"/>
		</clipPath>
		<path style="clip-path:url(#SVGID_22_);fill:#7D9000;" d="M4491.659,549.776l-1.9-5.2c-6-9.9-19.6-14.4-31.399-10.6
			c4.3,5.9,11.1,10,18.6,11.4C4482.059,546.276,4488.059,546.176,4491.659,549.776"/>
	</g>
	<g>
		<defs>
			<rect id="SVGID_23_" x="1973" y="-1346.12" width="5222.1" height="3285.4"/>
		</defs>
		<clipPath id="SVGID_24_">
			<use xlink:href="#SVGID_23_"  style="overflow:visible;"/>
		</clipPath>
		<path style="clip-path:url(#SVGID_24_);fill:#7D6700;" d="M4823.259,937.776c0.2-2.2,0.101-4.7-1.6-5.8
			c-6.5,12.6-10.4,26.5-11.2,40.4C4817.659,962.175,4822.159,950.076,4823.259,937.776"/>
	</g>
	<g>
		<defs>
			<rect id="SVGID_25_" x="1973" y="-1346.12" width="5222.1" height="3285.4"/>
		</defs>
		<clipPath id="SVGID_26_">
			<use xlink:href="#SVGID_25_"  style="overflow:visible;"/>
		</clipPath>
		<path style="clip-path:url(#SVGID_26_);fill:#7D6700;" d="M4839.359,945.475l1-3c-1.5,1-2.9,1.9-4.5,2.8
			C4837.059,945.376,4838.159,945.475,4839.359,945.475"/>
	</g>
	<g>
		<defs>
			<rect id="SVGID_27_" x="1973" y="-1346.12" width="5222.1" height="3285.4"/>
		</defs>
		<clipPath id="SVGID_28_">
			<use xlink:href="#SVGID_27_"  style="overflow:visible;"/>
		</clipPath>
		<path style="clip-path:url(#SVGID_28_);fill:#7D9000;" d="M4878.159,820.876l-2.8,0.2c0.7,8.5,4.9,16.7,11.3,21.8
			c0.399-5.8,0.8-11.6-0.101-17.3c-0.9-5.7-3.3-11.4-7.5-15C4877.459,813.576,4877.159,817.476,4878.159,820.876"/>
	</g>
	<g>
		<defs>
			<rect id="SVGID_29_" x="1973" y="-1346.12" width="5222.1" height="3285.4"/>
		</defs>
		<clipPath id="SVGID_30_">
			<use xlink:href="#SVGID_29_"  style="overflow:visible;"/>
		</clipPath>
		<path style="clip-path:url(#SVGID_30_);fill:#7D4800;" d="M4790.559,328.676c7.3-0.8,14.9-0.8,21.9-3.1c7-2.3,13.7-7.4,15.3-14.7
			c-11.3-2.5-23.399-1.5-34.2,2.6c-3.6,1.4-7.1,3.1-10.1,5.5c-5.3,4.1-9,10-12.1,16
			C4776.659,330.876,4783.759,329.376,4790.559,328.676"/>
	</g>
	<g>
		<defs>
			<rect id="SVGID_31_" x="1973" y="-1346.12" width="5222.1" height="3285.4"/>
		</defs>
		<clipPath id="SVGID_32_">
			<use xlink:href="#SVGID_31_"  style="overflow:visible;"/>
		</clipPath>
		<path style="clip-path:url(#SVGID_32_);fill:#7D6700;" d="M4465.059,461.076L4465.059,461.076c0.2,0.5,0.5,0.9,0.8,1.4
			L4465.059,461.076z"/>
	</g>
	<g>
		<defs>
			<rect id="SVGID_33_" x="1973" y="-1346.12" width="5222.1" height="3285.4"/>
		</defs>
		<clipPath id="SVGID_34_">
			<use xlink:href="#SVGID_33_"  style="overflow:visible;"/>
		</clipPath>
		<path style="clip-path:url(#SVGID_34_);fill:#7D9000;" d="M4689.359,363.476c1.2,10.5,9.1,20,19.2,23
			c-1.899-7.9-6.1-15.2-11.899-20.9c-1.9-1.8-4.8-3.6-7.101-2.1H4689.359z"/>
	</g>
	<g>
		<defs>
			<rect id="SVGID_35_" x="1973" y="-1346.12" width="5222.1" height="3285.4"/>
		</defs>
		<clipPath id="SVGID_36_">
			<use xlink:href="#SVGID_35_"  style="overflow:visible;"/>
		</clipPath>
		<path style="clip-path:url(#SVGID_36_);fill:#7D6700;" d="M4948.159,415.875c-11.2-0.3-22.3,6.2-27.601,16l-3.2,1.7
			C4929.659,432.976,4941.459,426.176,4948.159,415.875"/>
	</g>
	<g>
		<defs>
			<rect id="SVGID_37_" x="1973" y="-1346.12" width="5222.1" height="3285.4"/>
		</defs>
		<clipPath id="SVGID_38_">
			<use xlink:href="#SVGID_37_"  style="overflow:visible;"/>
		</clipPath>
		<path style="clip-path:url(#SVGID_38_);fill:#7D4800;" d="M4612.159,382.375c8-2.4,14-9.2,17.399-16.8
			c3.4-7.6,4.601-15.9,5.8-24.2l-1.3,4.6C4622.759,354.976,4614.759,368.076,4612.159,382.375"/>
	</g>
	<g>
		<defs>
			<rect id="SVGID_39_" x="1973" y="-1346.12" width="5222.1" height="3285.4"/>
		</defs>
		<clipPath id="SVGID_40_">
			<use xlink:href="#SVGID_39_"  style="overflow:visible;"/>
		</clipPath>
		<path style="clip-path:url(#SVGID_40_);fill:#7D6700;" d="M5085.359,364.375l-2.1,0.8c2.9,1.6,6.1-1.4,7.9-4.1
			c5.9-9,10.2-18.9,12.7-29.4c-10.5,5.2-18.5,15.3-21.1,26.7C5082.159,360.976,5082.859,364.576,5085.359,364.375"/>
	</g>
	<g>
		<defs>
			<rect id="SVGID_41_" x="1973" y="-1346.12" width="5222.1" height="3285.4"/>
		</defs>
		<clipPath id="SVGID_42_">
			<use xlink:href="#SVGID_41_"  style="overflow:visible;"/>
		</clipPath>
		<path style="clip-path:url(#SVGID_42_);fill:#7D6700;" d="M4939.459,261.276c-5.4,0.5-10.6,3.4-13.9,7.7c-1.2,1.5-2.1,3.3-2.3,5.2
			c-0.3,3.6,2.2,6.8,4.9,9.3c4.2,3.8,9.2,6.8,14.6,8.8l-2.3-1.8C4939.059,280.776,4938.759,270.976,4939.459,261.276"/>
	</g>
	<g>
		<defs>
			<rect id="SVGID_43_" x="1973" y="-1346.12" width="5222.1" height="3285.4"/>
		</defs>
		<clipPath id="SVGID_44_">
			<use xlink:href="#SVGID_43_"  style="overflow:visible;"/>
		</clipPath>
		<path style="clip-path:url(#SVGID_44_);fill:#7D6700;" d="M4488.659,143.976c0.5-0.5,1-1,1.399-1.6c-1.2,0.5-2.3,1.1-3.5,1.7
			l-3.1,0.6C4484.859,145.676,4487.159,145.176,4488.659,143.976"/>
	</g>
	<g>
		<defs>
			<rect id="SVGID_45_" x="1973" y="-1346.12" width="5222.1" height="3285.4"/>
		</defs>
		<clipPath id="SVGID_46_">
			<use xlink:href="#SVGID_45_"  style="overflow:visible;"/>
		</clipPath>
		<path style="clip-path:url(#SVGID_46_);fill:#7D4800;" d="M4630.159,199.776c0.5,7.3,5.2,13.6,10.5,18.6
			c0.899,0.8,1.8,1.6,2.5,2.6c-1.5-12.3-2-24.7-1.4-37.1C4634.559,184.576,4629.659,192.476,4630.159,199.776"/>
	</g>
	<g>
		<defs>
			<rect id="SVGID_47_" x="1973" y="-1346.12" width="5222.1" height="3285.4"/>
		</defs>
		<clipPath id="SVGID_48_">
			<use xlink:href="#SVGID_47_"  style="overflow:visible;"/>
		</clipPath>
		<path style="clip-path:url(#SVGID_48_);fill:#7D6700;" d="M5133.459,404.276c-1.3,2.1-0.9,4.9-0.3,7.3
			c3.7,13.9,13.6,25.9,26.5,32.2l-1.5-1.5C5154.659,427.376,5145.759,413.676,5133.459,404.276"/>
	</g>
	<g>
		<defs>
			<rect id="SVGID_49_" x="1973" y="-1346.12" width="5222.1" height="3285.4"/>
		</defs>
		<clipPath id="SVGID_50_">
			<use xlink:href="#SVGID_49_"  style="overflow:visible;"/>
		</clipPath>
		<path style="clip-path:url(#SVGID_50_);fill:#7D9000;" d="M4592.559,445.375l5.7,2c12.3,2.1,25.601-5,30.7-16.4
			c-7.9-0.7-16,1.6-22.4,6.3C4602.159,440.576,4598.059,445.076,4592.559,445.375"/>
	</g>
	<g>
		<defs>
			<rect id="SVGID_51_" x="1973" y="-1346.12" width="5222.1" height="3285.4"/>
		</defs>
		<clipPath id="SVGID_52_">
			<use xlink:href="#SVGID_51_"  style="overflow:visible;"/>
		</clipPath>
		<path style="clip-path:url(#SVGID_52_);fill:#7D6700;" d="M4871.859,23.776c0.8-2.1,1.4-4.7-0.1-6.4c-9.9,10.3-17.4,22.7-22,36.2
			C4859.759,45.976,4867.559,35.576,4871.859,23.776"/>
	</g>
	<g>
		<defs>
			<rect id="SVGID_53_" x="1973" y="-1346.12" width="5222.1" height="3285.4"/>
		</defs>
		<clipPath id="SVGID_54_">
			<use xlink:href="#SVGID_53_"  style="overflow:visible;"/>
		</clipPath>
		<path style="clip-path:url(#SVGID_54_);fill:#7D6700;" d="M4840.759,44.276l-2.1-2.6c0.1,1.8,0.1,3.6,0.1,5.4
			C4839.359,46.076,4840.059,45.176,4840.759,44.276"/>
	</g>
	<g>
		<defs>
			<rect id="SVGID_55_" x="1973" y="-1346.12" width="5222.1" height="3285.4"/>
		</defs>
		<clipPath id="SVGID_56_">
			<use xlink:href="#SVGID_55_"  style="overflow:visible;"/>
		</clipPath>
		<path style="clip-path:url(#SVGID_56_);fill:#7D9000;" d="M4991.459,80.375l-2.5,1.7c5,7,13.1,11.7,21.6,12.4
			c-2.6-5.2-5.2-10.5-8.9-14.9c-3.8-4.4-8.9-8-14.6-8.7C4987.059,74.476,4988.659,77.976,4991.459,80.375"/>
	</g>
	<g>
		<defs>
			<rect id="SVGID_57_" x="1973" y="-1346.12" width="5222.1" height="3285.4"/>
		</defs>
		<clipPath id="SVGID_58_">
			<use xlink:href="#SVGID_57_"  style="overflow:visible;"/>
		</clipPath>
		
			<path style="clip-path:url(#SVGID_58_);fill:none;stroke:#7D6700;stroke-width:4;stroke-linecap:round;stroke-linejoin:round;stroke-miterlimit:10;" d="
			M5077.859,4.976c-1.3,2.7-2.5,5.4-3.8,8.2"/>
	</g>
	<g>
		<defs>
			<rect id="SVGID_59_" x="1973" y="-1346.12" width="5222.1" height="3285.4"/>
		</defs>
		<clipPath id="SVGID_60_">
			<use xlink:href="#SVGID_59_"  style="overflow:visible;"/>
		</clipPath>
		
			<path style="clip-path:url(#SVGID_60_);fill:none;stroke:#7D6700;stroke-width:4;stroke-linecap:round;stroke-linejoin:round;stroke-miterlimit:10;" d="
			M5073.459,40.076c-2.3,3.2-3.3,7.3-2.8,11.2"/>
	</g>
	<g>
		<defs>
			<rect id="SVGID_61_" x="1973" y="-1346.12" width="5222.1" height="3285.4"/>
		</defs>
		<clipPath id="SVGID_62_">
			<use xlink:href="#SVGID_61_"  style="overflow:visible;"/>
		</clipPath>
		
			<path style="clip-path:url(#SVGID_62_);fill:none;stroke:#7D6700;stroke-width:4;stroke-linecap:round;stroke-linejoin:round;stroke-miterlimit:10;" d="
			M4938.559,56.976c-4.5,1.4-9,2.9-13.5,4.3"/>
	</g>
	<g>
		<defs>
			<rect id="SVGID_63_" x="1973" y="-1346.12" width="5222.1" height="3285.4"/>
		</defs>
		<clipPath id="SVGID_64_">
			<use xlink:href="#SVGID_63_"  style="overflow:visible;"/>
		</clipPath>
		
			<path style="clip-path:url(#SVGID_64_);fill:none;stroke:#7D6700;stroke-width:4;stroke-linecap:round;stroke-linejoin:round;stroke-miterlimit:10;" d="
			M4732.559,376.276c-1.5,4.7-0.4,10.2,2.9,13.9"/>
	</g>
	<g>
		<defs>
			<rect id="SVGID_65_" x="1973" y="-1346.12" width="5222.1" height="3285.4"/>
		</defs>
		<clipPath id="SVGID_66_">
			<use xlink:href="#SVGID_65_"  style="overflow:visible;"/>
		</clipPath>
		
			<path style="clip-path:url(#SVGID_66_);fill:none;stroke:#7D6700;stroke-width:4;stroke-linecap:round;stroke-linejoin:round;stroke-miterlimit:10;" d="
			M4699.059,422.875c1.1,0.9,2.1,1.9,3.2,2.8"/>
	</g>
	<g>
		<defs>
			<rect id="SVGID_67_" x="1973" y="-1346.12" width="5222.1" height="3285.4"/>
		</defs>
		<clipPath id="SVGID_68_">
			<use xlink:href="#SVGID_67_"  style="overflow:visible;"/>
		</clipPath>
		
			<path style="clip-path:url(#SVGID_68_);fill:none;stroke:#7D6700;stroke-width:4;stroke-linecap:round;stroke-linejoin:round;stroke-miterlimit:10;" d="
			M4650.459,489.375c-0.4,1.1-0.8,2.1-1.2,3.2"/>
	</g>
	<g>
		<defs>
			<rect id="SVGID_69_" x="1973" y="-1346.12" width="5222.1" height="3285.4"/>
		</defs>
		<clipPath id="SVGID_70_">
			<use xlink:href="#SVGID_69_"  style="overflow:visible;"/>
		</clipPath>
		
			<path style="clip-path:url(#SVGID_70_);fill:none;stroke:#7D6700;stroke-width:4;stroke-linecap:round;stroke-linejoin:round;stroke-miterlimit:10;" d="
			M4552.559,551.875c1.5,2.3,3,4.6,4.6,6.8"/>
	</g>
	<g>
		<defs>
			<rect id="SVGID_71_" x="1973" y="-1346.12" width="5222.1" height="3285.4"/>
		</defs>
		<clipPath id="SVGID_72_">
			<use xlink:href="#SVGID_71_"  style="overflow:visible;"/>
		</clipPath>
		
			<path style="clip-path:url(#SVGID_72_);fill:none;stroke:#7D6700;stroke-width:4;stroke-linecap:round;stroke-linejoin:round;stroke-miterlimit:10;" d="
			M4579.359,548.976c-1.1,0.2-2.3,0.3-3.4,0.5"/>
	</g>
	<g>
		<defs>
			<rect id="SVGID_73_" x="1973" y="-1346.12" width="5222.1" height="3285.4"/>
		</defs>
		<clipPath id="SVGID_74_">
			<use xlink:href="#SVGID_73_"  style="overflow:visible;"/>
		</clipPath>
		
			<path style="clip-path:url(#SVGID_74_);fill:none;stroke:#7D6700;stroke-width:4;stroke-linecap:round;stroke-linejoin:round;stroke-miterlimit:10;" d="
			M4824.059,14.976c3.3,3.8,8.1,6.4,13.2,7"/>
	</g>
	<g>
		<defs>
			<rect id="SVGID_75_" x="1973" y="-1346.12" width="5222.1" height="3285.4"/>
		</defs>
		<clipPath id="SVGID_76_">
			<use xlink:href="#SVGID_75_"  style="overflow:visible;"/>
		</clipPath>
		
			<path style="clip-path:url(#SVGID_76_);fill:none;stroke:#7D6700;stroke-width:4;stroke-linecap:round;stroke-linejoin:round;stroke-miterlimit:10;" d="
			M4534.559,205.875c1-2.1,2.2-4.1,3.4-6"/>
	</g>
	<g>
		<defs>
			<rect id="SVGID_77_" x="1973" y="-1346.12" width="5222.1" height="3285.4"/>
		</defs>
		<clipPath id="SVGID_78_">
			<use xlink:href="#SVGID_77_"  style="overflow:visible;"/>
		</clipPath>
		
			<path style="clip-path:url(#SVGID_78_);fill:none;stroke:#7D6700;stroke-width:4;stroke-linecap:round;stroke-linejoin:round;stroke-miterlimit:10;" d="
			M4558.659,192.976c-1.3,0-2.5-0.1-3.8-0.2"/>
	</g>
	<g>
		<defs>
			<rect id="SVGID_79_" x="1973" y="-1346.12" width="5222.1" height="3285.4"/>
		</defs>
		<clipPath id="SVGID_80_">
			<use xlink:href="#SVGID_79_"  style="overflow:visible;"/>
		</clipPath>
		
			<path style="clip-path:url(#SVGID_80_);fill:none;stroke:#7D6700;stroke-width:4;stroke-linecap:round;stroke-linejoin:round;stroke-miterlimit:10;" d="
			M4482.759,215.676c0.5,2.2,0.9,4.4,1.4,6.6"/>
	</g>
	<g>
		<defs>
			<rect id="SVGID_81_" x="1973" y="-1346.12" width="5222.1" height="3285.4"/>
		</defs>
		<clipPath id="SVGID_82_">
			<use xlink:href="#SVGID_81_"  style="overflow:visible;"/>
		</clipPath>
		
			<path style="clip-path:url(#SVGID_82_);fill:none;stroke:#7D6700;stroke-width:4;stroke-linecap:round;stroke-linejoin:round;stroke-miterlimit:10;" d="
			M4629.259,37.875c-2.899,0.6-5.399,2.6-6.7,5.2"/>
	</g>
	<g>
		<defs>
			<rect id="SVGID_83_" x="1973" y="-1346.12" width="5222.1" height="3285.4"/>
		</defs>
		<clipPath id="SVGID_84_">
			<use xlink:href="#SVGID_83_"  style="overflow:visible;"/>
		</clipPath>
		
			<path style="clip-path:url(#SVGID_84_);fill:none;stroke:#7D6700;stroke-width:4;stroke-linecap:round;stroke-linejoin:round;stroke-miterlimit:10;" d="
			M5222.059,409.076c-2.8,3-4.4,7.2-4.3,11.3"/>
	</g>
	<g>
		<defs>
			<rect id="SVGID_85_" x="1973" y="-1346.12" width="5222.1" height="3285.4"/>
		</defs>
		<clipPath id="SVGID_86_">
			<use xlink:href="#SVGID_85_"  style="overflow:visible;"/>
		</clipPath>
		
			<path style="clip-path:url(#SVGID_86_);fill:none;stroke:#7D6700;stroke-width:4;stroke-linecap:round;stroke-linejoin:round;stroke-miterlimit:10;" d="
			M5204.759,485.875c-3.7,0.7-7.1,2.2-10.1,4.4"/>
	</g>
	<g>
		<defs>
			<rect id="SVGID_87_" x="1973" y="-1346.12" width="5222.1" height="3285.4"/>
		</defs>
		<clipPath id="SVGID_88_">
			<use xlink:href="#SVGID_87_"  style="overflow:visible;"/>
		</clipPath>
		
			<path style="clip-path:url(#SVGID_88_);fill:none;stroke:#7D6700;stroke-width:4;stroke-linecap:round;stroke-linejoin:round;stroke-miterlimit:10;" d="
			M5172.259,547.476c-4.6-5.2-10-9.8-15.8-13.6"/>
	</g>
	<g>
		<defs>
			<rect id="SVGID_89_" x="1973" y="-1346.12" width="5222.1" height="3285.4"/>
		</defs>
		<clipPath id="SVGID_90_">
			<use xlink:href="#SVGID_89_"  style="overflow:visible;"/>
		</clipPath>
		
			<path style="clip-path:url(#SVGID_90_);fill:none;stroke:#7D6700;stroke-width:4;stroke-linecap:round;stroke-linejoin:round;stroke-miterlimit:10;" d="
			M5110.559,459.875c0.1-1.4,0.1-2.9,0.1-4.3"/>
	</g>
	<g>
		<defs>
			<rect id="SVGID_91_" x="1973" y="-1346.12" width="5222.1" height="3285.4"/>
		</defs>
		<clipPath id="SVGID_92_">
			<use xlink:href="#SVGID_91_"  style="overflow:visible;"/>
		</clipPath>
		
			<path style="clip-path:url(#SVGID_92_);fill:none;stroke:#7D6700;stroke-width:4;stroke-linecap:round;stroke-linejoin:round;stroke-miterlimit:10;" d="
			M4953.859,750.076c2,0.5,4,1.1,6.1,1.6"/>
	</g>
	<g>
		<defs>
			<rect id="SVGID_93_" x="1973" y="-1346.12" width="5222.1" height="3285.4"/>
		</defs>
		<clipPath id="SVGID_94_">
			<use xlink:href="#SVGID_93_"  style="overflow:visible;"/>
		</clipPath>
		
			<path style="clip-path:url(#SVGID_94_);fill:none;stroke:#7D6700;stroke-width:4;stroke-linecap:round;stroke-linejoin:round;stroke-miterlimit:10;" d="
			M4896.359,786.876c-0.4,2.3-0.8,4.6-1.3,6.8"/>
	</g>
	<g>
		<defs>
			<rect id="SVGID_95_" x="1973" y="-1346.12" width="5222.1" height="3285.4"/>
		</defs>
		<clipPath id="SVGID_96_">
			<use xlink:href="#SVGID_95_"  style="overflow:visible;"/>
		</clipPath>
		
			<path style="clip-path:url(#SVGID_96_);fill:none;stroke:#7D6700;stroke-width:4;stroke-linecap:round;stroke-linejoin:round;stroke-miterlimit:10;" d="
			M4586.259,918.876c4.101,0.4,8.101,0.7,12.2,0.8"/>
	</g>
	<g>
		<defs>
			<rect id="SVGID_97_" x="1973" y="-1346.12" width="5222.1" height="3285.4"/>
		</defs>
		<clipPath id="SVGID_98_">
			<use xlink:href="#SVGID_97_"  style="overflow:visible;"/>
		</clipPath>
		
			<path style="clip-path:url(#SVGID_98_);fill:none;stroke:#7D6700;stroke-width:4;stroke-linecap:round;stroke-linejoin:round;stroke-miterlimit:10;" d="
			M4613.659,903.776c0.7-4.6,1.2-9.3,1.399-14"/>
	</g>
	<g>
		<defs>
			<rect id="SVGID_99_" x="1973" y="-1346.12" width="5222.1" height="3285.4"/>
		</defs>
		<clipPath id="SVGID_100_">
			<use xlink:href="#SVGID_99_"  style="overflow:visible;"/>
		</clipPath>
		
			<path style="clip-path:url(#SVGID_100_);fill:none;stroke:#7D6700;stroke-width:4;stroke-linecap:round;stroke-linejoin:round;stroke-miterlimit:10;" d="
			M4525.859,910.476c-3.6,1.5-7.3,3.1-10.9,4.6"/>
	</g>
	<g>
		<defs>
			<rect id="SVGID_101_" x="1973" y="-1346.12" width="5222.1" height="3285.4"/>
		</defs>
		<clipPath id="SVGID_102_">
			<use xlink:href="#SVGID_101_"  style="overflow:visible;"/>
		</clipPath>
		
			<path style="clip-path:url(#SVGID_102_);fill:none;stroke:#7D6700;stroke-width:4;stroke-linecap:round;stroke-linejoin:round;stroke-miterlimit:10;" d="
			M4543.859,899.076c1.6,1.7,3.3,3.3,4.9,5"/>
	</g>
	<g>
		<defs>
			<rect id="SVGID_103_" x="1973" y="-1346.12" width="5222.1" height="3285.4"/>
		</defs>
		<clipPath id="SVGID_104_">
			<use xlink:href="#SVGID_103_"  style="overflow:visible;"/>
		</clipPath>
		
			<path style="clip-path:url(#SVGID_104_);fill:none;stroke:#7D6700;stroke-width:4;stroke-linecap:round;stroke-linejoin:round;stroke-miterlimit:10;" d="
			M4513.559,859.376c-2,2.7-3.9,5.4-5.9,8.2"/>
	</g>
	<g>
		<defs>
			<rect id="SVGID_105_" x="1973" y="-1346.12" width="5222.1" height="3285.4"/>
		</defs>
		<clipPath id="SVGID_106_">
			<use xlink:href="#SVGID_105_"  style="overflow:visible;"/>
		</clipPath>
		
			<path style="clip-path:url(#SVGID_106_);fill:none;stroke:#7D6700;stroke-width:4;stroke-linecap:round;stroke-linejoin:round;stroke-miterlimit:10;" d="
			M4466.259,878.876c-0.399,4.8,1.2,9.8,4.3,13.5"/>
	</g>
	<g>
		<defs>
			<rect id="SVGID_107_" x="1973" y="-1346.12" width="5222.1" height="3285.4"/>
		</defs>
		<clipPath id="SVGID_108_">
			<use xlink:href="#SVGID_107_"  style="overflow:visible;"/>
		</clipPath>
		
			<path style="clip-path:url(#SVGID_108_);fill:none;stroke:#7D6700;stroke-width:4;stroke-linecap:round;stroke-linejoin:round;stroke-miterlimit:10;" d="
			M4443.659,908.776c-1.2-0.2-2.5-0.2-3.7-0.2"/>
	</g>
</g>
</svg>
