<?xml version="1.0" encoding="iso-8859-1"?>
<!-- Generator: Adobe Illustrator 19.0.0, SVG Export Plug-In . SVG Version: 6.00 Build 0)  -->
<svg version="1.1" id="Layer_1" xmlns="http://www.w3.org/2000/svg" xmlns:xlink="http://www.w3.org/1999/xlink" x="0px" y="0px"
	 viewBox="3240.037 -878.914 637.037 429.63" style="enable-background:new 3240.037 -878.914 637.037 429.63;"
	 xml:space="preserve">
<g>
	<g>
		<defs>
			<rect id="SVGID_1_" x="1973" y="-1346.12" width="5222.1" height="3285.4"/>
		</defs>
		<clipPath id="SVGID_2_">
			<use xlink:href="#SVGID_1_"  style="overflow:visible;"/>
		</clipPath>
		<path style="clip-path:url(#SVGID_2_);fill:#F09C4C;" d="M3448.659-744.325c0.8,0.2,1.4,0.7,2.1,1
			C3451.359-743.325,3451.359-743.724,3448.659-744.325"/>
	</g>
	<g>
		<defs>
			<rect id="SVGID_3_" x="1973" y="-1346.12" width="5222.1" height="3285.4"/>
		</defs>
		<clipPath id="SVGID_4_">
			<use xlink:href="#SVGID_3_"  style="overflow:visible;"/>
		</clipPath>
		<path style="clip-path:url(#SVGID_4_);fill:#F09C4C;" d="M3466.259-694.224c-0.9-0.3-1.8-0.8-2.8-1s-2,0.1-2.9,0
			c-1-0.1-2-0.6-2.9-0.5c-0.4,0-4.3,1.7-4.5,1.6c-1.1-0.6-1.2-2-0.8-3.3c0.3-1,0.9-2.1,1.5-3.1c0.7-1.2,1.3-2.3,1.6-3
			c0.4-1,0.8-2,1.2-3s1.1-1.9,1.4-2.9s0.5-2.1,0.8-3.1s0.9-2,1.2-3.1c0.2-1.1-0.1-2.2,0-3.3c0.2-1,0.4-2,0.6-3.1
			c0.1-1,0.4-2.1,0.5-3.2c0.1-1.1,0.5-2.1,0.5-3.2c0-1.1-0.2-2.2-0.3-3.2c-0.2-1.1-0.4-2.2-0.7-3.2c-0.3-1-1.2-1.8-1.8-2.7
			s-1.1-1.8-1.9-2.6c-0.7-0.7-1.7-1.2-2.6-1.8c-0.9-0.5-1.8-1-2.9-1.4c-0.7-0.5-3-0.4-2.8-0.4c-1.2,0-2.2,0.1-3.2,0.2
			c-1.2,0.1-2.3-0.2-3.2,0.2c-1,0.4-1.7,1.1-2.5,1.9c-0.7,0.6-1.5,1.3-2.3,2.3c-0.7,0.9-1.3,1.9-1.9,2.9c-0.6,1-0.9,2.1-1.4,3.1
			c-0.6,1-1.4,1.8-1.9,2.9c-0.5,1-1.2,2-1.6,3.1c-0.5,1.1-0.5,2.3-0.9,3.3c-0.4,1-0.5,2.1-0.8,3.1c-0.4,1-1.1,1.8-1.5,2.8
			c-0.3,1-0.1,2.2-0.4,3.2s-0.6,2-0.8,3c-0.3,1-1.2,1.9-1.5,2.9c-0.2,1-0.1,2.1-0.3,3.2c-0.2,1-0.3,2.1-0.5,3.1s-0.4,2.1-0.6,3.1
			s-0.2,2.1-0.4,3.1c-0.2,1-0.4,2.1-0.6,3.1s-0.5,2.1-0.6,3.1c-0.1,1-0.1,2-0.1,3.1c-0.1,1-0.5,2-0.5,3v3.1c0.1,1,0.2,2.1,0.4,3.1
			s0.8,1.9,1.1,2.9s0.6,2,1,2.9c0.5,0.9,1.2,1.6,1.8,2.5c0.6,0.8,0.9,1.9,1.6,2.7c0.7,0.7,1.9,0.8,2.8,1.4c0.8,0.6,1.4,1.5,2.3,2.1
			c0.9,0.5,1.9,1,2.9,1.4s2,0.9,3,1.2s2.2-0.1,3.3,0c1.1,0.1,2.1,0.1,3.2,0.2c1.1,0,2.1,0.5,3.2,0.4c1.1-0.1,2.1-0.7,3.1-0.8
			c1.1-0.1,2.2-0.1,3.2-0.3c1.1-0.2,2.2-0.1,3.2-0.3c1.1-0.3,2-0.8,3-1.1c1.1-0.3,2.2-0.4,3.1-0.7c1-0.3,1.9-1,2.8-1.5
			c1-0.4,1.8-1.1,2.7-1.6c0.9-0.6,1.9-1,2.7-1.7s1.8-1.2,2.5-2s0.7-2.1,1.3-3c0.5-0.9,1.3-1.7,1.6-2.7c0.3-1,0.2-2,0.2-3.1
			c0-1,0-2-0.2-3.1c-0.2-1-0.6-1.9-1-2.9c-0.5-1.2-0.3-2.6-0.8-3.5c-0.7-1-1.7-1.7-2.6-2.5c-0.8-0.8-1.7-1.6-2.8-2.1
			C3468.659-693.724,3467.459-693.824,3466.259-694.224"/>
	</g>
	<g>
		<defs>
			<rect id="SVGID_5_" x="1973" y="-1346.12" width="5222.1" height="3285.4"/>
		</defs>
		<clipPath id="SVGID_6_">
			<use xlink:href="#SVGID_5_"  style="overflow:visible;"/>
		</clipPath>
		<path style="clip-path:url(#SVGID_6_);fill:#F09C4C;" d="M3648.059-721.424l-0.3,0.1c-0.5-0.9-0.5-2.1-1.1-3
			c-0.6-0.8-1.3-1.6-2-2.4c-0.7-0.8-1.5-1.4-2.3-2.1c-0.7-0.7-1.4-1.5-2.2-2.2s-1.8-1-2.7-1.6c-0.8-0.6-1.7-1.2-2.5-1.8
			c-0.9-0.5-1.9-0.8-2.8-1.2c-0.9-0.5-1.8-0.9-2.8-1.3c-1-0.4-1.8-1-2.8-1.4c-1-0.3-2.1-0.3-3.1-0.6s-2-0.7-3-0.8
			c-1-0.2-2.1-0.2-3.1-0.3c-1.1-0.1-2.1-0.2-3.1-0.1c-1.1,0.1-2.1-0.1-3.1,0.1s-1.9,1.1-2.8,1.4c-1,0.4-2,0.5-2.9,1.1
			c-0.9,0.6-1.4,1.5-2.1,2.3c-0.6,0.7-1.3,1.5-1.8,2.3s-0.7,1.8-1.1,2.7c-0.4,0.9-1.2,1.7-1.4,2.6c-0.3,0.9,0,2-0.2,3
			s-0.3,1.9-0.5,2.9c-0.1,1-0.4,1.9-0.5,2.9c-0.1,1-0.5,2-0.5,3s0.1,2,0.2,3c0,1-0.2,2-0.1,3c0.1,1,0.3,2.1,0.4,3.2
			c0.1,1,0.4,2.1,0.5,3.2c0.1,1.1-0.5,2.2-0.4,3.2c0.1,1.1,0.5,2.1,0.6,3.1c0.1,1,0,2.1,0.2,3.2c0.2,1,0.4,2.1,0.6,3.1s0.7,2,1,3.1
			c0.3,1,0.3,2.1,0.6,3.1c0.3,1,0.9,1.9,1.3,2.9c0.4,1,0.8,1.9,1.3,2.9c0.4,1,0.7,2,1.2,2.9s1,1.9,1.5,2.7c0.6,0.9,1.4,1.6,2.1,2.4
			c0.7,0.8,1.1,1.9,1.8,2.6c0.7,0.8,1.4,1.6,2.2,2.3s2,0.8,2.9,1.4c0.9,0.6,1.7,1.2,2.6,1.7c1,0.5,1.9,1,2.8,1.3
			c1,0.3,2.1,0.5,3.1,0.7s2.1,0,3.1,0.1c1,0,2.1,0.1,3.1-0.1c1-0.1,2.1-0.3,3.1-0.6s2-0.7,3-1.1c0.9-0.5,1.6-1.4,2.4-2
			s1.5-1.3,2.3-2.1c0.7-0.7,1.8-1.2,2.4-2c0.6-0.8,0.7-1.9,1.2-2.8c0.5-0.9,1.2-1.6,1.6-2.5c0.4-0.9,0.8-1.8,1.2-2.7
			c0.4-0.9,0.8-1.8,1.1-2.8c0.3-0.9,0.2-2,0.5-3c0.2-1,0.2-2,0.4-3s0.5-1.9,0.6-2.9c0.2-1,0.7-1.9,0.8-2.9s0.3-2,0.4-3
			c0.1-1,0-2.1,0.1-3.1c0.1-1,0.4-2,0.5-3.1c0.1-1-0.1-2.1-0.1-3.1s0.1-2.1,0.1-3.1s0-2.1-0.1-3.1c-0.1-1-0.1-2.1-0.3-3.1
			c-0.2-1-0.6-2-0.9-3s-1-1.8-1.4-2.8C3648.659-719.325,3648.559-720.424,3648.059-721.424 M3628.259-698.325c-1.1,0-2.2-0.3-2.9-1
			c-0.7-0.8-0.7-2-0.7-3c-0.1-1.1,0-1.9,0.8-2.6c1.1-1.1,1.8-0.9,2.4,0.1c0.5,0.8,0.6,1.9,0.7,3c0.1,1.2,0.4,2.4,0.1,3.2
			C3628.759-698.724,3628.659-698.825,3628.259-698.325"/>
	</g>
	<g>
		<defs>
			<rect id="SVGID_7_" x="1973" y="-1346.12" width="5222.1" height="3285.4"/>
		</defs>
		<clipPath id="SVGID_8_">
			<use xlink:href="#SVGID_7_"  style="overflow:visible;"/>
		</clipPath>
		<path style="clip-path:url(#SVGID_8_);fill:#F09C4C;" d="M3536.859-704.924c0.8,3.9,0.3-1,0.3,0
			C3537.159-704.824,3536.859-704.924,3536.859-704.924"/>
	</g>
	<g>
		<defs>
			<rect id="SVGID_9_" x="1973" y="-1346.12" width="5222.1" height="3285.4"/>
		</defs>
		<clipPath id="SVGID_10_">
			<use xlink:href="#SVGID_9_"  style="overflow:visible;"/>
		</clipPath>
		<path style="clip-path:url(#SVGID_10_);fill:#F09C4C;" d="M3536.559-704.824c0-1,0.5-2.2,0.3-3.3c-0.1-1-0.3-2.1-0.5-3.2
			c-0.2-1-0.4-2.1-0.6-3.2c-0.3-1-1.1-1.9-1.5-2.9c-0.3-1,0-2.3-0.4-3.3c-0.4-1-1.1-1.9-1.6-2.9s-0.9-2-1.4-2.9s-1.4-1.7-2-2.6
			c-0.6-0.9-1.4-1.7-2-2.5c-0.6-0.9-0.8-2.1-1.5-2.9c-0.7-0.8-1.7-1.4-2.5-2.1c-0.8-0.8-1.3-1.8-2.1-2.4c-0.8-0.7-2-1-2.9-1.6
			c-0.9-0.6-1.5-1.6-2.5-2.1s-2.1-0.5-3.1-0.9s-1.9-1-3-1.2c-1-0.2-2.1-0.5-3.2-0.6c-1.1-0.1-2.1,0.4-3.2,0.6
			c-1.1,0.1-2.4-0.2-3.4,0.2s-1.8,1.4-2.7,2.1c-0.9,0.7-1.9,1.3-2.6,2.1s-1.2,1.9-1.8,2.8c-0.6,0.9-1.5,1.7-2.1,2.7
			c-0.5,1-0.9,2.1-1.3,3c-0.5,1-0.7,2.2-1.1,3.1c-0.4,1-0.6,2-1,3.1c-0.4,1-1,1.9-1.3,3c-0.3,1-0.6,2.1-0.9,3.1s-0.1,2.2-0.4,3.3
			c-0.3,1-1,2-1.2,3.1s-0.6,2.1-0.7,3.2c-0.2,1.1,0.2,2.2,0.1,3.3c-0.1,1.1-0.4,2.1-0.5,3.2c-0.1,1.1-0.2,2.2-0.3,3.2
			c0,1-0.6,2-0.6,3.1c-0.1,1,0.6,2.1,0.5,3.1c-0.1,1-0.3,2-0.3,3.1c-0.1,1-0.7,2-0.7,3.1c0,1,0.3,2.1,0.3,3.1s0.4,2,0.5,3.1
			c0.1,1-0.6,2.2-0.4,3.2s1.1,1.9,1.4,2.9s0.1,2.1,0.5,3.1c0.4,1,1.4,1.699,2,2.6c0.6,0.9,1.4,1.599,2.1,2.4
			c0.8,0.8,1.4,1.6,2.3,2.199c0.9,0.601,1.9,1,2.8,1.401c1,0.4,1.9,1,3,1.099c1.1,0.101,2.2,0.401,3.2,0.2c1-0.3,2.2-0.7,3-1.399
			c0.7-0.7,1.2-1.801,1.7-2.901c0.4-0.8,0.6-1.9,0.7-3.099c0.1-1,0.2-2,0.3-3.101c0.1-1,0.2-2.099,0.3-3.099
			c0.1-1.101,0-2.101,0.1-3.101c0.1-1.099-0.2-2.199,0-3.199c0.2-1.1,1.3-1.9,1.8-2.7c0.6-1,1-2.1,2.1-2.3
			c1.2-0.2,2.3,0.199,3.1,0.8c0.8,0.5,1.1,1.6,1.6,2.6c0.4,0.9,1,1.8,1.2,2.8s0.6,2,0.7,3c0.1,1-0.3,2.1-0.3,3.1
			c0.1,1.1-0.1,2.1-0.1,3.1c0.1,1.2,0.4,2.3,0.5,3c0.2,1,0.3,2.1,0.7,3c0.4,1,1.2,1.7,1.7,2.6c0.5,0.9,1.2,1.6,1.9,2.3
			c0.7,0.8,1.2,1.7,2,2.3c0.9,0.6,1.7,1.3,2.6,1.7c1,0.4,2.1,0.2,3.1,0.3c1,0.2,2,0.7,3,0.5s1.9-0.6,2.8-1.2c0.8-0.5,1.4-1.3,2-2.2
			c0.5-0.8,1-1.6,1.3-2.7c0.3-0.9,1-1.9,1.1-2.9c0.1-1-0.4-2.1-0.4-3.1c0.1-1,0-2,0-3s0.2-2,0.1-3c0-1,0.3-2,0.2-3.1
			c0-1-0.6-2-0.6-3s0.6-2.1,0.7-3c0-1-0.5-2-0.5-3c0.1-1,0.3-2,0.4-3c0.1-1-0.1-2,0-3c0.1-1,0.2-2,0.2-3s0.6-2,0.6-3s-0.6-2-0.7-3
			C3537.259-702.924,3536.859-703.924,3536.559-704.824 M3510.459-706.025c-0.8,2-2,1.6-2.8,0.8s-1.4-2.3-1.6-3.1
			c-0.2-0.9,0-1.9,0.2-3c0.2-1,0-2.2,0.4-3.2c0.5-1.1,1.5-1.6,2-2.2c0.5,0.3,0.6,0.9,1,2.2c0.2,0.8,0.4,1.8,0.5,2.8
			c0.2,1,0.6,1.9,0.7,2.8c0,1.4-0.5,2.2-0.9,2.5C3510.559-706.924,3510.059-704.924,3510.459-706.025"/>
	</g>
	<g>
		<defs>
			<rect id="SVGID_11_" x="1973" y="-1346.12" width="5222.1" height="3285.4"/>
		</defs>
		<clipPath id="SVGID_12_">
			<use xlink:href="#SVGID_11_"  style="overflow:visible;"/>
		</clipPath>
		<path style="clip-path:url(#SVGID_12_);fill:#F09C4C;" d="M3574.659-709.424c-0.6-0.9,0.2-2.4,1.5-3.4c0.9-0.7,2.4-0.6,3.5-1.2
			c1.4-0.7,2.6-1.6,3-1.9c0.8-0.6,1.5-1.3,2.2-2c0.8-0.7,1.3-1.4,1.9-2.2c0.6-0.8,1-1.6,1.5-2.5c0.4-0.9,0.9-1.7,1.1-2.7
			c0.2-0.9,0.2-1.9,0.1-2.9c0-1.1,0-2.2-0.3-3.2s-1.1-1.9-1.7-2.8c-0.6-0.9-0.9-2.1-1.7-2.9c-0.8-0.7-2.1-0.9-3-1.5
			c-0.9-0.6-1.7-1.3-2.7-1.8s-1.8-1.3-2.9-1.7c-1-0.4-2.2-0.6-3.2-0.8c-1.1-0.2-2.2-0.2-3.3-0.3c-1.2-0.1-2.3-0.4-3.3-0.3
			c-1.1,0.1-2.2,0.6-3.3,0.8c-1.1,0.3-2.2,0.4-3.2,0.8c-1,0.4-2.1,0.8-3.1,1.3c-1,0.6-1.6,1.6-2.5,2.3c-0.9,0.7-1.5,1.6-2.3,2.4
			c-0.8,0.8-1.6,1.5-2.3,2.4c-0.7,0.9-1.7,1.5-2.3,2.5c-0.6,0.9-0.4,2.3-0.9,3.3s-1.2,1.8-1.7,2.8c-0.4,0.9-0.7,1.9-1.1,2.9
			c-0.3,1-1.1,1.8-1.4,2.8s-0.4,2.1-0.6,3.1s-0.7,2-0.9,3s0.1,2.1,0,3.2c-0.1,1-0.3,2.1-0.4,3.1c-0.1,1-0.1,2.1-0.1,3.1
			s-0.5,2.1-0.4,3.2c0,1,0.1,2.1,0.2,3.2c0.1,1,0.4,2.1,0.5,3.1c0.1,1,0.6,2,0.8,3.1c0.2,1,0.4,2.1,0.6,3.1c0.3,1,0.3,2.1,0.6,3.1
			c0.3,1,1.1,1.8,1.5,2.8c0.4,1,0.6,2,1.1,2.9s0.9,1.9,1.5,2.8c0.5,0.9,0.9,1.9,1.5,2.8c0.6,0.8,1.6,1.4,2.3,2.2
			c0.7,0.8,1.6,1.3,2.4,2.1c0.7,0.7,1.3,1.6,2.1,2.3c0.8,0.6,1.5,1.4,2.4,2c0.9,0.6,1.8,1,2.8,1.5c0.9,0.5,2,0.4,2.9,0.8
			c0.9,0.4,1.8,0.9,2.7,1.1c1,0.3,1.9,0.6,2.9,0.8s2,0.3,2.9,0.3c1,0,2-0.2,3-0.3s2,0.1,3-0.1s2-0.3,2.9-0.6c1-0.3,1.9-0.6,2.8-1
			c1-0.4,1.8-1.1,2.5-1.8c0.8-0.7,1.3-1.5,1.9-2.4c0.5-0.8,1.3-1.6,1.6-2.6c0.3-0.9,0.5-2,0.7-3s0.3-2,0.4-3c0.1-1,0.1-2,0.2-3
			c0.1-1,0.4-2,0.5-3c0.1-1-0.3-2.1-0.3-3.1c-0.1,0.7,0.6-2,0.6,0c0-1-0.3-2-0.3-3.2c0-1-0.2-2.1-0.3-3.1c0-1,0.3-2.1,0.2-3.2
			c-0.1-1-0.6-2-0.8-3.1c-0.3-1-0.6-2-1.1-3c-0.4-0.9-0.6-2.1-1.2-3c-0.6-0.8-1.9-1-2.9-1.5c-0.9-0.5-1.6-1.4-2.7-1.8
			c-1-0.4-2-0.7-3-1c-1.1-0.4-2.2-0.4-3.1-0.8C3576.159-708.124,3575.059-708.724,3574.659-709.424 M3572.959-681.825
			c0.4,1.5-1.9,2.4-3.1,1.2c-0.6-0.6-0.7-1.9-1.3-2.6s-1.4-1.3-2-2c-0.6-0.8-1.3-1.5-1.7-2.2c-0.7-1.2-1.1-2.5-0.7-2.9
			c0.5-0.5,2.2-0.2,3.6,0.4c1.3,0.6,2.4,1.6,2.8,2c0.4,0.4,1,1.6,1.4,3C3572.359-684.025,3572.759-682.825,3572.959-681.825"/>
	</g>
	<g>
		<defs>
			<rect id="SVGID_13_" x="1973" y="-1346.12" width="5222.1" height="3285.4"/>
		</defs>
		<clipPath id="SVGID_14_">
			<use xlink:href="#SVGID_13_"  style="overflow:visible;"/>
		</clipPath>
		<path style="clip-path:url(#SVGID_14_);fill:#8ED4DB;" d="M3407.959-696.325c-0.6-1.1-1.6-1.7-2.7-2.2c-1.1-0.5-2.3-0.8-3.4-1.3
			c-1.2-0.5-1.8-1.4-2.2-2.5c-0.3-1.2,1.2-2.8,1.5-3.7c0.4-0.9,0.5-1.9,0.8-2.9c0.2-0.9,0.2-1.9,0.2-2.9c0.1-1.2,0.1-2.3-0.1-3.3
			c-0.3-1.1-0.5-2.3-1.4-3.1c-0.7-0.7-1.9-0.9-3.1-1.3c-1.2-0.4-2.1-0.5-2.9-0.2c-0.8,0.4-1.6,1.1-2.1,2.1c-0.5,0.8-1.1,1.7-1.4,2.7
			c-0.3,0.9-0.2,2-0.5,3c-0.3,0.9-0.3,1.9-0.5,2.9c-0.2,0.9-0.8,1.8-0.9,2.8c-0.2,1-0.5,1.9-0.7,2.9c-0.1,1-0.1,2-0.2,3
			c-0.1,0.9,0.4,1.8,0.5,2.7c0,0.9,0,1.8,0.3,2.6s0.6,1.6,1.4,2.2c0.6,0.5,1.3,1,2.3,1.3s2.3,0.4,3.5,0.5s2.4,0.5,3.6,0.6
			c1.3,0,2.6,0.3,3.6,0.2c1,0,2.2-0.2,3.1-0.7c1-0.5,1.7-1.5,2-2.5C3409.059-694.124,3408.759-695.124,3407.959-696.325"/>
	</g>
	<g>
		<defs>
			<rect id="SVGID_15_" x="1973" y="-1346.12" width="5222.1" height="3285.4"/>
		</defs>
		<clipPath id="SVGID_16_">
			<use xlink:href="#SVGID_15_"  style="overflow:visible;"/>
		</clipPath>
		<path style="clip-path:url(#SVGID_16_);fill:#8ED4DB;" d="M3387.359-713.424c-0.5-1-1.2-1.7-2-2.4s-1.3-2-2.2-2.5
			c-1-0.5-2.1-0.6-3.2-1c-0.1,0-1.5-0.3-2.5-0.7s-1.8-0.3-2.7-0.2c-1.4,0.1-2.2,0.2-3.6,1.5c-0.8,0.7-1.3,1.7-1.6,3
			c-0.3,1.2-0.4,2.6-0.7,3.6c-0.3,0.9-0.7,1.8-1,2.8c-0.2,1-0.1,2-0.3,3c-0.2,1-0.8,1.9-0.9,2.9c-0.1,1,0.6,2,0.7,3
			c0.1,1,0,1.9,0.2,2.9c0.2,1.2,0.3,2.4,1,3.2c0.7,0.9,1.7,1.5,2.7,2c1,0.4,2.1,0.5,3.2,0.7c1.1,0.1,2.2,0.4,3.3,0.3
			c1.2-0.1,2.2-0.6,3.2-1c1.3-0.4,2.4-1,2.9-1.8c0.7-1,0.9-2.3,0.4-3.4c-0.4-0.9-1.5-1.5-2.6-2.2c-0.8-0.6-1.8-1.4-3-1.8
			c1.4,0.3,2.3,0.7,2.9,0.6c1.4-0.1,1.9-0.6,2.5-1.5c0.6-1-0.2-2-0.6-2.9c-0.4-0.8-0.8-1.7-1.6-2.3c-0.8-0.7-1.5-1.5-2.4-2
			c0.9,0.4,2,1.2,3.1,1.4c1.1,0.2,2.3,0,3.3-0.3c1.2-0.3,2.5-0.9,2.8-1.9C3388.759-711.124,3388.059-712.124,3387.359-713.424"/>
	</g>
	<g>
		<defs>
			<rect id="SVGID_17_" x="1973" y="-1346.12" width="5222.1" height="3285.4"/>
		</defs>
		<clipPath id="SVGID_18_">
			<use xlink:href="#SVGID_17_"  style="overflow:visible;"/>
		</clipPath>
		<path style="clip-path:url(#SVGID_18_);fill:#8ED4DB;" d="M3360.359-720.124c-0.7-0.5-1.5-1.3-2.4-1.8c-0.9-0.5-1.8-1-2.7-1.4
			c-1-0.4-2-0.7-2.9-0.9c-1.2-0.3-2.4-0.4-3.1-0.2c-1.1,0.3-1.8,1.5-2.1,2.6c-0.2,1,0.4,2.2,0.4,3.3c0,1.2-0.1,2.4-0.1,3.2
			c-0.1,0.9-0.2,1.8-0.2,2.7c-0.1,0.9-0.4,1.8-0.4,2.7s0.5,1.8,0.5,2.7c0,1.1-0.5,2.2-0.4,3.3c0.1,1.1,0.5,2.1,0.6,3.2
			c0.1,1.1,0,2.1,0.1,3.2c0.1,0.8,0.5,1.6,1,2.3c0.4,0.6,1,1.2,1.8,1.7s1.7,0.3,2.6,0.3c0.9,0,1.8,0,2.6-0.2
			c1.2-0.2,2.4-0.3,3.3-0.8c1.1-0.5,1.8-1.4,2.6-2.2c0.8-0.8,1.5-1.7,2-2.7c0.4-1,0.8-2.1,1-3.2c0.2-1.1,0.1-2.2,0.2-3.4
			c0.1-1.1,0-2.2,0-3.4c0-1,0.1-2,0-3c-0.1-1,0-2.1-0.4-3c-0.3-0.9-0.6-2-1.1-2.9
			C3362.159-718.924,3361.159-719.524,3360.359-720.124 M3356.659-706.224c0,0-0.2-0.1-0.3,0H3356.659z M3356.559-706.224l-0.1-0.1
			v-0.1v0.1l0.4,0.4c0,0-0.5-0.4-0.4-0.5c-0.7,0.7-1.2-0.1-1.3-1.3c-0.1-1.1,0.2-2.5,0.4-2.8c0.9,0.2,1.5,1.1,1.7,1.9
			C3357.259-707.724,3356.959-706.724,3356.559-706.224"/>
	</g>
	<g>
		<defs>
			<rect id="SVGID_19_" x="1973" y="-1346.12" width="5222.1" height="3285.4"/>
		</defs>
		<clipPath id="SVGID_20_">
			<use xlink:href="#SVGID_19_"  style="overflow:visible;"/>
		</clipPath>
		<path style="clip-path:url(#SVGID_20_);fill:#EF87B6;" d="M3788.059-642.124c0,0.2-0.1,0.3,0,0.5l-0.3,0.1
			C3787.659-641.724,3788.059-642.024,3788.059-642.124"/>
	</g>
	<g>
		<defs>
			<rect id="SVGID_21_" x="1973" y="-1346.12" width="5222.1" height="3285.4"/>
		</defs>
		<clipPath id="SVGID_22_">
			<use xlink:href="#SVGID_21_"  style="overflow:visible;"/>
		</clipPath>
		<path style="clip-path:url(#SVGID_22_);fill:#EF87B6;" d="M3788.059-641.525c0-0.1,0.1-0.1,0.1-0.2l-0.6,0.2H3788.059z"/>
	</g>
	<g>
		<defs>
			<rect id="SVGID_23_" x="1973" y="-1346.12" width="5222.1" height="3285.4"/>
		</defs>
		<clipPath id="SVGID_24_">
			<use xlink:href="#SVGID_23_"  style="overflow:visible;"/>
		</clipPath>
		<path style="clip-path:url(#SVGID_24_);fill:#EF87B6;" d="M3787.859-641.624l-0.1,0.2l0.1,0.1
			C3787.959-641.324,3787.859-641.624,3787.859-641.624"/>
	</g>
	<g>
		<defs>
			<rect id="SVGID_25_" x="1973" y="-1346.12" width="5222.1" height="3285.4"/>
		</defs>
		<clipPath id="SVGID_26_">
			<use xlink:href="#SVGID_25_"  style="overflow:visible;"/>
		</clipPath>
		<path style="clip-path:url(#SVGID_26_);fill:#EF87B6;" d="M3787.559-641.525l0.2-0.1l0.4-0.1c-0.3-1.1-0.7-2.1-1.1-3.1
			c-0.4-1-1.2-1.9-1.7-2.8c-0.5-1-0.9-2-1.5-2.8c-0.6-0.9-1.3-1.7-2-2.5s-1.1-1.9-1.9-2.6c-0.8-0.7-1.9-1.1-2.8-1.7
			c-0.9-0.6-1.6-1.6-2.6-2c-1-0.5-2.1-0.5-3.2-0.8c-1.1-0.3-2.2-0.2-3.2-0.3c-1.1-0.1-2.1-1-3.2-0.9c-1.1,0.1-2.2,0.4-3.2,0.6
			c-1.1,0.2-1.9,1.2-2.8,1.7c-1,0.4-1.9,0.9-2.8,1.5c-0.9,0.6-1.8,1.1-2.6,1.9c-0.7,0.8-1.5,1.5-2.1,2.5c-0.5,0.9-0.9,1.9-1.3,3
			c-0.4,1-0.9,2-1.3,3c-0.3,1-0.3,2.2-0.6,3.2s-0.8,2-1.1,3.1c-0.3,1.1-0.4,2.2-0.6,3.2c-0.3,1.1-0.4,2.1-0.6,3.2
			c-0.2,1.1-0.4,2.1-0.6,3.2c-0.2,1.1-0.7,2.1-0.9,3.2c-0.2,1.1-0.1,2.2-0.3,3.3s-1.2,2-1.4,3c-0.2,1,0.3,2.2,0.1,3.2
			s-0.9,1.9-1.1,2.9s-0.5,2-0.7,3s0.1,2.1-0.1,3.1s-0.8,2-0.9,3c-0.1,1,0.2,2.1,0.1,3.1c-0.1,1-0.4,2-0.5,3.1c0,1,0.3,2.1,0.4,3.1
			c0,1-0.7,2.1-0.7,3.1c0.1,1,0.9,2,1,3c0.1,1-0.2,2.2,0,3.3c0.3,1,0.6,2.1,1,3.2c0.4,1,0.8,2.1,1.2,3.1c0.5,1,0.8,2.1,1.4,3
			c0.6,1,1.1,1.9,1.8,2.8c0.7,0.9,1.8,1.4,2.5,2.2c0.8,0.8,1.6,1.5,2.5,2.2c0.9,0.7,1.5,1.7,2.4,2.3c1,0.5,2.1,0.8,3.1,1.1
			c1.1,0.4,2.2,0.4,3.3,0.6s2.2,0.2,3.3,0.099c1.1-0.099,2.2-0.399,3.2-0.699c1.1-0.301,2.2-0.5,3.2-1s2.1-0.801,3.1-1.4
			c0.9-0.6,1.5-1.7,2.4-2.401c0.9-0.699,1.7-1.399,2.5-2.099c0.8-0.8,1.7-1.5,2.4-2.3c0.7-0.8,1.7-1.3,2.3-2.2
			c0.6-0.901,1.1-1.8,1.6-2.8c0.5-0.901,0.5-2.101,0.9-3.101c0.4-1,1.3-1.8,1.5-2.8c0.3-1,0.3-2.099,0.5-3.099s0-2.101,0.1-3.2
			c0.1-1,0.3-2.1,0.4-3.1c0.1-1,0.9-2,1-3.1c0.1-1-0.3-2.1-0.2-3.2c0-1-0.2-2-0.2-3s0.3-2,0.3-3s-0.1-2-0.1-3s0.5-2,0.5-3
			s-0.6-2-0.6-3s0.1-2,0.1-3c0-1.1,0.4-2.2,0.5-3.3c0.1-1.1,0.1-2.2,0.2-3.3c0.1-1.1,0.2-2.2,0.2-3.401c0.1-1.099-0.3-2.3-0.3-3.399
			c0-1.101,0-2.2-0.1-3.3C3788.059-639.424,3787.859-640.525,3787.559-641.525 M3762.459-603.825c-0.3,2-0.7,1.7-1.2,0.9
			c-0.6-0.9-0.7-2.5-1-2.6c0-0.4,0.1-1.4,0.4-3c0.2-0.9,0-2.1,0.2-3.2c0.2-1,0.6-2.1,0.8-3.1c0.3-1.1,0.4-2.2,0.7-3.1
			c0.3-1.1,1.1-2,1.5-2.9c0.6-1.6,1.2-2.8,1.7-2.6c0.5,0.3,0.5,1.5,0.7,3c0.1,0.9,0.5,1.9,0.5,3c0,1,0.4,2,0.4,3.1c0,1-0.9,2-1,3
			c-0.1,1.1,0,2.1-0.2,3c-0.2,1.5-0.5,2.4-0.8,2.7c0.4-0.4-0.1,2-1,3.2C3763.459-601.624,3762.159-601.424,3762.459-603.825"/>
	</g>
	<g>
		<defs>
			<rect id="SVGID_27_" x="1973" y="-1346.12" width="5222.1" height="3285.4"/>
		</defs>
		<clipPath id="SVGID_28_">
			<use xlink:href="#SVGID_27_"  style="overflow:visible;"/>
		</clipPath>
		<path style="clip-path:url(#SVGID_28_);fill:#EF87B6;" d="M3576.259-627.124c-0.1-1,0.2-2,0.1-3c0-1,0.4-2,0.4-3s-0.2-2-0.3-3
			s-0.6-2-0.8-2.9c-0.2-1-0.3-2-0.5-2.9c-0.3-1-0.7-1.8-1.1-2.8c-0.4-0.9-0.5-2-1.1-2.8c-0.6-0.8-1.5-1.3-2.3-2
			c-0.7-0.6-1.3-1.6-2.2-2.1c-1.3-0.4-1.1-0.1-3.2-1.2c-1.1-0.3-2.2-0.1-3.2-0.2c-1.2-0.1-2.3-0.9-3.2-0.6c-1.8,0.5-2.8,1.6-3.9,2.9
			c-0.7,0.8-0.8,2.2-1.4,3.2c-0.6,1-1.1,2-1.6,3.1c-0.4,1.1-1.1,2.1-1.4,3.2c-0.4,1.1-0.8,2.2-1.1,3.3c-0.2,0.8-0.2,2-0.3,3
			c-0.1,1.1-0.4,2.1-0.9,2.8c-0.5,0.8-1.2,1.3-2.6,0.6c-0.7-0.4-1.4-1.4-2.2-2.5c-0.6-0.8-1.4-1.7-1.9-2.7c-0.6-1-1.2-2-1.7-2.9
			c-0.6-1.3-1.2-2.3-1.5-2.9c-0.5-0.9-0.8-2-1.3-2.9s-1.4-1.6-2.1-2.4c-0.6-0.9-0.7-2.2-1.4-3c-0.7-0.8-2-1-2.8-1.6
			c-0.9-0.7-1.6-1.6-2.5-1.9c-1-0.4-2.1-0.6-3.2-0.5c-1,0.1-1.8,0.8-2.9,1.3c-1,0.5-2,0.8-2.6,1.6c-0.6,0.8-0.7,1.9-1.1,2.9
			c-0.3,0.9-0.8,1.9-1,2.9s0.2,2.1,0.1,3.1c0,1-0.8,2.1-0.8,3.1s0.8,2.1,0.9,3.1c0.1,1.1-0.4,2.1-0.3,3.1c0.1,1.1,0.2,2.1,0.2,3.1
			c0,1.1,0.1,2.2,0.1,3.2c0,1.1-0.1,2.2,0,3.2v3.2c0,1.1,0.6,2.1,0.6,3.2c0,1.1,0.1,2.2,0.2,3.2c0,1.1-0.5,2.199-0.4,3.3
			c0,1.1,0.3,2.1,0.3,3.2c0,1.1,0.3,2.199,0.3,3.199c0,1.101,0.1,2.2,0.1,3.2s0.2,2,0.2,3.101c0,1-0.3,2-0.3,3.099
			c-0.1,1-0.4,2-0.5,3c-0.1,1,0.5,2.1,0.5,3.1s-0.1,2-0.1,3s0,2,0.1,3c0.1,1-0.1,2.1,0.2,3.1c0.3,1.1,0.8,2.2,1.3,3.2
			s1.5,1.8,2.1,2.6c0.7,0.9,1.1,2.1,1.9,2.8c0.9,0.7,2,1.1,3,1.6s2.2,0.4,3.3,0.5c1.1,0.1,2.1,0.2,3.2-0.1c1.1-0.2,2.4,0.1,3.4-0.5
			s1.6-1.6,2.3-2.3c0.7-0.8,1-1.8,1.5-2.7c0.4-0.9,1-1.8,1.2-2.9c0.2-1,0.3-2,0.4-3.1c0.1-1,0.7-2,0.9-3c0.1-1-0.3-2.2-0.1-3.2
			c0.2-1,0.6-2.1,1-3.1c0.8,0.401,1.5,1.401,2.2,2.401c0.6,0.8,1.2,1.699,1.8,2.699c0.5,0.9,1.1,1.9,1.6,2.801
			c0.6,1,1.5,1.699,2.1,2.599c0.7,1,1.3,1.901,2,2.5c0.7,0.6,1.3,1.3,2.1,1.901c0.8,0.5,1.5,1.099,2.4,1.599
			c0.8,0.5,1.7,0.901,2.6,1.3c0.9,0.401,1.9,0.601,2.7,0.8c1,0.2,2,0.5,2.9,0.5c1.2,0,2.3-0.199,3.3-0.5c1.1-0.3,1.8-1.399,2.6-2
			c0.9-0.699,1.6-1.3,2.2-2.3c0.5-0.899,1-1.8,1.3-2.899c0.3-1,0.8-2,1-3.101c0.2-1-0.2-2.2-0.2-3.3c0.1-1.099,0.7-2.099,0.7-3.2
			c0-1.099-0.3-2.2-0.3-3.3s0.2-2.2,0.1-3.3c0-1.1-0.3-2.2-0.3-3.2c0-1.099-0.1-2.099-0.1-3.2c0-1.099-0.4-2.099-0.4-3.2
			c0-1.099,0.2-2.099,0.2-3.199s0.2-2.1,0.2-3.2c0-1.1-0.3-2.1-0.3-3.2s0.2-2.1,0.1-3.2v-3.2c0-1.1-0.3-2.1-0.4-3.2
			C3576.459-625.024,3576.359-626.024,3576.259-627.124"/>
	</g>
	<g>
		<defs>
			<rect id="SVGID_29_" x="1973" y="-1346.12" width="5222.1" height="3285.4"/>
		</defs>
		<clipPath id="SVGID_30_">
			<use xlink:href="#SVGID_29_"  style="overflow:visible;"/>
		</clipPath>
		<path style="clip-path:url(#SVGID_30_);fill:#EF87B6;" d="M3723.359-648.324c-0.7-0.6-1.5-1.3-2.4-2c-0.8-0.6-1.8-1-2.7-1.6
			s-1.5-1.6-2.4-2.1c-0.9-0.5-2-0.7-3-1.2c-0.9-0.5-1.7-1.2-2.7-1.7c-1-0.4-1.9-0.9-2.9-1.3c-1-0.4-2-0.8-3-1.1s-2.1-0.4-3.1-0.6
			c-1.1-0.3-2.1-0.2-3.1-0.3c-1.1-0.2-2.1-0.3-3.1-0.2c-1.1,0-2.1,0.2-3,0.6c-1.1,0.4-2,0.9-2.7,1.6c-0.7,0.8-1.8,1.4-2.2,2.5
			c-0.4,0.9-0.1,2.2-0.4,3.3c-0.2,1-0.4,2.1-0.5,3.2c-0.1,1.1-0.6,2.1-0.6,3.2s0.5,2.2,0.5,3.3s0,2.2,0.1,3.3c0,1.1,0.1,2.2,0.2,3.3
			c0,1.2-0.1,2.3-0.2,3.3c-0.1,1-0.1,2.1-0.2,3.1c-0.1,1-0.1,2.1-0.2,3.1c-0.1,1-0.7,2.1-0.7,3.1c-0.1,1,0.3,2.1,0.2,3.2
			c0,1-0.3,2.1-0.3,3.1s0.2,2.1,0.1,3.1c0,1-0.1,2.1-0.1,3.1s0.2,2.1,0.2,3.1c0,1.1-0.6,2.2-0.5,3.3c0.1,1.1,0.9,2.2,0.9,3.3
			c0.1,1.1-0.1,2.2,0,3.3c0.1,1.1-0.1,2.2,0.1,3.3c0.1,1.1,0,2.2,0.1,3.3c0.1,1.1,0.3,2.2,0.4,3.3c0.1,1.1,0.6,2.1,0.8,3.2
			c0.1,1.1,0.5,2.2,0.6,3.3c0.1,1.1-0.6,2.3-0.5,3.4c0.1,1,0.5,1.9,0.7,2.9s0.5,1.9,0.9,2.8c0.4,0.9,1,1.7,1.6,2.5
			c0.5,0.8,0.9,1.8,1.6,2.5c0.7,0.6,1.8,0.8,2.6,1.4c0.9,0.6,1.7,1.3,2.6,1.6c1,0.3,2,0.3,3,0.4c1,0.1,2-0.1,3-0.3
			c1-0.1,2-0.2,3-0.4s2-0.6,2.9-0.8c1-0.2,2.1,0,3.1-0.3s1.8-1.2,2.7-1.6c1-0.4,2-0.6,2.9-1c0.9-0.5,1.9-0.8,2.8-1.4
			c0.9-0.6,1.4-1.6,2.2-2.2c0.8-0.7,1.7-1.2,2.4-1.9c0.7-0.8,1-1.8,1.7-2.6c0.6-0.8,1.2-1.6,1.8-2.5c0.5-0.9,1.5-1.5,2-2.4
			c0.4-0.9,0.3-2.1,0.6-3.1c0.4-0.9,1.1-1.8,1.4-2.8s0.2-2,0.5-3.1c0.2-1,1.1-1.8,1.3-2.9c0.2-1,0.2-2,0.4-3.1
			c0.1-1-0.4-2.1-0.3-3.1c0.1-1,0.3-2,0.4-3c0.1-1,0.4-2,0.5-3.1c0.1-1,0.3-2,0.4-3.1v-3.1c0-1-0.1-2.1-0.1-3.1s-0.4-2-0.4-3
			s0.2-2,0.1-3c-0.1-1-0.1-2-0.2-3c-0.1-1,0.1-2.1-0.1-3.1s-0.4-2-0.6-3s-1-1.8-1.3-2.8s-0.6-1.9-1-2.9c-0.4-0.9-0.7-1.9-1.1-2.8
			c-0.5-0.9-1.1-1.7-1.7-2.6c-0.5-0.9-1.1-1.7-1.7-2.5c-0.6-0.8-0.9-1.8-1.6-2.6
			C3725.059-647.124,3724.159-647.624,3723.359-648.324 M3713.059-605.324C3713.159-605.424,3713.159-605.424,3713.059-605.324
			 M3710.959-599.124L3710.959-599.124l0.1,0.1l-0.4-0.4C3710.559-599.324,3710.859-599.024,3710.959-599.124
			c-0.1,0.1-0.3-0.2-0.2-0.2c-1.2,1.3-1.7,1.6-2.4,1.2c-0.7-0.4-1-1.2-1.3-2.6c-0.2-0.9-0.6-2-0.7-3.2c-0.1-1-0.4-2.1-0.4-3.3
			c0-1.1,0.1-2.2,0.1-3.3s0.1-2.2,0.1-3.3c0.1-1.1,0.3-2.3,0.4-3.3c0.1-1.2,0.8-2.2,1-3.2c0.2-1.5,0-3,0.3-3.5c1,0.4,2,1,2.8,1.7
			c0.7,0.7,1,1.7,1.6,2.7c0.5,0.9,1.3,1.6,1.6,2.6s0.5,2,0.6,3.1c0.1,1,0.3,2.1,0.3,3.1s-0.1,2.1-0.3,3.1c-0.1,1.1-0.3,2.1-0.5,3.1
			c-0.3,1.1-0.6,2.1-1,3C3712.359-600.524,3711.559-599.724,3710.959-599.124"/>
	</g>
	<g>
		<defs>
			<rect id="SVGID_31_" x="1973" y="-1346.12" width="5222.1" height="3285.4"/>
		</defs>
		<clipPath id="SVGID_32_">
			<use xlink:href="#SVGID_31_"  style="overflow:visible;"/>
		</clipPath>
		<path style="clip-path:url(#SVGID_32_);fill:#EF87B6;" d="M3635.659-634.624c-0.5-1-1-1.9-1.6-2.7c-0.6-0.9-1.4-1.6-2.1-2.4
			c-0.7-0.8-1.1-1.9-1.9-2.6c-0.8-0.7-1.9-1-2.8-1.6c-0.9-0.6-1.6-1.4-2.5-1.9c-0.9-0.5-1.9-1-2.9-1.4s-1.9-0.9-2.9-1.2
			c-1-0.4-2.1-0.4-3.1-0.7s-2.1-0.3-3.1-0.6s-2-0.6-3.1-0.8c-1-0.2-2.1-0.4-3.1-0.6c-1-0.2-2.1-0.6-3.1-0.8s-1.9-1-3-1.2
			c-1-0.2-2.2,0.2-3.2,0.1c-1-0.2-2.1-0.4-3.1-0.5c-1.1-0.1-2.1-0.6-3.1-0.6c-1.1,0-2.1,0.5-3.1,0.6c-1.1,0.1-2.1,0.3-3,0.6
			c-1,0.3-1.9,0.8-2.7,1.4c-0.9,0.6-1.6,1.2-2.2,2.1c-0.5,0.8-0.9,1.7-1.2,2.8c-0.2,0.9-0.4,1.9-0.4,3.1c0,1-0.5,2-0.3,3
			s0.8,1.9,1.2,2.8c0.3,0.9,0.6,1.9,1.1,2.8c0.5,0.9,1.2,1.6,1.8,2.4s1.2,1.6,2,2.3s1.6,1.2,2.4,1.7c0.8,0.6,1.3,1.6,2.1,2.1
			c0.9,0.5,2.1,0.4,2.9,0.9c0.8,0.6,1.5,1.4,2.1,2.1c0.6,0.7,0.9,1.6,1.2,2.6c0.3,0.8,0.3,1.7,0.3,2.8c0.1,1,0.2,2,0.2,3
			s0.4,2.1,0.3,3.1c-0.1,1,0.1,2.1,0,3.1c-0.1,1-1,1.9-1.1,2.9c-0.1,1,0,2.1-0.1,3.1c-0.1,1-0.3,2-0.5,3c-0.1,1-0.1,2-0.2,3.1
			c-0.1,1-0.6,2-0.8,3c-0.1,1,0.3,2.1,0.2,3.1s-0.4,2-0.5,3c0,1,0.1,2,0.1,3.1c0,1,0.2,2,0.2,3c0.1,1,0.1,2,0.3,3
			c0.2,1,0.6,1.9,1,2.8c0.3,0.9,0.3,2.1,0.8,2.9c0.5,0.9,1.5,1.4,2.1,2.2c0.6,0.8,1,1.8,1.7,2.4c0.7,0.7,1.4,1.5,2.2,2.1
			c0.9,0.5,2,0.5,2.9,0.8c1,0.3,1.9,0.6,2.9,0.5c0.9-0.1,1.7-0.7,2.7-1.2c0.8-0.4,1.7-0.8,2.5-1.5s1.9-1.2,2.5-2.2
			c0.5-0.9,0.3-2.1,0.7-3.2c0.3-1,1-1.9,1.1-3.1c0.2-1,0-2.2,0.1-3.3c0.1-1.1,0.9-2.1,0.9-3.2s-0.1-2.2-0.1-3.3s-0.7-2.2-0.8-3.3
			v-3.3c0-1.1,0.2-2.2,0.1-3.3c0-1.2,0.2-2.3,0.2-3.3c0-0.7-0.2-1.8-0.3-3c-0.1-0.9-0.3-1.9-0.4-3c-0.1-1-0.5-2-0.5-3
			c-0.1-1,0.2-2.1,0.2-3c0-1.1,0.2-2.1,0.3-3c0.2-1.3,0.7-2,1.3-2.5s1.1-0.3,1.9-0.1s1.8-0.1,2.4,0c1.4,0.1,2.3,0.1,3.1,0
			c0.9-0.1,1.8-0.2,3.1-0.7c0.9-0.3,1.7-1,2.6-1.6c0.8-0.6,1.5-1.2,2.2-2c0.7-0.7,1.6-1.3,2.2-2.1c0.5-0.8,0.5-2,0.9-2.9
			c0.4-0.9,0.8-1.8,1-2.8c0.1-1,0.5-2.1,0.3-3.1C3636.759-632.824,3636.159-633.724,3635.659-634.624"/>
	</g>
	<g>
		<defs>
			<rect id="SVGID_33_" x="1973" y="-1346.12" width="5222.1" height="3285.4"/>
		</defs>
		<clipPath id="SVGID_34_">
			<use xlink:href="#SVGID_33_"  style="overflow:visible;"/>
		</clipPath>
		<path style="clip-path:url(#SVGID_34_);fill:#EF87B6;" d="M3646.259-646.924c-0.7,0.8-1.3,1.6-1.8,2.6c-0.5,0.9-0.8,1.9-1.1,2.9
			c-0.3,1-0.8,1.9-1,3c-0.3,1-0.1,2.1-0.3,3.1s-1,1.9-1.2,3c-0.2,1,0,2.1-0.1,3.1c-0.2,1.1,0,2.1-0.2,3.1s-0.2,2-0.4,2.9
			c-0.2,1-1.1,1.8-1.2,2.8c-0.2,1,0.2,2,0,3s-1,1.8-1.2,2.8s-0.3,1.9-0.5,2.9s-0.1,2-0.2,3c-0.2,1-0.2,2-0.4,2.9
			c-0.1,0.9-0.5,1.9-0.6,3c-0.1,0.9-0.3,2-0.5,3c-0.1,1-0.5,2-0.6,3c-0.1,1,0.1,2.1,0,3.1c-0.1,1,0,2-0.1,3.1c-0.1,1-0.5,2-0.5,3.1
			c0,1-0.1,2.1-0.1,3.1s0.1,2.1,0.2,3.1c0.1,1,0.7,2,0.8,3s0,2.1,0.2,3.1s0.6,2,0.9,2.9c0.4,1,0.8,2,1.3,2.8
			c0.6,0.9,1.3,1.6,2.1,2.3c0.8,0.7,1.5,1.6,2.4,2.1c0.9,0.6,1.9,1,2.9,1.4s2.1,0.7,3.1,0.8c1.1,0.1,2.2-0.2,3.2-0.6
			c1-0.3,1.8-1.1,2.6-1.8c0.9-0.8,1.8-1.6,2.2-2.6c0.4-1,0.6-2.2,0.8-3.3c0.2-1.1-0.2-2.2-0.1-3.4c0.1-0.6,0.1-1.5,0.1-2.7
			c-0.1-0.9-0.1-1.8-0.2-2.8c0-1,0.4-1.9,0.5-2.8c0.1-1.2,0.2-2.5,0.8-2.8c1.2-0.5,2.1,0.3,2.4,1.4c0.3,0.8,0.6,1.8,0.7,2.9
			c0,0.9-0.7,2-0.8,3c0,1,0.4,2.1,0.4,3c0,1.2-0.4,2.4-0.2,3c0.2,1,0.8,1.8,1.2,2.8c0.3,0.9,0.5,2,1,2.9c0.4,0.9,1.3,1.6,1.9,2.4
			c0.6,0.9,0.8,1.9,1.5,2.6c0.7,0.7,1.5,1.4,2.4,1.9c0.8,0.5,1.9,0.6,2.9,0.9c1.2,0.3,2.1,0.4,3,0.3c1.2-0.1,2.2-0.1,2.9-0.7
			c0.7-0.6,0.8-1.7,1.2-2.7c0.3-0.9,1-1.7,1.2-2.8c0.1-1,0.5-2,0.5-3c0.1-1.1,0.2-2.1,0.3-3.1s-0.1-2.1,0-3.2c0.1-1,0-2.1,0-3.2
			c0.1-1,0.3-2.1,0.3-3.1c0.1-1-0.1-2.099,0-3.2v-3.099c0-1,0.1-2.101,0.1-3.101c0-1.099-0.2-2.199-0.2-3.3c0-1.1,0.4-2.2,0.4-3.2
			c0-1.099,0.1-2.199,0.1-3.199c0-1.1-0.2-2.2-0.2-3.2c0-1.1,0.5-2.2,0.5-3.3v-3.301c0-1.1-0.1-2.199-0.1-3.3c0-1.1-0.3-2.2-0.4-3.2
			c-0.1-1.099-0.4-2.099-0.5-3.199c-0.1-1.1-0.4-2.1-0.6-3.2c-0.1-1.1,0.1-2.2-0.1-3.3c-0.2-1.101-0.4-2.1-0.6-3.2
			c-0.2-1.1-0.5-2.1-0.8-3.2c-0.3-1-0.9-2-1.2-3s0-2.3-0.4-3.3c-0.4-1-1.2-1.8-1.6-2.7c-0.5-1-1.1-1.8-1.7-2.6
			c-0.6-0.9-1.5-1.5-2.2-2.2c-0.7-0.8-1.2-1.8-2-2.4c-0.8-0.7-1.7-1.4-2.6-1.9c-0.9-0.5-2.1-0.3-3.1-0.7c-1-0.3-1.8-1.3-2.8-1.5
			s-2.1,0.5-3.2,0.5c-1.1,0-2.1-0.3-3.1-0.1s-1.8,1.1-2.8,1.5c-0.9,0.4-1.9,0.8-2.7,1.4
			C3647.859-648.224,3646.959-647.724,3646.259-646.924 M3664.059-606.624c-0.5,1.4-1.3,1.4-2.3,0.6c-0.6-0.5-1.4-1.3-1.9-2.4
			c-0.5-0.9-0.7-1.9-0.9-2.9c-0.2-1.1-0.7-2.1-0.5-3.1s1.2-1.5,2.2-2c1.3-0.7,2.1-0.7,2.8,0.1c0.6,0.7,1.3,1.8,1.5,3
			c0.2,1.1,0.4,2.4,0.4,3.4c-0.1,1.4-0.5,2.8-1,3.4C3665.459-608.025,3663.959-606.325,3664.059-606.624 M3680.759-592.825
			c0,0.3-0.1,0.7-0.1,1.2C3680.659-592.025,3680.759-592.424,3680.759-592.825 M3680.759-592.825c0-0.4,0.1-0.8,0.1-1.2
			C3680.859-593.724,3680.759-593.325,3680.759-592.825"/>
	</g>
	<g>
		<defs>
			<rect id="SVGID_35_" x="1973" y="-1346.12" width="5222.1" height="3285.4"/>
		</defs>
		<clipPath id="SVGID_36_">
			<use xlink:href="#SVGID_35_"  style="overflow:visible;"/>
		</clipPath>
		<path style="clip-path:url(#SVGID_36_);fill:#EF87B6;" d="M3445.559-656.924c-1.3,0-2.4,0.2-3.3,0.2c-1.3,0.1-2.2,0.4-3.1,0.7
			c-0.9,0.3-1.8,0.7-2.9,1.3c-0.8,0.5-1.5,1.1-2.2,1.7c-0.7,0.6-1.5,1.1-2.1,1.8c-0.6,0.7-1.4,1.3-1.9,2.1c-0.6,0.9-0.6,2.2-1.1,3.2
			s-0.9,2-1.2,3.1c-0.3,1.1-0.7,2.1-0.9,3.2c-0.2,1.1-0.9,2.1-1.1,3.2c-0.2,1.1-0.3,2.2-0.5,3.4c-0.2,1.1,0.1,2.3-0.1,3.4
			c-0.2,1-0.9,1.9-1.1,2.9s-0.1,2.1-0.3,3.1c-0.2,1,0,2.1-0.1,3.1c-0.2,1-0.4,2-0.6,3s-1.1,1.9-1.2,2.9c-0.1,1,0.1,2.1,0,3.1
			c-0.1,1,0,2.1-0.1,3.1c-0.1,1-0.5,2-0.5,3c-0.1,1-0.1,2-0.1,3.1c-0.1,1-0.6,2-0.6,3.1c0,1,0.6,2.1,0.6,3.1v3.1
			c0,1-0.2,2.1-0.1,3.1c0.1,1.1,0.3,2.199,0.6,3.199c0.3,1,0.6,2.101,1.1,3.101c0.4,1,1.3,1.7,1.9,2.7c0.6,0.899,1.1,1.8,1.8,2.699
			c0.7,0.801,1.2,1.801,2,2.6c0.8,0.8,1.5,1.6,2.4,2.3c0.9,0.7,1.8,1.401,2.7,1.901c1,0.599,2,1,3,1.399
			c1,0.401,2.1,0.901,3.1,1.101c1.1,0.199,2.2,0.3,3.3,0.3s2.1-0.8,3.2-1c1-0.3,2-0.5,3-1.101c0.9-0.5,1.9-1.199,2.8-1.899
			c0.8-0.7,1.9-1.401,2.5-2.3c0.7-0.901,0.8-2.101,1.2-3.2c0.4-1.101,1.3-2.101,1.3-3.2c0-1.1-0.4-2.2-0.8-3.401
			c-0.3-0.899-0.6-1.899-1.2-2.8c-0.5-0.8-1.4-1.399-2.1-2.099s-1.6-1.2-2.4-1.7c-0.9-0.5-1.9-0.3-2.8-0.401
			c-1-0.099-1.9-0.199-2.8-0.3c-0.9,0-1.8-0.399-2.7-0.899c0-1.101-0.1-2.2,0-3.301c0.2-1.1,0.5-2.199,0.8-3.3
			c0.2-1.1,0.6-2.2,0.8-3.2c0.3-1.1,0.3-2.199,0.5-3.3c0.2-1.1,0.4-2.2,0.5-3.3c0.2-1.1,0.4-2.1,0.5-3.3c0-1,0.4-1.9,0.4-2.9
			s0.3-1.9,0.2-2.9c0-1-0.7-1.9-0.8-2.9c0-1-0.2-1.9-0.2-2.9s0.6-1.7,0.6-2.6c0.9,0.3,1.3,0.6,2,1.1c0.7,0.6,1.4,1,2.1,1.6
			s1.4,0.9,2.3,1.2c1,0.4,1.8,0.5,2.7,0.5c1,0.1,1.9,0.2,2.8-0.1c0.9-0.3,1.6-0.9,2.4-1.5c0.7-0.6,1.5-1.3,2.1-2.1
			c0.5-0.8,0.7-1.8,1.1-2.8c0.4-0.9,1.2-1.7,1.5-2.6c0.3-1-0.2-2.1-0.1-3.1c0.1-1.1,0.3-2.1,0.2-3.2c-0.1-1.1,0.2-2.2-0.1-3.3
			c-0.3-1-0.7-2.1-1.2-3.1s-1.2-1.8-1.8-2.7c-0.6-0.9-1.1-1.9-1.8-2.7c-0.7-0.8-1.7-1.3-2.6-2c-0.8-0.7-1.6-1.4-2.6-2
			c-0.9-0.6-1.8-1.2-2.8-1.7c-1-0.4-2.1-0.4-3.2-0.7C3447.659-656.024,3446.659-656.724,3445.559-656.924"/>
	</g>
	<g>
		<defs>
			<rect id="SVGID_37_" x="1973" y="-1346.12" width="5222.1" height="3285.4"/>
		</defs>
		<clipPath id="SVGID_38_">
			<use xlink:href="#SVGID_37_"  style="overflow:visible;"/>
		</clipPath>
		<path style="clip-path:url(#SVGID_38_);fill:#EF87B6;" d="M3404.359-653.825c-1.1,0.5-1.4,1.8-1.8,2.8c-0.5,0.9-0.8,2-1.1,3
			c-0.3,1.1-1,2-1.4,3c-0.3,0.6,0.1,1.9-0.1,3.5c-0.1,1-0.2,2.1-0.3,3.4c-0.1,1.1-0.1,2.2-0.2,3.4c-0.1,1.1-0.4,2.2-0.6,3.4
			c-0.2,1.1-0.6,2.5-0.9,3.5c-0.3-0.9-1-2.1-1.3-3.2c-0.3-1,0-2.1-0.3-3.2c-0.3-1-0.9-1.9-1.2-2.9s-0.4-2-0.7-3.1
			c-0.3-1-0.8-1.9-1.1-2.9c-0.3-1-0.6-2-1-3c-0.4-1-0.9-1.9-1.3-2.8c-0.4-1-0.3-2.2-0.8-3.1c-0.5-0.9-1.6-1.5-2.2-2.3
			c-0.6-0.9-1-1.9-1.6-2.6c-0.7-0.8-1.2-1.7-2-2.4s-1.5-1.5-2.4-2c-0.9-0.5-1.9-1-2.9-1.4c-1.1-0.3-5.3-1.3-3.3-0.7
			c-1.1-0.3-2.1,0.1-3,0c-1.2-0.1-2.3-0.7-3.1-0.3c-0.9,0.4-1.6,1.4-2.2,2.2c-0.5,0.8-1,1.7-1.3,2.8c-0.3,0.9-0.3,1.9-0.4,3
			c-0.1,1-0.6,1.9-0.7,3c-0.1,1,0.4,2,0.4,3c-0.1,1-0.4,2-0.5,3c-0.1,1-0.1,2.1-0.2,3c-0.2,1-0.2,2-0.3,3s-0.4,2-0.5,3
			c-0.1,1-0.1,2-0.2,3c-0.1,1-0.7,2-0.7,3c-0.1,1,0.4,2.1,0.4,3.1c-0.1,1-0.4,2-0.5,3c-0.1,1-0.4,2-0.4,3c-0.1,1,0.3,2.1,0.3,3.1
			c-0.1,1-0.4,2-0.4,3c-0.1,1,0.3,2.1,0.2,3.1c-0.1,1-0.2,2-0.3,3s-0.7,2-0.8,3s0.4,2.1,0.2,3.3c-0.2,1-0.8,2-1,3.1
			c-0.2,1-0.1,2.1-0.3,3.2c-0.2,1-1.1,2-1.2,3.1c-0.2,1.1-0.2,2.2-0.3,3.2c-0.1,1.1,0.6,2.2,0.6,3.2c0,1.1-0.1,2.1,0.1,3.2
			c0.1,1.1,0.1,2.2,0.4,3.2s0.6,2.1,1.1,3.1c0.5,0.9,1.3,1.7,2.1,2.5s1.7,1.3,2.4,1.9c0.9,0.7,1.9,1,2.7,1.4
			c1.1,0.5,1.9,1.1,2.7,1.2c1.1,0.1,2.1,0,3-0.5c0.8-0.5,1.8-1,2.4-2c0.5-0.8,1-1.8,1.4-2.8c0.3-0.9,0.1-2,0.4-3.1
			c0.2-0.9,0.5-1.9,0.7-3c0.2-1,0.5-2,0.6-3c0.1-1,0-2,0.1-3.1c0.1-1,0.1-2,0.2-3.1c0.1-1,0.2-1.8,0.3-2.8c0.6,1.2,1.3,1.8,1.7,2.6
			c0.5,1.1,0.7,2,1.2,3c0.4,0.8,0.5,1.9,1.1,3.1c0.4,0.8,1,1.6,1.6,2.8c0.1,0.8,0.8,1.4,1.3,2.3c0.4,0.7,0.8,1.5,1.3,2.3
			s1.2,1.4,1.6,2.1c0.6,1,0.7,2.2,1.2,3.3s1.2,2,1.7,3c0.5,1.1,0.7,2.3,1.4,3.2c0.7,0.9,1.8,1.4,2.9,1.9c1,0.5,2,0.5,2.9,0.7
			c1.1,0.2,2.1,1,3,0.9c1-0.2,2-0.9,2.8-1.5s0.9-1.8,1.5-2.7c0.5-0.8,1-1.6,1.4-2.6c0.4-0.9,1-1.8,1.2-2.8c0.3-1,0.7-2,0.9-2.9
			c0.2-1.1,0.3-2.1,0.4-3c0.2-1,0.5-2,0.6-3c0.1-1-0.1-2.1,0-3.1c0.1-1,0.5-2,0.6-3c0.1-1,0-2,0.1-3.1c0.1-1,0.1-2,0.2-3.1
			c0.1-1,0.1-2,0.2-3.1c0.1-1,0.4-2,0.5-3c0.1-1-0.2-2.1-0.1-3.1c0.1-1,0.9-2,1-3c0.1-1-0.5-2.1-0.4-3.1c0.1-1,0.7-2,0.9-3
			s0.4-2,0.6-3.1c0.2-1,0-2.1,0.2-3.2c0.2-1,0.9-1.9,1.1-2.9s0.1-2.1,0.3-3.1s0.8-2,1-3s0.1-2.1,0.3-3.1s1.2-1.9,1.4-2.9
			c0.2-1-0.4-2.2-0.2-3.2c0.2-1.1,0.7-2.1,0.6-3.3c-0.1-1.1-0.4-2.2-0.7-3.3c-0.3-1.1-0.7-2.1-1.3-3.1c-0.5-1-1-2.1-1.7-2.9
			c-0.7-0.9-1.5-1.8-2.4-2.4c-0.9-0.7-2.2-0.7-3.2-1s-2.1-0.3-3.2-0.1C3406.759-654.124,3405.459-654.424,3404.359-653.825"/>
	</g>
	<g>
		<defs>
			<rect id="SVGID_39_" x="1973" y="-1346.12" width="5222.1" height="3285.4"/>
		</defs>
		<clipPath id="SVGID_40_">
			<use xlink:href="#SVGID_39_"  style="overflow:visible;"/>
		</clipPath>
		<path style="clip-path:url(#SVGID_40_);fill:#EF87B6;" d="M3340.559-657.825c-0.7,0.1-1.9,0.3-3.2,0.2c-1-0.1-2.2,0-3.2-0.1
			c-1.3-0.1-2.4-0.9-3.2-0.9c-0.9,0-1.9,0.4-2.9,0.3c-0.9-0.1-1.8-0.9-2.8-1s-2,0-2.9,0.1c-1.1,0.2-2.2,0.8-3.3,1.3
			c-1,0.5-2,1.1-3,1.8s-2,1.3-2.8,2.1c-0.8,0.9-1.6,1.9-2,2.9c-0.4,0.9-1,1.8-1.4,2.7c-0.4,0.9-0.4,2-0.8,3c-0.3,1-0.5,2-0.8,2.9
			c-0.3,1-1,1.8-1.2,2.8c-0.3,1-0.6,1.9-0.9,2.9s-0.4,2-0.6,3s0.1,2.1-0.1,3.1s-0.7,1.9-0.9,2.9c-0.2,1-0.3,2-0.5,3s-0.4,2-0.5,3
			c-0.1,1-0.1,2-0.3,3c-0.1,1.1-0.5,2.1-0.6,3.2c-0.1,1.1-0.2,2.1-0.3,3.2c-0.1,1.1-0.4,2.1-0.4,3.2c-0.1,1.1,0,2.1-0.1,3.2
			c-0.1,1.1,0.1,2.2,0,3.2c-0.1,1.1-0.5,2.1-0.5,3.2c-0.1,1.1,0,2.1-0.1,3.2c-0.1,1.1,0.4,2.2,0.3,3.2c-0.1,1.1-0.3,2.1-0.3,3.2
			c0,1.1-0.1,2.1-0.2,3.2c-0.1,1-0.6,2-0.7,3c-0.1,1,0.3,2.1,0.3,3.1s-0.3,2-0.1,3c0.2,1,0.7,1.8,1.2,2.8c0.4,0.9,0.4,2.1,1.1,2.9
			c0.7,0.7,1.8,1,2.6,1.6s1.5,1.4,2.4,1.9c0.9,0.4,2,0.5,2.9,0.8c1,0.3,1.9,0.8,2.8,1c1,0.3,2.1,0,3,0.2c1.1,0.2,2,0.8,2.9,0.8
			c1,0.1,2.1,0.1,3.1,0.1s2-0.4,3.1-0.5c1-0.1,2-0.3,3-0.6c1-0.2,2.1-0.2,3.1-0.5s1.8-1.1,2.7-1.5c1-0.4,2.1-0.4,3-0.9
			c0.9-0.5,1.9-0.8,2.8-1.4c0.9-0.6,1.7-1.2,2.5-1.9s1.4-1.6,2.1-2.3c0.7-0.8,1.2-1.7,1.8-2.6c0.6-0.9,1.2-1.8,1.6-2.7
			c0.4-1,0.5-2,0.8-3.1c0.2-1,0.3-2.1,0.3-3.1s0.1-2.1-0.1-3.1s-0.6-2-0.9-3s-0.4-2.1-1-3c-0.5-0.9-1.1-1.8-1.8-2.6
			s-1.5-1.4-2.4-2.1c-0.8-0.7-1.3-1.7-2.2-2.4c-0.6-0.4-1.7-0.8-2.9-1.2c-0.9-0.3-1.9-0.6-2.9-0.9s-2-0.4-2.9-0.8
			c-1-0.4-2.1-0.6-2.9-1c-1.2-0.7-2.1-1.5-1.9-2.4c0,0,1.5,0.3,3.2,0.5c0.9,0.1,1.9,0.2,3,0.3c1,0.1,2,0.2,3,0.3
			c1.1,0.1,2.1-0.1,3-0.1c1.4,0.1,2.5,0.8,3,0.7c1.2-0.2,2.1-0.9,3-1.3c1.1-0.4,2-1,2.7-1.7c0.8-0.7,1-1.7,1.3-2.8
			c0.2-0.9,0.7-1.9,0.6-3.1c-0.1-1-0.2-2.1-0.6-3.2c-0.3-1.1-1.4-2.1-1.9-3.3s-0.5-2.7-1.3-3.6c-0.6-0.7-2.3-1-3.5-1.8
			c-1.4-0.9-2.5-2-2.7-2.6c0.9-0.3,1.6-1.1,2.6-1.4c0.9-0.3,1.9-0.4,2.9-0.8c0.9-0.3,2-0.4,2.9-0.8c0.9-0.4,1.9-0.8,2.7-1.2
			c0.9-0.5,1.6-1.2,2.4-1.7c0.8-0.6,2-0.9,2.6-1.6c0.7-0.8,0.9-1.9,1.3-2.8c0.4-1,1-2,1.1-3.1c0.1-1.1,0.1-2.2-0.1-3.3
			c-0.2-1-0.6-2.2-1.1-3.1s-1.4-1.7-2.1-2.5c-0.7-0.7-1.7-1.2-2.6-1.8c-0.9-0.6-1.7-1.1-2.8-1.5c-0.9-0.4-2-0.7-3-0.9
			s-2-0.5-3.1-0.6C3342.759-657.624,3341.759-657.825,3340.559-657.825"/>
	</g>
	<g>
		<defs>
			<rect id="SVGID_41_" x="1973" y="-1346.12" width="5222.1" height="3285.4"/>
		</defs>
		<clipPath id="SVGID_42_">
			<use xlink:href="#SVGID_41_"  style="overflow:visible;"/>
		</clipPath>
		<path style="clip-path:url(#SVGID_42_);fill:#EF87B6;" d="M3516.359-574.424c0,0.1,0.1,0.5,0.1,0.3
			C3516.559-574.124,3516.359-574.424,3516.359-574.424"/>
	</g>
	<g>
		<defs>
			<rect id="SVGID_43_" x="1973" y="-1346.12" width="5222.1" height="3285.4"/>
		</defs>
		<clipPath id="SVGID_44_">
			<use xlink:href="#SVGID_43_"  style="overflow:visible;"/>
		</clipPath>
		<path style="clip-path:url(#SVGID_44_);fill:#EF87B6;" d="M3494.359-612.924c0.1-0.2,0.3-0.5,0.3-0.8
			C3494.459-613.624,3493.859-612.924,3494.359-612.924"/>
	</g>
	<g>
		<defs>
			<rect id="SVGID_45_" x="1973" y="-1346.12" width="5222.1" height="3285.4"/>
		</defs>
		<clipPath id="SVGID_46_">
			<use xlink:href="#SVGID_45_"  style="overflow:visible;"/>
		</clipPath>
		<path style="clip-path:url(#SVGID_46_);fill:#EF87B6;" d="M3516.059-574.525c0-0.1-0.2-0.2-0.2-0.3
			C3515.959-574.724,3516.059-574.624,3516.059-574.525"/>
	</g>
	<g>
		<defs>
			<rect id="SVGID_47_" x="1973" y="-1346.12" width="5222.1" height="3285.4"/>
		</defs>
		<clipPath id="SVGID_48_">
			<use xlink:href="#SVGID_47_"  style="overflow:visible;"/>
		</clipPath>
		<path style="clip-path:url(#SVGID_48_);fill:#EF87B6;" d="M3516.059-575.124c-0.2-1-0.1-1.9-0.1-2.9c-0.1-1-0.5-1.9-0.4-2.9
			c0-1,0.5-1.9,0.6-2.9c0.1-1-0.3-2-0.2-2.9c0.1-1,0-1.9,0-2.9c0-1.1,0.6-2.2,0.6-3.2c-0.1-1.1-0.6-2.1-0.7-3.2
			c-0.1-1.1-0.6-2.1-0.7-3.2c-0.1-1.1,0.2-2.2,0.1-3.2c-0.1-1.1-0.6-2.1-0.7-3.2c-0.1-1.1,0.3-2.2,0.2-3.3c-0.1-1-0.5-2-0.5-3
			c-0.1-1,0.1-2,0-3.1c-0.1-1-0.4-2-0.5-3c-0.1-1,0.2-2.1,0.1-3.1c-0.1-1-0.9-2-1-3c-0.1-1-0.3-2-0.5-3s0.1-2.1-0.1-3.1
			s-0.2-2.1-0.4-3.1s-0.8-1.9-1.1-2.9s-0.2-2.1-0.5-3.1s-0.7-2-1.1-2.9c-0.4-1-1-1.8-1.5-2.7s-1.1-1.7-1.7-2.6
			c-0.6-0.8-1.1-1.8-1.8-2.5c-0.7-0.8-1.6-1.3-2.4-2s-1.5-1.4-2.4-2c-0.9-0.6-1.8-1.1-2.7-1.5c-0.9-0.5-1.9-0.8-2.9-1.1
			s-2.1-0.1-3.1-0.3s-2-0.9-3-0.9c-1.1,0-2,0.7-3,0.9c-1,0.3-2.2,0.2-3,0.8c-0.8,0.5-1.8,1.1-2.5,1.7c-0.8,0.7-1.1,1.8-1.7,2.6
			c-0.7,0.8-1.7,1.2-2.3,2.1c-0.6,0.8-0.9,1.8-1.4,2.7s-0.7,1.9-1.1,2.8c-0.4,0.9-1.3,1.7-1.6,2.6c-0.4,0.9-0.1,2.1-0.4,3.1
			s-1,1.8-1.2,2.8c-0.3,1-0.7,1.9-0.9,2.9c-0.2,1,0.4,2.1,0.2,3.1c-0.2,1-1,1.9-1.2,2.9c-0.1,1,0.4,2.1,0.2,3.1c-0.1,1-0.5,2-0.6,3
			c-0.1,1-0.1,2-0.1,3.1c-0.1,1-0.6,2-0.7,3c-0.1,1-0.1,2-0.2,3.1c-0.1,1,0,2-0.1,3.1c-0.1,1-0.2,2-0.2,3.1v3.1c0,1,0.2,2,0.2,3.1
			c0,1-0.3,2-0.3,3.1c0,1-0.3,2-0.3,3.1v3.1c0,1.1,0.7,2.1,0.8,3.2c0.1,1.1-0.3,2.2-0.1,3.2c0.2,1.1,0.4,2.1,0.7,3.1
			c0.3,1,1.4,1.7,1.9,2.7s0.8,2,1.4,2.8c0.7,0.9,1.1,1.9,2,2.6c0.8,0.6,1.9,1.1,2.9,1.4c1,0.3,2.1,0.1,3.2,0.1c1,0,2.1,0.6,3.2,0.4
			c1-0.2,1.9-0.9,3-1.3c1.3-0.5,2.4-0.8,3-1.4c0.9-0.8,0.8-2,1.1-3.1c0.3-1,0.4-2,0.6-3.2c0.1-1,0.6-2,0.8-3.2
			c0.2-0.8-0.4-1.7-0.4-2.5s0.6-1.7,2-1.8c0.8,0,1.6,1,1.9,2.3c0.2,0.8,0.1,1.9,0.2,2.8c0.1,1.2-0.4,2.4-0.3,2.8
			c0.3,1,0.8,1.9,1.3,2.8c0.5,0.8,1.1,1.7,1.8,2.5c0.7,0.7,1.7,1.1,2.5,1.7s1.3,1.7,2.2,2.2s2,0.7,2.9,1.1c1,0.4,1.9,0.9,2.8,1.1
			c1,0.3,2.1,0.2,3,0.2c1.1,0,2-0.2,2.9-0.5c1-0.3,1.7-0.9,2.3-1.6s1.2-1.4,1.3-2.6c0.1-0.9,0-1.8-0.2-3
			C3515.859-575.224,3516.059-575.224,3516.059-575.124 M3494.259-613.025c-1.6,0.2-2.4-0.2-3.2-0.7c-1-0.7-1.6-1.5-1.5-2.8
			c0.1-1.1,0.8-2.1,1.3-3.2c0.5-1.2,0.9-2.5,1.6-3.1c0.5,0.5,1.2,1.6,1.6,2.9c0.3,1-0.2,2.2-0.1,3.2c0.1,1.2,0.6,2.4,0.5,3.1
			C3494.659-613.724,3494.659-613.624,3494.259-613.025"/>
	</g>
	<g>
		<defs>
			<rect id="SVGID_49_" x="1973" y="-1346.12" width="5222.1" height="3285.4"/>
		</defs>
		<clipPath id="SVGID_50_">
			<use xlink:href="#SVGID_49_"  style="overflow:visible;"/>
		</clipPath>
		<path style="clip-path:url(#SVGID_50_);fill:#EF87B6;" d="M3276.059-644.224c1,0.4,2.1,0.5,3.2,0.9c1.1,0.4,2.2,0.4,3.2,0.7
			s2,0.8,3.1,1.2c1.1,0.4,2,1,3,1.3c1.1,0.4,2.1,0.4,2.9-0.2c0.8-0.6,0.8-1.7,0.8-2.7c0-1.2-0.3-2.2-1.1-3.1
			c-0.7-0.9-1.6-1.8-2.7-2.2c-1-0.4-2.2-0.4-3.2-0.8s-1.9-1.1-3-1.5c-1.1-0.4-2.1-0.5-3.2-0.9c-1-0.4-2.1-0.5-3.2-0.9
			c-1.1-0.4-1.9-0.4-2.7,0.2c-0.8,0.6-1.1,1.5-1.1,2.5c0,1.2,0.4,2.2,1.2,3.1c0.7,0.9,1.7,1.5,2.8,1.9
			C3276.359-644.524,3276.059-644.224,3276.059-644.224"/>
	</g>
	<g>
		<defs>
			<rect id="SVGID_51_" x="1973" y="-1346.12" width="5222.1" height="3285.4"/>
		</defs>
		<clipPath id="SVGID_52_">
			<use xlink:href="#SVGID_51_"  style="overflow:visible;"/>
		</clipPath>
		<path style="clip-path:url(#SVGID_52_);fill:#F09C4C;" d="M3265.159-626.525c1,0.2,1.8,1.2,2.8,1.4s2.1-0.1,3.1,0.1
			c1,0.2,2,0.3,3,0.5s1.9,0.9,2.9,1.1s2.1,0,3.1,0.2l3,0.6c1,0.2,2,0.2,3,0.4c1.3,0.3,2.4,0.3,3-0.3c0.7-0.7,0.8-1.9,0.7-3.1
			c-0.1-1-0.2-2.3-0.9-3.1c-0.7-0.8-1.7-1.3-2.9-1.5c-1-0.2-2.1,0.1-3.1-0.1c-1-0.2-1.9-0.8-2.9-1s-1.9-0.8-2.9-1s-2-0.2-3-0.4
			s-2.1,0.1-3.1-0.1c-1-0.2-1.9-0.7-2.9-0.9s-1.9-0.7-2.9-0.9c-1.3-0.3-2.6,0.1-3.3,0.7c-0.7,0.7-0.9,2.1-0.8,3.2
			c0.1,1,0.5,2.1,1.3,3c0.7,0.8,1.6,1.6,2.8,1.8C3265.259-625.924,3265.159-626.525,3265.159-626.525"/>
	</g>
	<g>
		<defs>
			<rect id="SVGID_53_" x="1973" y="-1346.12" width="5222.1" height="3285.4"/>
		</defs>
		<clipPath id="SVGID_54_">
			<use xlink:href="#SVGID_53_"  style="overflow:visible;"/>
		</clipPath>
		<path style="clip-path:url(#SVGID_54_);fill:#EF87B6;" d="M3269.859-600.724c1.1,0,2.2,0.1,3.3,0.2c1.1,0.1,2.2,0.4,3.3,0.4
			s2.2-0.2,3.3-0.2c1.4,0,2-0.6,2.4-1.5c0.4-0.9,0.4-1.9,0-3c-0.3-1-0.5-2.3-1.4-3c-0.8-0.7-2-0.9-3.2-0.9c-1.1,0-2.2-0.1-3.3-0.1
			s-2.2,0.2-3.3,0.2s-2.2,0.3-3.3,0.3c-1.4,0-1.9,0.3-2.4,1.2c-0.4,0.9-0.3,1.8,0.1,2.9c0.3,1,0.4,2.3,1.2,3s2,0.9,3.2,0.9
			C3270.059-600.424,3269.859-600.724,3269.859-600.724"/>
	</g>
	<g>
		<defs>
			<rect id="SVGID_55_" x="1973" y="-1346.12" width="5222.1" height="3285.4"/>
		</defs>
		<clipPath id="SVGID_56_">
			<use xlink:href="#SVGID_55_"  style="overflow:visible;"/>
		</clipPath>
		<path style="clip-path:url(#SVGID_56_);fill:#F09C4C;" d="M3272.559-566.825c0.9-0.5,1.8-1.1,2.8-1.6c0.9-0.5,2.1-0.6,3.1-1.1
			c0.9-0.5,2-0.9,2.9-1.4c0.9-0.5,1.6-1.5,2.6-2c0.9-0.5,2.1-0.7,3-1.2c0.9-0.5,1.6-1.5,2.6-2c0.9-0.5,2-0.8,2.9-1.4
			c1.1-0.6,1.8-1.5,1.7-2.6c-0.1-1-1-1.9-1.7-2.8c-0.7-0.8-1.6-1.4-2.6-1.8s-2.3-0.9-3.3-0.4c-0.9,0.5-1.6,1.6-2.5,2.1
			c-0.9,0.5-1.9,1.1-2.8,1.6c-0.9,0.5-2.2,0.5-3.1,1c-0.9,0.5-1.9,0.9-2.9,1.4c-0.9,0.5-1.6,1.5-2.6,2c-0.9,0.5-2.1,0.7-3,1.2
			c-0.9,0.5-1.7,1.5-2.6,2c-1.1,0.6-1.4,1.4-1.3,2.5c0.1,1,0.7,1.8,1.5,2.7c0.7,0.8,1.6,1.3,2.5,1.7c1,0.4,2.1,0.9,3.1,0.3
			L3272.559-566.825"/>
	</g>
	<g>
		<defs>
			<rect id="SVGID_57_" x="1973" y="-1346.12" width="5222.1" height="3285.4"/>
		</defs>
		<clipPath id="SVGID_58_">
			<use xlink:href="#SVGID_57_"  style="overflow:visible;"/>
		</clipPath>
		<path style="clip-path:url(#SVGID_58_);fill:#F09C4C;" d="M3818.059-637.724c-0.9,0.3-2,0.6-3,0.7c-1,0.1-2-0.1-3-0.2
			c-1,0-1.9-0.5-2.9-0.7c-1.1-0.2-2.1,0.2-2.9,0.7s-1,1.4-1,2.6c0,1.1,0.3,2.2,1.1,3.2c0.7,1,1.7,1.6,2.8,1.8s2.1,0.9,3.2,1
			c1.1,0.1,2.3,0,3.3-0.1c1.1,0,2.2-0.1,3.3-0.2c1.1-0.2,2.2-0.5,3.2-0.9c1.3-0.4,1.6-1.4,1.7-2.5c0.1-1-0.2-1.9-0.8-3
			c-0.5-0.9-1-2.1-1.9-2.6c-0.9-0.5-2.4-0.9-3.5-0.6C3817.559-638.324,3818.059-637.724,3818.059-637.724"/>
	</g>
	<g>
		<defs>
			<rect id="SVGID_59_" x="1973" y="-1346.12" width="5222.1" height="3285.4"/>
		</defs>
		<clipPath id="SVGID_60_">
			<use xlink:href="#SVGID_59_"  style="overflow:visible;"/>
		</clipPath>
		<path style="clip-path:url(#SVGID_60_);fill:#EF87B6;" d="M3805.259-613.025c1,0.3,1.9,0.9,2.9,1.2s2,0.7,3,1s2,0.7,3,1.1
			c1,0.3,2.1,0.3,3.1,0.6s2,0.8,3,1.1s2.2,0.1,3.2,0.4s1.9,1,2.9,1.3s2,0.8,3,1.1c1.4,0.4,2.4-0.1,3-0.7c0.7-0.7,0.7-1.7,0.5-2.9
			c-0.1-1-0.2-2.1-0.9-3c-0.6-0.8-1.5-1.5-2.6-1.8c-1-0.3-1.9-0.9-2.9-1.2s-2.2-0.1-3.2-0.4s-2-0.5-3-0.8s-1.8-1.3-2.8-1.6
			s-2.1-0.2-3.1-0.6c-1-0.4-1.9-1.1-2.9-1.4s-2.2,0-3.2-0.3s-1.8-1.2-2.8-1.6c-1.4-0.4-2.2,0.4-2.9,1c-0.7,0.7-1.1,1.5-1,2.7
			c0.1,1,0.5,2,1.2,2.9c0.6,0.8,1.4,1.8,2.5,2.2C3805.159-612.525,3805.259-613.025,3805.259-613.025"/>
	</g>
	<g>
		<defs>
			<rect id="SVGID_61_" x="1973" y="-1346.12" width="5222.1" height="3285.4"/>
		</defs>
		<clipPath id="SVGID_62_">
			<use xlink:href="#SVGID_61_"  style="overflow:visible;"/>
		</clipPath>
		<path style="clip-path:url(#SVGID_62_);fill:#F09C4C;" d="M3819.459-587.825c0.9,0.5,1.8,1.1,2.7,1.6s2,0.7,2.9,1.2
			c0.9,0.5,1.8,1,2.8,1.4s1.9,0.8,2.8,1.3c0.9,0.5,1.8,1,2.7,1.5c1.2,0.6,2,0.7,2.9,0.4c1-0.4,1.8-1,2-2.2c0.2-1,0.1-2.1-0.5-3.1
			c-0.5-0.8-1.3-1.5-2.4-2.1c-0.9-0.5-1.9-0.8-2.8-1.3c-0.9-0.5-1.8-1.1-2.7-1.6c-0.9-0.5-1.9-0.8-2.8-1.3c-0.9-0.5-1.6-1.3-2.6-1.8
			c-0.9-0.5-1.8-1.1-2.7-1.5c-1.2-0.6-2.3-0.2-3.2,0.1c-1,0.4-1.8,1.1-2,2.2c-0.2,1-0.4,2.3,0.2,3.3
			C3817.259-588.924,3818.359-588.424,3819.459-587.825C3819.459-587.924,3819.459-587.825,3819.459-587.825"/>
	</g>
	<g>
		<defs>
			<rect id="SVGID_63_" x="1973" y="-1346.12" width="5222.1" height="3285.4"/>
		</defs>
		<clipPath id="SVGID_64_">
			<use xlink:href="#SVGID_63_"  style="overflow:visible;"/>
		</clipPath>
		<path style="clip-path:url(#SVGID_64_);fill:#EF87B6;" d="M3803.759-574.525c0.7,0.7,1.6,1.2,2.3,1.9s1.2,1.7,1.9,2.3
			c0.8,0.6,1.8,0.9,2.6,1.5c0.8,0.6,1.4,1.4,2.2,2c0.8,0.6,1.5,1.3,2.3,1.9c0.8,0.5,2,0.6,2.8,1.1c0.9,0.5,1.6,1.2,2.4,1.7
			c1.2,0.6,2.4,1,3.2,0.7c1-0.4,1.2-1.6,1.4-2.8c0.2-1,0.3-1.9-0.3-2.9c-0.5-0.9-0.9-1.9-2-2.5c-0.9-0.5-1.9-0.8-2.8-1.3
			c-0.9-0.5-1.9-0.8-2.8-1.4c-0.8-0.6-1.7-1.1-2.6-1.7c-0.8-0.6-1.4-1.5-2.2-2.2c-0.8-0.6-1.6-1.3-2.3-2c-0.8-0.7-1.2-1.7-1.9-2.4
			c-1-1-2.2-1.1-3.1-1.1c-1.1,0-1.9,0.6-2.4,1.6c-0.5,0.9-0.4,1.8-0.1,2.9c0.2,0.9,0.2,2.1,1.1,3
			C3803.659-574.324,3803.759-574.525,3803.759-574.525"/>
	</g>
	<g>
		<defs>
			<rect id="SVGID_65_" x="1973" y="-1346.12" width="5222.1" height="3285.4"/>
		</defs>
		<clipPath id="SVGID_66_">
			<use xlink:href="#SVGID_65_"  style="overflow:visible;"/>
		</clipPath>
		<path style="clip-path:url(#SVGID_66_);fill:#FFFFFF;" d="M3406.659-753.325c10.6-7.8,21.5-15.8,28.4-27.3
			c2.6-4.4,6.2-11.2,5.6-16.5c-0.4-3.4-3.3-5.6-6.7-4.3c-4.5,1.7-4.7,7.7-5.4,11.6c-1.4,8-2.9,16-4.3,24c-2.9,16.3-5.9,32.6-8.8,49
			c-0.2,1.4,1.9,2,2.1,0.6c4.2-23.4,8.4-46.7,12.6-70.1c0.5-2.7,0.8-5.4,1.5-8c0.2-0.7,0.5-3.1,1.2-3.4c1.8,1.1,3.6,2.1,5.5,3.2
			c-0.2,0.8-0.3,1.6-0.6,2.3c-1.4,5-3.7,9.6-6.7,13.8c-6.7,9.5-16.2,16.5-25.4,23.3
			C3404.459-754.424,3405.559-752.525,3406.659-753.325"/>
	</g>
	<g>
		<defs>
			<rect id="SVGID_67_" x="1973" y="-1346.12" width="5222.1" height="3285.4"/>
		</defs>
		<clipPath id="SVGID_68_">
			<use xlink:href="#SVGID_67_"  style="overflow:visible;"/>
		</clipPath>
		<path style="clip-path:url(#SVGID_68_);fill:#FFFFFF;" d="M3412.759-742.224c5.9-3.4,11.8-6.9,17.7-10.3c3-1.8,8.2-3.7,9.3-7.5
			c1.8-6-5.3-8.3-8.2-3.1c-2.8,4.9-4.3,16.5,4.7,15.8c8.4-0.7,14.2-14,16.7-20.6h-2.1c0.8,2.7,1.5,5.5,2.1,8.2
			c0.4,1.8,2.4,7.6,1.6,9.1c-0.2,0.5-6,2.5-2.1-0.1c1-0.6,2-1.2,3-1.8c2.5-1.5,5-2.9,7.5-4.4c1.2-0.7,0.1-2.6-1.1-1.9
			c-3,1.8-6.1,3.5-9.1,5.3c-1.5,0.9-3.7,1.9-4.5,3.6c-1.3,2.4-0.2,5,2.5,5.6c11,2.6,3-20.7,2.1-24.1c-0.3-1.1-1.7-1-2.1,0
			c-2,5.1-4.6,9.9-8.1,14.1c-2.1,2.5-8.4,9.3-11.3,1.4c-0.5-1.8-0.4-3.6,0.4-5.4c0.5-1.5,1.2-2.9,1.9-4.2c3.6,2.1,3.9,3.8,1,5.1
			c-0.9,0.6-1.9,1.1-2.8,1.7c-2.2,1.3-4.5,2.6-6.7,3.9c-4.5,2.6-9,5.2-13.5,7.9C3410.359-743.424,3411.459-741.524,3412.759-742.224
			"/>
	</g>
	<g>
		<defs>
			<rect id="SVGID_69_" x="1973" y="-1346.12" width="5222.1" height="3285.4"/>
		</defs>
		<clipPath id="SVGID_70_">
			<use xlink:href="#SVGID_69_"  style="overflow:visible;"/>
		</clipPath>
		<path style="clip-path:url(#SVGID_70_);fill:#FFFFFF;" d="M3463.259-784.325c-0.2,7-0.3,14-0.5,21c-0.1,4.2-1.9,11.7,1.1,15.4
			c6.3,7.8,10.5-10,11.4-13.2c0.4-1.4-1.7-1.9-2.1-0.6c-0.7,2.4-1.5,7.9-3.3,9.7c-3.7,1.5-5.4,1.2-5.2-1c0-0.9,0-1.8,0.1-2.6
			c0-1.9,0.1-3.8,0.1-5.7c0.2-7.6,0.4-15.3,0.6-22.9C3465.559-785.724,3463.359-785.724,3463.259-784.325"/>
	</g>
	<g>
		<defs>
			<rect id="SVGID_71_" x="1973" y="-1346.12" width="5222.1" height="3285.4"/>
		</defs>
		<clipPath id="SVGID_72_">
			<use xlink:href="#SVGID_71_"  style="overflow:visible;"/>
		</clipPath>
		<path style="clip-path:url(#SVGID_72_);fill:#FFFFFF;" d="M3473.259-763.624c-0.5,3.9-3.1,15.4,3.3,16.2c2.1,0.3,3.8-1,4.9-2.6
			c0.8-1.2,1.1-2.7,1.6-4c0.6-1.7,3.7-10.9,5.5-5.2c0.9,2.9-3.3,15,4.4,13.9c5.9-0.8,4.8-13.8,4.6-17.7c-0.5,0.3-1.1,0.6-1.6,0.9
			c2.9,1.8,5.8,2.3,9,1.1c1.3-0.5,0.7-2.6-0.6-2.1c-2.5,0.9-5,0.6-7.3-0.9c-0.7-0.4-1.7,0.1-1.6,0.9c0.1,2.9,0.8,8.1-0.5,10.8
			c0.2,2.1-0.6,2.5-2.5,1.1c-1.9,0.2-2.6-0.5-2.1-2.1c-0.3-1.2,0.3-3.2,0.4-4.4c0.2-2.5,1-7.1-2.8-7.3c-3.3-0.3-4.6,4.1-5.6,6.4
			c-0.5,1.2-0.8,2.7-1.4,3.8c-1.3,2.2-5,4.1-6,1c-0.9-2.6,0.2-7.3,0.6-9.9C3475.559-765.024,3473.459-765.024,3473.259-763.624"/>
	</g>
	<g>
		<defs>
			<rect id="SVGID_73_" x="1973" y="-1346.12" width="5222.1" height="3285.4"/>
		</defs>
		<clipPath id="SVGID_74_">
			<use xlink:href="#SVGID_73_"  style="overflow:visible;"/>
		</clipPath>
		<path style="clip-path:url(#SVGID_74_);fill:#FFFFFF;" d="M3505.159-762.525c-2.7,4-6.6,10.8-3.3,15.5c3.1,4.4,8,1.9,9.7-2.2
			c1.5-3.5,4-11,0.8-14.3c-3.9-4.1-7.7,1.4-8.8,4.8c-0.4,1.3,1.7,1.9,2.1,0.6c0.3-1.1,0.7-2.9,1.7-3.7c3.8-2.9,4.2,1.5,4.1,3.1
			c-0.1,2.7-0.9,6-2,8.5c-0.3,0.8-0.7,1.6-1.3,2.3c-3.2,1.1-4.9,0.6-5.2-1.7c-0.6-1.5-0.2-3,0.3-4.5c0.8-2.6,2.1-5,3.7-7.3
			C3507.759-762.624,3505.859-763.724,3505.159-762.525"/>
	</g>
	<g>
		<defs>
			<rect id="SVGID_75_" x="1973" y="-1346.12" width="5222.1" height="3285.4"/>
		</defs>
		<clipPath id="SVGID_76_">
			<use xlink:href="#SVGID_75_"  style="overflow:visible;"/>
		</clipPath>
		<path style="clip-path:url(#SVGID_76_);fill:#FFFFFF;" d="M3512.059-760.124c-1.6,4.8-2.8,11.8,2.9,14.5c4.8,2.3,8.1-2.6,10.3-6.1
			c3.8-6.1,6.2-12.9,7.4-20c0.5-3,2.5-10.9-2.3-11.7c-5.3-1-7,9.8-7.6,12.9c-1.5,6.6-2.5,14.2,0.1,20.6c1.9,4.7,6,9.1,11.3,9.6
			c4.5,0.4,8.5-2.4,9.4-6.8c0.3-1.4-1.8-2-2.1-0.6c-1.3,6.1-8.5,6.2-12.6,2.7c-3-2.6-4.5-6.3-5-10.1c-0.5-3.7-0.2-7.5,0.4-11.3
			c0.3-1.8,0.7-3.7,1.1-5.5c0.2-1,0.9-4.6,1.6-5.3l4.2-1.5c0,1.1-0.1,2.2-0.2,3.3c-0.2,1.8-0.5,3.6-0.8,5.4
			c-0.6,2.9-1.4,5.8-2.5,8.6c-1.3,3.3-2.9,7-5.1,9.8c-3,3.9-9.4,4.1-9.7-1.7c-0.1-2.1,0.7-4.4,1.4-6.3
			C3514.659-760.924,3512.559-761.424,3512.059-760.124"/>
	</g>
	<g>
		<defs>
			<rect id="SVGID_77_" x="1973" y="-1346.12" width="5222.1" height="3285.4"/>
		</defs>
		<clipPath id="SVGID_78_">
			<use xlink:href="#SVGID_77_"  style="overflow:visible;"/>
		</clipPath>
		<path style="clip-path:url(#SVGID_78_);fill:#FFFFFF;" d="M3474.059-769.924c0.2-0.1,0.5-0.2,0.7-0.3c0.5-0.2,0.7-1,0.4-1.5
			c-0.3-0.6-1-0.6-1.5-0.4c-0.2,0.1-0.5,0.2-0.7,0.3c-0.5,0.2-0.7,1-0.4,1.5C3472.959-769.724,3473.559-769.624,3474.059-769.924"/>
	</g>
	<g>
		<defs>
			<rect id="SVGID_79_" x="1973" y="-1346.12" width="5222.1" height="3285.4"/>
		</defs>
		<clipPath id="SVGID_80_">
			<use xlink:href="#SVGID_79_"  style="overflow:visible;"/>
		</clipPath>
		<path style="clip-path:url(#SVGID_80_);fill:#FFFFFF;" d="M3457.559-780.124c10.1,1.1,20.2,1.9,30.3,2.2c1.4,0,1.4-2.1,0-2.2
			c-10.1-0.3-20.2-1-30.3-2.2C3456.159-782.424,3456.159-780.224,3457.559-780.124"/>
	</g>
</g>
</svg>
