<?xml version="1.0" encoding="iso-8859-1"?>
<!-- Generator: Adobe Illustrator 19.0.0, SVG Export Plug-In . SVG Version: 6.00 Build 0)  -->
<svg version="1.1" id="Layer_1" xmlns="http://www.w3.org/2000/svg" xmlns:xlink="http://www.w3.org/1999/xlink" x="0px" y="0px"
	 viewBox="5962.259 72.938 507.407 307.407" style="enable-background:new 5962.259 72.938 507.407 307.407;" xml:space="preserve">
<g>
	<g>
		<defs>
			<rect id="SVGID_1_" x="1973" y="-1346.12" width="5222.1" height="3285.4"/>
		</defs>
		<clipPath id="SVGID_2_">
			<use xlink:href="#SVGID_1_"  style="overflow:visible;"/>
		</clipPath>
		<path style="clip-path:url(#SVGID_2_);fill:#F09C4C;" d="M6147.159,159.476c0.6,0.1,1,0.5,1.5,0.7
			C6149.159,160.276,6149.159,159.976,6147.159,159.476"/>
	</g>
	<g>
		<defs>
			<rect id="SVGID_3_" x="1973" y="-1346.12" width="5222.1" height="3285.4"/>
		</defs>
		<clipPath id="SVGID_4_">
			<use xlink:href="#SVGID_3_"  style="overflow:visible;"/>
		</clipPath>
		<path style="clip-path:url(#SVGID_4_);fill:#F09C4C;" d="M6160.159,196.375c-1-0.3-2.1-0.3-3.2-0.4s-2.1-0.1-3.1,0
			c-0.3,0-3.3,0.7-3.4,0.6c-1.1-0.6-0.8-2.3-0.1-3.7c0.7-1.3,2.1-2.3,2.4-3c0.4-0.9,0.5-2,0.8-2.9s0.8-1.8,1-2.8
			c0.3-0.9,0.8-1.9,1-2.8c0.2-1,0.3-2,0.5-3c0.2-1.1,0-2.3,0.2-3.6c0.1-1.2,0.3-2.4,0.3-3.5c0-1.2-0.5-2.3-0.7-3.5
			c-0.3-1.2-0.8-2.1-1.4-3.1s-1.1-2.1-2.1-2.8c-0.9-0.6-1.8-1.4-3.1-1.8c-0.5-0.4-2.4-0.1-2.2-0.1c-1.3,0-2.3-0.3-3.2-0.2
			c-1.2,0.2-2.1,0.6-2.9,1.3c-0.7,0.5-1.3,1.3-2.1,2.4c-0.6,0.8-1,1.9-1.5,2.8c-0.6,0.9-1.1,1.8-1.5,2.8c-0.5,0.9-1.1,1.8-1.5,2.8
			s-0.6,2-1,3s-1.5,1.7-1.9,2.7c-0.3,1-0.2,2.2-0.5,3.2s-0.4,2.1-0.7,3.1c-0.3,1-0.8,2-1,3.1c-0.2,1,0,2.2-0.2,3.2s-1,2-1.1,3
			c-0.2,1-0.4,2.1-0.6,3.2c-0.2,1-0.1,2.1-0.3,3.2c-0.2,1-0.7,2.1-0.8,3.2c-0.1,1.1,0.7,2.1,0.8,3.2c0.1,1.1-0.4,2.2-0.1,3.3
			c0.2,1,1,1.9,1.4,2.9s1.2,1.7,1.8,2.6c0.6,0.8,0.9,2,1.8,2.7c0.8,0.7,1.9,0.9,2.9,1.4c1,0.6,1.9,1.3,2.9,1.7
			c1.1,0.3,2.2,0.7,3.3,0.8c1.1,0.2,2.3,0.1,3.4,0.1s2.3-0.2,3.4-0.3s2.3,0.1,3.4-0.1s2.1-1.2,3.1-1.5c1.1-0.3,2.199-0.7,3.199-1.1
			c1.101-0.4,2.201-0.7,3.201-1.2c1-0.6,2.1-1.1,3-1.8c0.9-0.8,1.699-1.6,2.4-2.5c0.699-0.9,1.6-1.8,1.899-3
			c0.3-1.1,0.2-2.3,0.101-3.5c-0.101-1.1-0.101-2.3-0.5-3.5c-0.5-1.2-1.101-2.2-1.701-3.1c-0.699-0.9-1.699-1.6-2.699-2.2
			C6162.559,197.076,6161.359,196.776,6160.159,196.375"/>
	</g>
	<g>
		<defs>
			<rect id="SVGID_5_" x="1973" y="-1346.12" width="5222.1" height="3285.4"/>
		</defs>
		<clipPath id="SVGID_6_">
			<use xlink:href="#SVGID_5_"  style="overflow:visible;"/>
		</clipPath>
		<path style="clip-path:url(#SVGID_6_);fill:#F09C4C;" d="M6293.859,176.576l-0.1,0.1c-0.5-0.9-1-1.8-1.6-2.7
			c-0.6-0.9-1.1-1.9-1.8-2.7c-0.7-0.8-1.3-1.8-2.2-2.4c-0.8-0.7-1.7-1.4-2.6-1.9c-0.9-0.6-2-1-2.9-1.5c-1-0.5-2.1-0.7-3.1-1.1
			s-2.1-0.5-3.1-0.8c-1.1-0.3-2.1-0.5-3.2-0.6s-2.1,0-3.2,0s-2.2-0.3-3.2-0.1c-1.1,0.2-2.3,0.3-3.2,0.8c-1,0.5-1.4,1.7-2.2,2.5
			c-0.7,0.8-1.3,1.7-1.8,2.7s-1.4,1.8-1.7,2.9c-0.3,1,0.2,2.3,0.1,3.4c-0.2,1.1-0.3,2.1-0.4,3.2s-0.7,2.2-0.7,3.3s0.301,2.2,0.4,3.3
			c0.1,1.1,0.5,2.2,0.6,3.3c0.1,1.1-0.3,2.3-0.199,3.4c0.1,1.1,0.299,2.2,0.399,3.3c0.101,1.1,0.3,2.2,0.5,3.3
			c0.2,1.1,0.5,2.2,0.8,3.3c0.301,1.1,0.9,2,1.301,3.1c0.399,1.1,0.299,2.3,0.799,3.3c0.5,1.1,0.801,2.2,1.4,3.1
			c0.6,1,1.6,1.7,2.2,2.5c0.7,0.9,1.4,1.8,2.101,2.6c0.799,0.8,1.6,1.6,2.5,2.2c1,0.6,2,1.2,3,1.6c1,0.5,2.1,0.9,3.199,1.2
			c1.1,0.2,2.301-0.2,3.4-0.2c1.1,0,2.2-0.1,3.2-0.4c1.1-0.3,2-0.8,3-1.3s2.2-0.7,3-1.5c0.8-0.7,1.2-1.8,1.9-2.8
			c0.6-0.9,1.2-1.8,1.7-2.7c0.5-1,1.4-1.8,1.8-2.8s1-2,1.3-3.1c0.3-1-0.2-2.3,0-3.4s0.6-2.1,0.8-3.2c0.1-1.1,0.5-2.1,0.6-3.2
			c0.101-1.1,0.101-2.3,0.101-3.4c0.1-1.1,0-2.3,0-3.4s0.5-2.3,0.399-3.5c-0.1-1.1-0.3-2.3-0.5-3.4s-1.1-2.1-1.399-3.2
			C6294.759,178.676,6294.359,177.576,6293.859,176.576 M6279.659,193.776c-1.3-0.1-2.7-1-3.1-2c-0.5-1.1-0.3-2.8,0.6-3.7
			c1.2-1.1,2.2,0.1,2.6,1.5c0.3,1.2,0,2.5-0.3,3.4C6279.559,192.976,6279.959,193.376,6279.659,193.776"/>
	</g>
	<g>
		<defs>
			<rect id="SVGID_7_" x="1973" y="-1346.12" width="5222.1" height="3285.4"/>
		</defs>
		<clipPath id="SVGID_8_">
			<use xlink:href="#SVGID_7_"  style="overflow:visible;"/>
		</clipPath>
		<path style="clip-path:url(#SVGID_8_);fill:#F09C4C;" d="M6212.56,188.476c0.6,2.9,0.1-0.8,0.1-0.1
			C6212.759,188.476,6212.56,188.476,6212.56,188.476"/>
	</g>
	<g>
		<defs>
			<rect id="SVGID_9_" x="1973" y="-1346.12" width="5222.1" height="3285.4"/>
		</defs>
		<clipPath id="SVGID_10_">
			<use xlink:href="#SVGID_9_"  style="overflow:visible;"/>
		</clipPath>
		<path style="clip-path:url(#SVGID_10_);fill:#F09C4C;" d="M6212.459,188.476c0-1,0-2.2-0.2-3.3c-0.2-1-0.8-2-1.1-3.1
			c-0.3-1-0.3-2.2-0.7-3.2c-0.4-1-0.8-2-1.2-3.1c-0.4-1-0.7-2.1-1.3-3.1c-0.5-1-1-2-1.6-2.9s-1.7-1.5-2.4-2.3
			c-0.7-0.9-1.1-1.9-1.9-2.7c-0.8-0.8-1.6-1.6-2.4-2.3c-0.9-0.7-1.8-1.3-2.8-1.8s-2.1-0.7-3.1-1s-2.1-0.8-3.2-0.9s-2.2,0.2-3.3,0.3
			c-1.2,0.1-2.4,0-3.4,0.6c-1,0.5-1.9,1.4-2.7,2.2s-1.2,1.9-1.8,2.9c-0.6,1-1.2,2-1.7,3c-0.5,1.1-0.8,2.2-1.2,3.2
			c-0.4,1.1-1.1,2.1-1.5,3.3c-0.4,1.1-0.3,2.4-0.7,3.5c-0.3,1.1-0.7,2.3-0.9,3.4c-0.3,1.2-0.8,2.3-1,3.5s-0.3,2.4-0.399,3.6
			c-0.101,1.2,0,2.4,0,3.6c0,1.1-0.5,2.2-0.601,3.4c-0.1,1.1-0.3,2.2-0.399,3.4c-0.101,1.1-0.301,2.3-0.301,3.4s0.2,2.3,0.301,3.4
			c0.1,1.2,0.6,2.2,0.799,3.3c0.201,1.1,0,2.4,0.5,3.4c0.4,1,1.1,1.9,1.801,2.7c0.699,0.9,1.9,1.1,2.699,1.7
			c0.9,0.7,1.4,1.8,2.301,2.2c1,0.4,2.199,0.3,3.199,0.3c1.1,0,2.1-0.1,3-0.7c0.801-0.5,1.4-1.3,1.9-2.4c0.4-0.8,0.4-1.9,0.6-3.1
			c0.1-1,0.701-2.1,0.801-3.2c0.1-1.1,0.1-2.2,0.199-3.2c0.1-1.2,0.4-2.2,0.701-3c0.399-1.2,0.699-2.3,1.699-2.4
			c1.2-0.2,2.301,0.3,2.9,1.1c0.6,0.7,0.5,1.9,0.8,3c0.2,1,0.8,2,0.9,3c0.1,1.1,0,2.2,0,3.2c0.1,1.3,0.5,2.4,0.6,3.1
			c0.2,1.1,0.101,2.2,0.601,3.2s1,2,1.699,2.8c0.7,0.8,1.9,1.1,2.801,1.7c0.899,0.6,1.699,1.4,2.699,1.7
			c1.1,0.3,2.301,0.5,3.301,0.3c1.1-0.2,2-0.9,2.799-1.8c0.701-0.7,1.5-1.6,1.801-2.8c0.299-1,0.299-2.1,0.4-3.2
			c0.1-1-0.301-2.1-0.301-3.2c0-1-0.199-2.1-0.199-3.1c0-1.1,0.199-2.1,0.199-3.2s0-2.1,0.1-3.2v-3.1c0.1-1,0.4-2,0.5-3.1
			c0.1-1,0.201-2,0.201-3.1c0-1-0.301-2-0.4-3.1C6212.459,190.576,6212.659,189.476,6212.459,188.476 M6192.359,187.576
			c-0.6,1.4-1,1.2-1.6,0.6s-1.4-1.5-1.5-2.1c-0.2-1,0.2-2.2,0.6-3.4c0.4-1.2,0.9-2.4,1.4-3.1c0.4,0.2,0.5,1.3,0.8,2.5
			c0.2,0.9,0.3,1.8,0.3,2.8c0.1,1.3,0.3,2.3-0.1,2.5C6192.859,187.076,6192.059,188.276,6192.359,187.576"/>
	</g>
	<g>
		<defs>
			<rect id="SVGID_11_" x="1973" y="-1346.12" width="5222.1" height="3285.4"/>
		</defs>
		<clipPath id="SVGID_12_">
			<use xlink:href="#SVGID_11_"  style="overflow:visible;"/>
		</clipPath>
		<path style="clip-path:url(#SVGID_12_);fill:#F09C4C;" d="M6240.059,185.176c-0.6-0.9,0.8-2.2,2.3-3.1c1.4-0.8,3.4-1.1,3.8-1.4
			c1-0.7,1.6-2,2.3-2.8c0.8-0.9,1.4-1.8,1.8-3c0.4-1,1.3-2.1,1.2-3.5c0-1.1-0.4-2.2-0.8-3.1c-0.4-1-1.5-1.5-2.2-2.3s-1-2-1.8-2.6
			s-2.2-0.4-3.1-0.8s-1.7-1.4-2.7-1.7s-2.1-0.1-3.1-0.2c-1.1-0.1-2.1-0.3-3.1-0.2c-1.1,0.1-2.1,0.3-3.1,0.6c-1,0.3-2,0.7-2.9,1.2
			s-1.7,1.1-2.5,1.8c-0.8,0.6-2,0.9-2.7,1.7c-0.7,0.8-0.9,2-1.5,2.8c-0.6,0.9-1.1,1.8-1.6,2.7s-1,1.8-1.4,2.8s-1.5,1.8-1.9,2.9
			c-0.3,1-0.2,2.3-0.5,3.4c-0.2,1.1-1,2.1-1.2,3.2s0.1,2.3,0,3.4s0,2.3,0,3.4s-0.1,2.3,0,3.4s0.5,2.2,0.7,3.3
			c0.2,1.1,0.2,2.3,0.5,3.4s0.6,2.2,1,3.2c0.4,1.1,0.8,2.1,1.3,3.1s0.6,2.3,1.2,3.2c0.6,1,1.3,1.9,2,2.8s1.8,1.4,2.6,2.2
			c0.8,0.8,1.4,1.8,2.4,2.5c0.9,0.6,2,1.1,3,1.7c1.1,0.6,2.1,1.2,3.2,1.6c1.2,0.4,2.3,0.8,3.5,0.9c1.2,0.2,2.4-0.4,3.6-0.4
			c1.2-0.1,2.4,0.1,3.5-0.1c1.1-0.3,2.1-1.1,3.2-1.6c1.2-0.5,2.2-1,2.9-1.9c0.7-0.9,0.9-2.1,1.3-3.3c0.4-1.1,0.6-2.2,0.8-3.4
			c0.2-1.2,0.3-2.3,0.4-3.5s0.2-2.4,0.2-3.6c0,0.5,0.3-1.5,0.3,0v-3.5c0-1.1,0.3-2.3,0.2-3.5c-0.1-1.1-0.4-2.4-0.7-3.5
			c-0.4-1.1-1.4-1.9-2.1-2.9c-0.5-0.7-1.2-1.4-2.2-1.9c-0.8-0.4-1.8-0.8-2.7-1.1c-1-0.3-1.8-0.9-2.7-1.2
			C6241.559,185.876,6240.459,185.776,6240.059,185.176 M6238.859,205.576c0.3,1.1-1.4,1.7-2.2,0.8c-0.9-0.9-1.4-2.4-2.3-3.5
			c-1.2-1.7-2.6-3.2-2.1-3.7c0.3-0.3,1.7-0.1,2.7,0.4c0.9,0.4,1.4,1.5,1.7,1.8C6237.259,201.876,6238.459,203.776,6238.859,205.576"
			/>
	</g>
	<g>
		<defs>
			<rect id="SVGID_13_" x="1973" y="-1346.12" width="5222.1" height="3285.4"/>
		</defs>
		<clipPath id="SVGID_14_">
			<use xlink:href="#SVGID_13_"  style="overflow:visible;"/>
		</clipPath>
		<path style="clip-path:url(#SVGID_14_);fill:#8ED4DB;" d="M6117.359,194.776c-0.7-1.2-2.1-1.6-3.3-2c-1.4-0.5-2.7-1.1-3-2.3
			c-0.2-0.9,0.6-2.3,0.9-3c0.5-1.3,1.1-2.6,1.2-4.1c0.1-1.4,0-2.6-0.6-3.5c-0.5-0.9-1.4-1.6-2.8-2.1c-1.2-0.4-2.3-0.6-2.9,0.1
			c-0.6,0.6-1.2,1.6-1.6,2.6c-0.3,0.9-0.2,2-0.5,2.9s-0.9,1.7-1.1,2.7c-0.2,0.9-0.2,1.9-0.4,2.9c-0.1,1-0.4,1.9-0.5,2.9
			c-0.1,1.3-0.2,2.9,0.2,4.2c0.4,1.1,1.7,1.8,3.3,2.3c1.1,0.4,2.4,0.9,3.9,1c1.4,0.1,2.9-0.4,4-0.4c1.2,0,2.4-0.1,3.1-0.9
			C6117.859,197.276,6118.159,196.176,6117.359,194.776"/>
	</g>
	<g>
		<defs>
			<rect id="SVGID_15_" x="1973" y="-1346.12" width="5222.1" height="3285.4"/>
		</defs>
		<clipPath id="SVGID_16_">
			<use xlink:href="#SVGID_15_"  style="overflow:visible;"/>
		</clipPath>
		<path style="clip-path:url(#SVGID_16_);fill:#8ED4DB;" d="M6101.959,182.276c-0.6-1.1-1.4-1.9-2.3-2.6c-1-0.7-1.9-1.7-3.1-2
			c0,0-1.2,0.3-2,0c-0.7-0.3-1.2-0.3-1.9-0.3c-1.1,0.1-2.1-0.4-3.1,0.6c-0.6,0.5-0.9,1.7-1.1,2.7c-0.2,0.9,0.3,2,0.1,2.8
			c-0.3,1.1-1.4,2.1-1.6,3.4c-0.2,1.2,0.5,2.5,0.399,3.7c0,1.2-0.6,2.5-0.399,3.7c0.2,1.1,1.1,1.8,1.8,2.4c0.7,0.7,1.5,1.2,2.5,1.5
			s2,0.3,3,0.3c1.1,0,2-0.3,2.9-0.6c1.4-0.4,1.9-1.1,2.1-2c0.2-1,0.3-2.2-0.7-3.1c-0.7-0.6-1.8-1.3-3-1.7c3.2,0.8,2.7,0.1,3.2-0.9
			c0.6-1.1,0.3-1.6-0.4-2.5c-0.7-0.8-1.2-1.5-2.1-2c0.9,0.4,1.8,0.4,2.9,0.4c1.199,0,2.699,0.2,3.3-0.4
			C6103.059,184.876,6102.759,183.676,6101.959,182.276"/>
	</g>
	<g>
		<defs>
			<rect id="SVGID_17_" x="1973" y="-1346.12" width="5222.1" height="3285.4"/>
		</defs>
		<clipPath id="SVGID_18_">
			<use xlink:href="#SVGID_17_"  style="overflow:visible;"/>
		</clipPath>
		<path style="clip-path:url(#SVGID_18_);fill:#8ED4DB;" d="M6081.859,177.576c-0.6-0.5-1.1-1.7-2.1-2.2c-0.9-0.5-2-0.6-2.9-0.9
			c-1.1-0.3-2.2-0.3-2.9-0.1c-1.1,0.3-1.8,1.4-1.9,2.8c-0.1,1.2,0.4,2.6,0.4,3.6c-0.1,1-0.4,2-0.5,3c0,1,0.1,2,0.1,3
			c0,1.2,0.4,2.3,0.5,3.5s-0.2,2.4,0,3.6c0.1,1.2,0.6,2.4,1.8,3.1c1.3,0.8,2.8,0.1,3.9-0.1s2.2-0.2,3-0.6c0.9-0.5,1.3-1.5,1.9-2.3
			s0.9-1.6,1.2-2.6c0.3-0.9,1-1.8,1.1-2.9c0.1-1,0.1-2,0.1-3c0-0.9-0.1-2-0.3-3c-0.2-0.9-0.9-1.8-1.3-2.7
			C6083.459,178.776,6082.659,178.276,6081.859,177.576 M6079.159,187.276l0.5-0.1
			C6079.459,187.076,6079.159,187.276,6079.159,187.276 M6079.56,187.776l-0.5-0.5l0.2,0.2l0.1,0.1
			C6079.359,187.676,6079.459,187.776,6079.56,187.776c-0.1-0.1-0.2-0.1-0.2-0.1c-1,1-1.1-2.6-1-3
			C6079.859,184.976,6080.159,187.176,6079.56,187.776"/>
	</g>
	<g>
		<defs>
			<rect id="SVGID_19_" x="1973" y="-1346.12" width="5222.1" height="3285.4"/>
		</defs>
		<clipPath id="SVGID_20_">
			<use xlink:href="#SVGID_19_"  style="overflow:visible;"/>
		</clipPath>
		<path style="clip-path:url(#SVGID_20_);fill:#EF87B6;" d="M6397.06,242.276c0,0.1,0.2,0.2,0.2,0.3l-0.3,0.1
			C6396.959,242.476,6397.06,242.376,6397.06,242.276"/>
	</g>
	<g>
		<defs>
			<rect id="SVGID_21_" x="1973" y="-1346.12" width="5222.1" height="3285.4"/>
		</defs>
		<clipPath id="SVGID_22_">
			<use xlink:href="#SVGID_21_"  style="overflow:visible;"/>
		</clipPath>
		<path style="clip-path:url(#SVGID_22_);fill:#EF87B6;" d="M6397.159,242.676l0.3-0.2h-0.1
			C6397.359,242.576,6397.159,242.676,6397.159,242.676"/>
	</g>
	<g>
		<defs>
			<rect id="SVGID_23_" x="1973" y="-1346.12" width="5222.1" height="3285.4"/>
		</defs>
		<clipPath id="SVGID_24_">
			<use xlink:href="#SVGID_23_"  style="overflow:visible;"/>
		</clipPath>
		<path style="clip-path:url(#SVGID_24_);fill:#EF87B6;" d="M6396.959,242.676l0.3,0.3v-0.4
			C6397.059,242.576,6396.959,242.676,6396.959,242.676"/>
	</g>
	<g>
		<defs>
			<rect id="SVGID_25_" x="1973" y="-1346.12" width="5222.1" height="3285.4"/>
		</defs>
		<clipPath id="SVGID_26_">
			<use xlink:href="#SVGID_25_"  style="overflow:visible;"/>
		</clipPath>
		<path style="clip-path:url(#SVGID_26_);fill:#EF87B6;" d="M6396.859,242.676h0.2l0.2-0.1c-0.3-1.2-0.7-2.3-1.1-3.3
			c-0.5-1.1-1-2.1-1.6-3.1s-1.4-1.9-2.2-2.7c-0.8-0.9-1.5-2-2.4-2.6c-1-0.7-2.3-0.7-3.4-1.1c-1.1-0.5-2.2-0.8-3.3-1
			c-1.2-0.2-2.3-0.6-3.4-0.6c-1.2,0.1-2.4,0.2-3.5,0.6s-2.1,1.1-3.1,1.8c-0.9,0.7-1.9,1.4-2.6,2.4c-0.7,0.9-1,2.1-1.4,3.3
			c-0.4,1-0.7,1.9-1,2.9s-0.2,2.1-0.4,3.1c-0.3,1-0.8,1.9-1,2.9s-0.3,2-0.5,3.1c-0.2,1-1,1.9-1.2,2.9s-0.3,2.1-0.5,3.1
			s-0.2,2.1-0.4,3.1c-0.2,1.1-0.8,2-1,3.1s0,2.2-0.2,3.3c-0.2,1.1-0.5,2.1-0.7,3.2s-0.5,2.1-0.6,3.2s-0.2,2.2-0.2,3.3
			c0,1.1,0,2.2,0.1,3.3c0,1.1,0.5,2.1,0.6,3.2c0.1,1,0.201,2,0.5,3c0.301,1,0.201,2.1,0.701,3.1c0.399,1,0.6,2.1,1.1,3
			s1.5,1.5,2.1,2.4c0.6,0.8,1.6,1.4,2.3,2.1c0.8,0.7,1.2,1.9,2,2.4c0.899,0.6,1.899,1.1,2.899,1.4c1.101,0.4,2.301,0.3,3.301,0.4
			c1.1,0.1,2.199-0.2,3.199-0.4c1.101-0.2,2.301,0,3.301-0.5s1.8-1.3,2.699-1.9c0.9-0.6,1.4-1.7,2.201-2.4
			c0.799-0.8,2-1.1,2.799-1.8c0.801-0.9,1.101-2.1,1.701-3.1s1.199-2,1.6-3.1c0.4-1.1,1.199-2.1,1.5-3.2c0.3-1.1,0.4-2.3,0.6-3.5
			c0.2-1.1-0.2-2.4-0.1-3.5c0.1-1.2-0.1-2.3-0.1-3.5c0-1.1,0.4-2.2,0.4-3.3s0.199-2.2,0.199-3.3s-0.199-2.2-0.199-3.4v-3.4
			c0-1.2,0.5-2.4,0.6-3.7c0.1-1.2-0.301-2.5-0.201-3.7c0.101-1.2,0.5-2.5,0.4-3.7
			C6397.759,244.976,6397.159,243.776,6396.859,242.676 M6378.359,270.375c-0.5,3-1.5-0.9-1.8-1.1c0-0.4,0.5-1.8,0.8-3.6
			c0.2-1.1,0.4-2.3,0.7-3.5c0.3-1.2,0.6-2.4,1-3.4c0.6-1.8,1.2-3.1,1.7-2.9c0.5,0.3,0.4,1.6,0.5,3.2c0.1,1,0.7,2.2,0.7,3.3
			c0,1.2-0.1,2.4-0.2,3.4c-0.2,1.7-0.5,3.1-0.8,3.4C6381.459,268.776,6377.859,274.176,6378.359,270.375"/>
	</g>
	<g>
		<defs>
			<rect id="SVGID_27_" x="1973" y="-1346.12" width="5222.1" height="3285.4"/>
		</defs>
		<clipPath id="SVGID_28_">
			<use xlink:href="#SVGID_27_"  style="overflow:visible;"/>
		</clipPath>
		<path style="clip-path:url(#SVGID_28_);fill:#EF87B6;" d="M6241.159,253.276c-0.1-1,0.1-2.2,0.1-3.3s0.2-2.2,0.1-3.3
			s-0.3-2.2-0.5-3.3c-0.2-1.1-0.5-2.2-1-3.2s-1.1-1.9-1.9-2.7c-0.699-0.8-1.4-1.8-2.4-2.4c-0.9-0.3-0.9,0.3-2.5-0.5
			c-1.799-0.5-3.199-0.7-4.5-0.3c-1.299,0.3-2.199,0.7-3,1.6c-0.699,0.8-1.5,1.8-2,2.8s-0.799,2.2-1.199,3.2
			c-0.4,1.1-0.9,2.2-1.201,3.3c-0.199,0.9,0.101,2.3-0.1,3.4c-0.299,1.2-0.699,2-2.199,1.3c-0.701-0.3-1.801-1-2.5-2.1
			c-0.6-0.9-0.9-2-1.4-3c-0.6-1.2-1.301-2.3-1.6-2.8c-0.5-0.9-0.5-2.2-1.201-3.1c-0.6-0.9-1.399-1.8-2.1-2.6
			c-0.799-0.9-1.699-1.4-2.6-2c-1-0.6-1.9-1.4-2.9-1.5s-1.9,0.6-3.1,1.2c-0.9,0.5-1.6,1-2.199,1.9c-0.5,0.8-1,1.7-1.201,2.8
			c-0.199,1-0.299,2-0.4,3c0,1,0,2,0.101,3.1c0,1,0.5,2,0.6,3c0.1,1.1,0,2.1,0.1,3.1c0.1,1.2-0.3,2.4-0.2,3.6c0,1.2-0.2,2.4-0.2,3.6
			s0.5,2.4,0.6,3.6c0,1.2,0.4,2.4,0.4,3.6s-0.6,2.4-0.6,3.6s0.1,2.4,0.1,3.6c0,1,0.3,2,0.2,3.1c0,1,0.1,2.1,0,3.2
			c-0.1,1-0.7,2.1-0.7,3.2s0.3,2.1,0.4,3.2s0.8,2,1,3c0.3,1.2,0.2,2.5,0.8,3.4c0.6,1,1.7,1.7,2.5,2.4c0.9,0.8,1.8,1.5,2.8,1.9
			c1.1,0.4,2.2,1.1,3.4,1c1.1-0.1,2.4-0.5,3.4-1.1s1.5-1.7,2.1-2.5c0.6-0.9,0.7-1.9,1-3c0.3-1,0.7-2,0.9-3.1
			c0.1-1.1,0.4-2.1,0.6-3.2s0.3-2.2,0.7-3.2c0.7,0.3,1.6,1.2,2.3,2.2c0.5,0.8,0.7,1.9,1.2,2.8s1.4,1.5,1.9,2.4c0.6,1,0.9,2,1.6,2.5
			c0.9,0.7,2.1,1,3.1,1.6s1.8,1.7,2.9,2.1c1.2,0.4,2.5,0.4,3.5,0.4c1.3,0,2.4-0.4,3.3-0.8c1.1-0.5,2.2-1,2.8-2
			c0.6-0.9,0.7-2.1,1-3.3c0.3-1.1,0.7-2.2,0.8-3.3c0.1-1.1,0-2.3-0.1-3.4c0-1.2-0.3-2.3-0.3-3.4c0-1.2,0.3-2.4,0.3-3.4
			c0-1.2,0.1-2.4,0.1-3.6s-0.4-2.4-0.4-3.6s0.4-2.4,0.4-3.6s-0.5-2.4-0.5-3.6s0-2.4-0.1-3.6
			C6241.359,255.576,6241.159,254.476,6241.159,253.276"/>
	</g>
	<g>
		<defs>
			<rect id="SVGID_29_" x="1973" y="-1346.12" width="5222.1" height="3285.4"/>
		</defs>
		<clipPath id="SVGID_30_">
			<use xlink:href="#SVGID_29_"  style="overflow:visible;"/>
		</clipPath>
		<path style="clip-path:url(#SVGID_30_);fill:#EF87B6;" d="M6349.859,237.376c-0.7-0.6-2-0.8-2.9-1.4c-0.8-0.6-1.5-1.5-2.4-2.1
			c-0.9-0.5-2-0.7-3-1.2c-0.9-0.5-1.6-1.5-2.6-1.9s-2.1-0.5-3.1-0.9s-2.1-0.5-3.1-0.8c-1.1-0.2-2.1-0.8-3.1-0.9
			c-1.2,0-2.4,0-3.3,0.4c-1,0.4-1.7,1.3-2.3,2.1c-0.6,0.8-0.7,1.8-1,2.9c-0.3,0.9-0.6,1.9-0.8,3c-0.1,1-0.2,2-0.3,3.1
			c0,1-0.4,2.1-0.3,3.1c0,1.1,0.5,2.1,0.5,3.1c0,1.1-0.3,2.2-0.3,3.1c-0.101,1-0.3,2-0.4,3.1c-0.1,1,0.4,2.1,0.3,3.1s-0.9,2-0.9,3
			s0.6,2.1,0.6,3.1s0.2,2,0.2,3.1c0,1-0.3,2-0.2,3.1c0,1,0.3,2.1,0.4,3.1s-0.2,2.1-0.1,3.1s-0.3,2.1-0.2,3.2c0.1,1,0.6,2,0.7,3.1
			c0.1,1,0.6,2,0.7,3.1c0.1,1-0.2,2.1-0.1,3.2c0.1,1,0.1,2.1,0.2,3.1c0.1,1.2,0.199,2.5,0.6,3.6c0.4,1.1,1.1,2.2,1.8,3.2
			c0.7,0.9,1.7,1.6,2.8,2.3c1.1,0.8,2.3,0.8,3.5,1c1.3,0.2,2.4,0.1,3.6-0.1c1.3-0.2,2.6-0.2,3.7-0.4c1.1-0.2,2.3-0.2,3.3-0.5
			c1.1-0.4,1.8-1.3,2.8-1.8s2.2-0.7,3-1.3c0.9-0.6,1.5-1.6,2.3-2.3c0.8-0.8,1.2-1.8,1.8-2.7c0.6-0.9,1.8-1.4,2.3-2.4
			c0.5-0.9,1.1-1.9,1.5-2.9s0.1-2.2,0.4-3.3c0.3-1,0.9-2,1.1-3.1c0.2-1,0.6-2.1,0.8-3.2c0.1-1.1-0.3-2.2-0.2-3.3s0.4-2.1,0.5-3.2
			s0.4-2.2,0.4-3.2c0-1.1-0.1-2.2-0.1-3.3s-0.7-2.2-0.7-3.3c-0.1-1.1,0.1-2.2-0.1-3.4c-0.1-1.1-0.4-2.2-0.6-3.3
			c-0.2-1.1-0.2-2.3-0.5-3.3c-0.3-1.1-0.6-2.2-1.1-3.2s-1.5-1.7-2.1-2.7c-0.601-0.9-1.101-1.9-1.9-2.8
			C6351.159,239.376,6350.759,238.176,6349.859,237.376 M6342.359,269.476c0.1-0.1,0.2-0.4,0.2-0.3
			S6342.359,269.476,6342.359,269.476 M6340.359,273.776l0.5,0.5l-0.3-0.3l0.3,0.3c0,0.1-0.1,0-0.1,0s-0.1-0.2-0.1-0.3
			c-1.2,1.3-2.1,1.3-2.7,0.5c-0.4-0.6-0.3-1.8-0.5-3.1c-0.1-0.9-0.1-2-0.2-3.1c0-1-0.4-2.1-0.3-3.1c0-1.1-0.2-2.2-0.2-3.2
			c0.1-1.1,0.4-2.2,0.6-3.1c0.2-1.5,0.6-2.7,0.8-3.2c1.1,0.4,1.8,1.4,2.5,2.3s1.5,1.7,1.9,2.8c0.3,1.1,0.3,2.3,0.3,3.4
			c0.1,1.1-0.1,2.3-0.3,3.4c-0.1,1.2,0.1,2.4-0.2,3.5C6342.059,272.276,6340.959,273.076,6340.359,273.776"/>
	</g>
	<g>
		<defs>
			<rect id="SVGID_31_" x="1973" y="-1346.12" width="5222.1" height="3285.4"/>
		</defs>
		<clipPath id="SVGID_32_">
			<use xlink:href="#SVGID_31_"  style="overflow:visible;"/>
		</clipPath>
		<path style="clip-path:url(#SVGID_32_);fill:#EF87B6;" d="M6285.259,247.576c-0.6-1.1-1.8-1.7-2.5-2.5c-0.7-0.9-1.2-2-2.1-2.8
			s-2-1.1-3-1.8c-1-0.6-1.7-1.7-2.8-2.2c-1.1-0.5-2.3-0.6-3.4-1s-2.3-0.6-3.4-0.9s-2.2-1-3.3-1.2c-1.2-0.3-2.3-0.5-3.4-0.8
			c-1-0.2-2.2-0.1-3.3-0.3c-1.1-0.2-2.2,0-3.3-0.1c-1.1-0.1-2.2-0.4-3.3-0.4c-1.2,0-2.2,0-3.3,0.3s-2.3,0.4-3.2,1
			c-0.8,0.6-1.2,1.8-1.7,2.9c-0.4,0.9-0.8,1.9-0.9,3.1c0,1.2,0,2.5,0.4,3.7s1.4,2.1,2,3.2c0.7,1.1,0.9,2.6,1.7,3.4
			c0.9,0.8,2.2,0.9,3,1.4c1,0.6,2.1,1,2.9,1.5c0.9,0.6,1.6,1.6,2.1,2.6c0.4,0.8,1,1.8,1.1,3.1c0.1,1.1-0.3,2.3-0.3,3.4
			s-0.6,2.2-0.7,3.3s0.2,2.3,0,3.4s0.1,2.3-0.1,3.4s-0.7,2.2-0.9,3.3c-0.1,1.1-0.4,2.2-0.5,3.3s-0.3,2.2-0.3,3.4
			c0,1.1,0.1,2.3,0.2,3.4c0.1,1,0.5,2.1,0.7,3.1c0.3,1,1,1.9,1.5,2.8c0.5,1,1,1.8,1.6,2.6c0.7,0.9,1.2,1.9,2,2.4
			c0.9,0.6,1.8,1.5,2.8,1.7s2.1-0.4,3.1-0.8c0.9-0.3,2.1-0.4,3-1.2c0.8-0.7,1.3-1.9,1.8-3c0.4-1,0.4-2.2,0.6-3.4
			c0.2-1.1,1-2.1,1.1-3.3c0.1-1.1,0.201-2.3,0.201-3.5s-0.601-2.3-0.701-3.4c0-1.2,0.301-2.4,0.301-3.5c-0.1-1.2,0.1-2.4,0.1-3.4
			c0-0.7-0.7-1.9-0.801-3.3c-0.1-1,0.101-2.2,0-3.3c-0.1-1.2,0.201-2.3,0.301-3.3c0.1-1.5,0.1-2.5,0.6-3c0.8-0.7,2.3-0.4,3.3-0.4
			c2.1,0.1,2.7,0.3,4.5-0.3c0.9-0.3,1.7-0.9,2.6-1.6c0.8-0.6,1.7-1.2,2.4-2.1c0.6-0.8,1.3-1.8,1.6-2.8s-0.1-2.1-0.2-3.2
			C6285.459,249.676,6285.759,248.576,6285.259,247.576"/>
	</g>
	<g>
		<defs>
			<rect id="SVGID_33_" x="1973" y="-1346.12" width="5222.1" height="3285.4"/>
		</defs>
		<clipPath id="SVGID_34_">
			<use xlink:href="#SVGID_33_"  style="overflow:visible;"/>
		</clipPath>
		<path style="clip-path:url(#SVGID_34_);fill:#EF87B6;" d="M6292.659,238.476c-0.7,0.8-0.6,2.1-1,3.1c-0.4,0.9-1.6,1.7-1.9,2.8
			c-0.3,1,0.2,2.3,0,3.3c-0.2,1.1-0.3,2.1-0.4,3.2c-0.2,1.1-0.9,2.1-1.1,3.1s0.1,2.1-0.1,3.1s-1,1.9-1.2,2.9s-0.1,2-0.3,3
			c-0.2,1-0.3,2-0.5,3s-0.8,1.9-1,2.9c-0.1,0.9,0,2-0.2,3.3c-0.2,1-0.1,2.1-0.3,3.3c-0.1,1-0.3,2.1-0.4,3.2s-0.3,2.2-0.4,3.3
			c0,1.1,0.4,2.2,0.4,3.3s-0.6,2.3-0.4,3.3c0.1,1.1,0.3,2.2,0.6,3.3c0.3,1.1,0.9,2.1,1.3,3c0.5,1,1,2.1,1.8,2.8
			c1,0.9,2.2,1.6,3.3,2.1c1.3,0.6,2.6,0.2,3.8,0.1c1.3-0.1,2.7,0,3.6-0.9c1-0.9,1.6-2.1,1.9-3.3c0.3-1.1,0.1-2.4,0.3-3.8
			c0.101-0.8-0.2-2.5-0.3-4.1c0-1.8,0.4-3.2,1.2-3.6c1.3-0.6,2,0.2,2.1,1.9c0.101,1.1-0.2,2.4-0.3,3.7c-0.1,1.5,0.1,2.8,0.3,3.6
			c0.3,1,0.7,2.1,1.101,3.1c0.399,1,0.5,2.2,1.1,3.2s1.6,1.6,2.4,2.3c0.899,0.7,1.699,1.5,2.799,1.8c1.6,0.4,2.801,0.2,3.701-0.2
			c1.1-0.5,1.299-1.7,1.699-3.1c0.301-1.1,0.9-2.3,1-3.6c0.1-1.1-0.1-2.2,0-3.3c0.1-1.1,0.2-2.2,0.301-3.2c0.1-1.1,0.1-2.2,0.1-3.2
			c0.1-1.1,0.5-2.1,0.6-3.2c0-1.1-0.1-2.2-0.1-3.3v-3.3c0-1.1-0.301-2.2-0.301-3.3c0-1.1-0.1-2.2-0.1-3.3s0.6-2.2,0.6-3.3
			c0-1.1-0.699-2.2-0.799-3.2c0-1.1,0.699-2.2,0.6-3.3c-0.1-1.1-0.9-2.1-1.1-3.2c-0.101-1.1,0.399-2.3,0.199-3.3
			c-0.199-1.1-0.6-2.1-0.8-3.2c-0.2-1.1-0.5-2.1-0.8-3.2c-0.3-1-1.1-1.9-1.4-3c-0.4-1.1-0.9-2.1-1.5-3.1s-1-2.2-1.699-3
			c-0.801-0.9-1.801-1.6-2.701-2.2c-1-0.6-2.1-0.9-3.199-1.3c-1.1-0.4-2.201-1.1-3.301-1.2c-1.199-0.1-2.4,0.3-3.5,0.6
			c-1.1,0.3-2.1,1-3,1.6C6294.659,237.276,6293.359,237.576,6292.659,238.476 M6305.659,268.276c-0.5,1.5-1.8,1.2-2.8-0.3
			c-0.6-1-0.3-2.6-0.5-3.8c-0.2-1.4-0.4-2.9,0.7-3.5c1.3-0.7,2.7,0,3.2,1.1c0.4,0.9,0.1,2.3,0.2,3.4
			C6306.459,266.576,6306.059,267.576,6305.659,268.276C6306.559,266.976,6305.559,268.476,6305.659,268.276 M6318.659,278.576
			c0,0.3,0.1,0.5,0.1,0.9C6318.759,279.076,6318.659,278.776,6318.659,278.576 M6317.959,278.476c0-0.3-0.1-0.6-0.1-0.9
			C6317.859,277.876,6317.959,278.176,6317.959,278.476"/>
	</g>
	<g>
		<defs>
			<rect id="SVGID_35_" x="1973" y="-1346.12" width="5222.1" height="3285.4"/>
		</defs>
		<clipPath id="SVGID_36_">
			<use xlink:href="#SVGID_35_"  style="overflow:visible;"/>
		</clipPath>
		<path style="clip-path:url(#SVGID_36_);fill:#EF87B6;" d="M6144.959,231.176c-1.6,0-2.7-0.1-3.6,0.1c-1.2,0.2-2,0.8-3.3,1.5
			c-0.9,0.5-1.6,1.2-2.4,2c-0.7,0.7-1.8,1.2-2.4,2.1c-0.7,1-1,2.4-1.4,3.5c-0.4,1.2-0.2,2.5-0.5,3.7s-1.1,2.3-1.3,3.6
			c-0.2,1.2,0.1,2.6-0.1,3.8c-0.2,1.1-0.5,2.1-0.7,3.2s-0.9,2.1-1.1,3.1c-0.2,1.1-0.3,2.2-0.5,3.2c-0.2,1.1,0.2,2.2,0,3.3
			c-0.1,1.1,0,2.2-0.1,3.3c-0.1,1.1-0.5,2.1-0.6,3.2c-0.101,1.1-0.3,2.2-0.3,3.3s0.199,2.2,0.199,3.3s0.101,2.2,0.201,3.3
			c0.1,1.1-0.1,2.2,0.299,3.2c0.301,1,1.201,1.8,1.701,2.7s0.799,2,1.5,2.8c0.699,0.8,1.699,1.3,2.5,2c0.799,0.7,1.199,2,2.1,2.5
			c0.9,0.6,2,0.8,3,1.2s2.1,0.5,3.1,0.7c1.1,0.2,2.2,0.5,3.2,0.4c1-0.2,1.899-0.9,2.899-1.4c0.801-0.5,1.9-0.9,2.701-1.7
			c0.699-0.7,1.299-1.7,1.799-2.6s0.601-1.9,0.701-3c0.1-1,0.4-2,0.1-3.1c-0.301-1-0.9-2-1.6-2.9c-0.701-0.8-1.801-1.3-2.801-1.8
			c-1-0.6-2-0.9-3-0.9c-1.1,0-2.299,0.4-3.299-0.2c0-1.3,0.199-2.6,0.399-3.8c0.2-1.2,1.101-2.3,1.4-3.5c0.3-1.2,0.6-2.4,0.8-3.6
			c0.2-1.2,0.4-2.5,0.5-3.7s-0.3-2.4-0.3-3.6s-0.2-2.4-0.3-3.5v-3.7c0.9,0.3,1.6,1.4,2.3,2.1c0.7,0.6,1.8,0.7,2.8,1.1
			c1.1,0.4,2,0.6,3,0.4c1.1-0.2,2.3,0,3.2-0.7c0.7-0.6,1.3-1.6,1.8-2.5c0.5-0.8,0.2-2,0.5-3c0.3-0.9,1.2-1.8,1.4-2.7
			c0.2-1.1-0.7-2.3-0.9-3.4c-0.2-1.1,0.1-2.4-0.3-3.4c-0.5-1-1.4-1.8-2.1-2.7s-1.3-1.8-2.2-2.6c-0.8-0.7-1.8-1.4-2.8-2s-2-1-3.1-1.4
			C6147.059,232.176,6146.059,231.376,6144.959,231.176"/>
	</g>
	<g>
		<defs>
			<rect id="SVGID_37_" x="1973" y="-1346.12" width="5222.1" height="3285.4"/>
		</defs>
		<clipPath id="SVGID_38_">
			<use xlink:href="#SVGID_37_"  style="overflow:visible;"/>
		</clipPath>
		<path style="clip-path:url(#SVGID_38_);fill:#EF87B6;" d="M6114.759,233.976c-1.2,0.6-2,1.5-2.3,2.7c-0.3,1.1-0.2,2.5-0.6,3.6
			c-0.2,0.5-0.6,1.5-0.7,3c-0.1,0.9-0.3,2-0.4,3.1c-0.1,1,0.3,2.1,0.2,3.2c-0.2,1-0.7,1.6-1,2.5c-0.3-1-0.9-1.5-1.2-2.7
			c-0.3-1-0.8-2-1.1-3.2c-0.3-1-0.3-2.2-0.6-3.3s-0.9-2-1.3-3.1s-0.5-2.2-0.9-3.2c-0.5-1-0.6-2.3-1.1-3.2c-0.6-1-1.6-1.7-2.3-2.5
			c-0.7-0.8-1.8-1.3-2.7-1.9c-0.9-0.6-1.6-1.5-2.7-1.9c-0.8-0.2-3.9-0.9-2.5-0.5c-1.3-0.4-2.4-0.8-3.3-0.7c-1.2,0.2-2.2,0.9-2.8,1.9
			c-0.6,0.8-0.8,2-1,3.2c-0.2,1,0,2.2-0.1,3.3c-0.1,1.1-0.2,2.2-0.3,3.3c-0.1,1.2-0.6,2.2-0.7,3.3c-0.2,1.1-0.7,2.2-0.9,3.3
			c-0.1,1.1,0.3,2.3,0.2,3.4c-0.1,1.1-0.7,2.2-0.8,3.3c-0.1,1.1,0.1,2.3,0.1,3.4c-0.1,1.1,0.3,2.3,0.2,3.4s-0.8,2.2-0.9,3.3
			c-0.1,1.1-0.3,2.2-0.3,3.3c-0.1,1.1,0.5,2.3,0.4,3.4c-0.1,1-0.7,2.1-0.9,3.3c-0.2,1-0.6,2.1-0.9,3.3c-0.2,1.1,0.1,2.3,0,3.5
			c-0.1,1.1-0.5,2.2-0.5,3.4c0,1.2-0.3,2.4-0.1,3.5c0.2,1.1,0.7,2.3,1.1,3.3c0.5,1,1.6,1.5,2.5,2.4s1.6,1.8,2.4,2.3
			c1.2,0.8,2.1,1.1,3.1,1.2c1.2,0.1,2.3,0,3.2-0.9c0.7-0.7,1.4-1.7,1.8-3c0.4-1,0-2.2,0.3-3.5c0.2-1,0.5-2.1,0.6-3.3
			c0.1-1.1,0.1-2.2,0.2-3.4c0.1-1.1,0.5-2.4,0.6-3.6c0.6,1.3,0.9,2.4,1.2,3.1c0.4,0.9,0.8,1.6,1.4,2.8c0.4,0.7,0.8,1.6,1.4,2.8
			c0.1,0.8,0.6,1.7,1.2,2.6s0.8,1.9,1.3,2.6c0.6,0.9,1.6,1.7,2.1,2.7c0.5,1.1,0.9,2.1,1.5,3s1.1,2,2.2,2.6c1.3,0.7,2.5,1.1,3.5,1.1
			c1.3,0,2.5-0.7,3.4-1.5c0.8-0.8,1.7-1.8,2.2-3c0.5-1.1,0.5-2.4,0.8-3.6c0.3-1.3,0.5-2.5,0.7-3.5c0.2-1.1-0.1-2.2,0-3.3
			c0.1-1.1,0.5-2.1,0.6-3.2s0.1-2.1,0.2-3.2s0.8-2.1,0.9-3.2s0-2.2,0.1-3.2c0.1-1.1-0.1-2.2,0-3.2c0.1-1.1,0.5-2.1,0.7-3.2
			c0.1-1.2-0.2-2.4,0-3.5s0.5-2.3,0.8-3.4c0.2-1.1,0.7-2.2,1-3.3c0.3-1.1,0.6-2.2,0.8-3.4c0.3-1.1,0.5-2.3,0.7-3.4s0.1-2.3,0.2-3.5
			c0.1-1,0.3-2,0.1-3.1c-0.2-1.1-0.1-2.2-0.6-3.2c-0.4-1-0.8-2.2-1.4-3c-0.7-0.9-1.9-1.3-2.8-1.8s-2-0.5-3.1-0.5
			C6116.859,233.476,6115.859,233.376,6114.759,233.976"/>
	</g>
	<g>
		<defs>
			<rect id="SVGID_39_" x="1973" y="-1346.12" width="5222.1" height="3285.4"/>
		</defs>
		<clipPath id="SVGID_40_">
			<use xlink:href="#SVGID_39_"  style="overflow:visible;"/>
		</clipPath>
		<path style="clip-path:url(#SVGID_40_);fill:#EF87B6;" d="M6067.559,231.076c-0.7,0.1-2.1-0.7-3.6-0.8c-1.3-0.1-2.7,0.1-3.6,0.1
			c-1,0-2.1-0.1-3.1-0.2c-1.1-0.1-2.2-0.7-3.2-0.5c-1.1,0.2-2.1,0.9-3.1,1.5c-1,0.5-1.9,1.3-2.7,2c-0.9,0.8-1.6,1.7-2.1,2.6
			c-0.5,1.1-1.1,2.1-1.5,3.2s-0.4,2.3-0.7,3.5c-0.4,1.1-1.3,2.1-1.6,3.2c-0.3,1.1-0.601,2.3-0.8,3.4c-0.301,1.1-0.301,2.4-0.5,3.5
			c-0.2,1.2-0.601,2.3-0.801,3.5c-0.199,1.2-0.3,2.3-0.399,3.5c-0.101,1.1,0.399,2.3,0.2,3.4c-0.101,1.1-0.801,2.2-0.9,3.3
			c-0.1,1.1-0.2,2.2-0.3,3.4c-0.101,1.1,0.1,2.3,0.1,3.4c-0.1,1.1,0,2.3-0.1,3.4c-0.101,1.1-0.7,2.2-0.7,3.3
			c-0.1,1.1,0.5,2.3,0.4,3.4c-0.101,1.2-0.5,2.4-0.601,3.7c-0.1,1.2,0.101,2.4,0.5,3.7c0.3,1.1,0.9,2.1,1.8,3.1
			c0.7,0.8,1.301,1.8,2.301,2.4c0.899,0.5,2.1,0.8,3.1,1.1c1.1,0.4,2.1,0.9,3.1,1.1c1.2,0.2,2.3,0.3,3.3,0.4
			c1.1,0.1,2.3-0.2,3.4-0.3c1.1-0.1,2.3,0.3,3.4,0.1c1.1-0.2,2.1-0.8,3.2-1.2c1.1-0.4,2.1-0.8,3.1-1.3c1-0.6,1.9-1.2,2.8-1.9
			c0.9-0.7,2.1-1.2,2.8-2s1.3-1.9,1.8-2.9s0.9-2,1.2-3.1c0.3-1.1,0.1-2.2,0.1-3.3s-0.2-2.1-0.6-3.2c-0.3-1-0.2-2.3-0.8-3.3
			c-0.6-0.9-1.8-1.3-2.6-2.2c-0.7-0.7-1.101-2.1-2.101-2.7c-0.6-0.4-2.3-0.2-3.8-0.7c-1.2-0.4-2.2-1.4-3.3-1.9c-1.6-0.7-2.8-1-2.6-2
			c0,0,1.5,0.3,3.5,0.5c1.2,0.1,2.5-0.2,3.7-0.1c1.6,0.1,3,0.2,3.5,0.1c1.101-0.2,2.2-0.1,2.9-0.4c1-0.5,1.8-1.2,2.2-2
			c0.5-0.8,0.4-1.7,0.4-2.9c0-0.9,0.2-1.9-0.1-3c-0.2-0.8-0.8-1.6-1.2-2.5s-1.1-1.5-1.7-2.2c-0.4-0.5-1-1.5-1.9-2.1
			c-1-0.7-2.5-1.4-2.6-1.8c0.9-0.3,2.2-0.3,3.2-0.6c1-0.3,1.8-1,2.8-1.4s2.2-0.2,3.1-0.7s1.6-1.4,2.3-2.1c0.8-0.7,1.3-1.6,1.7-2.5
			c0.5-1.1,1.1-2.3,1.1-3.4c0-1.2-0.3-2.5-0.9-3.5c-0.5-1-1.6-1.7-2.6-2.5c-0.9-0.7-2-1-3.2-1.5c-1-0.4-2-0.9-3.3-1.1
			C6069.959,230.876,6068.859,231.076,6067.559,231.076"/>
	</g>
	<g>
		<defs>
			<rect id="SVGID_41_" x="1973" y="-1346.12" width="5222.1" height="3285.4"/>
		</defs>
		<clipPath id="SVGID_42_">
			<use xlink:href="#SVGID_41_"  style="overflow:visible;"/>
		</clipPath>
		<path style="clip-path:url(#SVGID_42_);fill:#EF87B6;" d="M6197.359,292.076c0,0.1-0.3,0.3-0.4,0.2
			C6197.159,292.176,6197.359,292.076,6197.359,292.076"/>
	</g>
	<g>
		<defs>
			<rect id="SVGID_43_" x="1973" y="-1346.12" width="5222.1" height="3285.4"/>
		</defs>
		<clipPath id="SVGID_44_">
			<use xlink:href="#SVGID_43_"  style="overflow:visible;"/>
		</clipPath>
		<path style="clip-path:url(#SVGID_44_);fill:#EF87B6;" d="M6181.06,264.076c0.1-0.1-0.3-0.5-0.3-0.7
			C6180.659,263.476,6180.659,264.176,6181.06,264.076"/>
	</g>
	<g>
		<defs>
			<rect id="SVGID_45_" x="1973" y="-1346.12" width="5222.1" height="3285.4"/>
		</defs>
		<clipPath id="SVGID_46_">
			<use xlink:href="#SVGID_45_"  style="overflow:visible;"/>
		</clipPath>
		<path style="clip-path:url(#SVGID_46_);fill:#EF87B6;" d="M6197.259,291.976c0-0.1,0.1-0.2,0.1-0.3
			C6197.359,291.776,6197.259,291.876,6197.259,291.976"/>
	</g>
	<g>
		<defs>
			<rect id="SVGID_47_" x="1973" y="-1346.12" width="5222.1" height="3285.4"/>
		</defs>
		<clipPath id="SVGID_48_">
			<use xlink:href="#SVGID_47_"  style="overflow:visible;"/>
		</clipPath>
		<path style="clip-path:url(#SVGID_48_);fill:#EF87B6;" d="M6196.859,291.576c-0.3-1.2-0.2-2.3-0.2-3.5s-0.2-2.4-0.1-3.6
			s0-2.3,0-3.5s0.6-2.4,0.5-3.6s-0.8-2.3-0.9-3.5s-0.1-2.4-0.3-3.5c-0.1-1.2-0.2-2.4-0.3-3.5c-0.1-1,0-2.1-0.1-3.3
			c-0.1-1-0.2-2.1-0.3-3.3c-0.1-1.1-0.3-2.1-0.4-3.3c-0.1-1.1-0.3-2.2-0.4-3.2c-0.2-1.1,0.1-2.2-0.1-3.3c-0.2-1.1-0.5-2.2-0.7-3.2
			c-0.3-1.1-0.9-2-1.3-3c-0.4-1.1-0.9-2-1.4-3s-0.8-2.1-1.4-2.9c-0.6-0.9-1.4-1.8-2.2-2.6c-0.8-0.8-1.6-1.6-2.6-2.2s-2-1.2-3-1.6
			c-1.1-0.4-2.3-0.2-3.4-0.4c-1.2-0.2-2.3-0.9-3.4-0.8c-1.2,0.2-2.399,0.5-3.399,1.1s-1.601,1.8-2.4,2.6
			c-0.801,0.8-1.701,1.6-2.4,2.6c-0.6,1-1.2,2-1.7,3.1c-0.5,1-0.4,2.3-0.8,3.4s-1.4,2-1.7,3.1c-0.3,1.1-0.3,2.4-0.5,3.5
			c-0.2,1.2-0.3,2.3-0.5,3.5c-0.2,1.1-0.101,2.3-0.2,3.4c-0.1,1.1-0.2,2.2-0.3,3.4c-0.101,1.1-0.8,2.2-0.8,3.3
			c-0.1,1.1,0.199,2.3,0.199,3.4c-0.1,1.1-0.299,2.2-0.299,3.4c0,1.1,0.4,2.3,0.4,3.4s-0.101,2.3-0.101,3.4v3.4
			c0,1.1-0.7,2.3-0.6,3.4s1.2,2.1,1.5,3.1c0.3,1.1,0.3,2.3,0.8,3.2c0.6,1,1.4,1.8,2.2,2.5c0.8,0.7,1.6,1.8,2.7,2.1
			c1,0.3,2.2-0.4,3.4-0.5c1-0.1,2-0.2,3.2-0.7c1.3-0.5,2-1,2.6-1.7c0.6-0.8,0.6-1.8,0.8-3c0.1-0.9,0.1-2,0.4-3.2
			c0.2-1.3-0.5-3.2,1.5-3.4c0.8,0,0.8,1.7,0.9,3.1c0.1,1.2,0.3,2.6,0.4,3.1c0.3,1.1,1.2,2,1.9,2.9c0.7,0.9,1.3,2,2.2,2.7
			c0.9,0.7,2.1,1.2,3.1,1.7c1.1,0.5,2.3,0.8,3.3,1.1c1.3,0.2,2.4,0.2,3.4-0.1c1.2-0.3,2.6-0.7,3.1-1.8c0.4-0.9,0.3-2.2,0-3.7
			C6197.059,291.376,6196.859,291.476,6196.859,291.576 M6180.859,263.676c-1.7,0.2-2.5-0.3-2.9-1.1c-0.5-0.9-0.7-2.1-0.2-3.3
			c0.4-1.2,1.2-2.6,1.9-3.2c0.5,0.5,0.7,2.2,1,3.7c0.2,1.3,0.9,2.7,0.8,3.5C6181.459,263.176,6181.159,263.176,6180.859,263.676"/>
	</g>
	<g>
		<defs>
			<rect id="SVGID_49_" x="1973" y="-1346.12" width="5222.1" height="3285.4"/>
		</defs>
		<clipPath id="SVGID_50_">
			<use xlink:href="#SVGID_49_"  style="overflow:visible;"/>
		</clipPath>
		<path style="clip-path:url(#SVGID_50_);fill:#EF87B6;" d="M6019.959,240.676c1,0.4,2.1,0.4,3.1,0.8s1.9,1.2,2.9,1.5
			c1,0.4,2,0.7,3.1,1c1.6,0.6,3.1-1,3.1-2.6c0-0.9-0.6-1.4-1.2-2.1c-0.6-0.7-1.1-1.1-1.9-1.4c-1-0.4-1.8-1.3-2.8-1.7
			c-1-0.4-2.1-0.5-3.1-0.9s-1.9-1-2.9-1.4c-1.6-0.6-2.9,1.1-2.9,2.6c0,0.9,0.4,1.5,1,2.1c0.6,0.7,1.1,1.3,1.9,1.6
			C6020.159,240.476,6019.959,240.676,6019.959,240.676"/>
	</g>
	<g>
		<defs>
			<rect id="SVGID_51_" x="1973" y="-1346.12" width="5222.1" height="3285.4"/>
		</defs>
		<clipPath id="SVGID_52_">
			<use xlink:href="#SVGID_51_"  style="overflow:visible;"/>
		</clipPath>
		<path style="clip-path:url(#SVGID_52_);fill:#F09C4C;" d="M6011.959,253.476c1,0.2,2.1,0.4,3.1,0.6s2.1,0.5,3.1,0.7
			s1.9,1.2,2.9,1.4c1,0.2,2.1,0.1,3.2,0.3c1,0.2,2.1,0,3.2,0.2c1.4,0.3,2.5,0.2,2.9-0.7c0.4-0.9-0.2-2.1-0.8-3.1
			c-0.5-0.9-1-1.9-2.2-2.2c-1-0.2-2.1-0.3-3.1-0.5s-2.1-0.2-3.1-0.4s-2-0.8-3-1s-2.2,0.1-3.2-0.1s-1.9-1.1-3-1.3
			c-1.4-0.3-2.7,0.6-3.1,1.5c-0.4,0.9,0.3,2.1,0.9,3.1c0.5,0.9,1,2,2.2,2.2C6012.059,254.176,6011.959,253.476,6011.959,253.476"/>
	</g>
	<g>
		<defs>
			<rect id="SVGID_53_" x="1973" y="-1346.12" width="5222.1" height="3285.4"/>
		</defs>
		<clipPath id="SVGID_54_">
			<use xlink:href="#SVGID_53_"  style="overflow:visible;"/>
		</clipPath>
		<path style="clip-path:url(#SVGID_54_);fill:#EF87B6;" d="M6015.359,273.276c1.2,0,2.4,0.1,3.6,0.1s2.4-0.2,3.6-0.2
			c1.4,0,2-0.9,2.1-2c0.1-1-0.4-1.9-1.1-2.8c-0.7-0.8-1.4-1.2-2.6-1.2s-2.4-0.8-3.6-0.8c-1.2,0-2.4,0.6-3.6,0.6
			c-1.4,0-2,0.5-2.1,1.6c-0.1,1,0.2,2.1,0.9,3c0.7,0.8,1.8,0.9,2.9,1C6015.659,272.576,6015.359,273.276,6015.359,273.276"/>
	</g>
	<g>
		<defs>
			<rect id="SVGID_55_" x="1973" y="-1346.12" width="5222.1" height="3285.4"/>
		</defs>
		<clipPath id="SVGID_56_">
			<use xlink:href="#SVGID_55_"  style="overflow:visible;"/>
		</clipPath>
		<path style="clip-path:url(#SVGID_56_);fill:#F09C4C;" d="M6017.259,297.576c1-0.5,2-0.9,3-1.4s1.9-1.1,2.9-1.6s2.2-0.6,3.2-1.1
			s1.7-1.5,2.7-2s2.2-0.6,3.2-1.2c1.1-0.6,1.1-2.1,0.7-3.2c-0.4-0.9-1.5-1.4-2.4-2c-1-0.6-1.9-1.4-2.9-0.8c-1,0.5-1.9,1.1-2.9,1.6
			s-2,0.9-3,1.5c-1,0.5-1.7,1.5-2.7,2s-2,1-2.9,1.5c-1,0.5-2.2,0.6-3.2,1.1c-1.1,0.6-1.3,2.1-0.9,3.2c0.4,0.9,1.2,2,2.1,2.6
			c1,0.6,2.5,0.7,3.5,0.2C6017.859,297.976,6017.259,297.576,6017.259,297.576"/>
	</g>
	<g>
		<defs>
			<rect id="SVGID_57_" x="1973" y="-1346.12" width="5222.1" height="3285.4"/>
		</defs>
		<clipPath id="SVGID_58_">
			<use xlink:href="#SVGID_57_"  style="overflow:visible;"/>
		</clipPath>
		<path style="clip-path:url(#SVGID_58_);fill:#F09C4C;" d="M6419.359,245.076c-1,0.3-2.1,1-3.2,1.1c-1.1,0-2.2-0.3-3.3-0.5
			c-1.6-0.3-3.1,0.4-3.1,2.1c0,0.8,0.7,1.5,1.3,2.2c0.6,0.7,1.1,1.3,1.9,1.5c1.1,0.2,2.1,0.3,3.2,0.4s2.2,0.3,3.2,0.1
			c1.1-0.1,2.3,0.1,3.3-0.2c1.2-0.4,1.4-1.8,1.2-2.9c-0.2-1-0.4-2.3-1.3-3c-0.8-0.7-2-0.6-3.1-0.2
			C6419.459,245.476,6419.359,245.076,6419.359,245.076"/>
	</g>
	<g>
		<defs>
			<rect id="SVGID_59_" x="1973" y="-1346.12" width="5222.1" height="3285.4"/>
		</defs>
		<clipPath id="SVGID_60_">
			<use xlink:href="#SVGID_59_"  style="overflow:visible;"/>
		</clipPath>
		<path style="clip-path:url(#SVGID_60_);fill:#EF87B6;" d="M6409.959,263.976c1,0.3,2.1,0.4,3,0.7c1,0.3,2.1,0.3,3.1,0.6
			s1.8,1.3,2.8,1.6c1,0.3,2,0.7,3,1s2.1,0.1,3.1,0.4s2.1,0.3,3.1,0.6c1.4,0.4,1.8,0.2,2.2-0.7s1-2.1,0.4-3.1c-0.5-0.9-1.6-1.7-2.7-2
			c-1-0.3-2.1-0.2-3.1-0.5s-1.9-0.8-2.9-1.1c-1-0.3-2.1-0.3-3.1-0.6c-1-0.3-2-0.6-3-0.9s-1.9-0.7-2.9-1s-1.9-1-2.9-1.3
			c-1.4-0.4-2.3,0.1-2.7,1s-0.3,2.1,0.2,3.1c0.5,0.9,1.4,1.5,2.5,1.9C6410.159,263.776,6409.959,263.976,6409.959,263.976"/>
	</g>
	<g>
		<defs>
			<rect id="SVGID_61_" x="1973" y="-1346.12" width="5222.1" height="3285.4"/>
		</defs>
		<clipPath id="SVGID_62_">
			<use xlink:href="#SVGID_61_"  style="overflow:visible;"/>
		</clipPath>
		<path style="clip-path:url(#SVGID_62_);fill:#F09C4C;" d="M6420.56,282.176c1.1,0.6,2.1,1.6,3.2,2.1c1.1,0.6,2.3,1.1,3.4,1.7
			s2.3,1,3.5,1.6c1.3,0.7,2.4,0.5,3.1-0.1c0.7-0.7,0.6-1.8,0.2-2.9c-0.3-0.9-0.5-2-1.6-2.6s-2.3-1.1-3.4-1.7s-2.3-1.2-3.4-1.8
			c-1.1-0.6-2.2-1.2-3.4-1.8c-1.3-0.7-2.5-0.5-3.2,0.1c-0.7,0.7-0.5,1.9-0.2,3c0.3,0.9,0.4,2.2,1.6,2.7
			C6420.459,282.576,6420.56,282.176,6420.56,282.176"/>
	</g>
	<g>
		<defs>
			<rect id="SVGID_63_" x="1973" y="-1346.12" width="5222.1" height="3285.4"/>
		</defs>
		<clipPath id="SVGID_64_">
			<use xlink:href="#SVGID_63_"  style="overflow:visible;"/>
		</clipPath>
		<path style="clip-path:url(#SVGID_64_);fill:#EF87B6;" d="M6409.159,291.976c0.7,0.7,1.6,1.3,2.3,2c0.8,0.7,1.3,1.7,2.1,2.3
			c0.8,0.6,1.5,1.5,2.3,2c0.8,0.6,1.8,1,2.7,1.5s1.9,0.8,2.8,1.3c1.3,0.7,2,0.3,2.7-0.3c0.7-0.7,1.4-1.6,1.1-2.7
			c-0.3-0.9-0.899-2-2-2.6c-1-0.5-2-1-3-1.6s-2.2-0.8-3.1-1.5s-1.5-1.8-2.4-2.5c-0.8-0.7-1.5-1.6-2.3-2.4c-1-1-2.2-0.7-3-0.4
			c-0.9,0.3-1.2,1.1-1.2,2.3c0,0.9,0.3,1.6,1.2,2.5C6409.359,291.776,6409.159,291.976,6409.159,291.976"/>
	</g>
	<g>
		<defs>
			<rect id="SVGID_65_" x="1973" y="-1346.12" width="5222.1" height="3285.4"/>
		</defs>
		<clipPath id="SVGID_66_">
			<use xlink:href="#SVGID_65_"  style="overflow:visible;"/>
		</clipPath>
		<path style="clip-path:url(#SVGID_66_);fill:#FFFFFF;" d="M6116.359,150.976c6.7-4.9,13.6-10,17.6-17.5c1.3-2.4,5.7-12.1-0.6-11.9
			c-1.9,0.1-2.9,1.4-3.5,3.1c-1.8,4.6-2,10.4-2.9,15.2c-1.9,10.8-3.9,21.6-5.8,32.3c-0.2,1.2,1.6,1.7,1.8,0.5
			c2.4-13.3,4.8-26.6,7.2-40c0.3-1.6,0.6-3.2,0.9-4.8c0.1-0.7,0.3-1.5,0.4-2.2c1.1,0.1,2.2,0.2,3.3,0.3c1,1.4-2.8,7.3-3.6,8.5
			c-4,6.1-9.9,10.5-15.7,14.7C6114.459,150.076,6115.359,151.676,6116.359,150.976"/>
	</g>
	<g>
		<defs>
			<rect id="SVGID_67_" x="1973" y="-1346.12" width="5222.1" height="3285.4"/>
		</defs>
		<clipPath id="SVGID_68_">
			<use xlink:href="#SVGID_67_"  style="overflow:visible;"/>
		</clipPath>
		<path style="clip-path:url(#SVGID_68_);fill:#FFFFFF;" d="M6119.859,157.576c4.3-2.5,8.9-4.8,13-7.6c1.6-1.1,3.4-2.2,3.3-4.4
			c-0.3-3.6-3.9-3.4-5.5-0.9c-2,3.1-2.7,9.7,2.5,9.9c5.4,0.2,9.1-8.5,10.7-12.4h-1.8c0.8,2.9,1.5,5.8,2,8.7c0.3,1.7-1.5,1.7,1,0.7
			c1.6-0.6,3.3-1.9,4.7-2.8c1-0.6,0.1-2.2-0.9-1.6c-2.2,1.3-7.5,3-8.4,5.8c-0.5,1.6,0.4,3,2.1,3.4c6.8,1.3,1.9-12.6,1.4-14.7
			c-0.3-1-1.5-0.8-1.8,0c-1,2.4-2.1,4.7-3.6,6.8c-1.6,3.4-4,3.5-7.4,0.1c1-3.2,1.2-3.2,0.8,0c-0.7,1.3-5.2,3-6.5,3.8
			c-2.2,1.3-4.3,2.5-6.5,3.8C6117.959,156.476,6118.859,158.176,6119.859,157.576"/>
	</g>
	<g>
		<defs>
			<rect id="SVGID_69_" x="1973" y="-1346.12" width="5222.1" height="3285.4"/>
		</defs>
		<clipPath id="SVGID_70_">
			<use xlink:href="#SVGID_69_"  style="overflow:visible;"/>
		</clipPath>
		<path style="clip-path:url(#SVGID_70_);fill:#FFFFFF;" d="M6149.56,132.276c-0.1,4.7-0.2,9.3-0.3,14c-0.1,2.3-0.9,6.3,1,8.1
			c4.2,4,6.4-6.2,7-8.3c0.3-1.2-1.5-1.6-1.8-0.5c-0.3,0.9-1,5-1.8,5.4c-3.8,2-2.6-4.2-2.5-5.5l0.3-13.2
			C6151.459,131.076,6149.56,131.076,6149.56,132.276"/>
	</g>
	<g>
		<defs>
			<rect id="SVGID_71_" x="1973" y="-1346.12" width="5222.1" height="3285.4"/>
		</defs>
		<clipPath id="SVGID_72_">
			<use xlink:href="#SVGID_71_"  style="overflow:visible;"/>
		</clipPath>
		<path style="clip-path:url(#SVGID_72_);fill:#FFFFFF;" d="M6155.459,144.576c-0.3,2.5-1.9,10.1,2.7,10c1.3,0,2.3-0.9,2.9-2
			c0.8-1.3,1.7-7.5,3.6-5.9c0.7,0.6-0.7,5.7,0,7.2c0.5,1.1,1.6,2,2.9,1.9c3.8-0.5,3.1-8.4,3-10.8c-0.5,0.3-0.9,0.5-1.4,0.8
			c1.8,1.1,3.5,1.4,5.6,0.7c1.1-0.4,0.6-2.2-0.5-1.8c-1.4,0.6-2.8,0.5-4.1-0.5c-0.6-0.4-1.4,0.1-1.4,0.8c0,1,0.4,7.1-0.5,7.4
			c-1.4,0.6-1.7-2.4-1.8-3c-0.1-1,0.3-2.1,0.2-3.1c-0.1-1.3-0.6-2.8-2.2-2.8c-2,0-2.8,2.5-3.4,4c-0.4,0.9-1.6,6.3-3.9,3.5
			c-0.8-1,0.2-5.2,0.3-6.4C6157.459,143.376,6155.659,143.376,6155.459,144.576"/>
	</g>
	<g>
		<defs>
			<rect id="SVGID_73_" x="1973" y="-1346.12" width="5222.1" height="3285.4"/>
		</defs>
		<clipPath id="SVGID_74_">
			<use xlink:href="#SVGID_73_"  style="overflow:visible;"/>
		</clipPath>
		<path style="clip-path:url(#SVGID_74_);fill:#FFFFFF;" d="M6174.459,145.076c-1.7,2.5-4,6.6-2,9.5c1.9,2.8,5.1,1.3,6.3-1.3
			c0.9-2.2,2.4-6.8,0.4-8.9c-2.5-2.6-5,0.8-5.7,3c-0.4,1.1,1.4,1.6,1.8,0.5c0.2-0.6,0.4-1.7,0.9-2.1c1.9-1.4,2,0.8,2,1.6
			c0,1.6-0.5,3.5-1.1,5c-0.1,0.5-0.4,0.9-0.7,1.3c-1.6,0.6-2.5,0.3-2.6-0.9c-0.4-0.8-0.1-1.7,0.2-2.5c0.5-1.5,1.3-2.9,2.1-4.3
			C6176.759,144.976,6175.159,144.076,6174.459,145.076"/>
	</g>
	<g>
		<defs>
			<rect id="SVGID_75_" x="1973" y="-1346.12" width="5222.1" height="3285.4"/>
		</defs>
		<clipPath id="SVGID_76_">
			<use xlink:href="#SVGID_75_"  style="overflow:visible;"/>
		</clipPath>
		<path style="clip-path:url(#SVGID_76_);fill:#FFFFFF;" d="M6178.56,146.576c-0.9,3-1.6,7.5,2,9c2.9,1.2,4.8-1.4,6.1-3.5
			c1.7-2.6,9.2-19.2,2.7-19.6c-2.6-0.2-3.5,4-4,5.7c-1.3,4.5-2.3,10-0.5,14.5c2.1,5.4,10.8,9.1,12.9,1.7c0.3-1.2-1.5-1.6-1.8-0.5
			c-3.8,2.8-6.5,2.9-8.1,0.2c-0.9-1-1.4-2.1-1.7-3.4c-0.5-1.9-0.4-3.9-0.2-5.8c0.2-1.8,0.5-3.7,1-5.5c0.2-0.8,0.4-1.6,0.7-2.4
			c1.7-2,2.4-2.3,2.1-0.7c1,1.4-1.4,7.8-2.1,9.5c-0.7,1.8-1.6,3.6-2.6,5.2c-0.5,0.7-1,1.3-1.5,2c-3.5-1.6-4.601-3.6-3.3-6.1
			C6180.759,145.876,6178.959,145.476,6178.56,146.576"/>
	</g>
	<g>
		<defs>
			<rect id="SVGID_77_" x="1973" y="-1346.12" width="5222.1" height="3285.4"/>
		</defs>
		<clipPath id="SVGID_78_">
			<use xlink:href="#SVGID_77_"  style="overflow:visible;"/>
		</clipPath>
		<path style="clip-path:url(#SVGID_78_);fill:#FFFFFF;" d="M6156.359,141.076c0.1-0.1,0.3-0.1,0.4-0.2c0.5-0.2,0.6-0.9,0.3-1.3
			c-0.3-0.5-0.8-0.5-1.3-0.3c-0.1,0.1-0.3,0.1-0.4,0.2c-0.5,0.2-0.6,0.9-0.3,1.3
			C6155.359,141.176,6155.959,141.276,6156.359,141.076"/>
	</g>
	<g>
		<defs>
			<rect id="SVGID_79_" x="1973" y="-1346.12" width="5222.1" height="3285.4"/>
		</defs>
		<clipPath id="SVGID_80_">
			<use xlink:href="#SVGID_79_"  style="overflow:visible;"/>
		</clipPath>
		<path style="clip-path:url(#SVGID_80_);fill:#FFFFFF;" d="M6146.359,135.076c6,0.7,12,1.1,18,1.3c1.2,0,1.2-1.8,0-1.9
			c-6-0.2-12-0.6-18-1.3C6145.159,133.076,6145.259,134.976,6146.359,135.076"/>
	</g>
</g>
</svg>
