<?xml version="1.0" encoding="iso-8859-1"?>
<!-- Generator: Adobe Illustrator 19.0.0, SVG Export Plug-In . SVG Version: 6.00 Build 0)  -->
<svg version="1.1" id="Layer_1" xmlns="http://www.w3.org/2000/svg" xmlns:xlink="http://www.w3.org/1999/xlink" x="0px" y="0px"
	 viewBox="4369.667 -890.025 485.185 459.259" style="enable-background:new 4369.667 -890.025 485.185 459.259;"
	 xml:space="preserve">
<g>
	<g>
		<defs>
			<rect id="SVGID_1_" x="1973" y="-1346.12" width="5222.1" height="3285.4"/>
		</defs>
		<clipPath id="SVGID_2_">
			<use xlink:href="#SVGID_1_"  style="overflow:visible;"/>
		</clipPath>
		<path style="clip-path:url(#SVGID_2_);fill:#343D70;" d="M4814.859-854.825c-4.2,23-15.1,45.2-30.8,62.6
			c-28.9,32-71.5,49.2-114.3,53.9c-4.5,0.5-9.3,0.9-13,3.7c-4.2,3.1-6,8.4-7.7,13.3c-6.9,20-16.2,39.7-31.3,54.6
			c-23.5,23.3-60.4,32.2-91.9,22.1c-4,25.6-17.2,49.6-36.7,66.8c-18.1,15.9-41.1,25.9-57.6,43.4c-12.1,12.8-20.2,29.2-32.8,41.4
			v-361.8H4814.859L4814.859-854.825z"/>
	</g>
</g>
</svg>
