<?xml version="1.0" encoding="iso-8859-1"?>
<!-- Generator: Adobe Illustrator 19.0.0, SVG Export Plug-In . SVG Version: 6.00 Build 0)  -->
<svg version="1.1" id="Layer_1" xmlns="http://www.w3.org/2000/svg" xmlns:xlink="http://www.w3.org/1999/xlink" x="0px" y="0px"
	 viewBox="4380.778 -341.877 366.667 285.185" style="enable-background:new 4380.778 -341.877 366.667 285.185;"
	 xml:space="preserve">
<g>
	<g>
		<defs>
			<rect id="SVGID_1_" x="1973" y="-1305.379" width="5222.1" height="3285.4"/>
		</defs>
		<clipPath id="SVGID_2_">
			<use xlink:href="#SVGID_1_"  style="overflow:visible;"/>
		</clipPath>
		<path style="clip-path:url(#SVGID_2_);fill:#343D70;" d="M4463.459-147.883c2.8,10.3,8.7,19.7,17.5,25.9
			c14.2,10.1,32.6,11.8,50.1,13.1c12.6,0.9,26.7,1.4,36.2-7c4.8-4.3,7.5-10.1,9.1-16.4c4.3,7,10,13.1,17,17.5
			c19.2,12.2,47.8,8.8,61.2-9.6c4.9-6.8,7.4-14.6,8.3-22.8c10.6,1.1,21.3,1.2,31.4-1.9c14.8-4.6,28.1-18.3,26.7-33.7
			c-1.8-20.4-28.4-31-47.3-23.2c-7.2,2.9-13.3,7.5-18.4,13.2c-0.4-0.7-0.8-1.4-1.2-2.1c-4.4-6.5-11.9-10.1-19.1-13.5
			c-13.4-6.2-29.8-11.9-43.4-9.6c0.3-0.6,0.5-1.3,0.8-2c8.2-22-3.7-48.6-24.3-59.9c-20.6-11.3-47.1-8.7-67.2,3.6
			c-5.1,3.1-9.8,7-14,11.4c-8.6-9.1-19.1-16.6-30.5-21.8c-16.3-7.4-34.5-10.4-52.4-9v148.2c1.7,0.4,3.5,0.8,5.2,1.2
			C4426.859-142.683,4446.359-142.383,4463.459-147.883"/>
	</g>
</g>
</svg>
