<?xml version="1.0" encoding="iso-8859-1"?>
<!-- Generator: Adobe Illustrator 19.0.0, SVG Export Plug-In . SVG Version: 6.00 Build 0)  -->
<svg version="1.1" id="Layer_1" xmlns="http://www.w3.org/2000/svg" xmlns:xlink="http://www.w3.org/1999/xlink" x="0px" y="0px"
	 viewBox="4895.625 37.619 420.168 349.854" style="enable-background:new 4895.625 37.619 420.168 349.854;" xml:space="preserve">
<g>
	<g>
		<defs>
			<rect id="SVGID_1_" x="1973" y="-1346.12" width="5222.1" height="3285.4"/>
		</defs>
		<clipPath id="SVGID_2_">
			<use xlink:href="#SVGID_1_"  style="overflow:visible;"/>
		</clipPath>
		<path style="clip-path:url(#SVGID_2_);fill:#343D70;" d="M5242.159,79.976c-27.6,8-50.8,30.1-59.9,57.4c-1.1,3.3-2.3,6.9-5.3,8.6
			c-2.3,1.2-5,1-7.6,0.8c-24.6-2.6-50.7-6.3-73.2,4s-37.2,41.5-21.4,60.6c-17.2-1.4-34.9-2.7-51.3,2.7
			c-16.4,5.4-31.2,19.4-32.1,36.6c-1.3,25.3,28.3,43.1,53.3,39.6c25.1-3.5,45.5-21.1,64.4-37.9c14.6,32.8,44.3,58.5,78.8,68.3
			c18.2,5.2,38.2,6,55.9-0.8c8.2-3.1,15.8-8.1,22-14.3v-229C5257.759,76.676,5249.759,77.776,5242.159,79.976"/>
	</g>
</g>
</svg>
