<?xml version="1.0" encoding="iso-8859-1"?>
<!-- Generator: Adobe Illustrator 19.0.0, SVG Export Plug-In . SVG Version: 6.00 Build 0)  -->
<svg version="1.1" id="Layer_1" xmlns="http://www.w3.org/2000/svg" xmlns:xlink="http://www.w3.org/1999/xlink" x="0px" y="0px"
	 viewBox="4610.407 761.827 666.667 429.63" style="enable-background:new 4610.407 761.827 666.667 429.63;" xml:space="preserve">
<g>
	<g>
		<defs>
			<rect id="SVGID_1_" x="1973" y="-1346.12" width="5222.1" height="3285.4"/>
		</defs>
		<clipPath id="SVGID_2_">
			<use xlink:href="#SVGID_1_"  style="overflow:visible;"/>
		</clipPath>
		<path style="clip-path:url(#SVGID_2_);fill:#134132;" d="M5265.059,994.675v112.8c-15.5-0.5-30.9-2.9-45.8-7.3
			c-0.5-0.1-1-0.3-1.4-0.4c-31-9.5-59.2-27-89.5-38.4c16.4-25.5,41.6-45.8,70.1-56.6
			C5219.759,996.776,5242.459,993.675,5265.059,994.675"/>
	</g>
	<g>
		<defs>
			<rect id="SVGID_3_" x="1973" y="-1346.12" width="5222.1" height="3285.4"/>
		</defs>
		<clipPath id="SVGID_4_">
			<use xlink:href="#SVGID_3_"  style="overflow:visible;"/>
		</clipPath>
		<path style="clip-path:url(#SVGID_4_);fill:#0E3324;" d="M4982.559,1154.975h-349.6c6-9.4,12.9-18.2,20.2-26.5
			c11.8-13.5,24.9-26.1,39-37.2c20.6-16.2,43.5-29.2,68.3-37.6c37.7-12.8,80-14,117.2-0.3c4,1.5,7.9,3.1,11.8,4.9
			c24,11.2,44.6,28.7,61.6,49.2c7.4,8.8,14.1,18.3,20.1,28C4975.359,1141.776,4979.059,1148.276,4982.559,1154.975"/>
	</g>
	<g>
		<defs>
			<rect id="SVGID_5_" x="1973" y="-1346.12" width="5222.1" height="3285.4"/>
		</defs>
		<clipPath id="SVGID_6_">
			<use xlink:href="#SVGID_5_"  style="overflow:visible;"/>
		</clipPath>
		<path style="clip-path:url(#SVGID_6_);fill:#0C223F;" d="M5265.059,1107.475v47.5h-131.2c22.4-12.4,45.6-24,65.9-39
			c6.8-5,13.2-10.4,19.5-15.8C5234.159,1104.576,5249.659,1106.975,5265.059,1107.475"/>
	</g>
	<g>
		<defs>
			<rect id="SVGID_7_" x="1973" y="-1346.12" width="5222.1" height="3285.4"/>
		</defs>
		<clipPath id="SVGID_8_">
			<use xlink:href="#SVGID_7_"  style="overflow:visible;"/>
		</clipPath>
		<path style="clip-path:url(#SVGID_8_);fill:#0E3324;" d="M5219.359,1100.175c-6.4,5.5-12.8,10.8-19.5,15.8
			c-20.3,15-43.5,26.6-65.9,39h-151.3c-3.5-6.7-7.2-13.2-11.2-19.6c-6.1-9.7-12.8-19.1-20.1-28c4.1-5.1,8.6-10,13.3-14.5
			c36.8-35.1,91.9-50,141.4-38.4c7.7,1.8,15.1,4.2,22.5,6.9c30.3,11.3,58.5,28.9,89.5,38.4
			C5218.359,1099.876,5218.859,1099.976,5219.359,1100.175"/>
	</g>
	<g>
		<defs>
			<rect id="SVGID_9_" x="1973" y="-1346.12" width="5222.1" height="3285.4"/>
		</defs>
		<clipPath id="SVGID_10_">
			<use xlink:href="#SVGID_9_"  style="overflow:visible;"/>
		</clipPath>
		<path style="clip-path:url(#SVGID_10_);fill:#141045;" d="M5202.959,1086.475c-10.6,21.9-26.7,40.8-44,57.9
			c-7.8,7.8-16.7,16.9-15.4,27.9l1.3,0.6c15.7-9.9,31.4-20.4,43.1-34.8C5199.559,1123.675,5206.859,1104.576,5202.959,1086.475"/>
	</g>
	<g>
		<defs>
			<rect id="SVGID_11_" x="1973" y="-1346.12" width="5222.1" height="3285.4"/>
		</defs>
		<clipPath id="SVGID_12_">
			<use xlink:href="#SVGID_11_"  style="overflow:visible;"/>
		</clipPath>
		<path style="clip-path:url(#SVGID_12_);fill:#141045;" d="M5137.359,1169.276l1.4,3.6c-0.5-1.3-1-2.5-1.4-3.8V1169.276z"/>
	</g>
	<g>
		<defs>
			<rect id="SVGID_13_" x="1973" y="-1346.12" width="5222.1" height="3285.4"/>
		</defs>
		<clipPath id="SVGID_14_">
			<use xlink:href="#SVGID_13_"  style="overflow:visible;"/>
		</clipPath>
		<path style="clip-path:url(#SVGID_14_);fill:#141045;" d="M5171.259,1071.475c3.3-29.2-2.1-59,1.9-88.1c2.4-17.7,8.2-36.3,1.8-53
			c-16.4,23.4-20.7,53.1-21.9,81.7c-1.2,28.6,0.3,57.5-6.2,85.4c-5.6,23.8-16.8,48.9-9.4,71.6c1-17.8,12-33.3,19.8-49.3
			C5164.559,1104.576,5169.359,1088.175,5171.259,1071.475"/>
	</g>
	<g>
		<defs>
			<rect id="SVGID_15_" x="1973" y="-1346.12" width="5222.1" height="3285.4"/>
		</defs>
		<clipPath id="SVGID_16_">
			<use xlink:href="#SVGID_15_"  style="overflow:visible;"/>
		</clipPath>
		<path style="clip-path:url(#SVGID_16_);fill:#141045;" d="M5127.859,1152.475l0.6-1.5c23.6-60.2,24.7-128.9,3.1-189.9
			c-8.7,24.6-4,51.4-3.8,77.6c-2-15.3-5.7-30.3-11-44.8c-13.5,43.5-15.9,90.4-7.2,135.1c-8-10.1-17-19.3-26.1-28.3
			c-9.6-9.6-20.9-19.8-34.5-19.6c-4.2,9-0.2,20,6.6,27.2c6.8,7.2,15.9,11.7,24.3,16.9c13.3,8.2,25.3,18.8,33.9,31.8
			c1.9,2.8,3.6,5.8,5.6,8.6c0.9,2.5,2,4.9,3.3,7.3l1.3-1.5c1.3,1.4,2.8,2.6,4.4,3.6c0.1-0.7,0.1-1.5,0.1-2.2
			c3.1,1.1,6.5,1.1,9.3-0.6l-5.6-3.9C5130.159,1163.076,5128.859,1157.776,5127.859,1152.475"/>
	</g>
	<g>
		<defs>
			<rect id="SVGID_17_" x="1973" y="-1346.12" width="5222.1" height="3285.4"/>
		</defs>
		<clipPath id="SVGID_18_">
			<use xlink:href="#SVGID_17_"  style="overflow:visible;"/>
		</clipPath>
		<path style="clip-path:url(#SVGID_18_);fill:#141045;" d="M5130.659,1176.276c-0.8-0.4-1.6-0.8-2.4-1.3c-0.1,1.1-0.2,2.2-0.4,3.3
			L5130.659,1176.276z"/>
	</g>
	<g>
		<defs>
			<rect id="SVGID_19_" x="1973" y="-1346.12" width="5222.1" height="3285.4"/>
		</defs>
		<clipPath id="SVGID_20_">
			<use xlink:href="#SVGID_19_"  style="overflow:visible;"/>
		</clipPath>
		<path style="clip-path:url(#SVGID_20_);fill:#1A1C38;" d="M4978.959,1037.975c-2.4-2.7-6.6-0.1-8.8,1.5c-3.3,2.3-6,5.3-8,8.8
			c-0.6-4.6-1.2-9.1-1.9-13.6h0.1c4.5-3.2,8.8-6.7,12.6-10.7c1.6-1.6,7.5-6.9,3.1-8.9c-3.5-1.5-7.6,2.8-9.7,5
			c-2.6,2.7-4.6,5.9-6,9.3c-0.3-0.1-0.6-0.2-0.9-0.3c-0.1-0.2-0.2-0.3-0.2-0.5c-0.9-5.4-1.9-10.8-3-16.2c7.1-3.6,13.4-8.6,18.4-14.8
			c0.7-0.9,0.3-2.3-0.9-2.3c-8.1-0.2-15.6,5-18.4,12.4c-0.8-3.5-1.5-7-2.4-10.5c4.7-3.9,9.5-7.8,14.2-11.7c1.4-1.2,4-2.6,4-4.8
			c0-1.4-1.1-2.3-2.3-2.7c-3.4-1-7.7,2-10.2,4c-2.8,2.3-4.9,5.1-6.4,8.4c-0.4-0.2-0.7-0.4-1.1-0.7c-0.1-0.1-0.1-0.1-0.2-0.2
			c-1-4-2.1-8.1-3.3-12.1c5.6-8.4,17.3-14.5,14.7-26.1c-0.2-0.9-1.3-1.2-2-0.8c-7.2,4.2-12.4,11.2-14.5,19.2
			c-0.3-0.4-0.5-0.8-0.8-1.2c-0.3-1.1-0.6-2.1-1-3.2c0.9,0.2,1.9-0.5,1.6-1.6c-0.3-1.3-0.8-2.5-1.3-3.7c0.9-5.3,2.9-10.4,6-14.8
			c2-2.8,7.2-8.1,2.5-11.2c-5.9-3.9-10,10.1-11.8,18.9c-0.7-1.6-1.5-3-2.5-4.4c-1.1-3.2-2.3-6.4-3.4-9.6c3.6-3.4,7.3-6.6,10.7-10.2
			c1.9-2,3.8-5.7,0.8-7.8c-3.1-2.1-6.7,1.3-8.6,3.4c-1.9,2-3.3,4.3-4.4,6.7l-0.1-0.1c-0.8-0.5-1.4-1.1-1.8-1.8
			c-0.3-0.8-0.6-1.6-0.9-2.4c-0.5-4.3,3.3-9.6,5.2-12.9c1.8-3.1,4.8-9.5,0.8-12.2c-4.3-2.9-7.4,3.7-8.5,6.7
			c-0.9,2.3-1.4,4.7-1.6,7.2c-0.5-1.4-1-2.9-1.6-4.3c0.2-1.6,0.4-3.3,0.6-4.9c0-0.1,0.1-0.3,0.1-0.5c1-8.1,1.6-16.3,2-24.4
			c0-0.6-0.4-1.2-1-1.3c-4.9-1.1-6.8,3.7-7.1,7.7c-0.2,2.8-0.1,5.6,0.2,8.4c-0.7-2-1.4-4-2-6c0.1-0.1,0.199-0.3,0.199-0.5
			c0.901-5.8,1.801-11.6,2.7-17.4c0.401-2.7,2.401-9.3-2-9.9c-4-0.5-4.7,6.5-5.099,9.1c-0.2,1.2-0.3,2.4-0.401,3.6
			c-0.899-3.2-1.8-6.3-2.599-9.5c0.399-0.2,0.7-0.6,0.7-1.1v-2.3c2.399-6.8,4.199-13.9,5.199-21.1c0.1-0.9-0.6-2.1-1.699-1.7
			c-6.901,2.6-7.2,9.1-6.7,15.5c-0.7-3.5-1.401-6.9-2-10.4l0.099-0.1c4.901-6.8,7.601-14.8,7.8-23.1c0-0.9-1.199-1.8-2-1.2
			c-7,5.2-10.399,14-8.599,22.4c-0.1,0.2-0.2,0.5-0.1,0.8c0.3,2,0.699,3.9,1,5.9c-2-2.5-4.7-5.2-8.1-4.3c-3.6,1-3.5,4.9-1.6,7.5
			c1.5,2,3.7,3.5,5.6,5.1c2.3,2,4.6,3.9,6.9,5.9c0,0,0.1,0,0.1,0.1c0.1,0.3,0.1,0.6,0.2,0.8c-0.2,0.5-0.401,1.1-0.6,1.6
			c-0.4,1,0.5,1.7,1.4,1.6c0.4,1.5,0.8,2.9,1.2,4.4c-0.3-0.4-0.6-0.9-1-1.3c-2.6-3.3-6.901-7.7-11.401-4.7c-4,2.6-1.399,6.8,1.5,9
			c4.901,3.7,9.901,7.2,14.901,10.8c0.599,1.9,1.2,3.8,1.8,5.7c-2.9-2.9-8.1-7-12.3-5c-1.6,0.8-2.8,2.5-2.6,4.4
			c0.3,2.2,2.5,3.4,4.199,4.5c5,3.1,10.101,6.2,15.101,9.3c0.8,2.3,1.599,4.5,2.399,6.7c-0.099,0.5,0.101,0.9,0.401,1.2
			c0,0.1,0.099,0.2,0.099,0.3c-0.8-0.7-1.599-1.4-2.5-2c-3.099-2.1-9.3-4.2-12.399-1.1c-3,2.9,0.5,7,3.7,7.5
			c3,0.5,5.899-0.4,8.899,0.4c1.7,0.5,3.2,1.3,4.5,2.3c0.5,0.9,1,1.7,1.401,2.6c0.5,1.3,1,2.7,1.5,4c-1-0.7-2.101-1.3-3.3-1.8
			c-3.301-1.4-8.2-2.4-11.2,0.3c-3.2,2.8-0.5,6.9,3,7.6c2.7,0.5,5.7-0.1,8.5,0.3c1.899,0.2,3.899,0.6,5.7,1.2
			c0.399,1.2,0.899,2.5,1.3,3.7c-0.901,0.9-0.101,2.1,0.8,2.3c0.5,1.3,0.9,2.5,1.4,3.8c-3.2-2.4-9.4-5.8-12-2.2
			c-1.301,1.7-0.5,4.1,1,5.3c2.1,1.8,5.5,1.8,8,3c2.6,1.2,4.9,2.9,6.9,5c0.9,2.7,1.8,5.4,2.7,8.1c0.099,0.3,0.2,0.6,0.3,0.9
			c-1.4-1.1-3-2.1-4.6-2.9c-3.6-1.7-10.3-3.8-13.9-1.1c-4.2,3.1,0.3,7.8,4.1,8.2c3.4,0.3,6.6-0.2,10,0.8
			c2.699,0.8,5.1,2.1,7.199,3.9c0.401,1.2,0.7,2.5,1.101,3.7c-0.2,0.4-0.401,0.7-0.601,1.1c-0.599,1.1,0.5,2.2,1.5,2
			c0.601,2.2,1.2,4.3,1.801,6.5c-1.301-0.9-2.7-1.6-4.2-2.2c-3.4-1.3-10-2.8-13.2-0.2c-1.3,1-1.5,2.8-0.7,4.2c1,1.7,2.9,2.2,4.7,2
			c2.9-0.2,5.5-1.1,8.4-0.8c2.2,0.2,4.3,0.9,6.2,1.8c1.2,4.6,2.2,9.1,3.2,13.7c-5.4-5.1-11.5-9.3-19.3-9.2c-1.401,0-1.7,1.7-0.7,2.5
			c6.5,5,13.6,9,21.2,12.2c0.8,3.9,1.599,7.9,2.3,11.8c-3.1-3.8-7.1-6.7-11.8-8.6c-0.901-0.4-2,0.7-1.7,1.7c2.8,7,8.1,12.5,15,15.4
			c0.6,3.9,1.2,7.9,1.8,11.8c-3.6-5.7-8.3-10.5-15.3-11.8c-1-0.2-2.3,0.9-1.5,2c5.2,7,11.2,13.3,18,18.7v0.4
			c-0.9,0.7-0.5,1.9,0.3,2.3c1.3,11.7,2.2,23.4,2.7,35.1c1,24,0.1,48.1-2.5,72c-0.2,1.7,2.5,1.7,2.7,0c3.9-35.8,3.8-71.9-0.3-107.6
			c0.7,0.1,1.3-0.5,1.399-1.2c3.801-2.3,7.7-4.7,11.5-7C4978.059,1043.975,4981.559,1040.876,4978.959,1037.975"/>
	</g>
</g>
</svg>
