<?xml version="1.0" encoding="utf-8"?>
<!-- Generator: Adobe Illustrator 19.0.0, SVG Export Plug-In . SVG Version: 6.00 Build 0)  -->
<svg version="1.1" xmlns="http://www.w3.org/2000/svg" xmlns:xlink="http://www.w3.org/1999/xlink" x="0px" y="0px"
	 viewBox="0 0 1527.9 1225" style="enable-background:new 0 0 1527.9 1225;" xml:space="preserve">
<style type="text/css">
	.st0{fill:#154132;}
	.st1{fill:#13312E;}
	.st2{fill:#1E4F9E;}
	.st3{fill:#0F3324;}
	.st4{fill:#0D233E;}
	.st5{fill:#181244;}
	.st6{fill:#828C78;}
	.st7{fill:#1A1C38;}
</style>
<g id="Layer_6">
	<g id="XMLID_358_">
		<g id="XMLID_158_">
			<g id="XMLID_191_">
				<path id="XMLID_192_" class="st0" d="M1197.2,912.8c0.6,1.8-0.4,1.9-0.4,3.8c0,1.9,0.8,1.9,0.8,3.8c0,1.9-0.2,1.9-0.2,3.8
					c0,1.9,0,1.9,0,3.8c0,1.9-0.1,1.9-0.1,3.8c0,1.9-0.5,1.9-0.5,3.8c0,1.9,0,1.9,0,3.8c0,1.9,0.6,1.9,0.6,3.8
					c0,1.9-0.4,1.9-0.4,3.8c0,1.9-0.4,1.9-0.4,3.8c0,1.9,0.9,1.9,0.9,3.8c0,1.9-0.6,1.9-0.6,3.8c0,1.9-0.2,1.9-0.2,3.8
					c0,1.9,0.8,1.9,0.8,3.8c0,1.9-0.3,1.9-0.3,3.8c0,1.9-0.6,1.9-0.6,3.8c0,1.9-0.1,1.9-0.1,3.8c0,1.9,0.1,1.9,0.1,3.8
					c0,1.9,0.5,1.9,0.5,3.8c0,1.9-0.5,1.9-0.5,3.8c0,1.9,0.2,1.9,0.2,3.8c0,1.9,0.3,1.9,0.3,3.8c0,1.9-0.4,1.9-0.4,3.8
					c0,1.9,0.2,1.9,0.2,3.8s0.6,1.9,0.6,3.8c0,1.9,0,1.9,0,3.8c0,1.9-0.9,1.9-0.9,3.8c0,1.9,0.4,1.9,0.4,3.8c0,1.9,0.1,1.9,0.1,3.8
					c0,1.9,0.5,2-0.1,3.8c-1.2,0-2.4-0.3-3.5-0.3c-1.2-0.1-2.4-0.1-3.6-0.2c-1.2-0.1-2.4-0.4-3.5-0.5s-2.4,0.1-3.6,0
					c-1.2-0.1-2.4-0.2-3.6-0.4c-1.2-0.2-2.4,0-3.6-0.2c-1.2-0.2-2.4-0.4-3.5-0.6s-2.3-0.8-3.4-1c-1.2-0.2-2.3-0.7-3.4-1
					c-1.2-0.2-2.4,0-3.6-0.3c-1.2-0.3-2.4-0.2-3.6-0.5c-1.2-0.3-2.1-1.5-3.2-1.8s-2.4-0.4-3.5-0.7c-0.5-0.1-0.9-0.5-1.4-0.6
					c-1.2-0.4-2.4-0.7-3.6-1.1c-1.2-0.4-2.5-0.4-3.7-0.8c-1.2-0.4-2.5-0.5-3.6-0.9c-1.2-0.4-2.2-1.3-3.3-1.8
					c-1.2-0.4-2.4-0.8-3.5-1.3c-1.2-0.5-2.3-1-3.4-1.5c-1.2-0.5-2.3-1-3.4-1.5c-1.1-0.5-2.3-1-3.4-1.5c-1.1-0.5-2.3-0.9-3.5-1.4
					c-1.1-0.5-2.4-0.7-3.6-1.2c-1.1-0.5-2.1-1.4-3.2-1.9c-1.1-0.5-2.4-0.8-3.5-1.3c-1.1-0.5-2.2-1.2-3.3-1.8
					c-1.1-0.5-2.4-0.8-3.5-1.3c-1.1-0.5-1.9-1.8-3.1-2.3c-1.1-0.5-2.5-0.5-3.6-1.1c-1.1-0.5-2.3-1-3.4-1.6c-1.1-0.5-2.3-1.1-3.4-1.6
					c-1.1-0.5-2.3-1-3.4-1.5c-1.1-0.5-2-1.6-3.1-2.2c-1.1-0.5-2.3-1-3.5-1.5c-1.1-0.5-2.3-0.9-3.5-1.4c-1.1-0.5-2.2-1.1-3.4-1.6
					c-1.2-0.5-2.5-0.5-3.7-0.9c-1.2-0.5-2.4-0.7-3.6-1.2c-1.2-0.5-1.7-1.5-2.9-1.9c0.7-1,1.3-1.6,2-2.6c0.7-1,1-2.3,1.7-3.2
					c0.7-1,1.5-1.9,2.2-2.9c0.7-1,1.7-1.8,2.4-2.8c0.8-1,0.9-2.4,1.7-3.4c0.8-0.9,1.9-1.6,2.8-2.5c0.8-0.9,1.6-1.8,2.4-2.7
					c0.8-0.9,1.6-1.8,2.5-2.7c0.9-0.9,1.7-1.8,2.5-2.7c0.9-0.8,2-1.4,2.9-2.2c0.9-0.8,2-1.4,2.9-2.2c0.9-0.8,1.3-2.2,2.2-3
					c0.9-0.8,1.9-1.6,2.9-2.3c1-0.8,2.3-1,3.3-1.7c1-0.7,2.1-1.3,3.1-2s1.5-2.1,2.6-2.8c1-0.7,2.2-1.1,3.2-1.7c1-0.7,1.9-1.5,3-2.2
					c1-0.6,2.1-1.2,3.2-1.8c1.1-0.6,2.1-1.2,3.2-1.8c1.1-0.6,2.1-1.2,3.2-1.8c1.1-0.5,2.3-1,3.4-1.5c1.1-0.5,2.3-0.7,3.5-1.2
					c1.1-0.5,2.2-1.1,3.3-1.6c1.1-0.5,2.1-1.2,3.3-1.7c1.2-0.4,2.4-0.8,3.6-1.2c1.2-0.4,2.4-0.9,3.6-1.3c1.2-0.4,2.4-0.6,3.6-1
					c1.2-0.4,2.5-0.6,3.7-0.9c1.2-0.3,2.4-0.9,3.6-1.2c1.2-0.3,2.4-0.6,3.7-0.9c1.2-0.3,2.6,0,3.8-0.2s2.5-0.5,3.7-0.7
					c1.2-0.2,2.4-0.7,3.7-0.9c1.2-0.2,2.5-0.6,3.7-0.7c1.2-0.2,2.5-0.3,3.8-0.4c1.2-0.1,2.6,0.6,3.8,0.5c1.3-0.1,2.5-0.9,3.7-0.9
					c1.3-0.1,2.5-0.2,3.8-0.2c1.3,0,2.5,0.6,3.8,0.6c1.3,0,2.5,0.1,3.8,0.1c1.3,0,2.5-0.4,3.8-0.3
					C1194.6,912.9,1196,912.7,1197.2,912.8z"/>
			</g>
			<g id="XMLID_188_">
				<path id="XMLID_190_" class="st1" d="M624.3,1007.4c-0.9,0.7-1.8,1.6-2.8,2.3c-0.9,0.8-2.2,1.1-3.1,1.8
					c-0.9,0.8-1.7,1.7-2.6,2.5c-0.9,0.8-2,1.3-2.9,2.1c-0.9,0.8-1.5,1.9-2.4,2.7c-0.9,0.8-1.7,1.7-2.6,2.5c-0.9,0.8-2.1,1.2-3,2.1
					c-0.9,0.8-1.2,2.2-2.1,3c-0.9,0.8-1.9,1.5-2.8,2.3c-0.9,0.8-1.9,1.5-2.8,2.3c-0.8,0.9-1.4,2-2.3,2.8c-0.8,0.9-2,1.4-2.8,2.3
					c-0.8,0.9-1.1,2.2-1.9,3.1c-0.8,0.9-1.6,1.8-2.4,2.7c-0.8,0.9-1.7,1.7-2.5,2.6c-0.8,0.9-1.8,1.7-2.6,2.6
					c-0.8,0.9-1.5,1.9-2.3,2.9c-0.8,0.9-1.5,2-2.2,3c-0.8,1-1.4,2-2.2,3c-0.8,1-1.9,1.6-2.7,2.6c-0.7,1-1.2,2.2-1.9,3.2
					c-0.7,1-1.2,2.2-1.9,3.2c-0.7,1-1.7,1.8-2.4,2.9c-0.7,1-1.6,1.5-2.2,2.6c-1.8,0.4-1.7,0.3-3.6,0.3c-1.9,0-1.9,0.2-3.7,0.2
					c-1.9,0-1.9-0.5-3.7-0.5c-1.9,0-1.9,0.2-3.7,0.2c-1.9,0-1.9,0-3.7,0c-1.9,0-1.9,0.6-3.7,0.6c-1.9,0-1.9-0.2-3.7-0.2
					c-1.9,0-1.9,0.3-3.7,0.3c-1.9,0-1.9-0.8-3.7-0.8c-1.9,0-1.9,0-3.7,0c-1.9,0-1.9,0-3.7,0c-1.9,0-1.9,0.7-3.7,0.7
					c-1.9,0-1.9-0.4-3.7-0.4c-1.9,0-1.9-0.1-3.7-0.1c-1.9,0-1.9-0.2-3.7-0.2c-1.9,0-1.9,0-3.7,0c-1.9,0-1.9,0.1-3.7,0.1
					c-1.9,0-1.9,0.7-3.7,0.7c-1.9,0-1.9-0.3-3.7-0.3c-1.9,0-1.9-0.3-3.7-0.3c-1.9,0-1.9-0.1-3.7-0.1c-1.9,0-1.9,0.1-3.7,0.1
					c-1.9,0-1.9,0.4-3.7,0.4c-1.9,0-1.9,0.2-3.7,0.2c-1.9,0-1.9-0.4-3.7-0.4c-1.9,0-1.9-0.3-3.7-0.3c-1.9,0-1.9,0.4-3.7,0.4
					c-1.9,0-1.9-0.2-3.7-0.2c-1.9,0-1.9,0.1-3.7,0.1c-1.9,0-1.9-0.3-3.7-0.3c-1.9,0-1.9,0.7-3.7,0.7c-1.9,0-1.9-0.4-3.7-0.4
					c-1.9,0-1.9,0.3-3.7,0.3c-1.9,0-1.9-0.7-3.7-0.7c-1.9,0-1.9,0.9-3.7,0.9c-1.9,0-1.9-0.7-3.7-0.7c-1.9,0-1.9,0.2-3.7,0.2
					c-1.9,0-1.9,0.1-3.7,0.1c-1.9,0-1.9,0.1-3.7,0.1c-1.9,0-1.9-0.2-3.7-0.2c-1.9,0-1.9-0.2-3.7-0.2c-1.9,0-1.9,0-3.7,0
					c-1.9,0-1.9,0.1-3.7,0.1c-1.9,0-1.9,0.2-3.7,0.2c-1.9,0-1.9-0.3-3.7-0.3c-1.9,0-1.9,0.7-3.7,0.7c-1.9,0-1.9-0.1-3.7-0.1
					c-1.9,0-1.9-0.5-3.7-0.5c-1.9,0-1.9,0.2-3.7,0.2c-1.9,0-1.9-0.5-3.7-0.5c-1.9,0-1.9,0.1-3.7,0.1c-1.9,0-1.9-0.2-3.7-0.2
					c-1.9,0-1.9,0.3-3.7,0.3c-1.9,0-1.9-0.1-3.7-0.1c-1.9,0-1.9-0.2-3.7-0.2c-1.9,0-1.9,0.4-3.7,0.4c-1.9,0-1.9,0.2-3.7,0.2
					s-1.9-0.5-3.7-0.5c-1.9,0-1.9-0.2-3.7-0.2c-1.9,0-1.9,0.9-3.7,0.9c-1.9,0-1.9-0.2-3.7-0.2c-1.9,0-1.9-0.6-3.7-0.6
					c-1.9,0-2.3,1.6-3.6,0.3c-1.3-1.3-0.1-1.8-0.1-3.6s0.2-1.9,0.2-3.7s0.1-1.9,0.1-3.7c0-1.9-0.3-1.9-0.3-3.7
					c0-1.9,0.4-1.9,0.4-3.7c0-1.9-0.5-1.9-0.5-3.7c0-1.9-0.1-1.9-0.1-3.7c0-1.9,0.3-1.9,0.3-3.7c0-1.9-0.1-1.9-0.1-3.7
					c0-1.9,0.1-1.9,0.1-3.7c0-1.9,0-1.9,0-3.7c0-1.9,0.2-1.9,0.2-3.7s-0.3-1.9-0.3-3.7c0-1.9-0.3-1.9-0.3-3.7c0-1.9,0.5-1.9,0.5-3.7
					c0-1.9-0.4-1.9-0.4-3.7c0-1.9,0.1-1.9,0.1-3.7c0-1.9-0.3-1.9-0.3-3.7c0-1.9,0.8-1.9,0.8-3.7c0-1.9-0.2-1.9-0.2-3.7
					c0-1.9-0.2-1.9-0.2-3.7c0-1.9,0-1.9,0-3.7c0-1.9-0.4-1.9-0.4-3.7c0-1.9,0.7-1.9,0.7-3.7c0-1.9-0.8-1.9-0.8-3.7
					c0-1.9,0.4-1.9,0.4-3.7s-0.1-1.9-0.1-3.7c0-1.9,0-1.9,0-3.7c0-1.9,0.1-1.9,0.1-3.7c0-1.9,0.4-1.9,0.4-3.7c0-1.9-0.3-1.9-0.3-3.7
					c0-1.9-0.1-1.9-0.1-3.7c0-1.9-0.1-1.9-0.1-3.7c0-1.9,0.3-1.9,0.3-3.7c0-1.9,0.2-1.9,0.2-3.7c0-1.9-0.5-1.9-0.5-3.7
					c0-1.9,0.3-1.9,0.3-3.7c0-1.9,0.1-1.9,0.1-3.7c0-1.9-0.6-1.9-0.6-3.7c0-1.9-0.1-1.9-0.1-3.7c0-1.9,0-1.9,0-3.7
					c0-1.9,0.1-1.9,0.1-3.7c0-1.9,0.5-1.9,0.5-3.7c0-1.9,0.2-1.9,0.2-3.7c0-1.9-0.6-1.9-0.6-3.7c0-1.9,0.1-1.9,0.1-3.7
					c0-1.9-0.2-1.9-0.2-3.7c0-1.9-0.1-1.9-0.1-3.7c0-1.9,0.5-1.9,0.5-3.7c0-1.9-0.3-1.9-0.3-3.7c0-1.9,0.1-1.9,0.1-3.7
					c0-1.9,0.3-1.9,0.3-3.7c0-1.9-0.6-1.9-0.6-3.7c0-1.9,0.2-1.9,0.2-3.7c0-1.9-0.4-1.9-0.4-3.7c0-1.9,0.7-1.9,0.7-3.7
					c0-1.9-0.4-1.9-0.4-3.7c0-1.9,0-1.9,0-3.7c0-1.9,0.1-1.9,0.1-3.7c0-1.9,0.3-1.9,0.3-3.7c0-1.9,0-1.9,0-3.7
					c0-1.9,0.1-1.9,0.1-3.7c0-1.9-0.2-1.9-0.2-3.7c0-1.9-0.3-1.9-0.3-3.7c0-1.9,0.6-1.9,0.6-3.7c0-1.9-0.7-1.9-0.7-3.7
					c0-1.9-0.1-1.9-0.1-3.7c0-1.9,0.7-1.9,0.7-3.7c0-1.9,0.2-1.9,0.2-3.7c0-1.9-0.6-1.9-0.6-3.7c0-1.9-0.1-1.9-0.1-3.7
					c0-1.9,0-1.9,0-3.7c0-1.9-0.1-1.9-0.1-3.7c0-1.9,0.3-1.9,0.3-3.7c0-1.9,0-1.9,0-3.7c0-1.9,0.6-1.9,0.6-3.7
					c0-1.9-0.6-1.9-0.6-3.7c0-1.9,0.2-1.9,0.2-3.7c0-1.9-0.5-1.9-0.5-3.7c0-1.9,0.7-1.9,0.7-3.7s-0.7-1.9-0.7-3.7
					c0-1.9,0.8-1.9,0.8-3.7c0-1.9-0.3-1.9-0.3-3.7c0-1.9,0.1-1.9,0.1-3.7c0-1.9,0.2-1.9,0.2-3.7c0-1.9-1.1-2-0.6-3.8
					c1.1-0.1,2.4,0.1,3.4,0.1c1.1-0.1,2.2,0.2,3.3,0.1c1.1,0,2.2-0.4,3.3-0.5c1.1,0,2.2,0.2,3.3,0.2c1.2,0,2.5-0.4,3.7-0.4
					c1.2,0,2.5-0.5,3.7-0.4c1.2,0,2.5,0.8,3.7,0.8c1.2,0.1,2.5-0.3,3.7-0.2c1.2,0.1,2.5,0.3,3.7,0.4c1.2,0.1,2.5-0.1,3.7,0
					c1.2,0.1,2.5,0.4,3.7,0.5c1.2,0.1,2.4,0.8,3.6,0.9c1.2,0.2,2.5-0.2,3.8,0c1.2,0.2,2.4,1,3.6,1.2c1.2,0.2,2.5,0,3.7,0.3
					c1.2,0.2,2.5,0.2,3.7,0.4c1.2,0.2,2.3,1,3.5,1.3c1.2,0.3,2.5,0.2,3.7,0.5c1.2,0.3,2.4,0.7,3.6,1c1.2,0.3,2.5,0.2,3.7,0.5
					c1.2,0.3,2.3,0.9,3.5,1.3c1.2,0.3,2.4,0.7,3.6,1c1.2,0.3,2.3,0.8,3.5,1.2c1.2,0.4,2.5,0.4,3.6,0.8c1.2,0.4,2.4,0.6,3.6,1
					c1.2,0.4,2.3,1,3.5,1.4c1.2,0.4,2.2,1.1,3.4,1.5c1.2,0.4,2.6,0.2,3.7,0.7c1.2,0.4,2,1.8,3.1,2.2c1.1,0.5,2.4,0.7,3.5,1.2
					c1.1,0.5,2.5,0.4,3.7,0.9c1.1,0.5,2.1,1.4,3.2,1.9c1.1,0.5,2.1,1.3,3.2,1.8c1.1,0.5,2.2,1.2,3.3,1.7c1.1,0.5,2.5,0.6,3.6,1.2
					c1.1,0.6,2.1,1.3,3.2,1.9c1.1,0.6,2,1.6,3.1,2.2c1.1,0.6,2.6,0.4,3.7,1c1.1,0.6,2,1.5,3.1,2.1c1.1,0.6,1.8,1.8,2.9,2.4
					c1.1,0.6,2.5,0.6,3.6,1.2c1.1,0.6,2.1,1.3,3.2,2c1,0.7,2.1,1.3,3.2,2c1,0.7,1.7,1.9,2.8,2.6c1,0.7,2.5,0.8,3.5,1.5
					c1,0.7,1.7,1.9,2.7,2.6c1,0.7,2.2,1.1,3.2,1.9c1,0.7,1.9,1.6,2.9,2.3c1,0.7,2.1,1.4,3,2.1c1,0.7,1.7,1.8,2.7,2.6
					c1,0.8,2.4,1,3.3,1.8c1,0.8,1.7,1.8,2.7,2.6c1,0.8,1.7,1.8,2.6,2.6c0.9,0.8,2.2,1.3,3.1,2.1c0.9,0.8,1.7,1.8,2.6,2.7
					c0.9,0.8,2.2,1.3,3.1,2.1c0.9,0.8,1.5,2.1,2.4,2.9c0.9,0.8,2.2,1.3,3.1,2.1c0.9,0.9,1.6,2,2.4,2.8c0.9,0.9,1.5,2,2.3,2.9
					c0.9,0.9,1.8,1.7,2.7,2.6c0.9,0.9,2.4,1.1,3.2,2c0.9,0.9,1.4,2.1,2.2,3c0.8,0.9,1.4,2.1,2.3,3c0.8,0.9,1.7,1.8,2.6,2.7
					c0.8,1,1.9,1.7,2.8,2.7c0.8,1,1.5,2.1,2.3,3.1c0.8,1,2,1.6,2.8,2.6c0.8,1,1.3,2.3,2.1,3.3c0.8,1,1.5,2,2.3,3
					c0.8,1,1.5,2.1,2.2,3.1c0.8,1,1.9,1.7,2.7,2.8c0.8,1,1.9,1.8,2.6,2.8c0.8,1,1.2,2.3,1.9,3.3c0.7,1,1.8,1.8,2.6,2.9
					c0.7,1,1.4,2.2,2.1,3.2c0.7,1,0.8,2.5,1.4,3.5c0.7,1,1.8,1.8,2.4,2.8c0.7,1,1.2,2.2,1.9,3.2c0.7,1,1.1,2.2,1.8,3.3
					c0.6,1.1,1.7,1.8,2.4,2.9c0.6,1.1,1,2.3,1.6,3.4c0.6,1.1,1,2.3,1.6,3.3c0.6,1.1,1.6,2,2.2,3c0.6,1.1,1.2,2.2,1.8,3.3
					c0.6,1.1,1.2,2.2,1.7,3.3c0.6,1.1,1.5,2,2.1,3.1c0.6,1.1,0.5,2.5,1.1,3.6c0.6,1.1,1,2.2,1.6,3.4c0.6,1.1,1,2.2,1.6,3.4
					c0.5,1.1,1.4,2,2,3.2c0.5,1.1,1.2,2.1,1.8,3.3c0.5,1.1,0.6,2.4,1.1,3.6c0.5,1.1,1,2.2,1.5,3.4c0.5,1.1,1,2.2,1.5,3.4
					c0.5,1.1,1.7,2,2.1,3.1c0.5,1.1,0,2.7,0.5,3.8c0.5,1.1,1,2.3,1.4,3.4c0.5,1.1,1.5,2,2,3.2c0.4,1.2,0.3,2.5,0.7,3.7
					c0.4,1.2,1.2,2.2,1.6,3.4c0.4,1.2,1,2.3,1.4,3.4c0.4,1.2,0.4,2.5,0.8,3.7c0.4,1.2,1.2,2.2,1.6,3.4c0.4,1.2,0.8,2.3,1.2,3.5
					c0.4,1.2,0.5,2.4,0.9,3.6c0.4,1.2,1.2,2.2,1.6,3.4c0.4,1.2,0.8,2.3,1.1,3.5c0.4,1.2,0.3,2.5,0.6,3.7c0.3,1.2,0.8,2.3,1.2,3.5
					c0.3,1.2,0.4,2.5,0.7,3.7c0.3,1.2,0.6,2.4,0.9,3.6c0.3,1.2,1.5,2.2,1.8,3.4C624,1004.9,624,1006.2,624.3,1007.4z"/>
			</g>
			<g id="XMLID_186_">
				<path id="XMLID_187_" class="st2" d="M1197.1,1033.7c1.3,1.3,0,1.9,0,3.8c0,1.9,0.1,1.9,0.1,3.7c0,1.9-0.5,1.9-0.5,3.7
					c0,1.9,0.6,1.9,0.6,3.7c0,1.9-0.5,1.9-0.5,3.7c0,1.9,0.2,1.9,0.2,3.7c0,1.9-0.4,1.9-0.4,3.7c0,1.9,0.6,1.9,0.6,3.7
					c0,1.9-0.6,1.9-0.6,3.7c0,1.9,0.3,1.9,0.3,3.7c0,1.9-0.4,1.9-0.4,3.7c0,1.9,0,1.9,0,3.7c0,1.9,0.7,1.9,0.7,3.7s-0.4,1.9-0.4,3.7
					c0,1.9-0.1,1.9-0.1,3.7c0,1.9-0.2,1.9-0.2,3.7c0,1.9,0.7,1.9,0.7,3.7c0,1.9,0.1,1.9,0.1,3.7c0,1.9-0.8,1.9-0.8,3.7
					c0,1.9,0.6,1.9,0.6,3.7c0,1.9-0.5,1.9-0.5,3.7c0,1.9,0.7,1.9,0.7,3.7c0,1.9-0.7,1.9-0.7,3.7c0,1.9,0.2,1.9,0.2,3.7
					c0,1.9,0.2,1.9,0.2,3.7c0,1.9-0.2,1.9-0.2,3.7c0,1.9,0.1,1.9,0.1,3.7c0,1.9-0.4,1.9-0.4,3.7c0,1.9,0.3,1.9,0.3,3.7
					c0,1.9,0.1,1.9,0.1,3.7c0,1.9-0.1,1.9-0.1,3.7c0,1.9-0.3,1.9-0.3,3.7c0,1.9,0.3,1.9,0.3,3.7c0,1.9,0,1.9,0,3.7
					c0,1.9,0.2,1.9,0.2,3.7c0,1.9,0.5,1.9,0.5,3.7c0,1.9-0.4,1.9-0.4,3.7c0,1.9-0.3,1.9-0.3,3.7c0,1.9-0.2,1.9-0.2,3.7
					c0,1.9,0.6,1.9,0.6,3.7c0,1.9,0.3,1.9,0.3,3.7c0,1.9-0.5,1.9-0.5,3.7c0,1.9-0.1,1.9-0.1,3.7s0.4,1.9,0.4,3.7s-0.7,1.9-0.7,3.7
					c0,1.9,1,1.9,1,3.7c0,1.9-0.2,1.9-0.2,3.7c0,1.9-0.7,1.9-0.7,3.7c0,1.9,0.1,1.9,0.1,3.7c0,1.9,1.6,2.4,0.3,3.7
					c-1.3,1.3-1.8,0.1-3.7,0.1c-1.8,0-1.8,0.2-3.7,0.2s-1.8-0.6-3.7-0.6c-1.9,0-1.9,0.5-3.7,0.5c-1.9,0-1.9-0.2-3.7-0.2
					c-1.9,0-1.9,0.3-3.7,0.3c-1.9,0-1.9-0.6-3.7-0.6s-1.9,0.3-3.7,0.3c-1.9,0-1.9-0.4-3.7-0.4s-1.9,0-3.7,0s-1.9,0.5-3.7,0.5
					c-1.9,0-1.9,0-3.7,0c-1.9,0-1.9-0.7-3.7-0.7s-1.9,0.2-3.7,0.2c-1.9,0-1.9,0-3.7,0c-1.9,0-1.9,0.5-3.7,0.5
					c-1.9,0-1.9-0.2-3.7-0.2c-1.9,0-1.9,0-3.7,0c-1.9,0-1.9,0.3-3.7,0.3c-1.9,0-1.9-0.8-3.7-0.8c-1.8,0-1.8,0.6-3.7,0.6
					c-1.8,0-1.8-0.3-3.7-0.3s-1.9-0.3-3.7-0.3c-1.9,0-1.9,0.3-3.7,0.3c-1.9,0-1.9,0.5-3.7,0.5c-1.9,0-1.9,0.1-3.7,0.1s-1.9-1-3.7-1
					s-1.9,0.5-3.7,0.5s-1.9,0.3-3.7,0.3c-1.9,0-1.9-0.4-3.7-0.4c-1.9,0-1.9,0.3-3.7,0.3c-1.9,0-1.9-0.3-3.7-0.3
					c-1.9,0-1.9,0.6-3.7,0.6s-1.9-0.3-3.7-0.3s-1.9-0.5-3.7-0.5s-1.9,0.3-3.7,0.3s-1.9,0.1-3.7,0.1c-1.9,0-1.9-0.3-3.7-0.3
					s-1.9,0.4-3.7,0.4s-1.9-0.7-3.7-0.7s-1.9,0.5-3.7,0.5s-1.9-0.4-3.7-0.4c-1.8,0-1.8-0.1-3.7-0.1c-1.8,0-1.8-0.1-3.7-0.1
					c-1.8,0-1.8,0.7-3.7,0.7c-1.8,0-1.8,0.1-3.7,0.1c-1.9,0-1.9-0.2-3.7-0.2c-1.9,0-1.9-0.1-3.7-0.1c-1.9,0-1.9,0-3.7,0
					c-1.9,0-1.9,0.4-3.7,0.4c-1.9,0-1.9-0.9-3.7-0.9c-1.9,0-1.9,0.1-3.7,0.1c-1.8,0-1.8,0.3-3.7,0.3c-1.8,0-1.8,0.5-3.7,0.5
					c-1.8,0-1.8-0.2-3.7-0.2c-1.8,0-1.8-0.6-3.7-0.6c-1.8,0-1.8,0.1-3.7,0.1c-1.8,0-1.8,0.6-3.7,0.6c-1.8,0-1.8-0.6-3.7-0.6
					c-1.8,0-1.8,0.4-3.7,0.4c-1.8,0-1.8,0.3-3.7,0.3c-1.8,0-1.8-0.1-3.7-0.1c-1.8,0-1.8-0.3-3.7-0.3s-1.8-0.3-3.7-0.3
					c-1.8,0-1.8,0.3-3.7,0.3c-1.8,0-1.8-0.1-3.7-0.1c-1.8,0-1.8,0-3.7,0c-1.8,0-1.8,0.3-3.7,0.3c-1.8,0-1.8-0.3-3.7-0.3
					c-1.8,0-1.8,0.4-3.7,0.4c-1.8,0-1.8-0.3-3.7-0.3c-1.8,0-1.8-0.3-3.7-0.3c-1.8,0-1.8,0.6-3.7,0.6c-1.8,0-1.8-0.7-3.7-0.7
					c-1.9,0-1.9,0.6-3.7,0.6c-1.9,0-1.9,0.1-3.7,0.1c-1.9,0-1.9,0.1-3.7,0.1c-1.9,0-1.9-0.1-3.7-0.1c-1.9,0-1.9-0.4-3.7-0.4
					c-1.9,0-1.9-0.4-3.7-0.4c-1.9,0-1.9-0.1-3.7-0.1c-1.9,0-1.9-0.1-3.7-0.1c-1.8,0-1.8,0.8-3.7,0.8c-1.8,0-1.8-0.7-3.7-0.7
					c-1.8,0-1.8,0.7-3.7,0.7c-1.8,0-1.8-0.7-3.7-0.7c-1.8,0-1.8-0.1-3.7-0.1c-1.8,0-1.8,0.8-3.7,0.8s-1.8,0-3.7,0s-1.8-0.8-3.7-0.8
					c-1.8,0-1.8,1-3.7,1s-1.8-0.3-3.7-0.3c-1.8,0-1.8,0.2-3.7,0.2c-1.8,0-1.8-0.6-3.7-0.6c-1.8,0-1.8-0.1-3.7-0.1
					c-1.8,0-1.8,0.6-3.7,0.6c-1.9,0-1.9-0.2-3.7-0.2c-1.9,0-1.9,0.3-3.7,0.3c-1.9,0-1.9-0.8-3.7-0.8c-1.9,0-1.9,0.3-3.7,0.3
					c-1.9,0-1.9,0.5-3.7,0.5c-1.9,0-1.9-0.8-3.7-0.8c-1.9,0-1.9,0.5-3.7,0.5c-1.9,0-1.9-0.1-3.7-0.1c-1.9,0-1.9-0.5-3.7-0.5
					c-1.9,0-1.9,0-3.7,0c-1.8,0-1.8,0.8-3.7,0.8c-1.8,0-1.8-0.7-3.7-0.7c-1.8,0-1.8,0.3-3.7,0.3c-1.8,0-1.8,0.4-3.7,0.4
					s-1.8,0-3.7,0s-1.8-0.4-3.7-0.4c-1.8,0-1.8,0-3.7,0c-1.9,0-1.9-0.4-3.7-0.4c-1.9,0-1.9,0.7-3.7,0.7c-1.9,0-1.9-0.1-3.7-0.1
					c-1.9,0-1.9,0-3.7,0c-1.9,0-1.9-0.5-3.7-0.5c-1.9,0-1.9,0.8-3.7,0.8c-1.9,0-1.9-0.2-3.7-0.2c-1.9,0-1.9-0.4-3.7-0.4
					c-1.9,0-1.9,0.4-3.7,0.4c-1.9,0-1.9-0.2-3.7-0.2c-1.9,0-1.9,0.5-3.7,0.5c-1.9,0-1.9-0.4-3.7-0.4c-1.9,0-1.9,0.2-3.7,0.2
					s-1.9,0.2-3.7,0.2c-1.9,0-1.9-0.8-3.7-0.8c-1.9,0-1.9,0.5-3.7,0.5c-1.9,0-1.9-0.6-3.7-0.6c-1.9,0-1.9,0.3-3.7,0.3
					c-1.9,0-1.9,0.4-3.7,0.4c-1.9,0-1.9-0.1-3.7-0.1c-1.9,0-1.9-0.2-3.7-0.2c-1.9,0-1.9,0.2-3.7,0.2c-1.9,0-1.9-0.4-3.7-0.4
					c-1.9,0-1.9-0.1-3.7-0.1c-1.9,0-1.9,0.4-3.7,0.4c-1.9,0-1.9,0.3-3.7,0.3c-1.9,0-1.9-0.3-3.7-0.3c-1.9,0-1.9,0-3.7,0
					c-1.9,0-1.9-0.2-3.7-0.2c-1.9,0-1.9-0.3-3.7-0.3c-1.9,0-1.9,1-3.7,1c-1.9,0-1.9-0.9-3.7-0.9c-1.9,0-1.9,0.3-3.7,0.3
					c-1.9,0-1.9,0.2-3.7,0.2c-1.9,0-1.9-0.4-3.7-0.4c-1.9,0-1.9,0.6-3.7,0.6c-1.9,0-1.9-0.8-3.7-0.8c-1.9,0-1.9,0.5-3.7,0.5
					c-1.9,0-1.9,0-3.7,0c-1.9,0-1.9,0-3.7,0c-1.9,0-1.9,0.2-3.7,0.2c-1.9,0-1.9,0.3-3.7,0.3c-1.9,0-1.9-0.7-3.7-0.7
					c-1.9,0-1.9,0.7-3.7,0.7c-1.9,0-1.9,0-3.7,0c-1.9,0-1.9-0.2-3.7-0.2c-1.9,0-1.9-0.4-3.7-0.4s-1.9-0.4-3.7-0.4
					c-1.9,0-1.9,0.7-3.7,0.7c-1.9,0-1.9-0.7-3.7-0.7c-1.9,0-1.9,0.2-3.7,0.2c-1.9,0-1.9,0.5-3.7,0.5c-1.9,0-1.9-0.1-3.7-0.1
					c-1.9,0-1.9-0.4-3.7-0.4c-1.9,0-1.9,0.1-3.7,0.1c-1.9,0-1.9-0.2-3.7-0.2c-1.9,0-1.9,0.1-3.7,0.1c-1.9,0-1.9,0.3-3.7,0.3
					c-1.9,0-1.9-0.2-3.7-0.2c-1.9,0-1.9,0.6-3.7,0.6c-1.9,0-1.9-0.3-3.7-0.3c-1.9,0-1.9-0.2-3.7-0.2c-1.9,0-1.9,0.4-3.7,0.4
					c-1.9,0-1.9-0.5-3.7-0.5c-1.9,0-1.9-0.1-3.7-0.1c-1.9,0-1.9,0.4-3.7,0.4c-1.9,0-1.9,0.3-3.7,0.3c-1.9,0-1.9-0.5-3.7-0.5
					c-1.9,0-1.9,0.5-3.7,0.5c-1.8,0-1.8-0.4-3.7-0.4c-1.8,0-1.8-0.4-3.7-0.4c-1.9,0-1.9,0.4-3.7,0.4c-1.9,0-1.9-0.4-3.7-0.4
					c-1.9,0-1.9,0.3-3.7,0.3c-1.9,0-1.9,0.1-3.7,0.1c-1.9,0-1.9-0.1-3.7-0.1c-1.9,0-1.9-0.3-3.7-0.3c-1.9,0-1.9,0.8-3.7,0.8
					c-1.9,0-1.9-0.4-3.7-0.4c-1.9,0-1.9,0.4-3.7,0.4c-1.9,0-1.9-0.7-3.7-0.7c-1.9,0-1.9,0-3.7,0c-1.9,0-1.9,0.5-3.7,0.5
					c-1.9,0-1.9-0.5-3.7-0.5c-1.9,0-1.9,0-3.7,0c-1.9,0-1.9,0-3.7,0c-1.9,0-1.9,0.7-3.7,0.7c-1.9,0-1.9-0.2-3.7-0.2
					c-1.9,0-1.9-0.4-3.7-0.4c-1.9,0-1.9,0.1-3.7,0.1c-1.9,0-1.9,0.3-3.7,0.3c-1.9,0-1.9-0.3-3.7-0.3c-1.9,0-1.9,0.1-3.7,0.1
					c-1.9,0-1.9,0-3.7,0c-1.9,0-1.9,0.7-3.7,0.7c-1.9,0-1.9-0.3-3.7-0.3c-1.9,0-1.9,0.1-3.7,0.1c-1.9,0-1.9-0.5-3.7-0.5
					c-1.9,0-1.9,0.4-3.7,0.4c-1.9,0-1.9-0.1-3.7-0.1c-1.9,0-1.9,0.4-3.7,0.4c-1.9,0-1.9,0-3.7,0c-1.9,0-1.9-0.1-3.7-0.1
					c-1.9,0-1.9-0.6-3.7-0.6c-1.9,0-1.9-0.3-3.7-0.3c-1.9,0-1.9,0.9-3.7,0.9s-1.9-0.8-3.7-0.8c-1.9,0-1.9,0.2-3.7,0.2
					c-1.9,0-1.9-0.1-3.7-0.1c-1.9,0-1.9,0.3-3.7,0.3c-1.9,0-1.9-0.3-3.7-0.3c-1.9,0-1.9,0.7-3.7,0.7c-1.9,0-1.9-0.6-3.7-0.6
					c-1.9,0-1.9,0.4-3.7,0.4s-1.9-0.3-3.7-0.3c-1.9,0-1.9,0.3-3.7,0.3c-1.9,0-1.9,0.3-3.7,0.3c-1.9,0-1.9-0.3-3.7-0.3
					c-1.9,0-1.9-0.6-3.7-0.6c-1.9,0-1.9,0.8-3.7,0.8s-2.1,0.6-3.4-0.7c-1.3-1.3-0.6-1.5-0.6-3.4c0-1.9,0.3-1.9,0.3-3.7
					c0-1.9-0.4-1.9-0.4-3.7c0-1.9-0.2-1.9-0.2-3.7c0-1.9,0-1.9,0-3.7c0-1.9,0.6-1.9,0.6-3.7c0-1.9,0.3-1.9,0.3-3.7
					c0-1.9-0.5-1.9-0.5-3.7c0-1.9-0.4-1.9-0.4-3.7c0-1.9,0.7-1.9,0.7-3.7c0-1.9-0.5-1.9-0.5-3.7c0-1.9,0.5-1.9,0.5-3.7
					c0-1.9,0-1.9,0-3.7s0.1-1.9,0.1-3.7c0-1.9-0.4-1.9-0.4-3.7c0-1.9-0.1-1.9-0.1-3.7c0-1.9,0.3-1.9,0.3-3.7c0-1.9-0.2-1.9-0.2-3.7
					c0-1.9,0.3-1.9,0.3-3.7c0-1.9-0.1-1.9-0.1-3.7c0-1.9,0.1-1.9,0.1-3.7c0-1.9-0.5-1.9-0.5-3.7c0-1.9,0.4-1.9,0.4-3.7
					c0-1.9-0.1-1.9-0.1-3.7c0-1.9,0.2-1.9,0.2-3.7c0-1.9-0.3-1.9-0.3-3.7c0-1.9,0.4-1.9,0.4-3.7c0-1.9-0.2-1.9-0.2-3.7
					c0-1.9,0-1.9,0-3.7c0-1.9-0.4-1.9-0.4-3.7c0-1.9,0-1.9,0-3.7c0-1.9-0.1-1.9-0.1-3.7c0-1.9-0.3-1.9-0.3-3.7
					c0-1.9,0.7-1.9,0.7-3.7c0-1.9-0.1-1.9-0.1-3.7c0-1.9,0.2-1.9,0.2-3.7c0-1.9-0.1-1.9-0.1-3.7c0-1.9-0.2-1.9-0.2-3.7
					c0-1.9,0.3-1.9,0.3-3.7c0-1.9-0.4-1.9-0.4-3.7c0-1.9-0.1-1.9-0.1-3.7c0-1.9,0.4-1.9,0.4-3.7c0-1.9-0.2-1.9-0.2-3.7
					s0.4-1.9,0.4-3.7s0-1.9,0-3.7c0-1.9-0.6-1.9-0.6-3.7c0-1.9,0.6-1.9,0.6-3.7c0-1.9-0.5-1.9-0.5-3.7c0-1.9,0.3-1.9,0.3-3.7
					c0-1.9-1.6-2.5-0.3-3.8c1.3-1.3,2-0.1,3.8-0.1c1.8,0,1.8,0.4,3.7,0.4c1.9,0,1.9-0.6,3.7-0.6c1.9,0,1.9,0.6,3.7,0.6
					c1.9,0,1.9,0.2,3.7,0.2c1.9,0,1.9-0.1,3.7-0.1c1.9,0,1.9,0,3.7,0c1.9,0,1.9-0.6,3.7-0.6c1.9,0,1.9,0.2,3.7,0.2
					c1.9,0,1.9,0.4,3.7,0.4c1.9,0,1.9,0.1,3.7,0.1c1.9,0,1.9-0.5,3.7-0.5c1.9,0,1.9,0.1,3.7,0.1c1.9,0,1.9-0.4,3.7-0.4
					c1.9,0,1.9,0.5,3.7,0.5c1.9,0,1.9-0.5,3.7-0.5c1.9,0,1.9,0.4,3.7,0.4c1.9,0,1.9,0.1,3.7,0.1c1.9,0,1.9-0.1,3.7-0.1
					c1.9,0,1.9-0.2,3.7-0.2c1.9,0,1.9,0.3,3.7,0.3s1.9-0.2,3.7-0.2c1.9,0,1.9,0.1,3.7,0.1c1.9,0,1.9-0.4,3.7-0.4
					c1.9,0,1.9,0.5,3.7,0.5c1.9,0,1.9-0.2,3.7-0.2c1.9,0,1.9-0.3,3.7-0.3c1.9,0,1.9,0.2,3.7,0.2c1.9,0,1.9,0.5,3.7,0.5
					c1.9,0,1.9-0.5,3.7-0.5c1.9,0,1.9-0.2,3.7-0.2c1.9,0,1.9,0.3,3.7,0.3c1.9,0,1.9-0.2,3.7-0.2c1.9,0,1.9,0.1,3.7,0.1
					c1.9,0,1.9,0.4,3.7,0.4c1.9,0,1.9,0.2,3.7,0.2c1.9,0,1.9,0,3.7,0c1.9,0,1.9-0.2,3.7-0.2c1.9,0,1.9-0.3,3.7-0.3
					c1.9,0,1.9,0.4,3.7,0.4c1.9,0,1.9-0.4,3.7-0.4c1.9,0,1.9,0.2,3.7,0.2c1.8,0,1.8-0.3,3.7-0.3c1.8,0,1.8-0.4,3.7-0.4
					c1.8,0,1.8,0.3,3.7,0.3c1.8,0,1.8,0,3.7,0c1.9,0,1.9-0.3,3.7-0.3c1.9,0,1.9,0.8,3.7,0.8c1.9,0,1.9-0.1,3.7-0.1
					c1.9,0,1.9-0.1,3.7-0.1c1.9,0,1.9,0,3.7,0c1.9,0,1.9,0.3,3.7,0.3c1.8,0,1.8-0.5,3.7-0.5c1.8,0,1.8,0,3.7,0
					c1.8,0,1.8,0.1,3.7,0.1c1.8,0,1.8,0.4,3.7,0.4c1.8,0,1.8-0.1,3.7-0.1c1.8,0,1.8,0.2,3.7,0.2c1.8,0,1.8,0,3.7,0
					c1.8,0,1.8-0.1,3.7-0.1c1.8,0,1.8-0.8,3.7-0.8c1.8,0,1.8,0.7,3.7,0.7c1.8,0,1.8,0.3,3.7,0.3s1.8-0.5,3.7-0.5
					c1.8,0,1.8,0.4,3.7,0.4c1.8,0,1.8,0,3.7,0s1.8,0.1,3.7,0.1c1.8,0,1.8-0.8,3.7-0.8c1.8,0,1.8,0.4,3.7,0.4c1.8,0,1.8-0.1,3.7-0.1
					c1.8,0,1.8,0,3.7,0c1.8,0,1.8-0.4,3.7-0.4c1.8,0,1.8,0.8,3.7,0.8c1.8,0,1.8-0.4,3.7-0.4c1.9,0,1.9-0.1,3.7-0.1
					c1.9,0,1.9,0.2,3.7,0.2c1.9,0,1.9,0.4,3.7,0.4c1.9,0,1.9-1,3.7-1c1.9,0,1.9,0.9,3.7,0.9c1.9,0,1.9-0.6,3.7-0.6
					c1.9,0,1.9,0,3.7,0c1.9,0,1.9-0.1,3.7-0.1c1.8,0,1.8-0.2,3.7-0.2c1.8,0,1.8,0.1,3.7,0.1c1.8,0,1.8,0.2,3.7,0.2
					c1.8,0,1.8-0.1,3.7-0.1c1.8,0,1.8-0.1,3.7-0.1c1.8,0,1.8,0.6,3.7,0.6s1.8-0.1,3.7-0.1s1.8-0.6,3.7-0.6c1.8,0,1.8,0,3.7,0
					c1.8,0,1.8,0.8,3.7,0.8c1.8,0,1.8-0.9,3.7-0.9c1.8,0,1.8,0.6,3.7,0.6c1.8,0,1.8-0.4,3.7-0.4c1.8,0,1.8,0.4,3.7,0.4
					c1.9,0,1.9,0.2,3.7,0.2c1.9,0,1.9,0.1,3.7,0.1c1.9,0,1.9-0.4,3.7-0.4c1.9,0,1.9-0.4,3.7-0.4c1.9,0,1.9,0.8,3.7,0.8
					c1.9,0,1.9-0.2,3.7-0.2c1.9,0,1.9-0.1,3.7-0.1c1.9,0,1.9,0.1,3.7,0.1c1.9,0,1.9,0.2,3.7,0.2c1.9,0,1.9-0.2,3.7-0.2
					c1.8,0,1.8,0.1,3.7,0.1c1.8,0,1.8-0.2,3.7-0.2c1.8,0,1.8-0.5,3.7-0.5c1.8,0,1.8,0.2,3.7,0.2s1.8,0.4,3.7,0.4s1.8-0.3,3.7-0.3
					c1.8,0,1.8-0.4,3.7-0.4c1.9,0,1.9,0.9,3.7,0.9c1.9,0,1.9-0.4,3.7-0.4c1.9,0,1.9,0.4,3.7,0.4c1.9,0,1.9-0.3,3.7-0.3
					c1.9,0,1.9-0.1,3.7-0.1c1.9,0,1.9-0.2,3.7-0.2c1.9,0,1.9,0.4,3.7,0.4c1.9,0,1.9-0.1,3.7-0.1c1.9,0,1.9,0.2,3.7,0.2
					c1.9,0,1.9-0.5,3.7-0.5c1.9,0,1.9,0.5,3.7,0.5c1.9,0,1.9-0.6,3.7-0.6c1.9,0,1.9,0,3.7,0s1.9,0.3,3.7,0.3c1.9,0,1.9,0.2,3.7,0.2
					c1.9,0,1.9-0.1,3.7-0.1c1.9,0,1.9-0.5,3.7-0.5c1.9,0,1.9,0.4,3.7,0.4c1.9,0,1.9-0.5,3.7-0.5c1.9,0,1.9,0.1,3.7,0.1
					c1.9,0,1.9,0,3.7,0c1.9,0,1.9,0.2,3.7,0.2c1.9,0,1.9,0.1,3.7,0.1c1.9,0,1.9,0.3,3.7,0.3c1.9,0,1.9,0.2,3.7,0.2
					c1.9,0,1.9-0.4,3.7-0.4c1.9,0,1.9,0,3.7,0c1.9,0,1.9-0.4,3.7-0.4c1.9,0,1.9-0.2,3.7-0.2c1.9,0,1.9,0.1,3.7,0.1
					c1.9,0,1.9,0.7,3.7,0.7c1.9,0,1.9-0.5,3.7-0.5c1.9,0,1.9,0.3,3.7,0.3c1.9,0,1.9,0.2,3.7,0.2c1.9,0,1.9,0.2,3.7,0.2
					c1.9,0,1.9-0.2,3.7-0.2c1.9,0,1.9-0.1,3.7-0.1c1.9,0,1.9-0.1,3.7-0.1c1.9,0,1.9,0.2,3.7,0.2c1.9,0,1.9,0.1,3.7,0.1
					c1.9,0,1.9-0.5,3.7-0.5c1.9,0,1.9,0.1,3.7,0.1c1.9,0,1.9-0.3,3.7-0.3c1.9,0,1.9,0.7,3.7,0.7c1.9,0,1.9-0.9,3.7-0.9
					c1.9,0,1.9,0.6,3.7,0.6c1.9,0,1.9,0.2,3.7,0.2s1.9-0.9,3.7-0.9c1.9,0,1.9,0.5,3.7,0.5c1.9,0,1.9-0.4,3.7-0.4
					c1.9,0,1.9,0.1,3.7,0.1c1.9,0,1.9,0.1,3.7,0.1c1.9,0,1.9,0.4,3.7,0.4c1.9,0,1.9,0.1,3.7,0.1c1.9,0,1.9,0,3.7,0
					c1.9,0,1.9,0,3.7,0c1.9,0,1.9,0.3,3.7,0.3c1.9,0,1.9-0.8,3.7-0.8c1.9,0,1.9,0.6,3.7,0.6c1.9,0,1.9,0.1,3.7,0.1
					c1.9,0,1.9-0.6,3.7-0.6c1.9,0,1.9,0.5,3.7,0.5c1.9,0,1.9-0.2,3.7-0.2c1.9,0,1.9,0.1,3.7,0.1c1.9,0,1.9,0,3.7,0
					c1.9,0,1.9,0,3.7,0c1.9,0,1.9-0.2,3.7-0.2c1.9,0,1.9-0.1,3.7-0.1c1.9,0,1.9,0.4,3.7,0.4c1.8,0,1.8-0.1,3.7-0.1
					c1.8,0,1.8-0.7,3.7-0.7c1.9,0,1.9,0.2,3.7,0.2c1.9,0,1.9,0.5,3.7,0.5c1.9,0,1.9,0,3.7,0c1.9,0,1.9,0.2,3.7,0.2
					c1.9,0,1.9-0.7,3.7-0.7c1.9,0,1.9-0.1,3.7-0.1c1.9,0,1.9,0.4,3.7,0.4c1.9,0,1.9-0.1,3.7-0.1c1.9,0,1.9-0.1,3.7-0.1
					c1.9,0,1.9,0.2,3.7,0.2c1.9,0,1.9,0,3.7,0c1.9,0,1.9-0.4,3.7-0.4c1.9,0,1.9,0.8,3.7,0.8s1.9-0.2,3.7-0.2c1.9,0,1.9-0.3,3.7-0.3
					c1.9,0,1.9,0.3,3.7,0.3c1.9,0,1.9-0.2,3.7-0.2c1.9,0,1.9-0.3,3.7-0.3c1.9,0,1.9,0.3,3.7,0.3c1.9,0,1.9-0.5,3.7-0.5
					c1.9,0,1.9,0.3,3.7,0.3c1.9,0,1.9,0.7,3.7,0.7c1.9,0,1.9-0.2,3.7-0.2c1.9,0,1.9-0.3,3.7-0.3c1.9,0,1.9,0.2,3.7,0.2
					c1.9,0,1.9,0,3.7,0c1.9,0,1.9,0.1,3.7,0.1c1.9,0,1.9-0.3,3.7-0.3c1.9,0,1.9-0.1,3.7-0.1c1.9,0,1.9-0.3,3.7-0.3
					c1.9,0,1.9,0.1,3.7,0.1c1.9,0,1.9,0.4,3.7,0.4c1.9,0,1.9,0.5,3.7,0.5c1.9,0,1.9-0.7,3.7-0.7c1.9,0,1.9-0.2,3.7-0.2
					c1.9,0,1.9,0.9,3.7,0.9c1.9,0,1.9-0.9,3.7-0.9c1.9,0,1.9,0.6,3.7,0.6c1.9,0,1.9,0,3.7,0c1.9,0,1.9-0.2,3.7-0.2
					c1.9,0,1.9,0.2,3.7,0.2c1.9,0,1.9-0.6,3.7-0.6c1.9,0,1.9,0,3.7,0s1.9,0.7,3.7,0.7c1.9,0,1.9,0.1,3.7,0.1c1.9,0,1.9-0.8,3.7-0.8
					c1.9,0,1.9,0.6,3.7,0.6c1.9,0,1.9-0.5,3.7-0.5c1.9,0,1.8,0.3,3.7-0.1C1195.3,1033,1195.8,1032.4,1197.1,1033.7z"/>
			</g>
			<g id="XMLID_182_">
				<path id="XMLID_184_" class="st3" d="M914.4,1064.8c-1.8,0.6-1.7,0.6-3.6,0.6c-1.9,0-1.9,0.1-3.7,0.1c-1.9,0-1.9-0.6-3.7-0.6
					c-1.9,0-1.9,0.2-3.7,0.2c-1.9,0-1.9,0.5-3.7,0.5c-1.9,0-1.9-0.1-3.7-0.1c-1.9,0-1.9-0.5-3.7-0.5c-1.9,0-1.9-0.2-3.7-0.2
					c-1.9,0-1.9,0.9-3.7,0.9c-1.9,0-1.9-0.6-3.7-0.6s-1.9,0.4-3.7,0.4c-1.9,0-1.9,0-3.7,0c-1.9,0-1.9,0.2-3.7,0.2
					c-1.9,0-1.9-0.4-3.7-0.4c-1.9,0-1.9-0.5-3.7-0.5c-1.9,0-1.9,0-3.7,0c-1.9,0-1.9,0.3-3.7,0.3c-1.9,0-1.9,0.2-3.7,0.2
					c-1.9,0-1.9-0.5-3.7-0.5s-1.9,0.7-3.7,0.7c-1.9,0-1.9-0.6-3.7-0.6c-1.9,0-1.9,0.4-3.7,0.4c-1.9,0-1.9-0.2-3.7-0.2
					c-1.9,0-1.9,0.5-3.7,0.5c-1.9,0-1.9-0.6-3.7-0.6c-1.9,0-1.9,0.3-3.7,0.3c-1.9,0-1.9,0.4-3.7,0.4c-1.9,0-1.9-0.4-3.7-0.4
					c-1.9,0-1.9-0.3-3.7-0.3c-1.9,0-1.9,0.4-3.7,0.4c-1.9,0-1.9-0.6-3.7-0.6c-1.9,0-1.9,0.8-3.7,0.8c-1.9,0-1.9-0.4-3.7-0.4
					c-1.9,0-1.9,0.5-3.7,0.5s-1.9-0.1-3.7-0.1c-1.9,0-1.9-0.6-3.7-0.6c-1.9,0-1.9,0-3.7,0c-1.9,0-1.9,0-3.7,0
					c-1.9,0-1.9,0.6-3.7,0.6c-1.9,0-1.9,0.2-3.7,0.2c-1.9,0-1.9-0.7-3.7-0.7c-1.9,0-1.9,0.2-3.7,0.2c-1.9,0-1.9,0.1-3.7,0.1
					c-1.9,0-1.9-0.4-3.7-0.4c-1.9,0-1.9,0.3-3.7,0.3c-1.9,0-1.9-0.3-3.7-0.3c-1.9,0-1.9,0.2-3.7,0.2c-1.9,0-1.9-0.4-3.7-0.4
					c-1.9,0-1.9,0-3.7,0c-1.9,0-1.9,0.6-3.7,0.6c-1.9,0-1.9,0.2-3.7,0.2c-1.9,0-1.9,0.2-3.7,0.2c-1.9,0-1.9-0.6-3.7-0.6
					c-1.9,0-1.9,0.6-3.7,0.6c-1.9,0-1.9-0.5-3.7-0.5c-1.9,0-1.9-0.2-3.7-0.2c-1.9,0-1.9-0.4-3.7-0.4c-1.9,0-1.9,0.7-3.7,0.7
					c-1.9,0-1.9-0.4-3.7-0.4c-1.9,0-1.9,0.3-3.7,0.3c-1.9,0-1.9-0.4-3.7-0.4c-1.9,0-1.9,0-3.7,0c-1.9,0-1.9,0.6-3.7,0.6
					c-1.9,0-1.9-0.4-3.7-0.4c-1.9,0-1.9,0.2-3.7,0.2c-1.9,0-1.9,0-3.7,0c-1.9,0-1.9-0.1-3.7-0.1c-1.9,0-1.9-0.5-3.7-0.5
					c-1.9,0-1.9,0.2-3.7,0.2c-1.9,0-1.9,0.7-3.7,0.7c-1.9,0-1.9-0.3-3.7-0.3c-1.9,0-1.9-0.2-3.7-0.2c-1.9,0-1.9,0.3-3.7,0.3
					c-1.9,0-1.9-0.2-3.7-0.2c-1.9,0-1.9,0.2-3.7,0.2c-1.9,0-1.9,0.2-3.7,0.2c-1.9,0-1.9-0.4-3.7-0.4c-1.9,0-1.9,0-3.7,0
					c-1.9,0-1.9,0-3.7,0s-1.9,0.3-3.7,0.3c-1.9,0-1.9-0.1-3.7-0.1c-1.9,0-1.9-0.8-3.7-0.8c-1.9,0-1.9,0.6-3.7,0.6
					c-1.9,0-1.9-0.2-3.7-0.2c-1.9,0-1.9,0.3-3.7,0.3c-1.9,0-1.9,0-3.7,0c-1.9,0-1.9-0.6-3.7-0.6s-1.9,0.4-3.7,0.4
					c-1.9,0-1.9-0.3-3.7-0.3c-1.9,0-1.9-0.1-3.7-0.1c-1.9,0-1.9,0.3-3.7,0.3c-1.9,0-1.9-0.4-3.7-0.4c-1.9,0-1.9,0.3-3.7,0.3
					s-2,0.7-3.7,0.1c0.7-1,1.1-2.2,1.8-3.2c0.7-1,1.7-1.8,2.4-2.8c0.7-1,1.6-1.9,2.3-2.9c0.7-1,1.5-2,2.2-3c0.7-1,1.6-1.9,2.4-2.8
					c0.8-1,1.4-2,2.2-3c0.8-1,1.4-2,2.2-3c0.8-1,1.7-1.8,2.5-2.8c0.8-0.9,1.4-2,2.2-3c0.8-0.9,1.5-1.9,2.3-2.8
					c0.8-0.9,2-1.4,2.8-2.3c0.8-0.9,1.2-2.1,2.1-3c0.8-0.9,1.9-1.5,2.7-2.4c0.8-0.9,1.8-1.6,2.6-2.5c0.8-0.9,1.6-1.8,2.4-2.7
					c0.9-0.8,1.3-2.1,2.2-2.9c0.9-0.8,2.3-1.1,3.2-1.9c0.9-0.8,1.3-2.1,2.2-2.9c0.9-0.8,2.1-1.2,3-2c0.9-0.8,1.8-1.6,2.7-2.4
					c0.9-0.8,1.7-1.7,2.6-2.4c0.9-0.8,1.7-1.8,2.6-2.5c0.9-0.8,2.2-1.1,3.1-1.9c0.9-0.8,1.9-1.5,2.8-2.2c1-0.8,1.7-1.8,2.7-2.6
					c1-0.8,1.7-1.9,2.7-2.6c1-0.7,2.2-1.2,3.2-1.9c1-0.7,2.3-1.1,3.3-1.8c1-0.7,2-1.5,3-2.2c1-0.7,1.9-1.6,3-2.3
					c1-0.7,1.8-1.7,2.9-2.4c1.1-0.7,2.5-0.6,3.6-1.3c1.1-0.6,1.8-1.9,2.9-2.5c1.1-0.6,2.2-1.2,3.2-1.9c1.1-0.6,2.2-1.1,3.3-1.7
					c1.1-0.6,2.2-1.1,3.3-1.7c1.1-0.6,2.3-1,3.4-1.5c1.1-0.6,2.4-0.8,3.5-1.3s2-1.6,3.1-2.1c1.1-0.5,2.5-0.5,3.6-1
					c1.1-0.5,2.3-1,3.4-1.5c1.1-0.5,2.2-1.3,3.3-1.7c1.2-0.5,2.2-1.1,3.4-1.5c1.2-0.4,2.2-1.2,3.4-1.7c1.2-0.4,2.4-0.6,3.6-1
					c1.2-0.4,2.6-0.1,3.8-0.5c1.2-0.4,2.1-1.5,3.3-1.8c1.2-0.4,2.5-0.3,3.7-0.6c1.2-0.3,2.3-1.1,3.5-1.4c1.2-0.3,2.5-0.2,3.7-0.5
					c1.2-0.3,2.3-1.1,3.5-1.3c1.2-0.3,2.5-0.2,3.7-0.5c1.2-0.2,2.6,0.2,3.8,0c1.2-0.2,2.3-1.2,3.6-1.4c1.2-0.2,2.5-0.1,3.7-0.2
					c1.2-0.2,2.5-0.2,3.7-0.3c1.2-0.1,2.5-0.3,3.7-0.4c1.2-0.1,2.5-0.6,3.7-0.7c1.2-0.1,2.5,0.1,3.7,0c1.2-0.1,2.5-0.5,3.7-0.5
					c1.2,0,2.5,0,3.7,0c1.2,0,2.5,0.8,3.7,0.8c1.2,0,2.5-0.7,3.7-0.7c1.2,0,2.5,0.2,3.7,0.3c1.2,0.1,2.5,0.3,3.7,0.4
					c1.2,0.1,2.5,0.2,3.7,0.3c1.2,0.1,2.5-0.1,3.8,0c1.2,0.1,2.5,0.2,3.7,0.4c1.2,0.2,2.3,1.3,3.5,1.5c1.2,0.2,2.5,0,3.7,0.2
					c1.2,0.2,2.5,0.3,3.7,0.6c1.2,0.3,2.5,0.3,3.7,0.6c1.2,0.3,2.2,1.3,3.4,1.7c1.2,0.3,2.6,0.1,3.8,0.4c1.2,0.3,2.4,0.8,3.5,1.2
					c1.2,0.4,2.5,0.4,3.7,0.8c1.2,0.4,2.1,1.6,3.2,2.1c1.3,0.5,2.8,0.6,4.1,1.1c1.3,0.5,2.8,0.8,4.1,1.4c1.3,0.6,2.6,1.2,3.9,1.8
					c1.1,0.5,2.2,1.3,3.3,1.9c1.1,0.6,2,1.5,3.2,2.1c1.1,0.6,2.3,1.1,3.4,1.7c1.1,0.6,2.2,1.1,3.3,1.8c1.1,0.6,2.4,1,3.4,1.6
					c1.1,0.7,1.9,1.7,2.9,2.4c1.1,0.7,2.1,1.4,3.1,2.1c1,0.7,2,1.6,3,2.3c1,0.7,2.1,1.4,3.1,2.1c1,0.8,2,1.5,3,2.3
					c1,0.8,1.8,1.7,2.8,2.5c1,0.8,2.3,1.2,3.3,2c1,0.8,2,1.5,2.9,2.4c0.9,0.8,2,1.6,2.9,2.4c0.9,0.9,1.4,2.2,2.3,3.1
					c0.9,0.9,2.2,1.4,3.1,2.3c0.9,0.9,1.4,2.2,2.3,3.1c0.9,0.9,1.4,2.1,2.3,3c0.9,0.9,2.3,1.3,3.1,2.3c0.8,0.9,1.4,2.2,2.2,3.1
					c0.8,1,2,1.6,2.8,2.6c0.8,1,1.3,2.3,2.1,3.3c0.8,1,1.8,1.9,2.6,2.9c0.8,1,1.4,2.2,2.1,3.2c0.8,1,1.8,1.9,2.5,2.9
					c0.8,1,1.4,2.1,2.2,3.2c0.7,1,1.1,2.3,1.8,3.4c0.7,1.1,1.8,1.9,2.5,2.9c0.7,1.1,1.4,2.2,2.1,3.2c0.7,1.1,1.2,2.2,1.9,3.3
					c0.7,1.1,1.5,2,2.1,3.1c0.6,1.1,1,2.3,1.7,3.4c0.6,1.1,1.6,2,2.2,3.1c0.6,1.1,1.6,2,2.2,3.1c0.6,1.1,1.2,2.2,1.8,3.3
					C913.7,1062.7,913.9,1063.7,914.4,1064.8z"/>
			</g>
			<g id="XMLID_180_">
				<path id="XMLID_181_" class="st4" d="M1197.2,1011.6c0.6,1.8,0.1,1.9,0.1,3.8c0,1.9-0.6,1.9-0.6,3.8c0,1.9,0.7,1.9,0.7,3.8
					c0,1.9-0.4,1.9-0.4,3.8c0,1.9,0,1.9,0,3.8c0,1.9,0.5,1.9,0.5,3.8c0,1.9-0.9,1.9-0.9,3.8s-0.1,1.9-0.1,3.8s0.8,1.9,0.8,3.8
					c0,1.9,0.1,1.9,0.1,3.8c0,1.9-0.5,1.9-0.5,3.8c0,1.9,0.2,1.9,0.2,3.8c0,1.9,0.3,1.9,0.3,3.8s0.8,2.2-0.6,3.6
					c-1.3,1.3-1.6,0.5-3.5,0.5c-1.9,0-1.9,0.1-3.7,0.1c-1.9,0-1.9-0.6-3.7-0.6c-1.9,0-1.9-0.1-3.7-0.1c-1.9,0-1.9,0.6-3.7,0.6
					c-1.9,0-1.9-0.6-3.7-0.6c-1.9,0-1.9,0.1-3.7,0.1c-1.9,0-1.9,0.1-3.7,0.1c-1.9,0-1.9,0.2-3.7,0.2c-1.9,0-1.9,0-3.7,0
					c-1.9,0-1.9,0-3.7,0c-1.9,0-1.9-0.4-3.7-0.4c-1.9,0-1.9,0.6-3.7,0.6c-1.9,0-1.9,0.1-3.7,0.1c-1.9,0-1.9,0-3.7,0
					c-1.9,0-1.9-0.3-3.7-0.3c-1.9,0-1.9-0.4-3.7-0.4c-1.9,0-1.9,0.1-3.7,0.1c-1.9,0-1.9,0.5-3.8,0.5c-1.9,0-1.9-0.3-3.7-0.3
					s-1.9-0.3-3.7-0.3c-1.9,0-1.9,0.1-3.7,0.1c-1.9,0-1.9,0-3.7,0c-1.9,0-1.9,0-3.7,0c-1.9,0-1.9,0.4-3.8,0.4
					c-1.9,0-1.9-0.3-3.7-0.3c-1.9,0-1.9,0.3-3.8,0.3c-1.9,0-1.9-0.2-3.8-0.2s-1.9,0.4-3.8,0.4s-1.9-0.6-3.8-0.6c-1.9,0-1.9,0-3.8,0
					c-1.9,0-1.9-0.2-3.8-0.2c-1.9,0-1.9,0.2-3.8,0.2c-1.9,0-1.9,0.3-3.8,0.3s-2,0.9-3.9,0.4c1.1-0.7,2.5-1.4,3.6-2.1
					c1.1-0.7,1.7-2,2.8-2.6c1.1-0.7,2.4-0.8,3.5-1.5c1.1-0.7,2-1.5,3.1-2.2c1.1-0.7,2.1-1.3,3.2-2c1.1-0.7,2.2-1.2,3.3-1.9
					c1.1-0.7,2.1-1.4,3.2-2.1c1.1-0.7,2.4-1,3.4-1.6s1.9-1.7,3-2.4c1.1-0.7,2.1-1.3,3.2-2c1.1-0.7,2.1-1.4,3.2-2.1
					c1.1-0.7,1.9-1.7,3-2.4c1.1-0.7,2.2-1.3,3.2-2c1-0.7,2-1.5,3-2.3c1-0.7,2.3-1.1,3.3-1.8c1-0.7,2-1.5,3-2.2
					c1-0.7,1.8-1.7,2.9-2.5c1-0.7,2-1.5,3-2.3c1-0.8,2.3-1.1,3.3-1.8c1-0.8,1.9-1.7,2.8-2.5c1-0.8,1.8-1.8,2.8-2.6
					c1-0.8,2.4-1.1,3.3-1.9c1-0.8,1.8-1.8,2.7-2.6c0.9-0.8,1.8-1.8,2.7-2.6c0.9-0.8,2-1.5,2.9-2.4c0.9-0.9,2-1.6,2.9-2.5
					c0.9-0.9,1.2-2.3,2.2-3.2c0.9-0.9,2-1.8,2.9-2.7c1.1,0.4,2.3,1.3,3.4,1.7c1.1,0.4,2.2,0.9,3.4,1.2c1.2,0.3,2.5,0.1,3.6,0.4
					c1.2,0.3,2.3,0.7,3.5,1c1.2,0.3,2.4,0.3,3.6,0.5c1.2,0.3,2.3,0.5,3.5,0.8c1.2,0.2,2.4,0.2,3.6,0.4c1.2,0.2,2.2,1.1,3.4,1.3
					c1.2,0.2,2.5-0.5,3.7-0.3c1.2,0.1,2.3,1,3.5,1.1c1.2,0.1,2.4-0.1,3.6,0c1.2,0.1,2.4,0.6,3.6,0.6
					C1194.7,1011.8,1196,1011.5,1197.2,1011.6z"/>
			</g>
			<g id="XMLID_178_">
				<path id="XMLID_179_" class="st3" d="M1151.1,1010.2c-1,0.8-2,1.3-3,2.1s-1.4,2.2-2.4,3c-1,0.8-2.1,1.3-3.1,2.1
					c-1,0.8-1.8,1.7-2.8,2.5c-1,0.8-2.2,1.2-3.2,2c-1,0.7-1.7,1.8-2.7,2.6c-1,0.7-2,1.4-3,2.1c-1,0.7-2.4,0.8-3.4,1.5
					c-1,0.7-2,1.3-3,2c-1,0.7-1.7,1.7-2.8,2.4c-1,0.6-2.2,1.1-3.2,1.8c-1,0.6-2,1.4-3,2c-1,0.6-2.1,1.3-3.1,1.9
					c-1,0.6-2.4,0.7-3.4,1.3c-1,0.6-1.6,2-2.7,2.6c-1.1,0.6-2.2,1-3.3,1.6c-1.1,0.6-2.4,0.7-3.4,1.3c-1.1,0.6-2,1.5-3,2
					c-1.1,0.6-2.2,0.9-3.3,1.5c-1.1,0.6-2.3,0.8-3.4,1.4c-1.1,0.6-1.8,1.8-2.9,2.3c-1.1,0.6-2.3,0.8-3.4,1.3s-2.2,1-3.3,1.6
					c-1.1,0.6-2,1.3-3.1,1.9c-1.1,0.6-2,1.5-3,2c-1.1,0.6-2.2,1-3.3,1.6c-1.1,0.6-2.1,1.2-3.2,1.8c-1.1,0.6-2.5,0.5-3.5,1.1
					c-1.1,0.6-2.1,1-3.2,1.6c-1.8,0.2-1.8,0.3-3.7,0.3c-1.9,0-1.9,0.1-3.7,0.1c-1.9,0-1.9-0.4-3.7-0.4c-1.9,0-1.9,0.4-3.7,0.4
					c-1.9,0-1.9-0.3-3.7-0.3c-1.9,0-1.9,0.3-3.7,0.3c-1.9,0-1.9,0-3.7,0c-1.9,0-1.9,0.3-3.7,0.3c-1.9,0-1.9,0-3.7,0
					c-1.9,0-1.9-0.5-3.7-0.5c-1.9,0-1.9,0.3-3.7,0.3c-1.9,0-1.9,0.1-3.7,0.1c-1.9,0-1.9-0.7-3.7-0.7c-1.9,0-1.9,0.6-3.7,0.6
					c-1.9,0-1.9-0.4-3.7-0.4c-1.9,0-1.9-0.2-3.7-0.2c-1.9,0-1.9-0.2-3.7-0.2c-1.9,0-1.9,0.4-3.7,0.4c-1.9,0-1.9,0.4-3.7,0.4
					c-1.9,0-1.9,0.2-3.7,0.2c-1.9,0-1.9-0.1-3.7-0.1c-1.9,0-1.9-0.4-3.7-0.4c-1.9,0-1.9,0.4-3.7,0.4c-1.9,0-1.9-0.1-3.7-0.1
					c-1.9,0-1.9-0.6-3.7-0.6c-1.9,0-1.9,0.4-3.7,0.4c-1.9,0-1.9-0.1-3.7-0.1c-1.9,0-1.9,0.4-3.7,0.4s-1.9-0.9-3.7-0.9
					c-1.9,0-1.9,0.6-3.7,0.6c-1.9,0-1.9,0.2-3.7,0.2c-1.9,0-1.9-0.9-3.7-0.9c-1.9,0-1.9,0.4-3.7,0.4c-1.9,0-1.9-0.1-3.7-0.1
					c-1.9,0-1.9,0.6-3.7,0.6c-1.9,0-1.9,0-3.7,0s-1.9-0.4-3.7-0.4c-1.9,0-1.9,0.3-3.7,0.3c-1.9,0-1.9-0.6-3.7-0.6
					c-1.9,0-1.9,0.3-3.7,0.3c-1.9,0-1.9,0.1-3.7,0.1c-1.9,0-1.9,0.5-3.7,0.5c-1.9,0-2,0.2-3.8-0.3c-0.6-1.1-1.3-2.4-1.9-3.5
					c-0.6-1.1-1.3-2.2-2-3.3c-0.6-1.1-1.5-2.1-2.1-3.2c-0.7-1.1-1.1-2.3-1.8-3.4c-0.7-1.1-1.4-2.1-2.1-3.2c-0.7-1.1-1.5-2.1-2.2-3.1
					c-0.7-1.1-1.3-2.2-2.1-3.3c-0.7-1.1-1.4-2.2-2.1-3.3c-0.7-1.1-1.1-2.4-1.9-3.5c-0.8-1.1-2-1.7-2.8-2.8c-0.8-1-1.1-2.5-1.8-3.5
					c-0.8-1-1.8-1.9-2.6-2.9c-0.8-1-1.9-1.8-2.7-2.8c-0.8-1-1.9-1.8-2.7-2.8c-0.8-1-1.6-2.3-2.4-3.2c0.9-1,1.7-2.2,2.6-3.3
					c0.9-1,2.3-1.5,3.3-2.5c0.9-1,1.9-1.9,2.9-2.9c0.9-1,1.3-2.5,2.3-3.5c1-0.9,2.5-1.3,3.5-2.2c0.9-0.8,1.9-1.6,2.8-2.4
					c0.9-0.8,1.6-2,2.5-2.8c1-0.8,1.7-1.9,2.7-2.6c1-0.8,2.4-0.9,3.4-1.7c1-0.7,2.1-1.3,3.1-2c1-0.7,1.7-1.8,2.8-2.5
					c1-0.7,2-1.4,3.1-2.1c1-0.7,2.3-1,3.3-1.7c1.1-0.6,1.9-1.6,3-2.2c1.1-0.6,2.2-1.1,3.3-1.7c1.1-0.6,2.3-0.9,3.4-1.5
					c1.1-0.6,1.9-1.7,3-2.2c1.1-0.5,2.4-0.7,3.5-1.2c1.1-0.5,2.3-0.9,3.4-1.4c1.1-0.5,2.3-0.8,3.5-1.3c1.1-0.5,2.3-1,3.4-1.4
					c1.2-0.4,2.3-0.9,3.5-1.3c1.2-0.4,2.2-1.3,3.3-1.7c1.2-0.4,2.5-0.5,3.6-0.8c1.2-0.4,2.4-0.6,3.6-0.9c1.2-0.3,2.4-0.7,3.6-1
					c1.2-0.3,2.4-0.6,3.6-0.9c1.2-0.3,2.4-0.8,3.6-1c1.2-0.3,2.3-0.9,3.6-1.1c1.2-0.2,2.4-0.5,3.7-0.7c1.2-0.2,2.5-0.1,3.7-0.3
					c1.2-0.2,2.5,0,3.7-0.2c1.2-0.2,2.4-1,3.6-1.1c1.2-0.1,2.5,0.1,3.7,0c1.2-0.1,2.5-0.3,3.7-0.4s2.5,0.1,3.7,0.1
					c1.2-0.1,2.5,0.1,3.7,0c1.2,0,2.5-1,3.7-1c1.2,0,2.5,0.1,3.7,0.1c1.2,0,2.5,0.4,3.7,0.5c1.2,0,2.5,0,3.7,0.1
					c1.2,0.1,2.5,0,3.7,0.1c1.2,0.1,2.5-0.1,3.7,0c1.2,0.1,2.4,0.8,3.6,0.9c1.2,0.2,2.5,0.1,3.7,0.3c1.2,0.2,2.4,0.5,3.7,0.7
					c1.2,0.2,2.5,0.1,3.7,0.3s2.3,1,3.5,1.3c1.1,0.3,2.2,0.7,3.4,1c1.1,0.3,2.2,0.8,3.4,1.1c1.1,0.3,2.5-0.3,3.7,0
					c1.1,0.3,2,1.6,3.1,1.9c1.1,0.3,2.4,0,3.6,0.4c1.1,0.4,2.1,1,3.2,1.4c1.1,0.4,2.1,1,3.2,1.4c1.1,0.4,2.4,0.4,3.6,0.8
					c1.1,0.4,2.1,1.3,3.2,1.7c1.1,0.4,2.3,0.7,3.5,1.1c1.1,0.4,2.3,0.7,3.5,1.2c1.1,0.5,2,1.4,3.2,1.9c1.1,0.5,2.3,0.9,3.4,1.3
					c1.1,0.5,2.3,0.7,3.5,1.2c1.1,0.5,2.4,0.6,3.5,1.1c1.1,0.5,2.3,0.9,3.4,1.4c1.1,0.5,2,1.6,3.1,2.1c1.1,0.5,2.3,0.8,3.4,1.3
					c1.1,0.5,2.2,1,3.3,1.5c1.1,0.5,2.4,0.5,3.5,1s1.8,1.9,2.9,2.4s2.2,1,3.3,1.5c1.1,0.5,2.6,0.2,3.7,0.7c1.1,0.5,2.2,1,3.3,1.5
					c1.1,0.5,1.9,1.7,3,2.1c1.1,0.5,2.2,1,3.4,1.4c1.1,0.5,2.6,0.2,3.7,0.6c1.1,0.5,2.1,1.2,3.2,1.7c1.1,0.5,2.3,0.8,3.4,1.2
					c1.1,0.4,2,1.5,3.2,1.9c1.1,0.4,2.5,0.1,3.7,0.6c1.1,0.4,2.2,1.2,3.3,1.6c1.1,0.4,2.3,0.7,3.5,1.1c1.2,0.4,2.5,0.3,3.6,0.6
					c1.2,0.4,2.1,1.5,3.2,1.9C1150.2,1010.3,1150.6,1010.1,1151.1,1010.2z"/>
			</g>
			<g id="XMLID_165_">
				<g id="XMLID_174_">
					<path id="XMLID_175_" class="st5" d="M1134.9,996.7c-0.5,1.1-0.8,2.2-1.4,3.3c-0.6,1.1-1.1,2.2-1.6,3.3
						c-0.6,1.1-1.2,2.2-1.8,3.2c-0.6,1.1-1.3,2.1-1.9,3.1c-0.6,1-1.8,1.8-2.4,2.8c-0.7,1-1.3,2-2,3.1c-0.7,1-1,2.3-1.7,3.3
						c-0.7,1-1.9,1.6-2.6,2.6c-0.7,1-0.8,2.5-1.5,3.4c-0.7,1-1.8,1.7-2.6,2.6c-0.8,1-1.7,1.7-2.5,2.7c-0.8,0.9-1.6,1.9-2.3,2.8
						c-0.8,0.9-1.7,1.8-2.4,2.7c-0.8,0.9-1.3,2.1-2.1,3c-0.8,0.9-2,1.5-2.8,2.4c-0.8,0.9-1.4,2-2.3,2.9c-0.8,0.9-1.8,1.6-2.6,2.5
						c-0.8,0.9-1.3,2.1-2.2,3c-0.9,0.9-1.6,1.8-2.5,2.7c-0.9,0.9-1.9,1.6-2.7,2.4c-0.9,0.8-1.4,2.1-2.2,2.9
						c-0.9,0.9-2.3,1.2-3.1,2.1c-0.8,0.9-1.3,2.1-2.1,3c-0.8,0.9-1.3,2.1-2,3.1c-0.7,1-1.7,1.8-2.4,2.8c-0.6,1.1-1.6,2-2.1,3.1
						c-0.5,1.1-0.2,2.5-0.6,3.7c-0.3,1.2-1,2.3-1.1,3.5c-0.1,1.2,0.1,2.3,0.3,3.6c0.4,0.6,0.5,0.7,1.2,0.6c1-0.7,2.3-0.9,3.4-1.6
						c1-0.7,1.8-1.8,2.8-2.4c1-0.7,2.1-1.3,3.1-2c1-0.7,2.1-1.3,3.1-2c1-0.7,1.9-1.6,2.9-2.3c1-0.7,2.2-1.1,3.2-1.8
						c1-0.7,1.7-1.9,2.7-2.6c1-0.7,2.5-0.9,3.4-1.6c1-0.8,1.4-2.3,2.3-3c1-0.8,1.9-1.6,2.8-2.4c0.9-0.8,2.1-1.3,3-2.1
						c0.9-0.8,1.7-1.8,2.6-2.7c0.9-0.9,2.1-1.4,2.9-2.3c0.8-0.9,1.2-2.2,2.1-3.1c0.8-0.9,1.9-1.6,2.7-2.6c0.8-1,1.2-2.2,1.9-3.2
						c0.7-1,1.3-2.1,2-3.1c0.7-1,1.8-1.8,2.4-2.8c0.6-1.1,1.2-2.2,1.7-3.3c0.6-1.1,1.2-2.2,1.7-3.3c0.5-1.1,0.9-2.3,1.4-3.4
						c0.5-1.1,1-2.3,1.4-3.4c0.4-1.2,0.5-2.4,0.8-3.6c0.3-1.2,1-2.3,1.3-3.5c0.3-1.2,0.7-2.4,0.9-3.6c0.2-1.2,0.1-2.5,0.2-3.7
						c0.1-1.2,0.2-2.5,0.2-3.7s0.5-2.5,0.4-3.7c-0.1-1.2-0.6-2.4-0.8-3.7C1135.4,999,1135.2,997.9,1134.9,996.7z"/>
				</g>
				<g id="XMLID_172_">
					<path id="XMLID_173_" class="st5" d="M1069.5,1079.3c0.7,1.8,0.4,1.9,1.1,3.7c-0.5-1.3-0.8-2.6-1.2-3.9
						C1069.4,1079.3,1069.5,1079.3,1069.5,1079.3z"/>
				</g>
				<g id="XMLID_170_">
					<path id="XMLID_171_" class="st5" d="M1103.3,981.6c0.1-1.2,0-2.5,0.1-3.7c0.1-1.2,0.7-2.4,0.8-3.6c0.1-1.2-0.3-2.5-0.2-3.7
						c0.1-1.2,0.7-2.4,0.7-3.7c0-1.2-0.8-2.5-0.8-3.7c0-1.2,0.6-2.4,0.6-3.7c0-1.2-0.3-2.4-0.3-3.7c0-1.2,0.3-2.5,0.3-3.7
						c0-1.2,0.2-2.5,0.2-3.7c0-1.2-0.7-2.4-0.8-3.7c0-1.2,0.7-2.5,0.6-3.7c0-1.2-1.1-2.4-1.1-3.6c0-1.2,0.6-2.5,0.6-3.7
						c0-1.2-0.1-2.4-0.2-3.7c0-1.2,0.2-2.5,0.2-3.7c0-1.2-0.6-2.4-0.6-3.7c0-1.2,0.1-2.5,0.2-3.7c0-1.2,0.1-2.4,0.2-3.7
						c0-1.2,0.2-2.4,0.2-3.7c0-1.2-0.1-2.5,0-3.7c0.1-1.2,0.5-2.4,0.6-3.6c0.1-1.2-0.4-2.5-0.3-3.7c0.1-1.2,0.1-2.5,0.2-3.7
						c0.1-1.2,0.5-2.4,0.7-3.6c0.2-1.3,0.9-2.4,1.1-3.7c0.2-1.3,0.2-2.6,0.4-3.8c0.2-1.3,0.6-2.5,0.8-3.7c0.2-1.3-0.5-2.7-0.2-3.9
						c0.2-1.3,0.5-2.5,0.7-3.8c0.2-1.3,0.8-2.5,1-3.7c0.2-1.3,0.1-2.6,0.2-3.8c0.1-1.3,0.5-2.5,0.5-3.8c0.1-1.3-0.2-2.6-0.1-3.8
						c0-1.3,0.2-2.5,0.2-3.8c0-1.3,0.3-2.6,0.2-3.9c-0.1-1.3-0.9-2.5-1.1-3.7c-0.2-1.3,0-2.6-0.3-3.9c-0.3-1.2-1.1-1.9-1.5-3.1
						c-0.7,1-1.7,1.3-2.4,2.4c-0.7,1-0.9,2.3-1.6,3.4c-0.6,1.1-0.8,2.4-1.4,3.5c-0.6,1.1-1.3,2.1-1.9,3.2c-0.5,1.1-1.2,2.2-1.7,3.3
						c-0.5,1.1-1.5,2.1-2,3.2c-0.5,1.2-0.6,2.5-1,3.6c-0.4,1.2-0.6,2.4-1,3.6c-0.4,1.2-1.3,2.2-1.7,3.4c-0.4,1.2,0,2.6-0.3,3.8
						c-0.3,1.2-0.9,2.3-1.2,3.5c-0.3,1.2-0.4,2.5-0.7,3.7c-0.3,1.2-0.8,2.4-1,3.6c-0.2,1.2,0.1,2.5-0.1,3.8
						c-0.2,1.2-1.2,2.3-1.4,3.5c-0.2,1.2,0,2.5-0.2,3.7c-0.2,1.2-0.5,2.4-0.7,3.7c-0.1,1.2-0.4,2.5-0.5,3.7
						c-0.1,1.2,0.4,2.5,0.3,3.8c-0.1,1.2-0.8,2.4-0.9,3.7c-0.1,1.2-0.5,2.5-0.6,3.7c-0.1,1.2,0,2.5-0.1,3.7
						c-0.1,1.2-0.2,2.5-0.2,3.7c-0.1,1.2,0.1,2.5,0.1,3.7c0,1.2,0.3,2.5,0.3,3.7c0,1.2-0.7,2.5-0.8,3.7c0,1.2,0,2.5,0,3.7
						c0,1.2,0.5,2.5,0.5,3.7c0,1.2,0,2.5,0,3.7c0,1.2-0.4,2.5-0.4,3.7c0,1.2,0.4,2.5,0.4,3.7c0,1.2-0.1,2.5-0.1,3.7
						c0,1.2-0.7,2.5-0.7,3.7c0,1.2,0.4,2.5,0.4,3.7c0,1.2-0.5,2.5-0.5,3.7c-0.1,1.2,0.5,2.5,0.4,3.8c-0.1,1.2-1,2.4-1.1,3.7
						c-0.1,1.2,0.8,2.5,0.7,3.8c-0.1,1.2-0.9,2.4-1,3.7c-0.1,1.2,0.4,2.5,0.3,3.8c-0.1,1.2-1.2,2.4-1.4,3.6
						c-0.2,1.2,0.3,2.5,0.1,3.8c-0.2,1.2-0.9,2.4-1.1,3.6c-0.2,1.2,0.3,2.6,0,3.8c-0.2,1.2-0.4,2.5-0.6,3.7c-0.3,1.2-1,2.3-1.3,3.5
						c-0.3,1.2-0.7,2.3-1,3.5c-0.3,1.2-0.1,2.5-0.4,3.7c-0.3,1.2-0.8,2.3-1.1,3.5c-0.3,1.2-0.6,2.4-1,3.5c-0.3,1.2-0.6,2.4-0.9,3.5
						c-0.3,1.2-1,2.3-1.3,3.4c-0.3,1.2-1,2.3-1.3,3.4c-0.3,1.2,0,2.5-0.3,3.7c-0.3,1.2-0.5,2.4-0.8,3.6c-0.3,1.2-0.7,2.4-0.9,3.5
						c-0.3,1.2-0.3,2.4-0.5,3.6c-0.2,1.2-0.8,2.3-0.9,3.5c-0.2,1.2-0.6,2.4-0.7,3.6c-0.1,1.2-0.2,2.4-0.3,3.7
						c-0.1,1.2-0.1,2.4-0.1,3.7c0,1.2-0.5,2.5-0.5,3.7c0,1.2,0.8,2.4,0.9,3.6c0.1,1.2-0.5,2.5-0.3,3.7c0.2,1.2,0.9,2.3,1.1,3.5
						c0.3,1.2,0.6,2,1,3.2c0.1-1.3,0.8-2.2,0.9-3.4c0.2-1.3-0.3-2.6,0-3.9c0.3-1.2,0.6-2.5,0.9-3.7c0.3-1.2,1.2-2.3,1.6-3.5
						c0.4-1.2,0.6-2.5,1-3.7c0.5-1.2,0.7-2.5,1.3-3.6c0.5-1.2,1.3-2.2,1.9-3.4c0.5-1.1,0.7-2.5,1.2-3.7c0.6-1.1,1.6-2,2.2-3.2
						c0.6-1.1,0.8-2.4,1.4-3.6c0.6-1.1,1.1-2.3,1.7-3.4c0.6-1.1,2-1.8,2.6-3c0.6-1.1,0.7-2.5,1.3-3.6c0.6-1.1,1.3-2.2,1.9-3.3
						c0.5-1.1,0.7-2.3,1.2-3.4s1-2.2,1.5-3.3s0.7-2.3,1.1-3.4c0.4-1.1,1.5-2,2-3.1c0.4-1.1,0.3-2.4,0.7-3.6c0.4-1.1,1.2-2.1,1.6-3.3
						c0.4-1.1,0.9-2.2,1.2-3.4c0.3-1.2,0.4-2.4,0.7-3.6c0.3-1.2,0.7-2.3,1-3.5s0.3-2.4,0.6-3.6c0.3-1.2,0.9-2.3,1.1-3.5
						c0.2-1.2,0.4-2.4,0.5-3.6c0.2-1.2,0.5-2.4,0.6-3.6S1103.2,982.8,1103.3,981.6z"/>
				</g>
				<g id="XMLID_168_">
					<path id="XMLID_169_" class="st5" d="M1059.7,1062.6c0.2-0.5,0.5-1.1,0.7-1.6c0.5-1.2,0.9-2.3,1.3-3.5c0.4-1.2,1.2-2.2,1.6-3.4
						c0.4-1.2,0.4-2.5,0.8-3.7c0.4-1.2,0.9-2.3,1.3-3.5c0.4-1.2,0.4-2.5,0.8-3.7c0.4-1.2,1.3-2.2,1.7-3.4s0.1-2.6,0.5-3.7
						s1.2-2.3,1.5-3.5c0.3-1.2,0.7-2.4,1-3.6c0.3-1.2,0.9-2.3,1.2-3.6c0.3-1.2,0.2-2.5,0.5-3.7c0.3-1.2,0.8-2.4,1-3.6
						c0.3-1.2,0.1-2.5,0.4-3.7s0.6-2.4,0.9-3.6c0.2-1.2,0.1-2.5,0.3-3.7c0.2-1.2,0.9-2.4,1.1-3.6c0.2-1.2,0.5-2.4,0.6-3.7
						s0.2-2.5,0.4-3.7c0.2-1.2,0.1-2.5,0.2-3.7s0.6-2.4,0.8-3.7c0.1-1.2,0.2-2.5,0.3-3.7c0.1-1.2-0.3-2.5-0.2-3.8s0.2-2.5,0.2-3.7
						c0.1-1.2-0.1-2.5,0-3.7c0.1-1.2,0.5-2.5,0.6-3.7s-0.5-2.5-0.5-3.7c0-1.2,0.3-2.5,0.3-3.7c0-1.2-0.4-2.5-0.4-3.7
						c0-1.2,0.9-2.5,0.9-3.7c0-1.2-0.1-2.5-0.1-3.7c0-1.2-0.5-2.5-0.6-3.7c-0.1-1.2,0-2.5-0.1-3.7s-0.6-2.5-0.7-3.7
						s-0.4-2.5-0.5-3.7c-0.1-1.2,0.6-2.6,0.4-3.8s-0.8-2.4-0.9-3.6s-0.2-2.5-0.4-3.7c-0.2-1.2-0.8-2.4-1-3.6
						c-0.2-1.2,0.3-2.6,0.1-3.8c-0.2-1.2,0-2.5-0.3-3.7c-0.2-1.2-1.2-2.3-1.4-3.5s-0.3-2.5-0.5-3.7s-0.4-2.5-0.7-3.7
						c-0.3-1.2-0.8-2.4-1.1-3.6s-0.6-2.4-0.9-3.6c-0.3-1.2-0.4-2.4-0.8-3.7c-0.3-1.2-0.3-2.5-0.7-3.7c-0.3-1.2-1-2.3-1.4-3.5
						c-0.3-1.2-0.4-2.5-0.8-3.7c-0.4-1.2-0.7-2.4-1.1-3.6c-0.4-1.2-0.9-2.3-1.3-3.5c-0.4-1.2-0.8-2.5-1.2-3.7
						c-0.4,1.2-0.8,2.5-1.2,3.7c-0.4,1.2-0.3,2.5-0.6,3.7c-0.3,1.2-0.5,2.4-0.7,3.6c-0.3,1.2-1.2,2.3-1.4,3.5
						c-0.2,1.2-0.4,2.5-0.5,3.7c-0.2,1.2-0.1,2.5-0.3,3.7c-0.1,1.2-0.4,2.5-0.5,3.7c-0.1,1.2-0.3,2.5-0.3,3.7c0,1.2-0.2,2.5-0.2,3.7
						c0,1.2,0.1,2.5,0.1,3.7c0,1.2,0.4,2.5,0.4,3.7c0,1.2,0,2.5,0.1,3.7c0,1.2-0.2,2.5-0.2,3.7c0,1.2,0.3,2.5,0.3,3.7
						c0.1,1.2,0.5,2.5,0.5,3.7c0.1,1.2,0.2,2.5,0.3,3.7c0.1,1.2-0.4,2.5-0.4,3.7c0.1,1.2,0.4,2.5,0.4,3.7c0.1,1.2,0.2,2.5,0.2,3.7
						c0,1.2,0.2,2.5,0.2,3.7c0,1.2-0.2,2.8-0.2,4.1c-0.2-1.3-0.4-2.9-0.6-4.1s-0.4-2.5-0.7-3.8c-0.2-1.3-0.5-2.5-0.7-3.8
						c-0.2-1.3,0.2-2.7,0-3.9c-0.3-1.3-1-2.4-1.3-3.7c-0.3-1.3-0.5-2.5-0.8-3.8s-0.7-2.5-1-3.7c-0.3-1.2-0.7-2.5-1.1-3.7
						s-0.4-2.6-0.8-3.8s-1-2.4-1.4-3.6c-0.4-1.2-1.1-2.4-1.5-3.6c-0.4-1.2-0.5-2.8-1-4c-0.4,1.2-0.4,2.7-0.7,3.9
						c-0.3,1.2-1.4,2.2-1.7,3.4c-0.3,1.2-0.6,2.4-1,3.6c-0.3,1.2-0.8,2.3-1.1,3.5c-0.3,1.2,0.2,2.6-0.1,3.8
						c-0.3,1.2-0.6,2.4-0.9,3.6c-0.3,1.2-1.3,2.2-1.5,3.4s0.1,2.5-0.2,3.7c-0.2,1.2-0.7,2.4-0.9,3.6c-0.2,1.2-0.7,2.4-0.9,3.6
						c-0.2,1.2,0.1,2.5-0.1,3.7c-0.2,1.2-0.4,2.4-0.5,3.7c-0.2,1.2-0.2,2.5-0.4,3.7c-0.2,1.2-0.1,2.5-0.2,3.7
						c-0.1,1.2-0.8,2.4-0.9,3.6c-0.1,1.2-0.2,2.5-0.3,3.7c-0.1,1.2-0.1,2.5-0.2,3.7c-0.1,1.2,0.2,2.5,0.2,3.7s-0.8,2.4-0.9,3.7
						s-0.3,2.5-0.4,3.7c0,1.2,0.5,2.5,0.5,3.7s-0.6,2.5-0.7,3.7s0.7,2.5,0.7,3.7c0,1.2,0.1,2.5,0.1,3.7c0,1.2-0.2,2.5-0.2,3.7
						s0.6,2.4,0.6,3.7c0.1,1.2-0.5,2.5-0.4,3.7c0.1,1.2,0,2.5,0.1,3.7c0.1,1.2,0.4,2.4,0.5,3.7c0.1,1.2,0.8,2.4,0.9,3.6
						c0.1,1.2-0.2,2.5-0.1,3.7s0.2,2.5,0.3,3.7c0.2,1.2,0,2.5,0.2,3.7c0.2,1.2,1.3,2.3,1.5,3.5c0.2,1.2-0.2,2.5,0,3.7
						s0.9,2.3,1.1,3.6c0.2,1.2,0,2.3,0.2,3.5c-0.8-1-1.5-1.8-2.3-2.8c-0.8-1-1.6-2-2.4-3c-0.8-1-1.5-2.1-2.4-3.1
						c-0.9-1-1.8-1.8-2.7-2.8c-0.9-0.9-2.2-1.5-3-2.4c-0.9-0.9-1.6-2-2.5-3c-0.9-0.9-1.9-1.7-2.8-2.6s-1.2-2.4-2.1-3.3
						c-0.9-0.9-2-1.6-3-2.5c-0.9-0.9-1.9-1.8-2.8-2.7c-0.9-0.9-1.9-1.6-2.8-2.4c-0.9-0.9-1.5-2-2.4-2.8c-0.9-0.8-1.8-1.7-2.8-2.5
						c-0.9-0.8-2-1.5-3-2.2c-1-0.8-1.9-1.7-2.9-2.4c-1-0.7-2.1-1.3-3.1-2c-1.1-0.6-2.4-0.7-3.5-1.2c-1.1-0.6-2-1.7-3.1-2.1
						c-1.2-0.4-2.3-0.9-3.5-1.2c-1.2-0.3-2.4-0.8-3.6-0.9c-1.2-0.1-2.4,0.5-3.6,0.5c-0.5,1.1-1.2,2-1.5,3.2
						c-0.3,1.2-0.5,2.5-0.6,3.7c0,1.2,0.7,2.4,0.8,3.6c0.2,1.2,0.2,2.4,0.5,3.6c0.3,1.2,0.3,2.5,0.8,3.6c0.5,1.1,1.2,2.2,1.8,3.3
						c0.6,1.1,1.7,1.8,2.5,2.8c0.7,1,1.4,2,2.3,2.9c0.9,0.9,1.8,1.6,2.8,2.4c0.9,0.8,1.4,2.2,2.4,3c1,0.8,2.1,1.3,3.2,2
						c1,0.7,1.9,1.6,2.9,2.3c1,0.7,2.5,0.7,3.5,1.4c1.1,0.6,1.8,1.9,2.8,2.5c1.1,0.6,2.5,0.7,3.5,1.3c1.1,0.6,1.9,1.7,2.9,2.4
						c1,0.6,2.4,0.7,3.4,1.3c1,0.7,1.5,2.1,2.5,2.8c1,0.7,2.4,0.8,3.3,1.5c1,0.7,1.8,1.6,2.8,2.3c0.9,0.7,2.1,1.2,3.1,2
						c0.9,0.8,1.7,1.7,2.6,2.5c0.9,0.8,1.8,1.6,2.7,2.4c0.9,0.8,1.2,2.2,2.1,3c0.8,0.9,2.2,1.2,3,2.1c0.8,0.9,1.3,2.1,2.1,3
						c0.8,0.9,1.5,1.9,2.2,2.8c0.7,0.9,1.6,1.8,2.3,2.8c0.7,1,1,2.2,1.6,3.2c0.6,0.9,1.8,1.5,2.4,2.5c0.6,1,0.7,2.3,1.3,3.2
						c0.6,1,2,1.5,2.6,2.5c0.5,1.2,0.2,2.9,0.7,4.1c0.5,1.2,1.6,2.6,2.3,3.8c1-0.2,0.2-1.8,1.1-2.2c0.7,0.7,1.4,1.7,2.1,2.3
						c0.7,0.6,1.7,1.5,2.5,2.1c0.1-0.7-0.1-2.2-0.1-2.9c1,0.4,2.1,1.3,3.2,1.4c1.1,0.1,2.3-0.1,3.3-0.3c1-0.2,2.2-1.1,3.2-1.7
						c-1-1.4-1.7-0.7-3.1-1.7c-1.4-1-1.6-0.7-2.9-1.9c-0.5-1.3-1.3-2.5-1.7-3.8c-0.4-1.3-0.5-2.7-0.9-4c-0.3-1.3-0.3-2.7-0.6-4.1
						C1060.5,1065.2,1059.9,1063.9,1059.7,1062.6z"/>
				</g>
				<g id="XMLID_166_">
					<path id="XMLID_167_" class="st5" d="M1062.4,1086.2c-0.8-0.4-1-0.2-1.8-0.7c-0.1,1.1-0.4,1.6-0.6,2.7
						C1061.6,1088.5,1061.3,1087.5,1062.4,1086.2z"/>
				</g>
			</g>
			<g id="XMLID_163_">
				<path id="XMLID_164_" class="st5" d="M449.3,986.3c1-0.6,1.8-1.4,2.7-2.2c0.9-0.7,2.2-1.1,2.9-2c0.8-0.9,1.5-1.9,2.1-2.9
					c0.5-1,0.2-2.4,0.4-3.5c0.2-1.1,1.2-2.2,1.1-3.4c-0.1-1.5-1.5-2.2-3-2.3c-1.3-0.1-2.6-0.2-3.8-0.1c-1.3,0.2-2.7,0-3.9,0.4
					c-1.2,0.4-2.1,1.7-3.2,2.3c-1.1,0.6-2.1,1.4-3.1,2.2c0.1-0.1,0.2-0.2,0.2-0.3c0.6-0.4,0.4-1.4,0.5-2.3c0,0,0-0.2,0-0.2
					c0.6-1.1,1.8-1.9,2.4-3.1c0.6-1.1,0.7-2.5,1.4-3.6c0.7-1.1,1.2-2.2,1.9-3.4c0.6-1.1,2-1.8,2.6-2.9c0.6-1.1,1.1-2.4,1.6-3.5
					c0.5-1.1,1-2.4,1.2-3.7c0.2-1.3-0.4-2.6-0.6-3.8c-0.2-1.3-0.2-2.7-0.9-3.7c-0.7-1-1.8-1.8-3.1-2.4c-1.4-0.7-2.9-0.5-4.2-0.3
					c-1.4,0.2-2.3,1.1-3.3,2.2c-0.9,1-1.9,1.9-2.3,3.4c-0.3,1.1-0.1,2.2-0.2,3.3c-0.1,1.1-1.1,2.2-1.2,3.3c0,1.1,0.2,2.3,0.2,3.3
					c0,1.1,0.3,2.3,0.3,3.4c0,1.1-0.4,2.3-0.5,3.4s-0.2,2.3-0.2,3.4c0,1.1,0.4,2.4,0.4,3.5c-0.5,1.1-1.2,2.1-1.7,3.2
					c-0.5,1.1-1.1,2.1-1.6,3.1c-0.3-1-1.2-1.6-1.7-2.5c-0.5-0.9-0.5-2.2-1.3-2.9c-0.8-0.8-1.9-1.3-2.8-1.8c-1-0.5-2.1-0.4-3.2-0.6
					c-1.1-0.2-2.1-0.5-3.2-0.3c-1.1,0.2-1.9,0.8-2.8,1.4c-1.1,0.7-2.3,1.3-3,2.4c-0.7,1.1-0.7,2.5-0.9,3.7c-0.1,1.3,0.1,2.4,0.7,3.6
					c0.5,1.1,1.4,1.6,2.6,2.2c1,0.6,1.9,1.8,3.1,2.2c1.2,0.4,2.4,0.8,3.5,1.3c1.3,0.6,2.4,1.1,3,2c0.6,0.9,1.2,2.2,0.6,3.8
					c-0.7,0.8-1.5,1.6-2,2.5c-0.5,1-1.4,1.8-1.7,2.8c-0.2,1,0,2,0,3.1c-0.5-0.9-1.3-1.2-2-1.9c-0.6-0.7-0.9-1.8-1.7-2.5
					c-1.1-0.9-2.6-1-3.9-1.6c-1.3-0.6-2.4-1.8-3.8-1.9c-1.4-0.2-2.8,0.4-4.1,0.8c-1.3,0.3-2.4,1.1-3.5,2c-0.9,0.7-1.5,1.5-2.1,2.4
					c-0.6,0.9-1.8,1.6-2.1,2.7c-0.3,1.1-0.1,2.3,0,3.4c0,1.1,0.1,2.3,0.5,3.3c0.4,1,0.9,2.1,1.6,3c0.9,1.1,2.3,1.5,3.5,2.2
					c1.2,0.7,2.4,1.2,3.8,1.3c1.1,0.1,2.5,0.5,3.9,0.2c1.3-0.2,2.5-1.4,3.7-1.5c1.4-0.2,2.4,0.5,3.5,1.1c-0.2,1.2-0.1,2.2-0.3,3.4
					c-0.2,1.2-0.5,2.4-0.6,3.6c-0.2,1.2-0.5,2.4-0.7,3.6c-0.2,1.2,0.1,2.5,0,3.7c-0.1,1.2-0.4,2.3-0.5,3.5c-1-0.7-1.7-1.6-2.5-2.5
					c-0.8-1-1.4-2.3-2.3-3c-0.9-0.9-2.3-1.2-3.4-1.8c-1.1-0.6-2.3-0.9-3.5-1.2c-1.2-0.3-2.3-0.6-3.4-0.6c-1.2,0.1-2.4,0.2-3.5,0.6
					c-1.1,0.4-1.8,1.4-2.7,2.2c-0.9,0.8-1.7,1.5-2.2,2.6c-0.6,1.3-1.6,2.7-1.6,4.1c0,1.4,0.9,2.8,1.6,4.1c0.7,1.2,1.7,2.1,3,2.9
					c1.2,0.7,2.3,1.2,3.7,1.4c1.3,0.2,2.7,0.5,4,0.3c0.7-0.1,1.8-0.6,3.2-0.9c1-0.2,2-0.9,3.1-1c1.2-0.2,2.4-0.4,3.3-0.4
					c1.3,0.1,2.6,0.9,3,1.8c0,1.3,0.1,2.6,0.1,3.9c-0.4,1.1-0.5,2.1-0.5,3.3c0,1.1,0,2.2,0.3,3.3c0,1.3,0,2.6,0.1,3.9
					c0.1,1.3,0.1,2.6,0.2,3.9c0.1,1.3-0.1,2.6,0.1,3.9c0.1,1.3,0,2.6,0.1,3.9c0.2,1.3,0.8,2.5,0.9,3.8c0.2,1.3,0.4,2.6,0.6,3.9
					c0.2,1.3,0.5,2.6,0.7,3.9c0.3,1.7,1.8,2.3,3,1.9c1.2-0.4,1.9-1.6,1.6-3.2c-0.2-1.2,0.2-2.4,0-3.6c-0.2-1.2-0.7-2.3-0.9-3.4
					c-0.2-1.2-0.1-2.4-0.2-3.5c-0.1-1.2-0.5-2.3-0.6-3.5c-0.1-1.2,0-2.4-0.1-3.5c-0.1-1.2,0.1-2.4,0-3.5c-0.1-1.2-0.2-2.3-0.3-3.5
					c0.3-0.6,0-1.5-0.4-2.3c0,0,0.3,0,0.3,0c0-1,0.2-2,0.2-2.9c0-1-0.6-2-0.6-3c0.6-0.9,1.1-2.2,2.2-3c0.9-0.7,2.4-0.5,3.5-1.1
					c1-0.5,1.9-1.4,3-1.9c1.1-0.5,2-1.2,3.1-1.7c1.1-0.5,2.1-1,3.2-1.6c1.1-0.5,2.2-0.9,3.2-1.5c1.1-0.6,1.9-1.4,2.7-2.1
					c0.9-0.8,1.7-1.5,2.3-2.5c0.5-1,1.1-2,1-3.3c0-1-0.1-2.2-0.6-3.5c-0.6-1.4-1.5-2.7-2.7-3.4c-1.2-0.7-2.8-0.9-4.2-0.8
					c-1.4,0.1-2.6,0.9-3.8,1.7c-0.9,0.6-1.7,1.6-2.5,2.7c-0.7,1-1.8,1.8-2.5,2.9c-0.6,1.1-0.9,2.4-1.6,3.5c-0.7,1.1-1.9,1.8-2.8,2.6
					c-1,1-1.4,1.7-2.6,2c0.1-1.4-0.2-2.6-0.1-4.1s0.8-2.8,1-4.2c0.4-0.4-0.1-1,0-1.7c0.1-1.4,0.9-2.7,1.4-4c0.5-0.3,0.3-1,0.5-1.7
					c0.2-0.6,0.7-1,0.9-1.6c0.5-0.8,1.1-1.6,1.8-2.3c0.7-0.7,1.3-1.5,2.2-2.1c1-0.6,2.3-0.7,3.4-1.1c1.1-0.4,2.3-0.7,3.4-1
					c1.1-0.4,2-1.3,3-1.8c1.1-0.6,1.9-1.4,2.8-2.3c0.9-0.9,1.6-1.8,2.1-2.9c0.5-1.2,0.8-2.3,0.6-3.5c-0.1-1.1,0-2.6-0.8-3.7
					c-0.8-1.1-1.9-1.9-2.8-2.4c-1.1-0.6-2.3-0.1-3.5,0.2c-1.1,0.2-2.1,0.4-3.2,1.2c-0.9,0.6-1.9,1.3-2.8,2.2
					c-0.8,0.8-1.6,1.7-2.4,2.7c-0.7,0.9-1.4,1.9-2,2.9c0.3-1.2,0.2-2.6,0.6-3.8c0.4-1.2,1.3-2.2,1.7-3.5c0.9-0.7,1.6-1.8,2.6-2.3
					c1-0.5,2.4-0.3,3.5-0.7c1.1-0.5,2-1.2,3.1-1.6c1.1-0.4,2.4-0.4,3.4-0.8C447.6,987.6,448.5,986.8,449.3,986.3z"/>
			</g>
			<g id="XMLID_161_">
				<path id="XMLID_162_" class="st6" d="M370,1047c-1-0.5-1.7-1.4-2.4-2.1c-0.8-0.8-1.9-1.3-2.3-2.4c-0.4-1-0.8-2.2-0.7-3.4
					c0.1-0.8,1-1.6,1.8-1.6c1.6-0.1,3,0.5,4.3,1c1.4,0.5,3,0.7,4.1,1.7c0-0.1-0.6,0.6-0.7,0.5c-0.3-0.2-0.6-1-0.6-1.5
					c0,0,0.1,0.1,0.1,0.1c-0.6-1.1-0.6-2.5-1.2-3.6c-0.6-1.1-1.4-2-2-3.1c-0.6-1.1-1.4-2-1.9-3.1c-0.6-1.3-0.9-2.9-0.7-4.3
					c0.2-1.4,1.1-2.8,2.5-3.6c1.3-0.6,2.4-0.1,3.4,0.5c1,0.6,2,1.3,2.4,2.5c0.3,0.9,0.3,1.9,0.4,2.9c0,1,0.2,1.9,0.3,2.9
					c0.1,1.3-0.1,2.6,0,3.9s-0.4,2.7-0.3,4c0.6,1.2,1.6,2.1,2.2,3.3c0.4-1.1,1.1-1.7,2-2.6c0.9-0.9,1.8-2,3-2.2
					c1.2-0.2,2.5,0.2,3.7,0.9c0.9,0.6,1.2,1.7,1.6,2.7c0.4,1.1,0.8,2,0.2,3.1c-0.5,1-1.6,1.5-2.8,1.9c-1.1,0.5-2.1,1.4-3,1.9
					c-1.1,0.6-2.3,1.3-1.8,2.8c1.2,1.5,2.4,3,2.3,4.8c0.6-1,1.4-1.6,2.3-2.4c0.8-0.7,1.5-1.8,2.5-2.1c1-0.3,2.3-0.1,3.3,0
					c1,0.1,1.9,0.7,2.8,1.4c0.9,0.7,1.8,1.4,2.2,2.4c0.4,1,0.1,2.1-0.1,3.2c-0.2,1,0,2.3-0.7,3.2c-1,1.2-2.8,1.9-4.4,2.1
					c-0.9,0.1-2-0.8-3.2-1c-1.2-0.2-2.5,0.1-3.4,0.5c0.2,1.2,0.1,2.4,0.3,3.5c0.2,1.2,0.3,2.3,0.5,3.5c0.1,1.2,0.7,2.1,0.8,3.3
					c1.1-0.9,2.1-1.8,3.1-2.7c1.1-1,2-2.3,3.5-2.7c1.3-0.3,2.8,0.2,4.1,0.7c1.2,0.5,2.6,1.2,3.2,2.5c0.5,1.1,0.8,2.6,0.5,3.8
					c-0.3,1.2-1.4,2-2.5,2.7c-1.3,0.8-2.9,1-4.4,0.9c-0.7-0.1-2.2-0.7-3.7-0.9c-1.6-0.2-2.9-0.1-3.3,0.8c0,0.7,0,1.4,0,2.1
					c0.4,1.2,0.4,2.5,0,3.9c0,1.3-0.2,2.6-0.3,3.9c-0.1,1.3-0.6,2.6-0.7,3.9c-0.1,1.3,0.2,2.7,0,4c-0.2,1.3-0.4,2.6-0.6,3.9
					c-0.4,1.9-3.5,1-3.1-0.8c0.2-1.2,0.6-2.3,0.8-3.5c0.2-1.2-0.2-2.4-0.1-3.6c0.1-1.2,1.1-2.3,1.2-3.5c0.1-1.2-0.5-2.4-0.5-3.6
					c-0.2-0.4,0-0.8,0.2-1.3c0,0,0.2,0,0.2,0c0-1.1-0.5-2.2-0.5-3.3c-0.6-1-1.3-1.9-2.7-2.7c-1.1-0.6-2.5-0.8-3.8-1.4
					c-1.3-0.6-2.6-1.1-3.7-1.8c-1.3-0.8-1.9-2-2.5-3.1c-0.6-1.1-1.4-2.4-0.7-4c0.5-1.3,1.9-2.1,3.1-2.4c1.1-0.2,2.4,0.3,3.5,1.1
					c0.8,0.6,1.2,1.8,1.9,3c0.6,1,1.5,2,2.2,2.9c0.8,1.1,2,2,3.1,2.2c-0.1-1.6-0.4-3.4-0.6-5.1c-0.2-0.2-0.3-0.5-0.3-0.9
					c0-0.8-0.6-1.5-0.9-2.2c-0.3-0.2-0.7-0.5-0.8-0.9c-0.1-0.3,0.1-0.7,0-1c-0.6-0.9-1-2.1-2-2.7c-0.9-0.5-1.9-0.9-2.8-1.2
					c-1-0.3-2.1-0.2-3-0.7c-1.2-0.7-2.7-1.7-3.2-3c-0.5-1.3,0-2.9,1-4.2c1.1-1.5,2.2-2.1,3.4-1.8c1.1,0.2,2.1,1.3,3.3,2.4
					c0.9,0.9,1.8,1.8,2.6,3c-0.4-1.4-0.9-2.7-1.4-4.1c-0.8-0.6-1.5-1.6-2.6-2.1c-1-0.5-2.4-0.1-3.4-0.5
					C371.6,1048.3,370.7,1047.4,370,1047z"/>
			</g>
			<g id="XMLID_159_">
				<path id="XMLID_160_" class="st7" d="M911.2,947.9c-0.8-0.9-2.1-1.2-3.2-1.1c-1,0.1-2.1,0.6-3.1,1.1c-1.1,0.5-1.9,1.3-2.7,1.8
					c-1.1,0.8-2,1.7-3,2.6c-1,0.9-2.3,1.5-3.1,2.5c-0.8,1-1.3,2.7-2,3.9c-0.1-1.1,0-2.7-0.2-3.8c-0.2-1.1-1.1-2.2-1.2-3.3
					c-0.2-1.1-0.2-2.3-0.4-3.4c-0.2-1.1,0.4-2.4,0.3-3.5c0,0-0.4-0.1-0.4-0.1c1.1-0.8,2.4-1.5,3.5-2.3c1.1-0.8,2.3-1.6,3.3-2.5
					c1.1-0.9,2-2,3-2.9c1-0.9,2-1.9,3-2.9c0.5-0.6,1.7-1.5,2.7-2.7c0.9-1,1.9-2.1,2.2-3.2c0.4-1.2-0.3-2.3-1.8-3
					c-1.2-0.5-2.5-0.5-3.7,0c-1.1,0.5-2,1.5-3,2.4c-1.1,0.9-2.3,1.7-3,2.4c-0.9,0.9-1.7,1.8-2.5,2.8c-0.7,1-1.6,2-2.2,3
					c-0.6,1.1-0.9,2.3-1.4,3.5c0,0,0.1,0.1,0,0.1c-0.3-0.1-0.6-0.2-0.9-0.3c-0.1-0.2-0.5-0.4-0.6-0.5c-0.2-1.4-0.4-2.7-0.6-4.1
					c-0.2-1.4-0.2-2.7-0.5-4.1s-0.6-2.7-0.9-4c-0.3-1.3-0.1-2.7-0.4-4c1.2-0.6,2.1-1.4,3.2-2.1c1.1-0.7,2.4-1.1,3.5-1.9
					c1.1-0.8,1.9-1.9,2.9-2.7c1-0.8,2.2-1.5,3.2-2.4c1-0.9,2.1-1.7,3-2.6c0.9-1,1.6-2.2,2.4-3.2c0.7-0.9,0.2-2.2-1-2.2
					c-1.3,0-2.7-0.2-3.9,0c-1.3,0.3-2.3,1.3-3.5,1.8c-1.2,0.5-2.7,0.5-3.8,1.3c-1.1,0.7-2,1.7-2.9,2.7c-0.9,0.9-1.9,1.8-2.7,2.9
					c-0.7,1.1-1.2,2-1.6,3.2c-0.3-1.2-0.9-1.8-1.1-3s-0.6-2.3-0.9-3.5c-0.3-1.2-0.2-2.5-0.5-3.7c0.9-0.8,2.2-1.4,3.1-2.2
					c0.9-0.8,1.8-1.7,2.7-2.5c0.9-0.8,2.2-1.2,3.1-2c0.9-0.8,1.8-1.7,2.7-2.5c0.9-0.8,1.8-1.7,2.8-2.5c0.7-0.6,2.1-0.9,2.9-1.6
					c0.8-0.8,0.8-2,0.8-3.1c0-1.4-0.7-2.2-2-2.5c-1.2-0.3-2.5-0.6-3.7-0.2c-1.2,0.4-2.1,1.5-3.1,2.1c-1.2,0.7-2.6,1-3.4,1.7
					c-0.9,0.7-1.7,1.7-2.5,2.5c-0.8,0.9-1.8,1.6-2.5,2.6c-0.6,1-1.1,2-1.6,3.1c-0.4-0.2-0.6,0.2-1,0c-0.1-0.1,0.3-0.5,0.3-0.6
					c-0.3-1.3-0.5-2.7-0.8-4.1c-0.4-1.3-1.1-2.6-1.5-3.9c-0.4-1.3-1.1-2.7-1.5-4.1c0.7-1.1,2.3-1.7,3.1-2.7c0.8-1,1.5-2.2,2.4-3.1
					c0.9-0.9,1.8-1.9,2.7-2.8c0.9-1,1.6-2.1,2.5-3c0.8-1,2.1-1.8,2.8-2.9c0.7-1.1,1.2-2.4,1.6-3.7c0.4-1.2,0.2-2.6,0.2-3.9
					c0.1-1.2,0-2.4-0.3-3.8c-0.2-0.9-0.9-1.2-1.7-0.7c-1,0.6-1.8,1.5-2.7,2.2c-0.9,0.7-2,1.2-2.9,2c-0.9,0.8-2,1.4-2.7,2.3
					c-0.8,0.9-1.4,1.9-2.1,2.9c-0.7,1-0.8,2.2-1.4,3.3c-0.5,1-1.7,1.8-2.2,2.9c-0.4,1.1-0.6,2.2-0.9,3.3c-0.3-0.4-0.8-0.4-1.1-0.8
					c-0.3-1.1-0.5-2.5-0.8-3.5c0.9,0.2,2.5-0.4,2.2-1.6c-0.3-1.3-0.9-2.4-1.5-3.6c0.2-1.3,0.5-2.6,0.9-3.9c0.4-1.3,0.3-2.7,0.8-4
					c0.5-1.2,1.6-2.2,2.2-3.4c0.6-1.2,1.3-2.3,2.1-3.4c0.5-0.7,0.7-2,1.4-3c0.6-0.9,2-1.4,2.4-2.4c0.5-1.1,0.4-2.3,0.2-3.4
					c-0.2-0.9-0.8-1.7-2-2.5c-1.2-0.8-2.2-0.9-3.3-0.4c-0.9,0.4-2.2,0.9-3,2.1c-0.6,0.9-1.1,2.1-1.6,3.3c-0.5,1-0.8,2.2-1.2,3.4
					c-0.4,1.1-0.9,2.2-1.3,3.4c-0.3,1.2-0.5,2.4-0.7,3.5c-0.3,1.2-0.5,2.6-0.7,3.7c-0.7-1.6-1.1-3.4-2.1-4.8c-0.4-1.1-1-2-1.4-3
					c-0.4-1.1-0.9-2.1-1.3-3.2c-0.4-1.1-0.6-2.2-1-3.2c0.9-0.8,1.9-1.6,2.8-2.4c0.9-0.8,1.6-1.9,2.5-2.8c0.9-0.8,2.2-1.3,3-2.1
					c0.9-0.9,1.7-1.8,2.5-2.7c1-1,2-2.5,2.4-3.9c0.3-1.4-0.3-2.8-1.8-3.8c-1-0.7-2.1-1.3-3.2-1c-1,0.3-1.7,1.5-2.6,2.3
					c-1,0.7-2.1,1.2-2.8,1.9c-0.9,1-1.5,2.2-2.2,3.4c-0.7,1.1-1.9,2-2.4,3.3c0,0,0.5-0.3,0.5-0.3c-0.8-0.5-1.8-0.7-2.2-1.3
					c-0.3-0.8,0-1.8-0.3-2.6c-0.1-1.1-0.5-2.2-0.2-3.4c0.3-1.1,0.7-2.3,1.2-3.3c0.5-1.1,1.1-2.2,1.7-3.1c0.7-1.1,1.4-2.1,1.9-3
					c0.5-0.8,1.5-1.7,1.9-2.8c0.4-1,0.4-2.3,0.6-3.3c0.2-1.2,0.7-2.3,0.5-3.4c-0.3-1.1-0.9-2.2-1.9-2.9c-1.5-1-3.1-0.8-4.3-0.1
					c-1.1,0.7-2.2,1.8-3,3.1c-0.8,1.3-1.3,2.9-1.7,3.9c-0.4,1.2-0.9,2.4-1.1,3.6c-0.3,1.2,0.1,2,0,3.2c-0.5-1.4-0.8-2.6-1.3-4
					c0,0,0,0.2,0,0.2c0.2-1.6-0.3-3.4-0.1-5c0-0.1,0.4-0.3,0.4-0.4c0.1-1.2,0.6-2.3,0.8-3.4c0.1-1.2-0.1-2.4,0-3.5
					c0.1-1.2,0.5-2.3,0.6-3.5c0.1-1.2-0.6-2.4-0.5-3.6c0.1-1.2,0.3-2.3,0.4-3.5c0.1-1.2,0.4-2.3,0.5-3.5c0.1-1.2,0.2-2.3,0.2-3.5
					c0-0.6-0.5-1.1-1.1-1.2c-1.6-0.3-3.1-0.5-4.1,0.1c-1.1,0.7-2,2.1-2.5,3.4c-0.5,1.2-0.3,2.8-0.4,4.1c-0.1,1.4,0.1,2.8,0.1,4.2
					c0,1.4-0.1,2.9,0.1,4.3c-0.3-1-0.6-2.2-0.9-3.2c-0.3-1-0.5-2-0.8-3c0.1-0.1-0.4-0.2-0.4-0.4c0.2-1.2,0.6-2.3,0.8-3.4
					c0.2-1.2,0-2.4,0.2-3.5s0.5-2.3,0.7-3.5s0.6-2.3,0.8-3.4c0.2-1.2,0.7-2.3,0.8-3.4c0.1-0.9,0.4-2.3,0.6-3.7
					c0.2-1.3,0.2-2.8-0.1-3.9c-0.3-1.2-1.5-2.5-3-2.7c-1.4-0.2-2.8,0.8-3.6,1.9c-0.6,1-1,2.4-1.3,3.7c-0.3,1.5,0.1,3,0,3.9
					c-0.2,1.2-0.7,2.1-0.8,3.3c-0.3-1.1-0.8-1.8-1.1-2.8c-0.3-1.1,0.1-2.3-0.2-3.4c-0.3-1.1-1.5-2.1-1.7-3.1
					c0.4-0.2,1.2-0.6,1.2-1.1c0-0.7,0.1-1.5,0-2.3c0.4-1.1,0.6-2.3,1-3.5c0.4-1.2,0.5-2.4,0.8-3.5c0.3-1.2,0.6-2.3,0.9-3.5
					c0.3-1.2,1.3-2.2,1.5-3.4c0.3-1.2,0.4-2.4,0.6-3.6c0.2-1.2-0.3-2.5-0.2-3.7c0.1-0.9-0.1-2.1-1.2-1.7c-1.3,0.5-2.4,1.1-3.2,1.8
					c-1,0.8-1.8,1.8-2.4,2.9c-0.5,1.1-1,2.3-1.2,3.5c-0.2,1.2-0.3,2.4-0.4,3.7c0,1.2,0.4,2.6,0.5,3.8c-0.2-1.2-0.4-2.5-0.6-3.6
					c-0.2-1.2-0.6-2.3-0.8-3.4c-0.2-1.2-0.2-2.3-0.4-3.5c0,0-0.4-0.2-0.4-0.2c0.7-1,1.5-1.8,2.1-2.8c0.6-1,0.9-2.2,1.4-3.2
					c0.5-1.1,1.6-1.9,2-3c0.4-1.1,0.2-2.4,0.5-3.6c0.3-1.1,0.9-2.2,1.1-3.3c0.2-1.2,0.7-2.3,0.9-3.4c0.1-1.2,0.5-2.4,0.5-3.5
					c0-0.9-1.7-1.9-2.5-1.3c-1,0.7-1.8,1.6-2.6,2.5c-0.8,0.9-1.7,1.8-2.4,2.7c-0.7,1-1,2.2-1.5,3.3c-0.5,1.1-0.8,2.2-1.1,3.4
					c-0.3,1.2-1.4,2.2-1.5,3.4c-0.1,1.2,0.1,2.5,0.1,3.7c0,1.2,0.6,2.4,0.8,3.6c-0.1,0.2-0.3,0.5-0.3,0.8c0.2,1,0,2,0.2,3
					c0.2,1,0.5,1.9,0.7,2.9c-0.6-0.8-1.7-1.3-2.5-2c-0.8-0.8-1.5-1.4-2.5-1.8c-1-0.4-2-1-3.1-0.7c-1.8,0.5-2.2,2.1-2.4,3.5
					c-0.2,1.4-0.1,2.9,0.9,4.2c0.8,1,1.6,2,2.6,2.9c1,0.8,2.2,1.3,3.2,2.1c1.2,1,2.4,1.9,3.5,2.9s2.1,2.2,3.2,3.2c0,0,0.2-0.1,0.3,0
					c0.1,0.3,0.1,0.6,0.1,0.9c-0.2,0.5-0.3,1.1-0.6,1.6c-0.4,1,0.5,1.6,1.4,1.5c0.4,1.5,1,3,1.4,4.4c-0.3-0.4-1.2-0.7-1.5-1.1
					c-0.7-0.8-1.3-1.9-2.1-2.7c-0.8-0.8-1.9-1.2-2.8-1.8c-1-0.6-1.9-1.3-3-1.4c-1,0-2,0.4-3.1,1.1c-1.3,0.8-2.4,1.6-2.6,2.6
					c-0.1,1.1,0.6,2.5,1.3,3.6c0.7,1,1.6,2,2.5,2.7c1,0.7,1.9,1.6,2.9,2.3c1,0.7,2.4,0.9,3.4,1.6c1,0.7,1.5,2.1,2.5,2.8
					c1,0.7,2.2,1.1,3.2,1.9s1.9,1.5,2.9,2.2c0.3,1,0.5,1.9,0.8,2.8c0.3,0.9,1.1,2.3,1.4,3.2c-0.7-0.7-1.6-2.3-2.6-3.1
					c-0.9-0.7-2.2-1-3.2-1.5c-1.1-0.6-2.1-1.4-3.2-1.5c-1.2-0.2-2.6-0.2-3.7,0.3c-1.6,0.8-2.4,2.9-2.1,4.8c0.2,1.1,0.4,2.2,1.2,2.9
					c0.8,0.7,2.2,0.7,3,1.3c1,0.6,1.6,1.8,2.6,2.5c1,0.6,2.2,1,3.2,1.6c1,0.6,2.1,1.1,3.1,1.8c1,0.6,2.1,1.1,3.1,1.7
					c1,0.6,1.9,1.4,3,2c0.4,1.1,1.1,2.2,1.5,3.3c0.4,1.1,0.5,2.4,0.9,3.5c-0.1,0.5,0.2,0.8,0.5,1.1c0,0.1-0.1,0.4-0.1,0.5
					c-0.8-0.7-1.5-1.6-2.4-2.2c-0.8-0.5-1.7-1.4-2.9-1.9c-1-0.4-2.2-0.8-3.3-1c-1.1-0.2-2.4-0.2-3.5-0.1c-1.1,0.2-1.9,1.3-2.7,2.1
					c-1,1-1.8,2-1.6,3.1c0.2,1.1,1.2,2.1,2.1,2.9c0.9,0.8,2,1.4,3.1,1.6c1.5,0.2,3-0.4,4.4-0.4c1.5-0.1,2.8,0.8,4.3,1.2
					c1.7,0.5,3.5,0.7,4.8,1.7c0.5,0.9,0.4,2.1,0.8,3c0.5,1.3,1.1,2.2,1.6,3.6c-1-0.7-1.7-1.5-2.8-2c-1.1-0.5-2.6-0.2-4-0.5
					c-1.3-0.2-2.5-0.1-3.8,0.1c-1.3,0.2-2.5,0.3-3.6,1.2c-1.1,0.9-1.9,1.9-1.9,3c0,1.1,1.1,2,2,2.9c0.8,0.8,1.8,1.4,2.9,1.6
					c1.4,0.3,2.8,0.2,4.2,0.2c1.4,0,2.8,0.3,4.2,0.5c1,0.1,2-0.1,2.9,0.1c1,0.2,1.7,0.7,2.6,1c0.4,1.2,1.4,2.2,1.8,3.4
					c0,0-0.6-0.3-0.6-0.3c-0.9,0.9,0.2,2.5,1.1,2.6c0.5,1.3,1.1,2.6,1.6,3.9c-0.8-0.6-2-1.4-3-1.9c-1-0.5-1.9-1.4-3-1.7
					c-1.1-0.4-2.4,0.1-3.4,0.1c-1.1,0.1-2.6-0.1-3.3,0.9c-0.6,0.8,0,2.1,0.2,3.1c0.2,1,0.6,1.7,1.4,2.3c1.1,0.9,2.1,2.1,3.5,2.5
					c1.4,0.4,3.2-0.3,4.5,0.3c1.3,0.6,2.6,1.4,3.8,2.2c1.2,0.8,2.2,2,3.2,3.1c0.5,1.4,0.6,2.9,1,4.2c0.4,1.4,1.4,2.6,1.8,3.9
					c0.1,0.3-0.5,1.1-0.4,1.4c-1.4-1.1-2.6-2.7-4.3-3.5c-1-0.4-2.3-0.5-3.6-0.9c-1.1-0.4-2.3-0.5-3.5-0.7c-1.2-0.2-2.4-0.8-3.6-0.6
					c-1.3,0.1-2.4,0.7-3.4,1.4c-1.4,1-2.3,2.3-2.1,3.4c0.2,1.2,1.1,2.7,2.2,3.6c1.1,0.8,2.7,0.5,4,0.7c1.1,0.1,2.2,0.9,3.3,0.9
					c1.1,0,2.2,0.2,3.3,0.3c1.1,0.1,2.2,0,3.3,0.3c1.3,0.4,2.5,1.1,3.6,1.7c1.2,0.7,2.2,1.3,3.3,2.1c0.4,1.2,1,2.3,1.4,3.6
					c-0.2,0.4-0.5,0.7-0.7,1c-0.6,1.1,0.5,2.4,1.4,2.2c0.3,1.1,0.8,2,1.1,3.1c0.3,1.1,0.5,2.2,0.8,3.2c-1.3-0.9-2.8-1.4-4.3-2
					c-0.9-0.3-1.9-1.1-3.1-1.4c-1.1-0.3-2.3-0.4-3.4-0.5c-1.2-0.1-2.4,0-3.4,0.1c-1.2,0.2-2,1-2.9,1.6c-1.3,1-1.3,2.3-0.5,3.6
					c1,1.7,2.5,2.4,4.3,2.3c1.4-0.1,2.9,0,4.2-0.2c1.4-0.2,2.7-0.7,4.1-0.5c1.1,0.1,2.3-0.1,3.3,0.2c1,0.3,1.5,1.4,2.5,1.8
					c0.3,1.1,0.9,2,1.2,3.1c0.3,1.1,0.6,2.3,0.9,3.4c0.3,1.1,0.8,2.2,1.1,3.4s0.3,2.4,0.6,3.6c-0.9-0.8-1.7-2-2.6-2.7
					c-0.9-0.8-2.3-1-3.3-1.7c-1-0.7-1.8-1.8-2.8-2.4c-1.1-0.6-2.3-1-3.4-1.4c-1.1-0.4-2.4-0.4-3.6-0.6c-1.2-0.2-2.4,0-3.6,0
					c-1.4,0-1.6,1.2-0.6,2c0.9,0.7,2.1,1.1,3,1.8c1,0.7,1.4,2.1,2.4,2.7c1,0.6,2.2,0.8,3.2,1.4c1,0.6,2,1.3,3,1.8
					c1,0.6,2,1.2,3.1,1.7c1,0.5,2.1,1,3.2,1.5c1.1,0.5,2.1,0.9,3.2,1.4c0.3,1.3,0.6,2.6,0.9,3.9c0.3,1.3,0.5,2.6,0.7,3.9
					c0.3,1.3,0.3,2.3,0.5,3.6c-0.8-1-1.3-1.7-2.2-2.5c-0.9-0.8-2.2-1.2-3.2-1.9c-1-0.7-1.7-1.8-2.8-2.4c-1.1-0.6-2.4-0.7-3.5-1.1
					c-0.9-0.4-1.8,0.4-1.4,1.3c0.5,1.1,0.8,2.3,1.4,3.4c0.6,1.1,1.5,2,2.2,3c0.7,1,1.2,2.2,2.1,3.1c0.9,0.9,2.1,1.3,3,2.1
					c1,0.8,1.9,1.6,2.9,2.2c1,0.6,2.5,0.9,3.7,1.4c0.2,1.3,0,2.9,0.2,4.3c0.2,1.3,0.4,2.6,0.6,3.9c0.2,1.3,0.3,2.1,0.5,3.5
					c-0.7-1.1-1.7-1.5-2.5-2.5c-0.8-1.1-1.3-2.4-2.3-3.3c-1-0.9-1.9-1.9-3-2.6c-1.1-0.7-2.2-1.7-3.4-2.2c-1.2-0.5-2.6-0.5-4-0.8
					c-1-0.2-2,0.7-1.2,1.7c0.7,1,1.5,1.9,2.3,2.9c0.8,1,1.5,1.9,2.4,2.9c0.8,0.9,1.6,1.9,2.5,2.8c0.8,0.9,1.7,1.8,2.6,2.7
					c0.9,0.9,1.6,1.9,2.5,2.8c0.9,0.8,1.8,1.7,2.8,2.5c0.9,0.8,1.5,2,2.5,2.8c0,0.1,0-0.3,0-0.1c-0.9,0.7-0.5,2.3,0.3,2.7
					c0.1,1.2,0.3,2.2,0.4,3.4c0.1,1.2,0.8,2.3,0.9,3.4c0.1,1.2-0.5,2.4-0.4,3.6c0.1,1.2,0.4,2.3,0.5,3.5s0.7,2.3,0.8,3.5
					c0.1,1.2-0.2,2.4-0.1,3.5c0.1,1.2,0.1,2.3,0.1,3.5s0,2.4,0,3.5c0.1,1.2,0.5,2.3,0.6,3.5c0.1,1.2,0.5,2.3,0.6,3.5
					c0.1,1.3-0.8,2.6-0.8,3.8c0,1.3,0.3,2.5,0.3,3.8c0,1.3-0.1,2.5-0.1,3.8c0,1.3,0.2,2.5,0.2,3.8c0,1.3,0.6,2.5,0.6,3.8
					s-0.8,2.5-0.8,3.8s0.5,2.5,0.5,3.8c0,1.3-0.1,2.5-0.1,3.8c0,1.3,0.3,2.5,0.3,3.8c0,1.3-0.4,2.5-0.4,3.8c0,1.3-0.2,2.5-0.2,3.8
					s-0.1,2.5-0.2,3.8c-0.1,1.3-0.8,2.5-0.8,3.8c-0.1,1.3,0.3,2.6,0.3,3.8c-0.1,1.3,0.2,2.6,0.1,3.8s-0.6,2.5-0.7,3.7
					c-0.1,1.3-0.2,2.5-0.3,3.8s-0.7,2.5-0.8,3.7c-0.1,1.3,0.6,2.6,0.4,3.9c-0.2,1.7,2.4,1.7,2.6,0c0.1-1.2,0.3-2.5,0.4-3.7
					c0.1-1.2-0.4-2.5-0.2-3.8c0.1-1.2,0.6-2.4,0.7-3.7c0.1-1.2,0.5-2.4,0.6-3.7s-0.4-2.5-0.3-3.8c0.1-1.2,0.6-2.4,0.7-3.7
					c0.1-1.2,0.2-2.5,0.3-3.7c0.1-1.2,0.3-2.5,0.3-3.7s-0.2-2.5-0.2-3.7s-0.3-2.5-0.2-3.7c0-1.2,0.1-2.5,0.1-3.7
					c0-1.2,0.4-2.5,0.4-3.7s0-2.5,0.1-3.7c0-1.2,0.3-2.5,0.3-3.7c0-1.2,0-2.5,0-3.7c0-1.2-0.3-2.5-0.3-3.7c0-1.2-0.5-2.5-0.5-3.7
					c0-1.2,0-2.5-0.1-3.7c0-1.2,0.2-2.5,0.1-3.7c0-1.2,0.2-2.5,0.2-3.7c-0.1-1.2-0.4-2.5-0.5-3.7c-0.1-1.2-0.2-2.5-0.3-3.7
					c-0.1-1.2,0.2-2.5,0.1-3.7c-0.1-1.2-0.7-2.4-0.8-3.7c-0.1-1.2,0.2-2.5,0.1-3.7s-0.4-2.5-0.5-3.7c-0.1-1.2,0-2.5-0.1-3.7
					c-0.1-1.2-0.4-2.5-0.5-3.7c-0.1-1.2,0.2-2.3,0.1-3.5c0.7,0.1,0.6-0.9,0.7-1.6c1-0.6,2.1-1,3.1-1.6s2.1-0.9,3.1-1.5
					s1.7-1.6,2.6-2.2c1-0.6,2.2-0.7,3.2-1.3c0.8-0.5,1.6-1.4,2.4-2.2c0.8-0.8,1.2-1.8,1.4-2.7C911.9,950,912,948.8,911.2,947.9z"/>
			</g>
		</g>
	</g>
</g>
<g id="Layer_5">
</g>
<g id="Layer_4">
</g>
<g id="Layer_3">
</g>
<g id="Layer_2">
</g>
</svg>
